<svg id="Layer_1" data-name="Layer 1" xmlns="http://www.w3.org/2000/svg" width="2080.7" height="1146" viewBox="0 0 2080.7 1146">
  <defs>
    <style>
      .cls-1 {
        fill: #f3f3f3;
      }

      .cls-2 {
        fill: #5088c7;
      }

      .cls-3 {
        font-size: 50.53px;
      }

      .cls-3, .cls-9 {
        fill: #fff;
      }

      .cls-3, .cls-6, .cls-7 {
        font-family: Poppins-Bold, Poppins;
        font-weight: 700;
      }

      .cls-4 {
        fill: none;
        stroke: #c9c9c9;
        stroke-miterlimit: 10;
        stroke-width: 10px;
      }

      .cls-5, .cls-7 {
        fill: #f68c6a;
      }

      .cls-6, .cls-7 {
        font-size: 25px;
      }

      .cls-6 {
        fill: #2b2b2b;
        letter-spacing: 0.05em;
      }

      .cls-7 {
        letter-spacing: 0.03em;
      }

      .cls-8 {
        fill: #fdfefe;
      }

      .cls-10 {
        fill: #010101;
      }

      .cls-11 {
        fill: #c9c9c9;
      }
    </style>
  </defs>
  <title>other99</title>
  <rect class="cls-1" x="-23.2" width="2109" height="1171.5"/>
  <rect class="cls-2" x="470.1" y="-23.2" width="1134" height="119.23"/>
  <text class="cls-3" transform="translate(514.2 69.1)"><tspan xml:space="preserve">OUR PROCESS : WHAT MAKES US  BETTER!!</tspan></text>
  <line class="cls-4" x1="366.2" y1="469" x2="1722.5" y2="469"/>
  <line class="cls-4" x1="1712.2" y1="940.8" x2="367.3" y2="940.8"/>
  <circle class="cls-5" cx="375.5" cy="467" r="23.4"/>
  <circle class="cls-5" cx="1241" cy="939.7" r="23.4"/>
  <text class="cls-6" transform="translate(242.3 583.5)">CUSTOMER JOURNEY<tspan x="77.6" y="30">MAPPING</tspan></text>
  <text class="cls-7" transform="translate(367.3 539.8)">01</text>
  <circle class="cls-5" cx="692.5" cy="467" r="23.4"/>
  <text class="cls-6" transform="translate(579.7 583.5)">USER RESEARCH’S<tspan x="54.2" y="30">ANALYSIS</tspan></text>
  <text class="cls-7" transform="translate(681.9 539.8)">02</text>
  <circle class="cls-5" cx="371.8" cy="311.1" r="72.6"/>
  <g>
    <path class="cls-8" d="M424.9,362.8,407.5,292H358.9a4.5,4.5,0,0,0-3.1,1.3l-4.5,4.5a4.5,4.5,0,0,1-6.3,0l-4.5-4.5a4.5,4.5,0,0,0-3.1-1.3h-4.9l-17.4,70.8a14.1,14.1,0,0,0-.4,3.4v.8a17.8,17.8,0,0,0,17.8,17.8H378a4.5,4.5,0,0,0,3.1-1.3l4.5-4.5a4.5,4.5,0,0,1,6.3,0l4.5,4.5a4.5,4.5,0,0,0,3.1,1.3h8A17.8,17.8,0,0,0,425.3,367v-.8A14.1,14.1,0,0,0,424.9,362.8Z"/>
    <path class="cls-8" d="M363.2,322.5V292h-4.2a4.5,4.5,0,0,0-3.1,1.3l-4.5,4.5a4.5,4.5,0,0,1-6.3,0l-4.5-4.5a4.5,4.5,0,0,0-3.1-1.3h-4.9l-17.4,70.8a14.1,14.1,0,0,0-.4,3.4v.8a17.8,17.8,0,0,0,17.8,17.8H378a4.5,4.5,0,0,0,3.1-1.3l4.5-4.5a4.5,4.5,0,0,1,6.3,0l4.5,4.5a4.5,4.5,0,0,0,3.1,1.3h8A17.8,17.8,0,0,0,425.3,367H407.7a44.5,44.5,0,0,1-44.5-44.5Z"/>
    <path class="cls-9" d="M314.7,291.2V367a17.8,17.8,0,0,1,14.2-17.4,4.4,4.4,0,0,0,3.6-4.3V278.6a4.4,4.4,0,0,0-5.9-4.2,17.8,17.8,0,0,0-11.9,16.8Z"/>
    <path class="cls-9" d="M413.4,274.4a4.4,4.4,0,0,0-5.9,4.2v36.7a4.5,4.5,0,0,0,1.3,3.1l4.5,4.5a4.5,4.5,0,0,1,0,6.3l-4.5,4.5a4.5,4.5,0,0,0-1.3,3.1v8.4a4.4,4.4,0,0,0,3.6,4.3A17.8,17.8,0,0,1,425.3,367V291.2a17.8,17.8,0,0,0-11.9-16.8Z"/>
    <circle class="cls-9" cx="350.8" cy="313.2" r="6.7"/>
    <g>
      <path class="cls-10" d="M413.9,272.8a6.1,6.1,0,0,0-8.1,5.8v11.7H358.9a6.1,6.1,0,0,0-4.3,1.8l-4.5,4.5a2.8,2.8,0,0,1-3.9,0l-4.5-4.5a6.1,6.1,0,0,0-4.3-1.8h-3.3V278.6a6.1,6.1,0,0,0-2.6-5,6,6,0,0,0-5.5-.8,19.5,19.5,0,0,0-13,18.4V367a19.5,19.5,0,0,0,19.5,19.5H378a6.1,6.1,0,0,0,4.3-1.8l4.5-4.5a2.8,2.8,0,0,1,3.9,0l4.5,4.5a6.1,6.1,0,0,0,4.3,1.8h8a19.4,19.4,0,0,0,11.2-3.6,1.7,1.7,0,1,0-1.9-2.7,16,16,0,0,1-9.3,3h-8a2.8,2.8,0,0,1-2-.8l-4.5-4.5a6.1,6.1,0,0,0-8.7,0l-4.5,4.5a2.8,2.8,0,0,1-2,.8H332.5a16.1,16.1,0,0,1-3.3-31.9,6.1,6.1,0,0,0,4.9-6V333.9a1.7,1.7,0,1,0-3.3,0v11.3a2.8,2.8,0,0,1-2.3,2.7,19.5,19.5,0,0,0-12.2,8.2V291.2A16.2,16.2,0,0,1,327.1,276a2.7,2.7,0,0,1,2.5.4,2.8,2.8,0,0,1,1.2,2.3v48.6a1.7,1.7,0,0,0,3.3,0V293.7h3.3a2.8,2.8,0,0,1,2,.8l4.5,4.5a6.1,6.1,0,0,0,8.7,0l4.5-4.5a2.8,2.8,0,0,1,2-.8h46.9v21.6a6.1,6.1,0,0,0,1.8,4.3l4.5,4.5a2.8,2.8,0,0,1,0,3.9l-4.5,4.5a6.1,6.1,0,0,0-1.8,4.3v8.4a6.1,6.1,0,0,0,4.9,6,16.1,16.1,0,0,1,10.1,24.9,1.7,1.7,0,1,0,2.8,1.9A19.4,19.4,0,0,0,427,367V291.2a19.5,19.5,0,0,0-13-18.4Zm-2.5,75.1a2.8,2.8,0,0,1-2.3-2.7v-8.4a2.8,2.8,0,0,1,.8-2l4.5-4.5a6.1,6.1,0,0,0,0-8.7l-4.5-4.5a2.8,2.8,0,0,1-.8-2V278.6a2.8,2.8,0,0,1,2.8-2.8l.9.2a16.2,16.2,0,0,1,10.8,15.2v64.9A19.5,19.5,0,0,0,411.4,347.9Z"/>
      <path class="cls-10" d="M359.2,313.2a8.3,8.3,0,1,0-8.3,8.3A8.4,8.4,0,0,0,359.2,313.2Zm-8.3,5a5,5,0,1,1,5-5A5,5,0,0,1,350.8,318.3Z"/>
      <path class="cls-10" d="M397,343.6a1.7,1.7,0,0,0-2.4,0l-3.3,3.3-3.3-3.3a1.7,1.7,0,0,0-2.4,2.4l3.3,3.3-3.3,3.3a1.7,1.7,0,0,0,2.4,2.4l3.3-3.3,3.3,3.3a1.7,1.7,0,1,0,2.4-2.4l-3.3-3.3L397,346a1.7,1.7,0,0,0,0-2.4Z"/>
      <path class="cls-10" d="M366.4,314.9h1.7a1.7,1.7,0,1,0,0-3.3h-1.7a1.7,1.7,0,0,0,0,3.3Z"/>
      <path class="cls-10" d="M392.1,324h.1a1.7,1.7,0,0,0,1.7-1.6q0-.3,0-.5a10.3,10.3,0,0,0-.6-3.3,1.7,1.7,0,0,0-3.2,1.1,6.9,6.9,0,0,1,.4,2.3q0,.2,0,.4a1.7,1.7,0,0,0,1.6,1.8Z"/>
      <path class="cls-10" d="M379.6,313.2a1.7,1.7,0,0,0-1.7-1.7h-3.3a1.7,1.7,0,1,0,0,3.3h3.3A1.7,1.7,0,0,0,379.6,313.2Z"/>
      <path class="cls-10" d="M382,330.5a1.7,1.7,0,0,0-1.7-1.7h-3.3a1.7,1.7,0,0,0,0,3.3h3.3A1.7,1.7,0,0,0,382,330.5Z"/>
      <path class="cls-10" d="M387.6,315.9a1.7,1.7,0,0,0,.8-3.1,10.2,10.2,0,0,0-3.7-1.1,1.7,1.7,0,1,0-.3,3.3,6.9,6.9,0,0,1,2.5.8l.8.2Z"/>
      <path class="cls-10" d="M386.8,331.6h.6a10.3,10.3,0,0,0,3.3-2.1,1.7,1.7,0,0,0-2.3-2.4,6.9,6.9,0,0,1-2.2,1.4,1.7,1.7,0,0,0,.6,3.2Z"/>
      <path class="cls-10" d="M359.5,371.5h.4a11.9,11.9,0,0,0,3.4-1.6,1.7,1.7,0,1,0-1.9-2.8,8.6,8.6,0,0,1-2.5,1.1,1.7,1.7,0,0,0,.4,3.3Z"/>
      <path class="cls-10" d="M357.4,332.2h3.3a1.7,1.7,0,0,0,0-3.3h-3.3a1.7,1.7,0,0,0,0,3.3Z"/>
      <path class="cls-10" d="M349.2,369.2a12,12,0,0,0,3.3,1.9h.6a1.7,1.7,0,0,0,.6-3.2,8.7,8.7,0,0,1-2.4-1.4,1.7,1.7,0,1,0-2.1,2.6Z"/>
      <path class="cls-10" d="M365.9,365h.6A1.7,1.7,0,0,0,368,364a12,12,0,0,0,.7-3.7,1.7,1.7,0,0,0-1.6-1.7h-.1a1.7,1.7,0,0,0-1.7,1.6,8.7,8.7,0,0,1-.5,2.7,1.7,1.7,0,0,0,1,2.1Z"/>
      <path class="cls-10" d="M346.4,344.5a1.7,1.7,0,0,0,1.7-1.7v-3.3a1.7,1.7,0,0,0-3.3,0v3.3A1.7,1.7,0,0,0,346.4,344.5Z"/>
      <path class="cls-10" d="M344.7,352.7a1.7,1.7,0,0,0,3.3,0v-3.3a1.7,1.7,0,0,0-3.3,0Z"/>
      <path class="cls-10" d="M349.7,334.6a7,7,0,0,1,2.1-1.6,1.7,1.7,0,1,0-1.6-3,10.3,10.3,0,0,0-3,2.4,1.7,1.7,0,0,0,2.5,2.2Z"/>
      <path class="cls-10" d="M344.7,359.9a12,12,0,0,0,.4,3.1,1.7,1.7,0,0,0,1.6,1.2h.4a1.7,1.7,0,0,0,1.2-2,8.7,8.7,0,0,1-.3-2.2v-.6a1.7,1.7,0,0,0-3.3,0Z"/>
      <path class="cls-10" d="M370.5,328.8h-3.3a1.7,1.7,0,0,0,0,3.3h3.3a1.7,1.7,0,1,0,0-3.3Z"/>
      <path class="cls-10" d="M369.6,354.6a7,7,0,0,1,1.7-2,1.7,1.7,0,1,0-2.1-2.6,10.3,10.3,0,0,0-2.5,3,1.7,1.7,0,0,0,.7,2.3l.8.2A1.7,1.7,0,0,0,369.6,354.6Z"/>
      <path class="cls-10" d="M376.3,350.9H378a1.7,1.7,0,1,0,0-3.3h-1.7a1.7,1.7,0,1,0,0,3.3Z"/>
    </g>
  </g>
  <circle class="cls-5" cx="699.5" cy="316.1" r="72.6"/>
  <circle class="cls-9" cx="679.7" cy="300.2" r="7.9"/>
  <circle class="cls-9" cx="731.2" cy="321.9" r="7.9"/>
  <circle class="cls-9" cx="696.5" cy="353.7" r="27.4"/>
  <rect class="cls-9" x="705.5" y="320.6" width="51.6" height="36"/>
  <path class="cls-10" d="M696.3,333.4a20.3,20.3,0,1,0,20.3,20.3A20.3,20.3,0,0,0,696.3,333.4Zm0,36.8a16.6,16.6,0,1,1,16.6-16.6A16.6,16.6,0,0,1,696.3,370.3Z"/>
  <rect class="cls-9" x="658.7" y="373.9" width="11.5" height="24.04" transform="translate(467.5 -356.8) rotate(45)"/>
  <rect class="cls-9" x="671.8" y="371.6" width="7.4" height="4.68" transform="translate(402.5 -348.3) rotate(40.3)"/>
  <path class="cls-9" d="M653.5,299.3h47.8a7.7,7.7,0,0,1,7.7,7.7v26.5a0,0,0,0,1,0,0H653.5a0,0,0,0,1,0,0V299.3A0,0,0,0,1,653.5,299.3Z"/>
  <path class="cls-10" d="M734.9,359.2v9l13.4-9h3.1a9.2,9.2,0,0,0,9.2-9.2V327.9a9.2,9.2,0,0,0-9.2-9.2h-9.9a11,11,0,0,0-20.8,0H711l-1.8.2V305.8a9.2,9.2,0,0,0-9.2-9.2h-9.9a11,11,0,0,0-20.8,0h-9.9a9.2,9.2,0,0,0-9.2,9.2v22.1a9.2,9.2,0,0,0,9.2,9.2h14.8a27.4,27.4,0,0,0-1.1,31.6l-2.6,2.6-1.8-1.8-16,16a8.4,8.4,0,0,0,11.8,11.8l16-16-1.8-1.8,2.6-2.6a27.6,27.6,0,0,0,42.1-17.6Zm7.4-36.8h9.2a5.5,5.5,0,0,1,5.5,5.5V350a5.5,5.5,0,0,1-5.5,5.5h-4.2l-8.6,5.8v-5.8H723.8c0-.6.1-1.2.1-1.8s-.1-1.2-.1-1.8h25.9v-3.7a18.4,18.4,0,0,0-11.6-17.1A11,11,0,0,0,742.3,322.4Zm-5.7,25.8-1.1-14.1A14.8,14.8,0,0,1,746,348.2Zm-4.9-14.7,1.2,14.7h-3.4l1.2-14.7h1Zm-5.9,14.7h-2.5a27.4,27.4,0,0,0-3.7-9.1,14.7,14.7,0,0,1,7.3-5Zm5.4-33.1a7.4,7.4,0,1,1-7.4,7.4A7.4,7.4,0,0,1,731.2,315Zm-11,7.4a11,11,0,0,0,4.2,8.7,18.4,18.4,0,0,0-7,4.9,27.7,27.7,0,0,0-11.9-8.3,5.5,5.5,0,0,1,5.5-5.3Zm-29.5-22.1h9.2a5.5,5.5,0,0,1,5.5,5.5v14.8a9.2,9.2,0,0,0-3.6,6.1l-3.8-.5h0A18.4,18.4,0,0,0,686.5,309,11,11,0,0,0,690.7,300.3ZM665,326.1A14.8,14.8,0,0,1,675.4,312l-1.1,14.1Zm14.2-14.7h1l1.2,14.7H678Zm4.8.6a14.8,14.8,0,0,1,10.5,14.1h-9.3Zm-4.3-19a7.4,7.4,0,1,1-7.4,7.4A7.4,7.4,0,0,1,679.7,292.9Zm-25.8,35V305.8a5.5,5.5,0,0,1,5.5-5.5h9.2a11,11,0,0,0,4.2,8.7,18.4,18.4,0,0,0-11.6,17.1v3.7h21.3a27.7,27.7,0,0,0-5,3.7H659.4A5.5,5.5,0,0,1,653.9,327.9Zm8,66.8a4.7,4.7,0,1,1-6.6-6.6l13.4-13.4,6.6,6.6ZM676,376.9l-2.9-2.9,2.3-2.3a28,28,0,0,0,2.9,2.9Zm20.3.8a23.9,23.9,0,1,1,23.9-23.9A24,24,0,0,1,696.3,377.6Z"/>
  <rect class="cls-9" x="723.9" y="373.9" width="36.8" height="23.94"/>
  <path class="cls-10" d="M758.9,370.3H725.7a5.5,5.5,0,0,0-5.5,5.5v22.1a5.5,5.5,0,0,0,5.5,5.5h33.1a5.5,5.5,0,0,0,5.5-5.5V375.8A5.5,5.5,0,0,0,758.9,370.3Zm1.8,27.6a1.8,1.8,0,0,1-1.8,1.8H725.7a1.8,1.8,0,0,1-1.8-1.8V375.8a1.8,1.8,0,0,1,1.8-1.8h33.1a1.8,1.8,0,0,1,1.8,1.8Z"/>
  <path class="cls-10" d="M753.3,381.3h-3.7v11H746V385h-3.7v7.4h-3.7v-3.7h-3.7v3.7h-3.7V377.6h-3.7V396H757v-3.7h-3.7Z"/>
  <path class="cls-10" d="M749.7,326.1h3.7v3.7h-3.7Z"/>
  <path class="cls-10" d="M749.7,333.4h3.7v3.7h-3.7Z"/>
  <path class="cls-10" d="M657.6,304h3.7v3.7h-3.7Z"/>
  <path class="cls-10" d="M657.6,311.3h3.7V315h-3.7Z"/>
  <circle class="cls-5" cx="1029.5" cy="467" r="23.4"/>
  <text class="cls-6" transform="translate(941.4 583.5)">INFORMATION<tspan x="-6.2" y="30">ARCHITECTURE</tspan></text>
  <text class="cls-7" transform="translate(1018.5 539.8)">03</text>
  <circle class="cls-5" cx="1036.5" cy="316.1" r="72.6"/>
  <circle class="cls-5" cx="1366" cy="470" r="23.4"/>
  <text class="cls-6" transform="translate(1262.8 586.5)">WIREFRAMING &amp;<tspan x="14.7" y="30">PROTOTYPING</tspan></text>
  <text class="cls-7" transform="translate(1354.1 542.8)">04</text>
  <text class="cls-6" transform="translate(1134.5 1061.1)">USER INTERFACE<tspan x="60.6" y="30">DESIGN</tspan></text>
  <text class="cls-7" transform="translate(1225.8 1017.3)">05</text>
  <circle class="cls-5" cx="1373" cy="319.1" r="72.6"/>
  <circle class="cls-5" cx="1240.4" cy="786.6" r="72.6"/>
  <circle class="cls-5" cx="904.9" cy="942.7" r="23.4"/>
  <text class="cls-6" transform="translate(780.8 1064.1)">USABILITY TESTING</text>
  <text class="cls-7" transform="translate(889.9 1020.3)">06</text>
  <circle class="cls-5" cx="908.5" cy="786.6" r="72.6"/>
  <circle class="cls-5" cx="561.9" cy="945.8" r="23.4"/>
  <text class="cls-6" transform="translate(510.2 1067.3)">LAUNCH</text>
  <text class="cls-7" transform="translate(548.2 1023.5)">07</text>
  <circle class="cls-5" cx="557.2" cy="791.2" r="72.6"/>
  <path class="cls-11" d="M1863,534.7A239.7,239.7,0,0,0,1696.4,464l3.3,4.8a60.3,60.3,0,0,1,3.1,5.4c122.7,5.5,220.9,107,220.9,231.1,0,120.9-93.2,220.4-211.5,230.5a72.5,72.5,0,0,1-3.9,10.3A241.3,241.3,0,0,0,1863,534.7Z"/>
  <rect class="cls-9" x="1000.8" y="313.2" width="75.6" height="90.18"/>
  <circle class="cls-9" cx="1069" cy="326.8" r="18.4"/>
  <g>
    <path class="cls-10" d="M1068.4,338.7a2,2,0,0,1-2-2V323.2a2,2,0,0,1,4,0v13.5A2,2,0,0,1,1068.4,338.7Z"/>
    <circle class="cls-10" cx="1068.4" cy="316.8" r="2"/>
    <g>
      <path class="cls-10" d="M1089.2,325.8a20.8,20.8,0,0,0-33.4-16.5h-49.9a7.2,7.2,0,0,0-7.2,7.2v72.1a7.2,7.2,0,0,0,7.2,7.2h6.3v3.4a7.2,7.2,0,0,0,7.2,7.2h51.8a7.2,7.2,0,0,0,7.2-7.2V371.7a2,2,0,1,0-4,0v27.5a3.3,3.3,0,0,1-3.2,3.2h-51.8a3.3,3.3,0,0,1-3.2-3.2v-3.4h41.5a7.2,7.2,0,0,0,7.2-7.2V346.3a20.9,20.9,0,0,0,9.5-.6v8.1a2,2,0,1,0,4,0v-9.7a20.8,20.8,0,0,0,10.9-18.3Zm-28.3,62.7a3.3,3.3,0,0,1-3.2,3.2h-51.8a3.3,3.3,0,0,1-3.2-3.2V316.5a3.3,3.3,0,0,1,3.2-3.2h46a20.7,20.7,0,0,0-4.2,11.7h-33.7a2,2,0,0,0-2,2v8.4a2,2,0,0,0,2,2h35.7a2,2,0,0,0,1.2-.4,20.9,20.9,0,0,0,10.1,8.4Zm-13.3-59.7v4.4h-31.7v-4.4Zm20.8,13.8a16.8,16.8,0,1,1,16.8-16.8A16.9,16.9,0,0,1,1068.4,342.6Z"/>
      <path class="cls-10" d="M1076.4,364.7a2,2,0,1,1,1.9-1.5A2,2,0,0,1,1076.4,364.7Z"/>
    </g>
    <g>
      <path class="cls-10" d="M1049.6,348.1h-35.7a2,2,0,0,1,0-4h35.7a2,2,0,0,1,0,4Z"/>
      <path class="cls-10" d="M1049.6,357.5h-35.7a2,2,0,0,1,0-4h35.7a2,2,0,0,1,0,4Z"/>
      <path class="cls-10" d="M1049.6,366.9h-35.7a2,2,0,0,1,0-4h35.7a2,2,0,0,1,0,4Z"/>
      <path class="cls-10" d="M1049.6,376.3h-35.7a2,2,0,0,1,0-4h35.7a2,2,0,0,1,0,4Z"/>
    </g>
  </g>
  <path class="cls-9" d="M1338.4,305h75.3a12.7,12.7,0,0,1,12.7,12.7v63.4a12.7,12.7,0,0,1-12.7,12.7h-80.7a8.9,8.9,0,0,1-8.9-8.9V319.2A14.2,14.2,0,0,1,1338.4,305Z"/>
  <path class="cls-10" d="M1414.8,395.8h-79.6a11.7,11.7,0,0,1-11.7-11.7V316.7a11.7,11.7,0,0,1,11.7-11.7h79.6a11.7,11.7,0,0,1,11.7,11.7v67.4A11.7,11.7,0,0,1,1414.8,395.8Zm-79.6-87.3a8.2,8.2,0,0,0-8.2,8.2v67.4a8.2,8.2,0,0,0,8.2,8.2h79.6a8.2,8.2,0,0,0,8.2-8.2V316.7a8.2,8.2,0,0,0-8.2-8.2Z"/>
  <path class="cls-10" d="M1410.8,369.2h-27.3a1.7,1.7,0,0,1,0-3.5h27.3a1.7,1.7,0,1,1,0,3.5Z"/>
  <path class="cls-10" d="M1410.8,381.8h-27.3a1.7,1.7,0,0,1,0-3.5h27.3a1.7,1.7,0,1,1,0,3.5Z"/>
  <path class="cls-10" d="M1410.8,344.1h-27.3a1.7,1.7,0,0,1,0-3.5h27.3a1.7,1.7,0,1,1,0,3.5Z"/>
  <path class="cls-10" d="M1410.8,356.6h-27.3a1.7,1.7,0,0,1,0-3.5h27.3a1.7,1.7,0,1,1,0,3.5Z"/>
  <path class="cls-10" d="M1424.7,328.3h-99.4a1.7,1.7,0,1,1,0-3.5h99.4a1.7,1.7,0,1,1,0,3.5Z"/>
  <path class="cls-10" d="M1348.6,322.1a5.4,5.4,0,1,1,5.4-5.4A5.4,5.4,0,0,1,1348.6,322.1Zm0-7.3a1.9,1.9,0,1,0,1.9,1.9A1.9,1.9,0,0,0,1348.6,314.7Z"/>
  <path class="cls-10" d="M1336.1,322.1a5.4,5.4,0,1,1,5.4-5.4A5.4,5.4,0,0,1,1336.1,322.1Zm0-7.3a1.9,1.9,0,1,0,1.9,1.9A1.9,1.9,0,0,0,1336.1,314.7Z"/>
  <path class="cls-10" d="M1361.2,322.1a5.4,5.4,0,1,1,5.4-5.4A5.4,5.4,0,0,1,1361.2,322.1Zm0-7.3a1.9,1.9,0,1,0,1.9,1.9A1.9,1.9,0,0,0,1361.2,314.7Z"/>
  <path class="cls-10" d="M1370.3,381.8h-31.6a1.7,1.7,0,0,1-1.7-1.7V342.3a1.7,1.7,0,0,1,1.7-1.7h31.6a1.7,1.7,0,0,1,1.7,1.7v37.7A1.7,1.7,0,0,1,1370.3,381.8Zm-29.8-3.5h28.1V344.1h-28.1Z"/>
  <path class="cls-9" d="M1196.8,866.6l13.5-28,13.2-15.2-32.8-33.3,20.8-23.3s1.8-3.5,7.2,0,31.5,31.7,31.5,31.7l29-28,15.8,15.5-26.7,30,32.2,34-24.3,24.5-12.5-8.7-24-23.5-17.8,15.4-21.7,10.4Z"/>
  <rect class="cls-9" x="872.4" y="780.7" width="76.8" height="98.53"/>
  <g>
    <path class="cls-10" d="M1300.1,845.7l-5.5-5.5h0l-8.7-8.7h0l-16-16,24.3-24.3a8.2,8.2,0,0,0,0-11.6l-8.5-8.5a8.2,8.2,0,0,0-11.6,0l-24.3,24.3-16-16-8.7-8.7h0l-5.5-5.5a6.7,6.7,0,0,0-9.4,0l-20.2,20.2a6.6,6.6,0,0,0,0,9.4l30.2,30.2-11.7,11.7-.4.6-14.3,31.2a2.2,2.2,0,0,0,2,3.2l.9-.2,31.2-14.3.6-.4,11.7-11.7,9.6,9.6a2.2,2.2,0,0,0,3.1-3.1l-9.6-9.6,23.3-23.3,5.7,5.7-2.1,2.1a2.2,2.2,0,1,0,3.1,3.1l2.1-2.1,5.5,5.5-6.4,6.4a2.2,2.2,0,1,0,3.1,3.1l6.4-6.4,5.5,5.5-2.1,2.1a2.2,2.2,0,1,0,3.1,3.1l2.1-2.1,4,4a2.2,2.2,0,0,1,0,3.1l-20.2,20.2a2.2,2.2,0,0,1-3.1,0l-8-8a2.2,2.2,0,1,0-3.1,3.1l8,8a6.7,6.7,0,0,0,9.4,0l20.2-20.2a6.6,6.6,0,0,0,0-9.4Zm-22.8-71.4a3.8,3.8,0,0,1,5.3,0l8.5,8.5a3.8,3.8,0,0,1,0,5.3l-6.5,6.5-13.8-13.8Zm-84,17.4a2.2,2.2,0,0,1,0-3.1l20.2-20.2a2.2,2.2,0,0,1,3.1,0l4,4-2.1,2.1a2.2,2.2,0,1,0,3.1,3.1l2.1-2.1,5.5,5.5-6.4,6.4a2.2,2.2,0,1,0,3.1,3.1l6.4-6.4,5.5,5.5-2.1,2.1a2.2,2.2,0,1,0,3.1,3.1l2.1-2.1,5.7,5.7-23.3,23.3Zm7.1,73.3,3-6.6,3.6,3.6Zm11-5-5.9-5.9,5.5-11.9,12.4,12.4Zm15.8-7.9-13.8-13.8,54.4-54.4,7.4,7.4-18.3,18.3a2.2,2.2,0,1,0,3.1,3.1l18.3-18.3,3.2,3.2Z"/>
    <path class="cls-10" d="M1259.8,858.3a2.2,2.2,0,1,0,.7,1.6A2.2,2.2,0,0,0,1259.8,858.3Z"/>
    <path class="cls-10" d="M1253.9,815.7a2.2,2.2,0,1,0,.7,1.6A2.2,2.2,0,0,0,1253.9,815.7Z"/>
  </g>
  <polygon class="cls-9" points="944 828.5 963.8 806.8 970.6 814.1 947.6 837.9 944 828.5"/>
  <g id="Layer_7" data-name="Layer 7">
    <path class="cls-10" d="M884,794.1h3.3v13.4h3.3V794.1h3.3v-3.3H884Z"/>
    <path class="cls-10" d="M924.1,794.1h3.3v13.4h3.3V794.1h3.3v-3.3h-10Z"/>
    <path class="cls-10" d="M897.4,792.4v13.4a1.7,1.7,0,0,0,1.7,1.7h8.4v-3.3h-6.7v-3.3h6.7v-3.3h-6.7v-3.3h6.7v-3.3h-8.4A1.7,1.7,0,0,0,897.4,792.4Z"/>
    <path class="cls-10" d="M910.8,795.7a5,5,0,0,0,5,5,1.7,1.7,0,0,1,0,3.3h-5v3.3h5a5,5,0,0,0,0-10h0a1.7,1.7,0,1,1,0-3.3h5v-3.3h-5A5,5,0,0,0,910.8,795.7Z"/>
    <path class="cls-10" d="M879,814.1h60.1a1.7,1.7,0,0,0,1.7-1.7V785.7a1.7,1.7,0,0,0-1.7-1.7H879a1.7,1.7,0,0,0-1.7,1.7v26.7A1.7,1.7,0,0,0,879,814.1Zm1.7-26.7h56.8v23.4H880.7Z"/>
    <path class="cls-10" d="M877.4,834.2h10a1.7,1.7,0,0,0,1.7-1.7v-9.3l4.5-4.5-2.4-2.4-4.5,4.5h-9.3a1.7,1.7,0,0,0-1.7,1.7v10A1.7,1.7,0,0,0,877.4,834.2Zm8.4-3.3h-4.3l4.3-4.3Zm-2.4-6.7-4.3,4.3v-4.3Z"/>
    <path class="cls-10" d="M887.4,854.2h-10a1.7,1.7,0,0,0-1.7,1.7v10a1.7,1.7,0,0,0,1.7,1.7h10a1.7,1.7,0,0,0,1.7-1.7v-10A1.7,1.7,0,0,0,887.4,854.2Zm-1.7,10H879v-6.7h6.7Z"/>
    <path class="cls-10" d="M889.5,834.6l-2.8,2.9h-9.3a1.7,1.7,0,0,0-1.7,1.7v10a1.7,1.7,0,0,0,1.7,1.7h10a1.7,1.7,0,0,0,1.7-1.7v-9.3l2.9-2.8Zm-6.2,6.2-4.3,4.3v-4.3Zm2.4,6.7h-4.3l4.3-4.3Z"/>
    <path class="cls-10" d="M892.4,822.5h48.4v3.3H892.4Z"/>
    <path class="cls-10" d="M892.4,855.9h21.7v3.3H892.4Z"/>
    <path class="cls-10" d="M892.4,862.5h48.4v3.3H892.4Z"/>
    <path class="cls-10" d="M972.1,812.9l-6.7-6.7a1.7,1.7,0,0,0-2.4,0h0l-13.8,13.9V779a1.7,1.7,0,0,0-1.7-1.7H870.7A1.7,1.7,0,0,0,869,779V879.2a1.7,1.7,0,0,0,1.7,1.7h76.8a1.7,1.7,0,0,0,1.7-1.7V838.2l22.9-22.9a1.7,1.7,0,0,0,0-2.4h0Zm-47.4,37.5,3.2,3.2-5.6,2.4Zm1.8-2.9,31-31,4.3,4.3-31,31Zm19.4,30.1H872.4V780.7h73.5v42.7l-5.7,5.7H892.4v3.3h44.4l-6.7,6.7H892.4v3.3h34.4l-3.3,3.3h-31v3.3h29.2l-4,9.4a1.7,1.7,0,0,0,.9,2.2h1.3l11.7-5,.5-.4,13.8-13.9Zm18.4-59.1-4.3-4.3,4.3-4.3,4.3,4.3Z"/>
  </g>
  <rect class="cls-8" x="509.8" y="794.9" width="97" height="85.98"/>
  <path class="cls-8" d="M545.1,798.4s-2.9-15.7,12.8-33.8c1.7.3,14.9,18.8,13.2,32.2s-22.5,9.9-22.5,9.9Z"/>
  <g>
    <path class="cls-10" d="M616.4,864.8h-7.7V800.6a7.4,7.4,0,0,0-7.4-7.4H578.7a1.8,1.8,0,1,0,0,3.5h22.6a3.9,3.9,0,0,1,3.9,3.9v64.3h-6a14.8,14.8,0,0,0,.1-2,15,15,0,0,0-15-15,14.8,14.8,0,0,0-3.3.4,11.2,11.2,0,0,0-9.9-6,10.9,10.9,0,0,0-4,.7,9.3,9.3,0,0,0-18.5,0,10.9,10.9,0,0,0-4-.7,11.2,11.2,0,0,0-9.9,6,14.7,14.7,0,0,0-3.3-.4,15,15,0,0,0-15,15,14.8,14.8,0,0,0,.1,2h-6V800.6a3.9,3.9,0,0,1,3.9-3.9h22.6a1.8,1.8,0,0,0,0-3.5H514.6a7.4,7.4,0,0,0-7.4,7.4v64.3h-7.7a1.8,1.8,0,0,0-1.8,1.8v3.8a5.5,5.5,0,0,0,5.5,5.5H612.6a5.5,5.5,0,0,0,5.5-5.5v-3.8A1.8,1.8,0,0,0,616.4,864.8Zm-1.8,5.5a2,2,0,0,1-2,2H503.2a2,2,0,0,1-2-2v-2H524a1.8,1.8,0,0,0,0-3.5h-3.7a11.3,11.3,0,0,1-.2-2A11.4,11.4,0,0,1,535.3,852a1.8,1.8,0,0,0,2.2-1.1,7.6,7.6,0,0,1,7.2-5.2,7.5,7.5,0,0,1,4.9,1.8,1.8,1.8,0,0,0,2.8-1.9,5.7,5.7,0,0,1-.3-1.7,5.8,5.8,0,0,1,11.6,0,5.7,5.7,0,0,1-.3,1.7,1.8,1.8,0,0,0,2.8,1.9,7.5,7.5,0,0,1,4.9-1.8,7.6,7.6,0,0,1,7.2,5.2,1.8,1.8,0,0,0,2.2,1.1,11.4,11.4,0,0,1,15,12.8H531.5a1.8,1.8,0,0,0,0,3.5h83.1Z"/>
    <path class="cls-10" d="M535.3,814.9a7.4,7.4,0,0,0-1.7,4.8v5.5a1.8,1.8,0,0,0,.9,1.5l.9.2.9-.2,12.6-7.1,1.5,2.6-1.6,6.3a1.8,1.8,0,0,0,1.7,2.2h15.1a1.8,1.8,0,0,0,1.7-2.2l-1.6-6.3,1.5-2.6,12.6,7.1.9.2.9-.2a1.8,1.8,0,0,0,.9-1.5v-5.5a7.4,7.4,0,0,0-1.7-4.8l-8.4-10a48.2,48.2,0,0,0,.7-8,47.4,47.4,0,0,0-3.7-18.5,45.5,45.5,0,0,0-10-14.8,1.8,1.8,0,0,0-2.5,0,45.5,45.5,0,0,0-10,14.8,47.4,47.4,0,0,0-3.7,18.5,48.2,48.2,0,0,0,.7,8Zm1.8,7.2v-2.5a3.9,3.9,0,0,1,.9-2.5l6.6-7.9a46.8,46.8,0,0,0,2.6,7.2Zm15.6,5,1-4h8.6l1,4Zm25.3-10a3.9,3.9,0,0,1,.9,2.5v2.5l-10.1-5.7a46.8,46.8,0,0,0,2.6-7.2Zm-20-49.8a42.1,42.1,0,0,1,7.3,10.8H550.7A42.1,42.1,0,0,1,557.9,767.3Zm-8.7,14.3h17.5a44.2,44.2,0,0,1,2.7,15.2,43.6,43.6,0,0,1-6.3,22.8H552.8a43.6,43.6,0,0,1-6.3-22.8,44.2,44.2,0,0,1,2.7-15.2Z"/>
    <path class="cls-10" d="M565.4,794.9a7.4,7.4,0,1,0-7.4,7.4A7.4,7.4,0,0,0,565.4,794.9Zm-11.3,0a3.9,3.9,0,1,1,3.9,3.9A3.9,3.9,0,0,1,554.1,794.9Z"/>
  </g>
</svg>
