<svg xmlns="http://www.w3.org/2000/svg" width="189" height="216.491" viewBox="0 0 189 216.491">
  <g id="Group_1008" data-name="Group 1008" transform="translate(-1495.118 -321.509)">
    <rect id="Rectangle_118" data-name="Rectangle 118" width="189" height="216.491" transform="translate(1495.118 321.509)" fill="#f4f0ed"/>
    <g id="Group_44" data-name="Group 44" transform="translate(1522.118 357.745)">
      <path id="Path_276" data-name="Path 276" d="M644.649,108.8c-2.364,4.978-2.24,10.826-3.235,16.3-2.987,16.3-15.8,28.621-25.759,41.936a23.525,23.525,0,0,0-4.6,8.711c-.747,3.235.124,6.969,2.738,8.96a9.9,9.9,0,0,1,3.235-7.591,26.988,26.988,0,0,1,7.218-4.48c-2.738,2.987-5.1,6.844-5.1,10.951,0,6.6,5.6,11.7,10.951,15.431,12.071,8.462,26.506,15.057,41.065,13.44,9.209-1,17.795-5.1,25.635-9.831,8.835-5.351,11.573-15.8,13.813-25.261,3.858-16.426,3.36-33.474,3.111-50.274-.124-5.849-3.111-9.706-5.849-14.933-4.106-7.591-12.568-12.071-21.03-13.44-8.586-1.369-17.3-.124-25.759,1.369C655.1,100.956,647.138,103.445,644.649,108.8Z" transform="translate(-610.793 -62.234)" fill="#b75c5c"/>
      <path id="Path_277" data-name="Path 277" d="M675.233,212.349c29.119,1,33.6-23.021,33.35-38.7-8.711-6.72-20.159-11.449-35.092-11.449A60.23,60.23,0,0,0,637.4,173.524C637.154,183.106,639.394,211.105,675.233,212.349Z" transform="translate(-604.294 -46.574)" fill="#e5b5a3"/>
      <path id="Path_278" data-name="Path 278" d="M714.788,171.4c.249,15.68-4.231,39.7-33.35,38.7-35.714-1.244-37.954-29.243-37.705-38.7C618.72,189.444,612,222.794,612,222.794H741.916C741.916,222.669,738.058,189.444,714.788,171.4Z" transform="translate(-610.498 -44.326)" fill="#373c44"/>
      <circle id="Ellipse_101" data-name="Ellipse 101" cx="10.204" cy="10.204" r="10.204" transform="translate(19.048 50.17)" fill="#ce8282"/>
      <circle id="Ellipse_102" data-name="Ellipse 102" cx="10.204" cy="10.204" r="10.204" transform="translate(94.832 50.17)" fill="#ce8282"/>
      <path id="Path_279" data-name="Path 279" d="M679.775,152.048,678.033,129.4l-17.671,2.489-2.862,33.1A32.582,32.582,0,0,0,679.775,152.048Z" transform="translate(-599.378 -54.591)" fill="#d19582"/>
      <path id="Path_280" data-name="Path 280" d="M650.064,116.573c20.408-4.48,24.39-24.639,33.474-27.128-2.24,3.982,4.853,28.372,23.768,28.372,0-2.24-.124-4.48-.249-6.6C705.191,75.01,675.7,75.508,675.7,75.508S637,72.522,636.5,117.2A34.646,34.646,0,0,0,650.064,116.573Z" transform="translate(-604.51 -67.772)" fill="#b75c5c"/>
      <path id="Path_281" data-name="Path 281" d="M683.648,86.7c-9.084,2.489-13.191,22.648-33.474,27.128a37.158,37.158,0,0,1-13.44.747v1.12c-.373,5.475-.124,7.093.5,12.444,1.244,10.7,6.346,20.035,16.053,25.261s23.021,7.093,33.35,2.738a31.087,31.087,0,0,0,17.422-17.173c2.862-7.093,3.484-15.679,3.36-23.893C688.5,115.072,681.284,90.682,683.648,86.7Z" transform="translate(-604.496 -65.027)" fill="#e5b5a3"/>
      <path id="Path_282" data-name="Path 282" d="M657.644,160.442,656.4,175s.5,7.342,12.32,8.711,13.191-10.951,13.191-10.951L680.044,147.5A31.634,31.634,0,0,1,657.644,160.442Z" transform="translate(-599.647 -50.167)" fill="#e5b5a3"/>
      <ellipse id="Ellipse_103" data-name="Ellipse 103" cx="1.867" cy="3.609" rx="1.867" ry="3.609" transform="translate(49.411 54.277)" fill="#373c44"/>
      <ellipse id="Ellipse_104" data-name="Ellipse 104" cx="1.867" cy="3.609" rx="1.867" ry="3.609" transform="translate(82.886 54.899)" fill="#373c44"/>
      <g id="Group_42" data-name="Group 42" transform="translate(63.204 60.374)">
        <path id="Path_283" data-name="Path 283" d="M666.084,117.8c-.747.5-1.493.871-2.115,1.369-.622.373-1.369,1-1.369,1.493,0,.249.125.373.373.622a1.58,1.58,0,0,0,.871.5,2.993,2.993,0,0,0,2.24-.373,2.468,2.468,0,0,1-2.364,1.12,2,2,0,0,1-1.369-.622,1.5,1.5,0,0,1-.747-1.493,2.615,2.615,0,0,1,.871-1.369l1.12-.747C664.466,118.173,665.213,117.924,666.084,117.8Z" transform="translate(-661.584 -117.8)" fill="#373c44"/>
      </g>
      <g id="Group_43" data-name="Group 43" transform="translate(62.726 68.836)">
        <path id="Path_284" data-name="Path 284" d="M661.2,124.6a15.942,15.942,0,0,0,2.489,1.369,6.688,6.688,0,0,0,2.613.622,6.5,6.5,0,0,0,2.613-.5,9.468,9.468,0,0,0,2.364-1.493,6.845,6.845,0,0,1-.871,1.12,8.047,8.047,0,0,1-1.12,1,4.172,4.172,0,0,1-2.987.747A6.188,6.188,0,0,1,661.2,124.6Z" transform="translate(-661.2 -124.6)" fill="#373c44"/>
      </g>
      <ellipse id="Ellipse_105" data-name="Ellipse 105" cx="3.858" cy="3.858" rx="3.858" ry="3.858" transform="translate(45.553 63.734)" fill="#ce8282"/>
      <ellipse id="Ellipse_106" data-name="Ellipse 106" cx="3.858" cy="3.858" rx="3.858" ry="3.858" transform="translate(80.894 65.352)" fill="#ce8282"/>
      <path id="Path_285" data-name="Path 285" d="M669.439,79.633s-2.738-9.955,0-10.329c2.738-.5,1.742,8.213,1.742,8.213s1.867-5.475,4.48-3.982S672.923,79.508,669.439,79.633Z" transform="translate(-596.758 -69.283)" fill="#b75c5c"/>
    </g>
  </g>
</svg>
