<svg xmlns="http://www.w3.org/2000/svg" width="189" height="216.491" viewBox="0 0 189 216.491">
  <g id="Group_1009" data-name="Group 1009" transform="translate(-1273 -321)">
    <rect id="Rectangle_117" data-name="Rectangle 117" width="189" height="216.491" transform="translate(1273 321)" fill="#f4f0ed"/>
    <g id="Group_8" data-name="Group 8" transform="translate(1308.592 371.236)">
      <path id="Path_178" data-name="Path 178" d="M384.014,184.354c15.732.591,17.27-11.829,17.27-17.27a58.983,58.983,0,0,0-33.475-.118C367.454,172.052,368.4,183.763,384.014,184.354Z" transform="translate(-322.978 -55.625)" fill="#c66767"/>
      <path id="Path_179" data-name="Path 179" d="M408.206,166.737c.118,5.559-1.538,17.98-17.27,17.27-15.614-.591-16.56-12.3-16.205-17.507-35.959,10.764-44.831,54.531-44.831,54.531H447.714C447.833,221.031,442.865,177.619,408.206,166.737Z" transform="translate(-329.9 -55.277)" fill="#efca6f"/>
      <path id="Path_180" data-name="Path 180" d="M354.988,100.56s-11.474,11.829,0,23.658,67.306-.591,67.306-.591,8.28-16.324-5.086-27.916-44.476-7.925-44.831-7.925S354.988,100.56,354.988,100.56Z" transform="translate(-326.245 -69.773)" fill="#373c44"/>
      <ellipse id="Ellipse_39" data-name="Ellipse 39" cx="9.226" cy="9.226" rx="9.226" ry="9.226" transform="translate(16.087 49.595)" fill="#ce8282"/>
      <ellipse id="Ellipse_40" data-name="Ellipse 40" cx="9.226" cy="9.226" rx="9.226" ry="9.226" transform="translate(84.812 49.595)" fill="#ce8282"/>
      <path id="Path_181" data-name="Path 181" d="M393.527,153.782,391.989,133.2,375.9,135.447l-2.6,30.045A29.1,29.1,0,0,0,393.527,153.782Z" transform="translate(-321.964 -61.367)" fill="#d19582"/>
      <path id="Path_182" data-name="Path 182" d="M353.526,120.722A44.545,44.545,0,0,0,354,131.959c1.065,9.7,5.678,18.216,14.549,22.83,8.872,4.732,20.819,6.388,30.282,2.484a28.334,28.334,0,0,0,15.851-15.5c3.312-8.162,3.312-18.689,2.839-27.561C415.863,81.332,389.13,81.8,389.13,81.8S353.408,79.2,353.526,120.722Z" transform="translate(-325.61 -70.772)" fill="#e5b5a3"/>
      <path id="Path_183" data-name="Path 183" d="M373.483,162.292,372.3,175.54s.473,6.624,11.119,7.925,11.947-9.936,11.947-9.936l-1.774-22.83A28.894,28.894,0,0,1,373.483,162.292Z" transform="translate(-322.147 -58.167)" fill="#e5b5a3"/>
      <ellipse id="Ellipse_41" data-name="Ellipse 41" cx="1.656" cy="3.312" rx="1.656" ry="3.312" transform="translate(43.529 53.262)" fill="#373c44"/>
      <ellipse id="Ellipse_42" data-name="Ellipse 42" cx="1.656" cy="3.312" rx="1.656" ry="3.312" transform="translate(73.929 53.853)" fill="#373c44"/>
      <g id="Group_4" data-name="Group 4" transform="translate(56.186 58.821)">
        <path id="Path_184" data-name="Path 184" d="M381.422,122.2c-.71.355-1.3.828-1.893,1.183a3.376,3.376,0,0,0-1.3,1.3,1.081,1.081,0,0,0,.355.591,1.907,1.907,0,0,0,.828.473,2.564,2.564,0,0,0,2.011-.355,2.388,2.388,0,0,1-2.129,1.065,1.643,1.643,0,0,1-1.183-.591,1.6,1.6,0,0,1-.71-1.3,2.249,2.249,0,0,1,.71-1.183,4.8,4.8,0,0,1,1.065-.591A4.893,4.893,0,0,1,381.422,122.2Z" transform="translate(-377.4 -122.2)" fill="#373c44"/>
      </g>
      <g id="Group_5" data-name="Group 5" transform="translate(55.595 66.51)">
        <path id="Path_185" data-name="Path 185" d="M376.9,128.7a20.561,20.561,0,0,0,2.247,1.183,5.384,5.384,0,0,0,2.366.591,5.639,5.639,0,0,0,2.366-.473,20.571,20.571,0,0,0,2.129-1.3,6.5,6.5,0,0,1-.828,1.065,3.683,3.683,0,0,1-1.065.828,5.185,5.185,0,0,1-2.721.71A6.347,6.347,0,0,1,376.9,128.7Z" transform="translate(-376.9 -128.7)" fill="#373c44"/>
      </g>
      <ellipse id="Ellipse_43" data-name="Ellipse 43" cx="3.43" cy="3.43" rx="3.43" ry="3.43" transform="translate(40.099 62.015)" fill="#ce8282"/>
      <ellipse id="Ellipse_44" data-name="Ellipse 44" cx="3.43" cy="3.43" rx="3.43" ry="3.43" transform="translate(72.155 63.08)" fill="#ce8282"/>
      <path id="Path_186" data-name="Path 186" d="M378.578,131.9s4.968,1.538,7.1,0c0,4.85-.355,9.345-1.774,8.99s-1.419-2.721-1.419-2.721.118,4.377-1.538,4.022-1.656-5.441-1.656-5.441,0,3.075-1.893,2.366S378.578,131.9,378.578,131.9Z" transform="translate(-321.327 -61.605)" fill="#373c44"/>
      <path id="Path_187" data-name="Path 187" d="M374.2,121.215s8.635-6.033,15.141,0" transform="translate(-321.799 -64.049)" fill="none" stroke="#fff" stroke-miterlimit="10" stroke-width="1"/>
      <path id="Path_188" data-name="Path 188" d="M367.362,109.884a10.489,10.489,0,0,1-6.269,4.732c-3.667.946-8.517.946-10.528-4.022a15.426,15.426,0,0,1,1.656-14.668s-11.237-9.108-2.839-16.442c8.4-7.216,13.958,1.3,13.958,1.3s1.065-7.689,8.753-8.28c7.807-.591,10.409,7.1,10.409,7.1a13.189,13.189,0,0,1,13.6-5.678c9.108,1.774,7.452,11.119,7.452,11.119a9.986,9.986,0,0,1,7.689-1.065c7.689,1.656,11.356,10.291,9.7,19.044a27.6,27.6,0,0,0,1.183,13.958c.71,2.011-.355,3.549-1.183,3.43-2.011-.355-2.366-20.345-10.054-19.872-.355,4.377-2.366,11.592-8.4,9.936a6.988,6.988,0,0,1-3.549-2.6c-1.538-1.893-2.247-4.258-4.022-6.033a14.976,14.976,0,0,0-3.9-2.839,12.959,12.959,0,0,0-10.882,0A26.4,26.4,0,0,0,367.362,109.884Z" transform="translate(-326.908 -72.473)" fill="#373c44"/>
      <g id="Group_6" data-name="Group 6" transform="translate(70.499 45.189)">
        <path id="Path_189" data-name="Path 189" d="M389.5,114.963a5.686,5.686,0,0,1,2.129-2.839,6.86,6.86,0,0,1,3.43-1.419,6.163,6.163,0,0,1,5.086,1.774l1.065,1.419a20.19,20.19,0,0,0-3.075-.828,7.131,7.131,0,0,0-2.721-.118A31.778,31.778,0,0,0,389.5,114.963Z" transform="translate(-389.5 -110.675)" fill="#373c44"/>
      </g>
      <g id="Group_7" data-name="Group 7" transform="translate(37.733 44.272)">
        <path id="Path_190" data-name="Path 190" d="M374.339,114.277a8.559,8.559,0,0,0-5.914-2.011,16.056,16.056,0,0,0-3.194.473c-.591.118-1.065.237-1.656.355l-1.774.355a14.171,14.171,0,0,1,1.3-1.419c.473-.355,1.065-.71,1.538-1.065a8.254,8.254,0,0,1,3.785-1.065,7.756,7.756,0,0,1,3.9,1.065A6.032,6.032,0,0,1,374.339,114.277Z" transform="translate(-361.8 -109.9)" fill="#373c44"/>
      </g>
      <rect id="Rectangle_113" data-name="Rectangle 113" width="24.604" height="17.98" transform="translate(27.797 46.638)" fill="none" stroke="#fff" stroke-miterlimit="10" stroke-width="1"/>
      <rect id="Rectangle_114" data-name="Rectangle 114" width="24.486" height="17.98" transform="translate(67.542 47.229)" fill="none" stroke="#fff" stroke-miterlimit="10" stroke-width="1"/>
    </g>
  </g>
</svg>
