<svg xmlns="http://www.w3.org/2000/svg" width="189" height="217" viewBox="0 0 189 217">
  <g id="Group_1010" data-name="Group 1010" transform="translate(-1055 -321)">
    <rect id="Rectangle_116" data-name="Rectangle 116" width="189" height="217" transform="translate(1055 321)" fill="#f4f0ed"/>
    <g id="Group_50" data-name="Group 50" transform="translate(1090 384.236)">
      <path id="Path_191" data-name="Path 191" d="M223.446,102.651,212.785,99.9s-6.42,19.832,2.522,26.71C224.248,133.373,223.446,102.651,223.446,102.651Z" transform="translate(-188.253 -75.328)" fill="#685a56"/>
      <path id="Path_192" data-name="Path 192" d="M191.1,219.639S202.334,164.5,250.71,164.5s54.681,55.139,54.681,55.139Z" transform="translate(-191.1 -65.875)" fill="#373c44"/>
      <ellipse id="Ellipse_45" data-name="Ellipse 45" cx="8.941" cy="8.941" rx="8.941" ry="8.941" transform="translate(15.59 41.194)" fill="#ce8282"/>
      <ellipse id="Ellipse_46" data-name="Ellipse 46" cx="8.941" cy="8.941" rx="8.941" ry="8.941" transform="translate(82.193 41.194)" fill="#ce8282"/>
      <path id="Path_193" data-name="Path 193" d="M254.2,153.146l-1.49-19.946-15.59,2.178L234.6,164.5A28.635,28.635,0,0,0,254.2,153.146Z" transform="translate(-184.734 -70.455)" fill="#d19582"/>
      <path id="Path_194" data-name="Path 194" d="M220.223,106.676c3.9,3.9-.573,13.527-5.5,12.839a43.166,43.166,0,0,0,.459,10.89c1.032,9.4,5.5,17.654,14.1,22.124,8.6,4.585,20.176,6.19,29.346,2.407a27.459,27.459,0,0,0,15.361-15.017c3.21-7.91,3.21-18.112,2.751-26.71-1.6-31.868-27.512-31.41-27.512-31.41S229.738,82.832,220.223,106.676Z" transform="translate(-187.667 -77.977)" fill="#e5b5a3"/>
      <path id="Path_195" data-name="Path 195" d="M234.646,161.934,233.5,174.773s.459,6.42,10.776,7.68,11.578-9.629,11.578-9.629L254.134,150.7A28,28,0,0,1,234.646,161.934Z" transform="translate(-184.895 -67.894)" fill="#e5b5a3"/>
      <ellipse id="Ellipse_47" data-name="Ellipse 47" cx="1.605" cy="3.21" rx="1.605" ry="3.21" transform="translate(42.185 44.747)" fill="#373c44"/>
      <ellipse id="Ellipse_48" data-name="Ellipse 48" cx="1.605" cy="3.21" rx="1.605" ry="3.21" transform="translate(71.646 45.32)" fill="#373c44"/>
      <g id="Group_9" data-name="Group 9" transform="translate(54.451 50.135)">
        <path id="Path_196" data-name="Path 196" d="M242.5,122.2c-.688.344-1.261.8-1.834,1.146a3.272,3.272,0,0,0-1.261,1.261,1.047,1.047,0,0,0,.344.573,1.847,1.847,0,0,0,.8.459,2.485,2.485,0,0,0,1.949-.344,2.315,2.315,0,0,1-2.063,1.032,1.592,1.592,0,0,1-1.146-.573,1.555,1.555,0,0,1-.688-1.261,2.18,2.18,0,0,1,.688-1.146,4.648,4.648,0,0,1,1.032-.573A4.742,4.742,0,0,1,242.5,122.2Z" transform="translate(-238.6 -122.2)" fill="#373c44"/>
      </g>
      <g id="Group_10" data-name="Group 10" transform="translate(53.878 57.586)">
        <path id="Path_197" data-name="Path 197" d="M238.1,128.7a19.917,19.917,0,0,0,2.178,1.146,5.218,5.218,0,0,0,2.293.573,5.465,5.465,0,0,0,2.293-.458,19.938,19.938,0,0,0,2.063-1.261,6.3,6.3,0,0,1-.8,1.032,3.57,3.57,0,0,1-1.032.8,5.025,5.025,0,0,1-2.637.688A6.151,6.151,0,0,1,238.1,128.7Z" transform="translate(-238.1 -128.7)" fill="#373c44"/>
      </g>
      <ellipse id="Ellipse_49" data-name="Ellipse 49" cx="3.324" cy="3.324" rx="3.324" ry="3.324" transform="translate(38.861 55.294)" fill="#ce8282"/>
      <ellipse id="Ellipse_50" data-name="Ellipse 50" cx="3.324" cy="3.324" rx="3.324" ry="3.324" transform="translate(69.927 55.294)" fill="#ce8282"/>
      <path id="Path_198" data-name="Path 198" d="M273.748,113.812c-.917-2.522-1.146-5.273-1.949-7.8s-2.063-5.159-4.241-6.649c-2.293-1.49-5.159-1.6-7.8-1.261-7.107,1.032-13.3,5.388-20.061,7.8a37.442,37.442,0,0,1-23.5.344,21.274,21.274,0,0,1-7.337-3.783,15.258,15.258,0,0,1-4.7-15.361,4.7,4.7,0,0,1,1.49-2.637,2.7,2.7,0,0,1,2.866-.573c1.49.688,1.6,2.637,1.834,4.012.344,1.834.917,4.471,2.178,5.961,1.032-1.719.459-4.356.688-6.3.229-2.178.917-4.471,2.751-5.846a1.575,1.575,0,0,1,1.376-.459c1.261.115,1.49,1.949,1.376,3.21a17.062,17.062,0,0,0,1.032,6.763c-.115-4.012-.115-8.254,2.178-11.463.573-.688,1.376-1.49,2.293-1.261,1.032.229,1.49,1.49,1.49,2.522a6.978,6.978,0,0,0,.229,3.1c.458,1.146,1.834,1.6,2.98,1.72a11.584,11.584,0,0,0,3.439-.8,104.106,104.106,0,0,1,26.366-6.3c3.439-.344,7.107-.344,10.317,1.146a14.742,14.742,0,0,1,6.534,6.42,29.525,29.525,0,0,1,2.866,8.827,75.529,75.529,0,0,1,1.49,17.654c0,1.6.459,6.19-1.949,6.076C275.812,118.627,274.321,115.417,273.748,113.812Z" transform="translate(-189.263 -78.465)" fill="#685a56"/>
      <g id="Group_11" data-name="Group 11" transform="translate(6.993 132.786)">
        <path id="Path_199" data-name="Path 199" d="M299.224,196.134H197.2l.917-1.834h100.3Z" transform="translate(-197.2 -194.3)" fill="#5b66b2"/>
      </g>
      <g id="Group_12" data-name="Group 12" transform="translate(2.178 144.479)">
        <path id="Path_200" data-name="Path 200" d="M303.622,206.334H193l.688-1.834H303.163Z" transform="translate(-193 -204.5)" fill="#5b66b2"/>
      </g>
      <g id="Group_13" data-name="Group 13" transform="translate(68.551 38.184)">
        <path id="Path_201" data-name="Path 201" d="M250.9,115.243a7.3,7.3,0,0,1,2.293-2.293,7.7,7.7,0,0,1,3.21-1.146,6.6,6.6,0,0,1,3.324.573,7.4,7.4,0,0,1,2.522,2.063l-1.376-.688a7.012,7.012,0,0,0-1.376-.573,6.113,6.113,0,0,0-2.866-.229A10.52,10.52,0,0,0,250.9,115.243Z" transform="translate(-250.9 -111.775)" fill="#373c44"/>
      </g>
      <g id="Group_14" data-name="Group 14" transform="translate(36.797 37.067)">
        <path id="Path_202" data-name="Path 202" d="M235.351,114.583a7.2,7.2,0,0,0-5.732-2.522,15.742,15.742,0,0,0-3.21.573l-1.6.573a8.984,8.984,0,0,1-1.6.573,12.144,12.144,0,0,0,1.376-1.146c.459-.344,1.032-.573,1.49-.917a11.738,11.738,0,0,1,3.439-.917,6.343,6.343,0,0,1,3.554.917A5.483,5.483,0,0,1,235.351,114.583Z" transform="translate(-223.2 -110.8)" fill="#373c44"/>
      </g>
    </g>
  </g>
</svg>
