<svg xmlns="http://www.w3.org/2000/svg" width="189" height="216.491" viewBox="0 0 189 216.491">
  <g id="Group_1011" data-name="Group 1011" transform="translate(-1055 -584)">
    <rect id="Rectangle_121" data-name="Rectangle 121" width="189" height="216.491" transform="translate(1055 584)" fill="#f4f0ed"/>
    <g id="Group_36" data-name="Group 36" transform="translate(1092 645)">
      <path id="Path_250" data-name="Path 250" d="M492.242,118.92s-5.732-18,8.827-25.105c14.673-7.107,52.847-.344,52.847-.344s4.471,25.335-.229,28.544C548.872,125.34,492.242,118.92,492.242,118.92Z" transform="translate(-467.71 -75.123)" fill="#373c44"/>
      <ellipse id="Ellipse_81" data-name="Ellipse 81" cx="8.942" cy="8.942" rx="8.942" ry="8.942" transform="translate(15.591 42.766)" fill="#ce8282"/>
      <ellipse id="Ellipse_82" data-name="Ellipse 82" cx="8.942" cy="8.942" rx="8.942" ry="8.942" transform="translate(82.08 42.766)" fill="#ce8282"/>
      <path id="Path_251" data-name="Path 251" d="M533.7,153.147l-1.49-19.947-15.59,2.178L514.1,164.5A28.2,28.2,0,0,0,533.7,153.147Z" transform="translate(-464.348 -68.883)" fill="#d19582"/>
      <path id="Path_252" data-name="Path 252" d="M548.952,131.51c-.917,1.834-1.261,3.9-2.293,5.732a10.9,10.9,0,0,1-14.1,4.585c-1.49-.688-2.866-1.72-4.471-2.063a5.168,5.168,0,0,0-4.242,1.146c-.917.8-1.6,2.063-2.751,2.637a5.225,5.225,0,0,1-2.637.573,13.521,13.521,0,0,1-11.349-5.961c-2.407-3.439-4.012-7.451-6.993-10.547A24.948,24.948,0,0,0,494.5,123.6a1.453,1.453,0,0,0,.115.688c1.032,9.4,5.5,17.654,14.1,22.125,8.6,4.585,20.176,6.19,29.347,2.407A27.46,27.46,0,0,0,553.423,133.8a40.017,40.017,0,0,0,2.178-8.483A11.388,11.388,0,0,0,548.952,131.51Z" transform="translate(-467.216 -70.288)" fill="#373c44"/>
      <path id="Path_253" data-name="Path 253" d="M556.233,113.315c-1.6-31.869-27.513-31.41-27.513-31.41s-34.62-2.637-34.505,37.6a49.8,49.8,0,0,0,.344,10.2,27.826,27.826,0,0,1,5.617,4.012c4.242,4.356,5.732,11.234,10.89,14.444a14.9,14.9,0,0,0,6.993,1.949,5.893,5.893,0,0,0,3.439-.8c.688-.573,1.146-1.376,1.834-2.063a5.61,5.61,0,0,1,4.929-1.49c1.49.344,2.751,1.376,4.241,1.949a11.107,11.107,0,0,0,7.91.573,11.255,11.255,0,0,0,6.19-5.044A59.7,59.7,0,0,0,548.9,137.5a10.863,10.863,0,0,1,6.649-6.076C556.576,125.466,556.462,119.047,556.233,113.315Z" transform="translate(-467.275 -76.396)" fill="#e5b5a3"/>
      <path id="Path_254" data-name="Path 254" d="M470.7,219.64s11.234-55.14,59.611-55.14,54.681,55.14,54.681,55.14Z" transform="translate(-470.7 -64.302)" fill="#bfd6d8"/>
      <path id="Path_255" data-name="Path 255" d="M514.246,161.949,513.1,174.788s.573-.229,10.891.917c10.317,1.261,11.12-8.025,11.12-8.025L533.849,150.6A28.2,28.2,0,0,1,514.246,161.949Z" transform="translate(-464.494 -66.336)" fill="#e5b5a3"/>
      <ellipse id="Ellipse_83" data-name="Ellipse 83" cx="1.605" cy="3.21" rx="1.605" ry="3.21" transform="translate(42.186 46.319)" fill="#373c44"/>
      <ellipse id="Ellipse_84" data-name="Ellipse 84" cx="1.605" cy="3.21" rx="1.605" ry="3.21" transform="translate(71.648 46.893)" fill="#373c44"/>
      <g id="Group_32" data-name="Group 32" transform="translate(57.433 51.707)">
        <path id="Path_256" data-name="Path 256" d="M524.7,122.2c-.688.344-1.261.8-1.834,1.146a3.272,3.272,0,0,0-1.261,1.261,1.047,1.047,0,0,0,.344.573,1.848,1.848,0,0,0,.8.459,2.485,2.485,0,0,0,1.949-.344,2.315,2.315,0,0,1-2.063,1.032,1.592,1.592,0,0,1-1.146-.573,1.555,1.555,0,0,1-.688-1.261,2.18,2.18,0,0,1,.688-1.146,4.646,4.646,0,0,1,1.032-.573A4.741,4.741,0,0,1,524.7,122.2Z" transform="translate(-520.8 -122.2)" fill="#373c44"/>
      </g>
      <g id="Group_33" data-name="Group 33" transform="translate(55.14 62.139)">
        <path id="Path_257" data-name="Path 257" d="M518.8,131.3a19.923,19.923,0,0,0,2.178,1.146,5.218,5.218,0,0,0,2.293.573,5.464,5.464,0,0,0,2.293-.459,19.936,19.936,0,0,0,2.063-1.261,6.3,6.3,0,0,1-.8,1.032,3.568,3.568,0,0,1-1.032.8,5.024,5.024,0,0,1-2.637.688A5.472,5.472,0,0,1,518.8,131.3Z" transform="translate(-518.8 -131.3)" fill="#373c44"/>
      </g>
      <ellipse id="Ellipse_85" data-name="Ellipse 85" cx="3.324" cy="3.324" rx="3.324" ry="3.324" transform="translate(38.862 55.032)" fill="#ce8282"/>
      <ellipse id="Ellipse_86" data-name="Ellipse 86" cx="3.324" cy="3.324" rx="3.324" ry="3.324" transform="translate(71.075 55.834)" fill="#ce8282"/>
      <g id="Group_34" data-name="Group 34" transform="translate(68.438 39.642)">
        <path id="Path_258" data-name="Path 258" d="M530.4,115.831a5.512,5.512,0,0,1,2.063-2.751,6.648,6.648,0,0,1,3.325-1.376,5.973,5.973,0,0,1,4.929,1.72l1.032,1.376a19.566,19.566,0,0,0-2.981-.8,6.911,6.911,0,0,0-2.637-.115A22.6,22.6,0,0,0,530.4,115.831Z" transform="translate(-530.4 -111.675)" fill="#373c44"/>
      </g>
      <g id="Group_35" data-name="Group 35" transform="translate(36.798 38.639)">
        <path id="Path_259" data-name="Path 259" d="M514.951,115.042a8.294,8.294,0,0,0-5.732-1.949,15.561,15.561,0,0,0-3.1.459c-.573.115-1.032.229-1.6.344l-1.719.344a13.734,13.734,0,0,1,1.261-1.376c.458-.344,1.032-.688,1.49-1.032a8,8,0,0,1,3.668-1.032A7.517,7.517,0,0,1,513,111.832,5.845,5.845,0,0,1,514.951,115.042Z" transform="translate(-502.8 -110.8)" fill="#373c44"/>
      </g>
      <path id="Path_260" data-name="Path 260" d="M532.554,128.56c-2.751,1.032-4.7-5.5-8.024-2.98,0,0-.115.115-.573,0v-.115H523.5v.115c-.459.115-.573,0-.573,0-3.439-2.637-5.273,4.012-8.024,2.98,2.522,1.949,4.127,2.522,8.827.115C528.427,131.082,530.146,130.509,532.554,128.56Z" transform="translate(-464.231 -70.089)" fill="#373c44"/>
      <path id="Path_261" data-name="Path 261" d="M556.1,119.395c-4.356-1.146-7.566-23.5-14.788-23.959-7.107-.344-30.493,22.354-43.447,12.037s-10.317-23.156-7.91-24.188,3.439,5.273,3.439,5.273-.8-6.878,2.064-7.337c2.751-.459,3.1,6.076,3.1,6.076s-1.6-8.025,2.98-8.139,2.063,7.8,2.063,7.8,30.264-18.8,39.435-4.356C562.06,86.494,560.455,120.541,556.1,119.395Z" transform="translate(-468.173 -77.088)" fill="#373c44"/>
      <path id="Path_262" data-name="Path 262" d="M535.6,83.635s1.146-6.3,2.751-6.534-1.376,5.732-1.376,5.732,2.637-3.439,3.439-2.407C541.217,81.342,536.976,84.552,535.6,83.635Z" transform="translate(-461.201 -77.094)" fill="#373c44"/>
      <path id="Path_263" data-name="Path 263" d="M514.331,165.062l10.2,9.171L518.8,185.467s-9.859-7.8-9.4-18.227c5.5-9.171,5.273-6.076,5.273-6.076Z" transform="translate(-465.038 -64.864)" fill="#a9b7b7"/>
      <path id="Path_264" data-name="Path 264" d="M533.49,165.062l-10.89,9.171,6.419,11.234s9.859-7.8,9.4-18.227c-5.5-9.171-5.273-6.076-5.273-6.076Z" transform="translate(-463.104 -64.864)" fill="#a9b7b7"/>
      <circle id="Ellipse_87" data-name="Ellipse 87" cx="1.146" cy="1.146" r="1.146" transform="translate(58.465 119.342)" fill="#fff"/>
      <circle id="Ellipse_88" data-name="Ellipse 88" cx="1.146" cy="1.146" r="1.146" transform="translate(58.465 138.945)" fill="#fff"/>
    </g>
  </g>
</svg>
