<svg xmlns="http://www.w3.org/2000/svg" width="189" height="216.491" viewBox="0 0 189 216.491">
  <g id="Group_1012" data-name="Group 1012" transform="translate(-1273 -584)">
    <rect id="Rectangle_120" data-name="Rectangle 120" width="189" height="216.491" transform="translate(1273 584)" fill="#f4f0ed"/>
    <g id="Group_20" data-name="Group 20" transform="translate(1309 636)">
      <path id="Path_203" data-name="Path 203" d="M45.2,220.94s11.5-56.44,61.016-56.44,55.971,56.44,55.971,56.44Z" transform="translate(-45.2 -56.527)" fill="#c15252"/>
      <path id="Path_204" data-name="Path 204" d="M66.345,177.3s44.237-8.1,67.47-.469c6.219-16.075,19.126-93.871-28.983-94.927C52.968,80.728,61.534,165.33,66.345,177.3Z" transform="translate(-42.173 -70.85)" fill="#685a56"/>
      <ellipse id="Ellipse_51" data-name="Ellipse 51" cx="9.152" cy="9.152" rx="9.152" ry="9.152" transform="translate(15.958 49.186)" fill="#ce8282"/>
      <ellipse id="Ellipse_52" data-name="Ellipse 52" cx="9.152" cy="9.152" rx="9.152" ry="9.152" transform="translate(84.132 49.186)" fill="#ce8282"/>
      <path id="Path_205" data-name="Path 205" d="M108.665,151.117,107.14,130.7l-15.958,2.229-2.581,29.8A28.435,28.435,0,0,0,108.665,151.117Z" transform="translate(-37.675 -62.387)" fill="#d19582"/>
      <path id="Path_206" data-name="Path 206" d="M69.852,109.592c-.821,2.112-.7,5.046-.821,7.392a87.292,87.292,0,0,0,.235,14.667c1.056,9.622,5.632,18.07,14.433,22.646,8.8,4.694,20.652,6.336,30.039,2.464a28.107,28.107,0,0,0,15.723-15.371c3.285-8.1,3.285-18.54,2.816-27.34C130.633,81.431,104.115,81.9,104.115,81.9S79.591,85.186,69.852,109.592Z" transform="translate(-41.103 -70.849)" fill="#e5b5a3"/>
      <path id="Path_207" data-name="Path 207" d="M88.773,159.7,87.6,172.841s.469,6.571,11.03,7.862,11.851-9.856,11.851-9.856l-1.76-22.646A28.231,28.231,0,0,1,88.773,159.7Z" transform="translate(-37.848 -59.353)" fill="#e5b5a3"/>
      <ellipse id="Ellipse_53" data-name="Ellipse 53" cx="1.643" cy="3.285" rx="1.643" ry="3.285" transform="translate(40.13 53.411)" fill="#373c44"/>
      <ellipse id="Ellipse_54" data-name="Ellipse 54" cx="1.643" cy="3.285" rx="1.643" ry="3.285" transform="translate(75.097 54.701)" fill="#373c44"/>
      <g id="Group_16" data-name="Group 16" transform="translate(55.736 58.339)">
        <path id="Path_208" data-name="Path 208" d="M96.69,122.2c-.7.352-1.291.821-1.877,1.173a3.349,3.349,0,0,0-1.291,1.291,1.072,1.072,0,0,0,.352.587,1.891,1.891,0,0,0,.821.469,2.544,2.544,0,0,0,1.995-.352,2.369,2.369,0,0,1-2.112,1.056,1.629,1.629,0,0,1-1.173-.587,1.591,1.591,0,0,1-.7-1.291,2.231,2.231,0,0,1,.7-1.173,4.757,4.757,0,0,1,1.056-.587A6.944,6.944,0,0,1,96.69,122.2Z" transform="translate(-92.7 -122.2)" fill="#373c44"/>
      </g>
      <g id="Group_17" data-name="Group 17" transform="translate(55.15 65.966)">
        <path id="Path_209" data-name="Path 209" d="M92.2,128.7a20.391,20.391,0,0,0,2.229,1.173,5.341,5.341,0,0,0,2.347.587,5.593,5.593,0,0,0,2.347-.469,20.411,20.411,0,0,0,2.112-1.291,6.448,6.448,0,0,1-.821,1.056,3.654,3.654,0,0,1-1.056.821,5.143,5.143,0,0,1-2.7.7A5.869,5.869,0,0,1,92.2,128.7Z" transform="translate(-92.2 -128.7)" fill="#373c44"/>
      </g>
      <path id="Path_210" data-name="Path 210" d="M66.6,114.427s35.554-3.285,36.14-23.468c2.816,17.014,18.07,19.009,33.794,22.412,0,0-4.928-34.263-35.788-31.447-6.571.587-12.2,4.342-17.131,8.214C72.584,98.821,67.773,111.728,66.6,114.427Z" transform="translate(-41.489 -70.873)" fill="#685a56"/>
      <path id="Path_211" data-name="Path 211" d="M100.564,84.941s2.112-11.851-.821-12.438-1.408,11.03-1.408,11.03-.939-7.275-5.163-7.04C88.947,76.61,97.4,84.824,100.564,84.941Z" transform="translate(-37.083 -72.482)" fill="#685a56"/>
      <ellipse id="Ellipse_55" data-name="Ellipse 55" cx="3.403" cy="3.403" rx="3.403" ry="3.403" transform="translate(36.375 64.792)" fill="#ce8282"/>
      <ellipse id="Ellipse_56" data-name="Ellipse 56" cx="3.403" cy="3.403" rx="3.403" ry="3.403" transform="translate(74.98 64.792)" fill="#ce8282"/>
      <ellipse id="Ellipse_57" data-name="Ellipse 57" cx="12.673" cy="12.673" rx="12.673" ry="12.673" transform="translate(25.815 45.314)" fill="none" stroke="#fff" stroke-miterlimit="10" stroke-width="1"/>
      <ellipse id="Ellipse_58" data-name="Ellipse 58" cx="12.673" cy="12.673" rx="12.673" ry="12.673" transform="translate(66.531 45.314)" fill="none" stroke="#fff" stroke-miterlimit="10" stroke-width="1"/>
      <path id="Path_212" data-name="Path 212" d="M88.6,121.848s9.152-7.275,15.606.7" transform="translate(-37.675 -64.448)" fill="none" stroke="#fff" stroke-miterlimit="10" stroke-width="1"/>
      <g id="Group_18" data-name="Group 18" transform="translate(72.633 46.106)">
        <path id="Path_213" data-name="Path 213" d="M107.1,115.325a7.468,7.468,0,0,1,2.347-2.347,7.884,7.884,0,0,1,3.285-1.173,6.757,6.757,0,0,1,3.4.587,7.578,7.578,0,0,1,2.581,2.112l-1.408-.7a7.178,7.178,0,0,0-1.408-.587,6.257,6.257,0,0,0-2.933-.235A10.768,10.768,0,0,0,107.1,115.325Z" transform="translate(-107.1 -111.775)" fill="#685a56"/>
      </g>
      <g id="Group_19" data-name="Group 19" transform="translate(32.855 46.018)">
        <path id="Path_214" data-name="Path 214" d="M85.638,115.22a9.834,9.834,0,0,0-5.984-2.347,14.564,14.564,0,0,0-3.168.352c-.587.117-1.056.352-1.643.469-.587.235-1.056.352-1.643.587l1.408-1.056c.469-.235,1.056-.587,1.525-.821a8.98,8.98,0,0,1,3.52-.7,7.521,7.521,0,0,1,3.52.939A6.479,6.479,0,0,1,85.638,115.22Z" transform="translate(-73.2 -111.7)" fill="#685a56"/>
      </g>
    </g>
  </g>
</svg>
