<svg xmlns="http://www.w3.org/2000/svg" width="189" height="216.633" viewBox="0 0 189 216.633">
  <g id="Group_1013" data-name="Group 1013" transform="translate(-1495.118 -584)">
    <rect id="Rectangle_119" data-name="Rectangle 119" width="189" height="216.491" transform="translate(1495.118 584)" fill="#f4f0ed"/>
    <g id="Group_28" data-name="Group 28" transform="translate(1528.118 633)">
      <path id="Path_224" data-name="Path 224" d="M356.617,293.6s-7.594,25.6-2.94,28.171,5.389,0,5.389,0l6.247-25.966Z" transform="translate(-326.854 -270.495)" fill="#efca6f"/>
      <path id="Path_225" data-name="Path 225" d="M414.245,320.343s3.674-30.865-3.919-30.743C402.854,289.845,400.159,321.935,414.245,320.343Z" transform="translate(-315.158 -271.394)" fill="#efca6f"/>
      <path id="Path_226" data-name="Path 226" d="M331.5,422.413s12-58.913,63.69-58.913,58.423,58.913,58.423,58.913Z" transform="translate(-331.5 -254.781)" fill="#373c44"/>
      <ellipse id="Ellipse_67" data-name="Ellipse 67" cx="9.554" cy="9.554" rx="9.554" ry="9.554" transform="translate(16.535 47.234)" fill="#ce8282"/>
      <ellipse id="Ellipse_68" data-name="Ellipse 68" cx="9.554" cy="9.554" rx="9.554" ry="9.554" transform="translate(87.696 47.234)" fill="#ce8282"/>
      <path id="Path_227" data-name="Path 227" d="M395.844,353.412,394.252,332.1l-16.657,2.327-2.695,31.11A29.681,29.681,0,0,0,395.844,353.412Z" transform="translate(-321.743 -261.84)" fill="#eaad9b"/>
      <path id="Path_228" data-name="Path 228" d="M355.032,321.1c-.367,5.144-.122,6.614.49,11.636,1.1,10.043,5.879,18.862,15.065,23.639,9.186,4.9,21.557,6.614,31.355,2.572A29.339,29.339,0,0,0,418.354,342.9c3.429-8.451,3.429-19.352,2.94-28.538-1.715-34.05-29.4-33.56-29.4-33.56S354.909,278.112,355.032,321.1Z" transform="translate(-326.249 -273.378)" fill="#f2c3b3"/>
      <path id="Path_229" data-name="Path 229" d="M375.125,361.6,373.9,375.321s.49,6.859,11.513,8.206,12.371-10.288,12.371-10.288L395.947,349.6A29.469,29.469,0,0,1,375.125,361.6Z" transform="translate(-321.968 -257.906)" fill="#f2c3b3"/>
      <ellipse id="Ellipse_69" data-name="Ellipse 69" cx="1.715" cy="3.429" rx="1.715" ry="3.429" transform="translate(45.073 51.153)" fill="#373c44"/>
      <ellipse id="Ellipse_70" data-name="Ellipse 70" cx="1.715" cy="3.429" rx="1.715" ry="3.429" transform="translate(76.551 51.643)" fill="#373c44"/>
      <g id="Group_24" data-name="Group 24" transform="translate(58.056 56.787)">
        <path id="Path_230" data-name="Path 230" d="M383.064,321.1c-.735.367-1.347.857-1.96,1.225a3.5,3.5,0,0,0-1.347,1.347,1.119,1.119,0,0,0,.367.612,1.974,1.974,0,0,0,.857.49,2.655,2.655,0,0,0,2.082-.367,2.473,2.473,0,0,1-2.2,1.1,1.7,1.7,0,0,1-1.225-.612,1.661,1.661,0,0,1-.735-1.347,2.329,2.329,0,0,1,.735-1.225,4.968,4.968,0,0,1,1.1-.612A16.316,16.316,0,0,1,383.064,321.1Z" transform="translate(-378.9 -321.1)" fill="#373c44"/>
      </g>
      <g id="Group_25" data-name="Group 25" transform="translate(57.566 64.749)">
        <path id="Path_231" data-name="Path 231" d="M378.5,327.6a21.291,21.291,0,0,0,2.327,1.225,5.576,5.576,0,0,0,2.45.612,5.838,5.838,0,0,0,2.45-.49,21.309,21.309,0,0,0,2.2-1.347,6.734,6.734,0,0,1-.857,1.1,3.814,3.814,0,0,1-1.1.857,5.368,5.368,0,0,1-2.817.735A5.509,5.509,0,0,1,378.5,327.6Z" transform="translate(-378.5 -327.6)" fill="#373c44"/>
      </g>
      <ellipse id="Ellipse_71" data-name="Ellipse 71" cx="3.552" cy="3.552" rx="3.552" ry="3.552" transform="translate(37.969 63.524)" fill="#ce8282"/>
      <ellipse id="Ellipse_72" data-name="Ellipse 72" cx="3.552" cy="3.552" rx="3.552" ry="3.552" transform="translate(78.265 63.524)" fill="#ce8282"/>
      <ellipse id="Ellipse_73" data-name="Ellipse 73" cx="13.228" cy="13.228" rx="13.228" ry="13.228" transform="translate(27.558 39.64)" fill="none" stroke="#fff" stroke-miterlimit="10" stroke-width="1"/>
      <ellipse id="Ellipse_74" data-name="Ellipse 74" cx="13.228" cy="13.228" rx="13.228" ry="13.228" transform="translate(69.937 39.64)" fill="none" stroke="#fff" stroke-miterlimit="10" stroke-width="1"/>
      <path id="Path_232" data-name="Path 232" d="M375.4,317.881s9.553-7.594,16.29.735" transform="translate(-321.631 -265.748)" fill="none" stroke="#fff" stroke-miterlimit="10" stroke-width="1"/>
      <path id="Path_233" data-name="Path 233" d="M420.119,303.108c.245-2.572.367-5.267.49-7.839,0-3.919,0-8.084-1.1-11.881-1.715-5.757-6.491-7.839-12-8.451a43.6,43.6,0,0,0-15.922,1.592,73.264,73.264,0,0,0-10.288,3.674c-14.943,6.491-27.436,6.247-28.66,1.96-1.225,6.491,2.082,9.431,6.124,9.921-6.369-.245-8.451-4.164-8.451-4.164s-1.1,12.983,10.288,12.493,39.561-10.533,46.175-5.879C413.138,299.311,413.138,306.292,420.119,303.108Z" transform="translate(-327.279 -274.736)" fill="#efca6f"/>
      <path id="Path_234" data-name="Path 234" d="M407.3,292.576c-.245-.123,2.082-9.676,4.532-9.676s-2.2,7.226-2.2,7.226,3.552-4.409,5.389-3.307C416.734,287.922,410.243,293.923,407.3,292.576Z" transform="translate(-314.463 -272.9)" fill="#efca6f"/>
      <g id="Group_26" data-name="Group 26" transform="translate(75.938 44.898)">
        <path id="Path_235" data-name="Path 235" d="M393.5,314.219a4.944,4.944,0,0,1,4.777-2.817,5.825,5.825,0,0,1,2.817.857c.367.245.735.612,1.1.857a6.731,6.731,0,0,1,.857,1.1,11.385,11.385,0,0,1-1.225-.612,12.686,12.686,0,0,0-1.225-.49,5.307,5.307,0,0,0-2.327-.49,7.131,7.131,0,0,0-2.327.367A7.66,7.66,0,0,0,393.5,314.219Z" transform="translate(-393.5 -311.393)" fill="#efca6f"/>
      </g>
      <g id="Group_27" data-name="Group 27" transform="translate(42.011 44.898)">
        <path id="Path_236" data-name="Path 236" d="M365.8,314.219a4.944,4.944,0,0,1,4.777-2.817,5.825,5.825,0,0,1,2.817.857c.367.245.735.612,1.1.857a6.73,6.73,0,0,1,.857,1.1,11.387,11.387,0,0,1-1.225-.612,12.693,12.693,0,0,0-1.225-.49,5.307,5.307,0,0,0-2.327-.49,7.131,7.131,0,0,0-2.327.367A7.66,7.66,0,0,0,365.8,314.219Z" transform="translate(-365.8 -311.393)" fill="#efca6f"/>
      </g>
    </g>
  </g>
</svg>
