<svg xmlns="http://www.w3.org/2000/svg" width="765.323" height="618.058" viewBox="0 0 765.323 618.058">
  <g id="Group_3" data-name="Group 3" transform="translate(11686.123 1882)">
    <g id="three" transform="translate(-11686.172 -1881.55)">
      <path id="Path_8" data-name="Path 8" d="M359.181,1734.536H149.6l3.724-102.823.106-3.085v-.638l172.346-7.873L350.511,1619l.745,9.575,3.138,42.235h0l1.17,15.32h0l.479,6.649Z" transform="translate(-116.97 -1116.927)" fill="#e2b897"/>
      <path id="Path_9" data-name="Path 9" d="M259.238,1742.4H149.5l1.968-104.525V1635.8l1.862.638,20.107,6.915,49.9,17.128h.106l33.033,11.33Z" transform="translate(-116.923 -1124.791)" fill="#e2b897"/>
      <path id="Path_10" data-name="Path 10" d="M253.423,408.768l-60.268,7.075-1.436-40.533-.106-2.819-.213-5.319,49.31-5.8L243.9,361l2.713,13.511Z" transform="translate(-89.565 -168.884)" fill="#f8bd8c"/>
      <path id="Path_11" data-name="Path 11" d="M193.564,1105.7s-70.215,29.256-72.13,35.108-9.734,22.448-9.734,22.448,34.1,82.875,25.373,111.121-2.926,75.056-2.926,89.684-5.851,20.48,4.894,24.363,45.8,1.968,65.321,0,59.47.585,68.247,2.234,61.438-7.128,61.438-7.128,6.809-37.022,4.894-55.587.692-62.4.372-69.2,3.351-9.734.053-26.331,13.245-107.237,13.245-107.237L271.705,1095.7Z" transform="translate(-99.23 -871.988)" fill="#31185e"/>
      <path id="Path_12" data-name="Path 12" d="M198.129,432.7l-10.107,33.831L143.5,444.083,154.245,432.7Z" transform="translate(-67.145 -202.445)" fill="#2a1656"/>
      <path id="Path_13" data-name="Path 13" d="M275.631,1142.3,229.3,1118.894l11.756-12.394h45.267Zm-43.725-23.831,42.714,21.543,9.522-31.916H241.747Z" transform="translate(-154.275 -877.043)" fill="#1d1647"/>
      <path id="Path_14" data-name="Path 14" d="M229.9,419.5l13.671,33.831,50.8-35.746L282.242,404.5Z" transform="translate(-107.586 -189.245)" fill="#2a1656"/>
      <path id="Path_15" data-name="Path 15" d="M330.562,1129.112,316.2,1093.526l53.619-15.426,13.086,14.1Zm-12.234-34.576,12.926,32.076,49.257-34.682-11.171-12.075Z" transform="translate(-194.95 -863.75)" fill="#1d1647"/>
      <path id="Path_16" data-name="Path 16" d="M135.505,1153.4s30,11.6,27.235,129.207L272,1257.552l13.4,55.374s-119.9,51.864-151.016,51.012-51.278-142.718-44.842-158.25,8.192-37.714,44.789-51.6Z" transform="translate(-88.3 -898.995)" fill="#31185e"/>
      <path id="Path_17" data-name="Path 17" d="M351.138,669.832,379.331,659.3l-7.021,42.5-21.969,1.117L345.5,672.811l5.638-2.979Z" transform="translate(-161.695 -308.509)" fill="#f8bd8c"/>
      <path id="Path_18" data-name="Path 18" d="M168.726,703.922l-22.98,5.266-.9-5.585-1.543-9.2,1.6.585,23.831,8.936Z" transform="translate(-67.051 -324.938)" fill="#f8bd8c"/>
      <path id="Path_19" data-name="Path 19" d="M387.915,1157.324l-18.033,128.3-114.472-15.373L241.9,1326.691s155.058,37.608,185.7,27.395,16.224-151.388,8.139-169.314-13.617-32.022-24.416-35.427-23.352,8.085-23.352,8.085Z" transform="translate(-160.172 -896.802)" fill="#31185e"/>
      <path id="Path_20" data-name="Path 20" d="M335.1,1049.911c-2.394,5.532-6.6,10.639-13.086,12.979-14.309,5.16-32.235-5.585-41.81-12.234l-.106-2.766,2.819.319a84.189,84.189,0,0,0,27.554-2.606,49.534,49.534,0,0,0,18.724-8.83l3.192-.372Z" transform="translate(-178.053 -844.231)" fill="#eab186"/>
      <path id="Path_21" data-name="Path 21" d="M320.314,887.868c2.606,33.246-13.086,61.651-37.5,63.566s-46.331-23.458-48.938-56.651,15-61.757,39.416-63.672S317.654,854.676,320.314,887.868Z" transform="translate(-156.296 -748.095)" fill="#f8bd8c"/>
      <path id="Path_22" data-name="Path 22" d="M288.076,1015.181c-23.352,3.458-46.225-20.692-51.172-53.832-.479-3.192-.745-6.33-.9-9.468,5.479,32.235,27.98,55.427,50.906,52.076,21.065-3.138,35.267-27.607,34.256-56.757.106.532.213,1.117.266,1.649C326.375,981.988,311.428,1011.67,288.076,1015.181Z" transform="translate(-157.411 -802.479)" fill="#1a1a1a"/>
      <path id="Path_23" data-name="Path 23" d="M268.7,789.593s-.266,24.682,5.851,28.245,13.192-2.926,18.777-3.883,16.862-1.915,24.788,4.947,14.735,27.022,14.735,27.022l1.755,6.756s4.628,1.17,5.107-5.16-.8-32.927,0-35.48.479-5.213-2.447-8.139-6.7-7.447-5.532-9.415,6.011-6.968,1.277-11.383-27.448-7.128-31.7-3.245S281.358,768.847,268.7,789.593Z" transform="translate(-172.715 -723.279)" fill="#1a1a1a"/>
      <path id="Path_24" data-name="Path 24" d="M231.723,799.468s-22.182,2.447-22.66,21.916c0,0-2.66,4.362-8.032,11.437s.957,18.99,2.447,26.065,4.468,12.926,4.309,15.054,3.883,6.17,7.553,4.575,4.468-5.958,4.468-5.958.319-27.5,4.362-32.395,10.958-9.681,14.947-11.7a9.028,9.028,0,0,0,4.894-6.33c0-.479-5.053-27.129-5.053-27.129Z" transform="translate(-140.048 -731.24)" fill="#1a1a1a"/>
      <ellipse id="Ellipse_5" data-name="Ellipse 5" cx="8.936" cy="12.66" rx="8.936" ry="12.66" transform="translate(64.891 148.347) rotate(-25.9)" fill="#f8bd8c"/>
      <ellipse id="Ellipse_6" data-name="Ellipse 6" cx="12.66" cy="8.936" rx="12.66" ry="8.936" transform="matrix(0.115, -0.993, 0.993, 0.115, 153.758, 154.002)" fill="#f8bd8c"/>
      <path id="Path_25" data-name="Path 25" d="M268.809,915.58a66.289,66.289,0,0,0-9.256,1.224,27.3,27.3,0,0,0-8.3,2.926h-.106a2.553,2.553,0,0,1-2.713-4.255,30.12,30.12,0,0,1,9.947-3.936,71.367,71.367,0,0,1,10.054-1.649,2.832,2.832,0,1,1,.532,5.638h-.16Z" transform="translate(-162.825 -785.009)" fill="#1a1a1a"/>
      <ellipse id="Ellipse_7" data-name="Ellipse 7" cx="3.724" cy="4.415" rx="3.724" ry="4.415" transform="translate(95.211 139.404) rotate(-8.4)" fill="#1a1a1a"/>
      <path id="Path_26" data-name="Path 26" d="M332.814,909.229a66.285,66.285,0,0,1,9.309-.9,26.806,26.806,0,0,1,8.724.958h.106a2.553,2.553,0,0,0,1.7-4.787,31.244,31.244,0,0,0-10.585-1.6,71.444,71.444,0,0,0-10.213.692,2.819,2.819,0,1,0,.745,5.585h.16Z" transform="translate(-201.085 -781.744)" fill="#1a1a1a"/>
      <ellipse id="Ellipse_8" data-name="Ellipse 8" cx="3.724" cy="4.415" rx="3.724" ry="4.415" transform="translate(136.728 134.215) rotate(-4.7)" fill="#1a1a1a"/>
      <path id="Path_27" data-name="Path 27" d="M293.1,1030.954c1.277.851,5.745-.213,7.181-.532,2.447-.532,5.266-1.436,6.809-3.564s.958-6.117.745-8.883c-.053-.8.053-2.979-.585-3.617l6.49-.958c-.585.106,1.17,9.149,1.436,9.894a6.351,6.351,0,0,0,4.681,3.564,20.375,20.375,0,0,0,6.383.426c.532-.053,5.532-.479,5.585-1.011a1.969,1.969,0,0,1-.692,1.117,127.526,127.526,0,0,1-10.532,9.362s-17.235,1.436-17.713.958S293.1,1031.007,293.1,1030.954Z" transform="translate(-184.137 -833.466)" fill="#1a1a1a"/>
      <path id="Path_28" data-name="Path 28" d="M325.69,998.826c-2.287,4.043-7.075,7.394-13.086,8.564-8.032,1.543-15.532-1.17-18.4-6.224a.285.285,0,0,1,.16-.213,19.631,19.631,0,0,1,3.192-2.234l23.618-2.819A6.245,6.245,0,0,1,325.69,998.826Z" transform="translate(-184.652 -825.274)" fill="#fcfcfc"/>
      <path id="Path_29" data-name="Path 29" d="M289.368,1023.66c-.532-4.894-1.915-20.639.16-25.32v-.319l.692-.8a21.386,21.386,0,0,1,3.67-2.553,29.309,29.309,0,0,1,13.724-3.724,51.428,51.428,0,0,1,8.3.266l.638.106,2.234.319a8.37,8.37,0,0,1,5.851,3.883,29.931,29.931,0,0,1,2.979,8.671l.532,2.234a34.445,34.445,0,0,1,1.117,11.969l-3.883-.372a30.709,30.709,0,0,0-1.011-10.639l-.532-2.287a26.355,26.355,0,0,0-2.553-7.554c-.638-1.117-1.543-1.649-3.3-2.021l-1.862-.266-.692-.106a47.874,47.874,0,0,0-7.66-.266,25.478,25.478,0,0,0-11.968,3.192,17.439,17.439,0,0,0-2.713,1.862h-.053c-1.117,1.755-.8,13.458.213,23.3Z" transform="translate(-181.948 -822.927)" fill="#1a1a1a"/>
      <path id="Path_30" data-name="Path 30" d="M310.7,955.987a.532.532,0,0,1-.266-1.011l4.2-2.234a3.3,3.3,0,0,0,1.915-3.3l-2.128-14.788a.538.538,0,0,1,1.064-.16l2.128,14.788a4.308,4.308,0,0,1-2.447,4.362l-4.2,2.234Z" transform="translate(-192.109 -796.319)" fill="#1a1a1a"/>
      <path id="Path_31" data-name="Path 31" d="M323.638,1743.8a1.064,1.064,0,0,1-1.064-1.064c-.426-17.607-1.489-46.225-2.66-49.31-3.883-2.287-22.979-8.245-32.661-11.117a1.064,1.064,0,0,1,.585-2.021c1.17.372,28.884,8.564,33.405,11.49.692.479,1.6,1.011,2.607,26.331.532,12.234.8,24.469.8,24.575a1.064,1.064,0,0,1-1.064,1.064ZM319.862,1693.377Z" transform="translate(-181.111 -1145.612)" fill="#666b6d"/>
      <path id="Path_32" data-name="Path 32" d="M228.729,1350.005a1.064,1.064,0,0,1-1.064-1.011c-.16-3.192-4.415-53.672-4.468-54.2a1.067,1.067,0,1,1,2.128-.16c.16,1.915,3.777,44.469,4.362,52.98,5.958-1.6,31.6-8.4,41.81-10.426a1.064,1.064,0,0,1,.426,2.075c-11.49,2.287-42.608,10.639-42.927,10.745Z" transform="translate(-151.417 -964.639)" fill="#1d1647"/>
      <path id="Path_33" data-name="Path 33" d="M150.278,1502.861a29.461,29.461,0,0,1-8.99-1.17c-15.266-5-25.692-46.012-26.118-47.767a1.071,1.071,0,0,1,2.075-.532c.106.426,10.585,41.6,24.735,46.278s48.991-7.553,49.363-7.713a1.068,1.068,0,1,1,.692,2.021C190.811,1494.4,166.98,1502.861,150.278,1502.861Z" transform="translate(-100.838 -1039.035)" fill="#1d1647"/>
      <path id="Path_34" data-name="Path 34" d="M337.05,1485.746a1.064,1.064,0,0,1-.479-2.021l32.395-16.224a1.071,1.071,0,0,1,.957,1.915l-32.395,16.224Z" transform="translate(-204.204 -1045.962)" fill="#1d1647"/>
      <path id="Path_35" data-name="Path 35" d="M479.552,1355.976h-.16a1.064,1.064,0,0,1-.9-1.223l8.936-55.8a1.064,1.064,0,1,1,2.075.319l-8.936,55.8a1.064,1.064,0,0,1-1.011.9Z" transform="translate(-270.905 -966.62)" fill="#1d1647"/>
      <path id="Path_36" data-name="Path 36" d="M461.972,1527.369h-.16l-53.619-8.351a1.076,1.076,0,0,1,.319-2.128l53.619,8.3a1.067,1.067,0,1,1-.16,2.128Z" transform="translate(-237.58 -1069.127)" fill="#1d1647"/>
    </g>
    <g id="four" transform="translate(-11741.108 -1882.188)">
      <path id="Path_37" data-name="Path 37" d="M917.881,245.9,908.2,281.167l20.852,24.416,29.788-14.894-1.223-37.235Z" transform="translate(-425.076 -115.01)" fill="#f8bd8c"/>
      <path id="Path_38" data-name="Path 38" d="M1048.333,831.7v175.112H959.5v-170.7l82.981-4.149Z" transform="translate(-449.088 -389.204)" fill="#31185e"/>
      <path id="Path_39" data-name="Path 39" d="M978.249,1522.3l-3.032,8.4-2.979,8.3-10.053,27.873-12.766,35.374-20.533,87.024H848.511v.372l-11.011.266v-.638l4.415-35.639.638-5.213,1.755-13.99,1.649-13.086,1.223-9.894,5.745-46.331,1.543-12.607,3.777-30.214Z" transform="translate(-438.954 -1071.665)" fill="#31185e"/>
      <path id="Path_40" data-name="Path 40" d="M873.766,975.4s-43.672,26.65-62.928,36.012-31.81,23.033-36.278,30.958-14.788,15.107-14.043,20.16-17.022,26.65-20.745,44.682-10.373,77.822-10.373,79.949,11.862,51.863,11.862,51.863,34.788,34.576,42.182,42.5,29.629,20.9,32.554,20.9,21.437-12.234,20.745-24.469-5.9-47.555-11.117-53.3c-4.043-4.522-8.99-8.564-12.766-14.628a34.785,34.785,0,0,1-2.819-5.585c-3.724-9.362,6.649-31.7,6.649-31.7s33.3-79.258,31.81-90.056,9.628-48.991,6.649-59.1S873.766,975.4,873.766,975.4Z" transform="translate(-388.355 -815.679)" fill="#c5a2fd"/>
      <path id="Path_41" data-name="Path 41" d="M1041.653,1072.637s7.394,101.6,6.649,118.887-4.362,27.395.053,46.81,2.287,25.213,0,32.395-30.373,6.49-30.373,6.49l-131.76-7.66L836.7,1198.013l64.364-200.272L923.99,975.4s26.277,22.341,48.087,8.99c0,0,60.693,34.2,69.2,40.693S1041.653,1072.637,1041.653,1072.637Z" transform="translate(-438.579 -815.679)" fill="#c5a2fd"/>
      <path id="Path_42" data-name="Path 42" d="M1213.077,1073.8s21.224,21.118,20.745,35.054,5.426,65.8,4.415,80.694,1.49,15.373,3.458,26.437,10.107,33.14,10.851,57.608,11.49,42.129,4.1,54.417-12.926,15.852-12.926,15.852-1.862-18.671-5.16-20.532-19.2-6.49-19.2-6.49L1201.8,1122.791Z" transform="translate(-609.471 -861.737)" fill="#c5a2fd"/>
      <path id="Path_43" data-name="Path 43" d="M1005.535,928.341c-2.128-4.947,14.2,27.5,30.852,25.639,14.309-1.543,14.894-27.98,14.894-27.98s-5.053,8.351-20.16,8.351c-16.809,0-25.586-6.064-25.586-6.064Z" transform="translate(-517.517 -792.557)" fill="#eab186"/>
      <ellipse id="Ellipse_9" data-name="Ellipse 9" cx="12.926" cy="9.894" rx="12.926" ry="9.894" transform="translate(543.028 105.678) rotate(-86.9)" fill="#f2b588"/>
      <ellipse id="Ellipse_10" data-name="Ellipse 10" cx="12.926" cy="9.894" rx="12.926" ry="9.894" transform="translate(464.138 101.337) rotate(-86.9)" fill="#f2b588"/>
      <path id="Path_44" data-name="Path 44" d="M1061.418,798.1c-5.16,30.32-22.767,56.438-47.023,55.108s-37.023-23.884-40.853-59.842c-3.351-31.544,22.767-56.438,47.023-55.108S1066.738,766.82,1061.418,798.1Z" transform="translate(-502.494 -704.655)" fill="#f8bd8c"/>
      <path id="Path_45" data-name="Path 45" d="M996.867,720.815c.053,2.021-.266,5.213-.053,6.224a9.651,9.651,0,0,0,4.2,6.543c2.234,1.277,3.4,1.011,5.16,1.011,6.436.16,13.192-2.606,19.362-2.341,2.819.106,5,2.181,7.394,3.83,4.468,2.979,12.713,2.287,12.713,2.287,4.2,5.9,4.628,14.681,8.937,20.107a26.494,26.494,0,0,0,2.926-2.287c5.8-4.841,6.117-5.745,4.255-13.352-1.49-6.117,2.606-8.724,4.681-13.617,2.872-6.7,7.819-12.926,2.766-18.139-6.6-6.809-11.33-12.234-15.532-21.171-2.34-4.947-5.479-10.373-10.585-11.33-8.245-1.543-14.575,7.553-22.873,2.021-3.032-2.021-5.958-4.628-9.468-5.053s-7.287,1.489-10.266,3.83-7.128,6.436-11.49,8.3c-7.181,3.138-15.479,4.362-21.384,10.213-3.936,3.883-6.117,9.2-8.139,14.415s-4.681,9.522-5.107,14.256,2.607,16.809,6.862,20.213c2.021,1.649,3.564,5.532,3.564,5.532s6.543-12.022,7.607-14.734,6.436-9.841,10.16-12.394,4.947-3.564,7.873-4.894C992.345,719.379,996.76,717.251,996.867,720.815Z" transform="translate(-493.636 -675.3)" fill="#31185e"/>
      <circle id="Ellipse_11" data-name="Ellipse 11" cx="3.83" cy="3.83" r="3.83" transform="translate(487.392 90.866) rotate(-86.9)" fill="#1b191b"/>
      <circle id="Ellipse_12" data-name="Ellipse 12" cx="3.83" cy="3.83" r="3.83" transform="translate(532.994 93.352) rotate(-86.9)" fill="#1b191b"/>
      <path id="Path_46" data-name="Path 46" d="M992.39,812.387a2.553,2.553,0,0,1-.957-4.947c12.341-5.16,21.65-.213,22.022,0a2.571,2.571,0,0,1-2.447,4.521c-.372-.213-7.66-3.936-17.66.213A2.66,2.66,0,0,1,992.39,812.387Z" transform="translate(-510.224 -735.966)" fill="#31185e"/>
      <path id="Path_47" data-name="Path 47" d="M1079.729,816.03a2.553,2.553,0,0,1-.638-5c12.607-4.362,21.6,1.17,21.969,1.383a2.568,2.568,0,1,1-2.713,4.362c-.319-.213-7.447-4.415-17.607-.9A2.66,2.66,0,0,1,1079.729,816.03Z" transform="translate(-551.178 -737.961)" fill="#31185e"/>
      <path id="Path_48" data-name="Path 48" d="M1063.531,823.11h0a2.713,2.713,0,0,0-.745-1.436l-.319-.266h0l-.638-.372a27.952,27.952,0,0,0-3.776-1.117l-4.415-.8c-1.862-.319-3.99-.585-6.33-.851h0a94.841,94.841,0,0,0-10.373-.638h0a45.689,45.689,0,0,0-5.266.266l-1.49.213c-6.117.958-6.383,2.447-6.33,3.3a.16.16,0,0,1-.266.16,10.053,10.053,0,0,0-8.671-.479.16.16,0,0,1-.213-.16c.16-.9,0-2.606-7.447-4.309l-.426-.106a50.168,50.168,0,0,0-6.224-.9h0c-2.606-.213-5.319-.319-7.873-.319h0c-3.777-.053-7.288.106-9.734.319l-2.287.213a31.128,31.128,0,0,0-4.1.745,2.447,2.447,0,0,0-1.277.8h0a2.553,2.553,0,0,0-.638,1.6v.16a2.553,2.553,0,0,0,1.489,2.394,2.712,2.712,0,0,1,1.17.9c.958,1.277,1.17,2.341,2.287,2.872a.16.16,0,0,1,.106.159,29.8,29.8,0,0,0,.851,9.894,11.223,11.223,0,0,0,2.819,4.894A12.022,12.022,0,0,0,988.263,843a25.373,25.373,0,0,0,6.436,1.17,23.671,23.671,0,0,0,6.7-.532,12.917,12.917,0,0,0,9.2-8.617,29.249,29.249,0,0,0,1.968-10.532.957.957,0,0,0,.958-.213h.053l.213-.16c.532-.479,2.181-1.7,5.426-1.489s4.734,1.543,5.213,2.075,0,.16.053.213h-.106a1.224,1.224,0,0,0,.851.372.16.16,0,0,1,.16.16,31.259,31.259,0,0,0,.958,10.479,13.811,13.811,0,0,0,8.245,9.575,23.834,23.834,0,0,0,6.6,1.223,25.429,25.429,0,0,0,6.543-.426,14.046,14.046,0,0,0,3.351-1.17,10.6,10.6,0,0,0,5.106-5.692,33.065,33.065,0,0,0,1.862-9.788.16.16,0,0,1,.106-.16c1.17-.425,1.436-1.436,2.5-2.606a2.873,2.873,0,0,1,1.117-.745,2.606,2.606,0,0,0,1.064-.745,2.657,2.657,0,0,0,.532-.957,2.6,2.6,0,0,0,.16-.691v-.16a2.55,2.55,0,0,0,0-.479ZM1009.7,834.547a12.1,12.1,0,0,1-8.564,8.085,25.108,25.108,0,0,1-12.607-.585,11.172,11.172,0,0,1-4.521-2.607,10.425,10.425,0,0,1-2.553-4.522c-1.064-3.457-.9-8.245-.692-10.426h0c.319-1.383,1.17-3.989,2.979-5.372l.851-.479c3.245-1.436,10.053-2.128,16.7-.638s9.2,3.245,10.16,5.213l.106.213C1011.987,825.132,1011.4,829.866,1009.7,834.547Zm47.448-5.958a30.1,30.1,0,0,1-1.808,10.32c-1.436,3.351-2.66,4.309-4.947,5.372a13.186,13.186,0,0,1-2.873.9,25.106,25.106,0,0,1-12.607-.745,12.078,12.078,0,0,1-7.66-8.936c-1.064-4.362-1.224-9.575-.638-11.33l.106-.213c1.17-1.862,3.883-3.351,10.692-4.043s12.553.479,15.852,2.075l.692.372c2.287,1.33,2.979,4.628,3.138,6.224Z" transform="translate(-503.171 -740.732)" fill="#1b191b"/>
      <path id="Path_49" data-name="Path 49" d="M1044.026,910.971a15.532,15.532,0,0,1-8.085-2.234.426.426,0,0,1,.479-.638c.319.213,8.032,5.372,17.075-1.17a.426.426,0,1,1,.479.638,16.808,16.808,0,0,1-9.947,3.4Z" transform="translate(-531.805 -783.538)"/>
      <path id="Path_50" data-name="Path 50" d="M1050.963,876.932h-.213c-.053-.053-1.915-1.223-2.074-2.713s.426-8.032.426-8.3a.426.426,0,1,1,.8.053c-.213,2.394-.532,7.128-.426,8.138s1.277,1.862,1.7,2.128a.387.387,0,1,1-.213.745Z" transform="translate(-537.785 -764.181)"/>
      <path id="Path_51" data-name="Path 51" d="M872.418,1228.6l-.479-.106a1.064,1.064,0,0,1-.532-1.436c1.17-2.447,10.851-31.49,11.011-33.724a1.067,1.067,0,0,1,2.128.16c-.213,2.66-10.16,32.288-11.224,34.469A1.064,1.064,0,0,1,872.418,1228.6Z" transform="translate(-454.775 -917.224)" fill="#9e4aff"/>
      <path id="Path_52" data-name="Path 52" d="M1038.157,992.356a42.8,42.8,0,0,1-15-2.926c-.8-.266-11.6-5.8-13.777-6.915a1.07,1.07,0,1,1,.958-1.915c4.894,2.5,12.873,6.543,13.511,6.809,18.937,6.915,27.98-1.383,28.086-1.436a1.072,1.072,0,0,1,1.49,1.543C1053.1,987.835,1048.21,992.356,1038.157,992.356Z" transform="translate(-519.128 -818.06)" fill="#9e4aff"/>
      <path id="Path_53" data-name="Path 53" d="M1046.849,1641.636h-.372a1.064,1.064,0,0,1-.638-1.383l12.766-35.374a1.077,1.077,0,0,1,2.021.745L1047.86,1641A1.063,1.063,0,0,1,1046.849,1641.636Z" transform="translate(-536.437 -1109.988)" fill="#9e4aff"/>
    </g>
    <g id="one" transform="translate(-11738.049 -1882.188)">
      <path id="Path_74" data-name="Path 74" d="M665.972,955.669s13.192-4.894,25.107,1.224,19.15,12.979,22.022,67.4,2.606,81.7,2.926,85.907-103.727,2.926-103.727,2.926V977.585Z" transform="translate(-333.545 -805.576)" fill="#0b0635"/>
      <path id="Path_75" data-name="Path 75" d="M560.9,1248.8s-52.98,5.745-51.97,97.078-18.458,84.9-2.553,149.9c0,0,36.012,7.287,56.6-7.447L560.9,1308.8Z" transform="translate(-281.029 -943.649)" fill="#fcfcfc"/>
      <path id="Path_76" data-name="Path 76" d="M707.746,1710.694v-.638H537.9c1.7-10.16,5.585-25.16,10.373-41.7l1.33-4.628v-.106c1.7-5.745,3.458-11.6,5.266-17.5l.106-.266c8.245-26.809,17.235-53.725,22.182-68.247h0l2.766-8.032h0l1.011-2.872H691.469c.319.9.9,3.3,1.649,6.809h0l.585,2.819c2.181,10.532,5.532,28.086,9.1,47.129h0l.851,4.468c1.6,8.564,3.192,17.288,4.734,25.692l.532,2.926,1.17,6.277.106.532,1.064,5.745.957,5.319c3.4,18.83,6.011,33.193,6.436,35.639v.372Z" transform="translate(-298.72 -1092.448)" fill="#ff7c90"/>
      <path id="Path_77" data-name="Path 77" d="M595.233,1248.207s-24.043,6.968-20.8,57.449-23.99,113.089,15.213,120.376l108.089-1.33a18.618,18.618,0,0,0,18.4-18.618V1247.036l-22.66-3.936Z" transform="translate(-312.914 -940.981)" fill="#fcfcfc"/>
      <path id="Path_78" data-name="Path 78" d="M620.6,514.648l-39.1,1.17,1.33-33.618h35.8Z" transform="translate(-272.159 -225.614)" fill="#f8bd8c"/>
      <path id="Path_79" data-name="Path 79" d="M655.256,1209.2H705.2a6.915,6.915,0,0,1,6.649,5.745l2.819,14.415L646,1232.02l2.553-16.756A6.915,6.915,0,0,1,655.256,1209.2Z" transform="translate(-349.319 -925.113)" fill="#fcfcfc"/>
      <path id="Path_80" data-name="Path 80" d="M707.112,1172.536c-2.234,4.734-6.277,9.415-12.075,10.054-9.947,1.117-19.681-9.947-24.469-16.064-.957-1.224-1.436-2.234-1.968-2.926a23.133,23.133,0,0,0,4.415,2.181,50.106,50.106,0,0,0,17.554,2.926,28.935,28.935,0,0,0,13.139-2.926h3.032Z" transform="translate(-359.897 -903.769)" fill="#eab186"/>
      <ellipse id="Ellipse_16" data-name="Ellipse 16" cx="37.501" cy="48.938" rx="37.501" ry="48.938" transform="translate(287.585 170.557) rotate(-1.8)" fill="#f8bd8c"/>
      <path id="Path_81" data-name="Path 81" d="M774.564,1080.9c0,5.585-4.841,11.011-8.83,11.011s-7.234-4.521-7.234-10.107,5.319-10.107,9.309-10.107S774.564,1075.317,774.564,1080.9Z" transform="translate(-401.976 -860.754)" fill="#f8bd8c"/>
      <path id="Path_82" data-name="Path 82" d="M730.27,1049.719l-.9-.16c-8.032-2.66-13.351-.266-13.564-.16a2.926,2.926,0,1,1-2.553-5.266c.319-.159,7.5-3.564,17.926-.159a2.926,2.926,0,0,1-.9,5.692Z" transform="translate(-380.023 -847.071)"/>
      <path id="Path_83" data-name="Path 83" d="M639.054,1057.214a2.926,2.926,0,0,1-1.649-5.319c.266-.213,6.862-4.681,17.66-2.873a2.926,2.926,0,1,1-.957,5.745c-8.351-1.383-13.245,1.809-13.4,1.915A2.925,2.925,0,0,1,639.054,1057.214Z" transform="translate(-344.713 -849.938)"/>
      <path id="Path_84" data-name="Path 84" d="M698.9,1097.615h-2.926a.479.479,0,0,1-.479-.479v-10.958a.479.479,0,1,1,.958,0v10.479H698.9a.479.479,0,0,1,0,.958Z" transform="translate(-372.488 -867.307)"/>
      <ellipse id="Ellipse_17" data-name="Ellipse 17" cx="3.245" cy="4.096" rx="3.245" ry="4.096" transform="translate(301.416 212.382)"/>
      <ellipse id="Ellipse_18" data-name="Ellipse 18" cx="3.245" cy="4.096" rx="3.245" ry="4.096" transform="translate(339.13 208.286)"/>
      <path id="Path_85" data-name="Path 85" d="M680,1132.189c1.117,5,6.968,8.245,13.511,7.341,5.639-.8,10-4.521,10.8-8.83Z" transform="translate(-365.233 -888.37)" fill="#fcfcfc"/>
      <path id="Path_86" data-name="Path 86" d="M649.429,950.174c10.16,20.426-14.362,27.714-23.671,38.778-10.16,12.075-17.181,35.905-16.649,51.757,1.489,43.3,16.117,77.981-12.394,117.61,5.9-24.043-3.085-42.448-10.585-64.257-8.245-23.99-8.085-48.619-5.266-73.566,2.128-18.777,2.819-49.2,16.969-63.406C605.97,948.9,642.939,937.142,649.429,950.174Z" transform="translate(-318.012 -801.145)" fill="#0b0635"/>
      <path id="Path_87" data-name="Path 87" d="M706.9,991.332a36.273,36.273,0,0,0,14.735,12.926c14.415,6.968,17.5,29.895,17.5,29.895l5.851-3.192L733.656,988.3Z" transform="translate(-377.824 -821.717)" fill="#0b0635"/>
      <path id="Path_88" data-name="Path 88" d="M855.943,1678.13l-7.181-2.341a2.713,2.713,0,0,1,.106-2.872c1.011-1.649,3.351-1.6,4.468-1.436a21.1,21.1,0,0,1,3.511,1.011,22.9,22.9,0,0,1,5.692-4.681s-.745-3.936.585-6.543a10.372,10.372,0,0,1-2.606-7.447l-.745-1.383-1.6.745c-.638.372-.692,2.5-.479,3.777a28.561,28.561,0,0,1,.16,7.713,4.46,4.46,0,0,1-4.84,3.83c-2.66-.106-2.766-2.713-3.245-5s-.319-4.468-.106-8.617-.9-6.224-1.7-10.16a27.072,27.072,0,0,1-.479-7.075,43.715,43.715,0,0,1,2.021-8.245,10.811,10.811,0,0,1,.425-6.224c1.33-2.979-3.032-24.682-3.032-24.682l22.182,2.5-2.075,24.575s6.968,14.522,9.256,21.064,3.99,10,3.67,13.245c0,0-3.351,13.085-6.809,15.958s-11.437,8.139-13.724,8.3a80.623,80.623,0,0,1-9.1-.692,6.862,6.862,0,0,1-2.553-.691s-1.064,0-.266-2.181S850.517,1678.822,855.943,1678.13Z" transform="translate(-443.353 -1107.332)" fill="#f8bd8c"/>
      <path id="Path_89" data-name="Path 89" d="M823.3,1246.283s31.065-2.234,41.969,41.331,9.788,59.9,9.2,87.609,31.756,82.5,2.394,117.77c0,0-24.841-12.394-47.874-17.075,0,0-4.043-4.415-1.7-50.161s-3.99-179.474-3.99-179.474Z" transform="translate(-432.307 -942.462)" fill="#fcfcfc"/>
      <path id="Path_90" data-name="Path 90" d="M560.311,1715.4s-9.2.585-11.011.532c0,0,.106,12.873,5.532,17.235l.106.106Z" transform="translate(-304.056 -1162.049)" fill="#eab186"/>
      <path id="Path_91" data-name="Path 91" d="M595.147,1467.317a1.064,1.064,0,0,1-1.064-.957,75.48,75.48,0,0,1,1.277-21.331c1.17-5.479.372-8.617-.851-13.4a87.989,87.989,0,0,1-3.032-18.458c-1.223-19.256,5.958-30.107,6.277-30.586a1.064,1.064,0,0,1,1.755,1.17c-.106.16-7.075,10.8-5.9,29.256a86.119,86.119,0,0,0,2.926,18.086c1.277,4.894,2.181,8.4.851,14.415a76.138,76.138,0,0,0-1.223,20.692,1.064,1.064,0,0,1-.958,1.17Z" transform="translate(-323.732 -1006.097)" fill="#ccdde7"/>
      <path id="Path_92" data-name="Path 92" d="M821.442,1517.276h-.106a1.064,1.064,0,0,1-.957-1.17c.851-8.4,1.543-15.958.745-23.4-.426-3.936-.9-7.819-1.383-11.649a258.214,258.214,0,0,1-2.341-26.011,1.064,1.064,0,0,1,2.128-.053,248.537,248.537,0,0,0,2.34,25.8c.479,3.83.958,7.766,1.383,11.7.8,7.66.106,15.32-.745,23.831a1.064,1.064,0,0,1-1.064.958Z" transform="translate(-429.545 -1039.673)" fill="#ccdde7"/>
      <path id="Path_93" data-name="Path 93" d="M671.768,1587.228h-64.2a1.064,1.064,0,0,1,0-2.128h64.2a1.064,1.064,0,0,1,0,2.128Z" transform="translate(-330.83 -1101.06)" fill="#dc4070"/>
    </g>
    <g id="two" transform="translate(-11706.049 -1881.55)">
      <path id="Path_53-2" data-name="Path 53" d="M1046.849,1641.636h-.372a1.064,1.064,0,0,1-.638-1.383l12.766-35.374a1.077,1.077,0,0,1,2.021.745L1047.86,1641A1.063,1.063,0,0,1,1046.849,1641.636Z" transform="translate(-536.437 -1109.988)" fill="#9e4aff"/>
      <path id="Path_107" data-name="Path 107" d="M2156.5,1324.058a1.064,1.064,0,0,1-1.064-.851c-2.447-11.49-1.17-21.756,3.67-30.639s7.341-16.383,10.426-25.16c1.808-5.107,3.617-10.426,5.851-15.639a1.064,1.064,0,0,1,1.968.8c-2.181,5.16-3.99,10.426-5.8,15.532-2.926,8.458-6.011,17.181-10.532,25.479s-5.8,18.192-3.457,29.15a1.064,1.064,0,0,1-.8,1.277Z" transform="translate(-1475.23 -944.755)" fill="#1d1647"/>
      <path id="Path_132" data-name="Path 132" d="M2070.973,1155.574l-18.405,21.862-5.851,6.968-51.917,61.757,3.032-86.12a13.458,13.458,0,0,0,12.607-13.4V1117.7l36.863,1.33,1.49,9.947.266,1.7v.266c.266,1.915.479,4.149.691,6.489l.159,1.436c.851,8.511,2.713,17.82,12.713,17.181Z" transform="translate(-1400.609 -882.285)" fill="#f8bd8c"/>
      <path id="Path_133" data-name="Path 133" d="M2063.663,1145.813c-2.5,4.309-6.542,8.3-12.075,8.883-10.585,1.17-20.905-10.213-26.011-16.543a17.209,17.209,0,0,1-1.277-1.809v-.745a23.508,23.508,0,0,0,3.883,1.808,54.365,54.365,0,0,0,18.618,3.032,31.545,31.545,0,0,0,13.937-3.032h1.915l.266,1.7v.266C2063.238,1141.238,2063.4,1143.473,2063.663,1145.813Z" transform="translate(-1414.417 -890.664)" fill="#eab186"/>
      <path id="Path_134" data-name="Path 134" d="M2047.421,1013.046s43.991-4.787,26.118-59.842-72.981-42.076-72.981-42.076-40.746,16.6-45.64,51.491,24.628,44.469,24.628,44.469Z" transform="translate(-1381.686 -784.971)"/>
      <path id="Path_135" data-name="Path 135" d="M2067.233,885.756s12.607-21.224,7.766-26.543-11.011-11.49-23.3-9.309-14.894,14.415-13.724,18.458a87.225,87.225,0,0,0,8.191,18.777C2050.212,893.735,2067.233,885.756,2067.233,885.756Z" transform="translate(-1420.701 -756.727)"/>
      <ellipse id="Ellipse_31" data-name="Ellipse 31" cx="48.033" cy="36.81" rx="48.033" ry="36.81" transform="translate(591.451 250.858) rotate(-84.6)" fill="#f8bd8c"/>
      <path id="Path_136" data-name="Path 136" d="M2057.2,962s15.214,30.693,44.789,47.236,2.926-42.076,2.926-42.076Z" transform="translate(-1429.817 -809.407)"/>
      <path id="Path_137" data-name="Path 137" d="M1978.6,1043.447c0,6.011,5.213,11.862,9.575,11.862s7.819-4.894,7.819-10.9-5.745-10.9-10.053-10.9S1978.6,1037.436,1978.6,1043.447Z" transform="translate(-1393.026 -842.874)" fill="#f8bd8c"/>
      <path id="Path_138" data-name="Path 138" d="M2136.094,1049.247c0,6.011-5.213,11.862-9.575,11.862s-7.819-4.894-7.819-10.9,5.745-10.9,10.053-10.9S2136.094,1043.183,2136.094,1049.247Z" transform="translate(-1458.603 -845.589)" fill="#f8bd8c"/>
      <ellipse id="Ellipse_32" data-name="Ellipse 32" cx="3.245" cy="4.202" rx="3.245" ry="4.202" transform="translate(614.936 195.201)"/>
      <ellipse id="Ellipse_33" data-name="Ellipse 33" cx="3.245" cy="4.202" rx="3.245" ry="4.202" transform="translate(647.65 197.275)"/>
      <path id="Path_139" data-name="Path 139" d="M2035.492,1027.787h-.8c-7.234-1.064-11.649,1.17-11.809,1.224a2.861,2.861,0,0,1-3.511-.585,1.91,1.91,0,0,1,.851-2.872c.266-.106,6.277-3.245,15.585-1.862,1.383.213,2.234,1.277,1.915,2.394A2.553,2.553,0,0,1,2035.492,1027.787Z" transform="translate(-1411.938 -838.118)"/>
      <path id="Path_140" data-name="Path 140" d="M2105.448,1029.754l-.745-.266c-6.543-3.245-11.437-2.447-11.649-2.447a2.881,2.881,0,0,1-3.138-1.649,1.9,1.9,0,0,1,1.7-2.447c.266-.053,6.969-1.17,15.426,2.979,1.223.638,1.755,1.915,1.117,2.872A2.553,2.553,0,0,1,2105.448,1029.754Z" transform="translate(-1445.085 -837.851)"/>
      <path id="Path_141" data-name="Path 141" d="M2068.064,1072.24a2.607,2.607,0,0,1-1.543-.479c-1.383-1.011-1.436-1.7-1.276-3.3l.638-6.809a.479.479,0,0,1,.9.106l-.638,6.809c-.159,1.436-.106,1.755.9,2.5a1.7,1.7,0,0,0,1.383.266l1.7-.372a.479.479,0,0,1,.212.9l-1.7.372Z" transform="translate(-1433.553 -855.922)" fill="#080305"/>
      <path id="Path_142" data-name="Path 142" d="M2043.4,1104c.8,5.213,6.649,8.936,13.4,8.4,5.851-.479,10.532-4.043,11.649-8.4Z" transform="translate(-1423.357 -875.873)" fill="#fff"/>
      <circle id="Ellipse_34" data-name="Ellipse 34" cx="1.117" cy="1.117" r="1.117" transform="translate(592.43 209.874) rotate(-60)" fill="#080305"/>
      <circle id="Ellipse_35" data-name="Ellipse 35" cx="1.121" cy="1.121" r="1.121" transform="translate(670.811 207.571) rotate(-60.113)" fill="#080305"/>
      <path id="Path_143" data-name="Path 143" d="M2057.012,962.9l-30.746,13.3L2008.5,957.526l38.725-27.926,16.437,30.693Z" transform="translate(-1360.052 -435.028)" fill="#f8bd8c"/>
      <path id="Path_144" data-name="Path 144" d="M1840.15,1738.683l6.968-2.287a2.606,2.606,0,0,0-.106-2.819c-.958-1.6-3.245-1.542-4.362-1.383a20.371,20.371,0,0,0-3.4.957,21.561,21.561,0,0,0-5.532-4.521s.745-3.83-.585-6.33a10.054,10.054,0,0,0,2.553-7.181l.745-1.33,1.543.745c.638.372.692,2.447.426,3.67a27.608,27.608,0,0,0-.16,7.447,4.3,4.3,0,0,0,4.681,3.67c2.553-.106,2.659-2.606,3.138-4.841s.266-4.309.106-8.351.851-6.011,1.649-9.841a26.173,26.173,0,0,0,.479-6.862,42.228,42.228,0,0,0-1.915-7.979,11.329,11.329,0,0,0-.372-6.064c-1.33-2.873,2.926-23.884,2.926-23.884l-21.437,2.447,2.021,23.724s-6.7,14.043-8.937,20.373-3.83,9.628-3.511,12.766c0,0,3.245,12.607,6.6,15.426s11.064,7.873,13.3,8.032a74.578,74.578,0,0,0,8.777-.692,6.6,6.6,0,0,0,2.5-.638s1.01,0,.213-2.128S1845.416,1739.375,1840.15,1738.683Z" transform="translate(-1317.398 -1136.82)" fill="#f8bd8c"/>
      <path id="Path_145" data-name="Path 145" d="M1877.322,1226.3s-18.564,10.16-21.224,24.469-11.65,34.523-16.543,42.927-11.17,25.692-12.075,31.6-13.4,90.535-9.841,110.7.8,35.906,7.713,38.725,28.99,0,28.99,0l32.235-196.443Z" transform="translate(-1317.388 -933.117)" fill="#ababab"/>
      <path id="Path_146" data-name="Path 146" d="M2026.338,1714.261H1848.3q.585-5.16,1.33-10.639.851-6.277,1.809-12.979.585-3.936,1.223-7.979h0c1.915-12.022,4.309-24.788,7.128-38.033h0l.585-2.553h0l.638-2.766v-.213q1.383-6.064,2.872-12.235.9-3.617,1.862-7.287c2.553-9.894,5.426-19.948,8.617-30.054h0l1.7-5.373a10.01,10.01,0,0,1,1.915-1.277c3.139-1.7,10.585-4.734,26.278-6.224h.053a245.24,245.24,0,0,1,29.256-.851c13.3.319,29.522,1.436,49.31,3.883,0,0,1.117,3.777,2.979,9.841s4.043,12.873,6.756,20.958,5.373,15.479,8.351,23.245l1.01,2.553c3.936,9.894,8.032,19.15,12.022,25.8C2019.795,1671.759,2023.784,1692.664,2026.338,1714.261Z" transform="translate(-1332.037 -1096.652)" fill="#190444"/>
      <path id="Path_147" data-name="Path 147" d="M1898.877,1345.075c.426-4.468,2.926-34.469,2.926-34.469s1.6-42.555.106-57.289c-.958-9.256,5.532-27.554,10.479-39.9q1.277-3.191,2.394-5.745l9.628-3.989,32.979-13.671s-6.6,49.523-2.979,76.386c0,0,52.5-54.9,63.247-80,0,0,35.8,6.543,44.789,5.373s29.256,4.149,37.607,66.864,35.214,95.482,36.438,106.865,7.181,23.884-7.182,38.193-38.192,36.384-41.171,40.587-32.235,11.33-32.235,11.33l-30.373-55.161a3.458,3.458,0,0,1,1.649-4.84c5.106-2.181,14.256-6.17,16.809-7.447,3.564-1.809,26.543-13.724,26.543-13.724s-18.032-24.469-20.267-50.427c-1.01-11.6-1.489-20.8-1.649-27.395-.266,22.235-3.138,68.779-21.33,92.769l-9.575,17.926H1897.175a24.631,24.631,0,0,1,0-7.075C1898.239,1394.226,1898.452,1349.543,1898.877,1345.075Z" transform="translate(-1354.795 -914.441)" fill="#ababab"/>
      <path id="Path_148" data-name="Path 148" d="M1828.781,1502.624h-.266l-6.49-1.755c-1.542-.426-3.351-2.234-4.255-12.5-.425-5.106-.425-10.213-.425-10.745l-2.447-29.043a1.089,1.089,0,0,1,0-.16l1.543-24.948c.053-.532,5.479-49.1,7.234-59.9s4.521-24.735,11.171-38.512,17.607-41.331,17.767-41.6a1.064,1.064,0,0,1,1.968.8c-.106.266-11.224,27.98-17.82,41.757s-9.2,26.756-11.011,37.927-7.181,59.257-7.234,59.789l-1.543,24.841,2.447,28.99v.106c-.106,11.011,1.33,20.745,3.085,21.224l6.49,1.755a1.064,1.064,0,0,1-.266,2.075Z" transform="translate(-1316.401 -959.593)" fill="#8e8d8e"/>
      <path id="Path_149" data-name="Path 149" d="M1889.952,1499.156a1.065,1.065,0,0,1-.8-.319c-.319-.372-3.351-4.362-3.777-28.724s4.468-42.555,5.8-44.416a1.07,1.07,0,0,1,1.755,1.224c-.9,1.436-5.851,18.883-5.426,43.14.426,23.033,3.085,27.129,3.3,27.341a1.064,1.064,0,0,1-.8,1.755Z" transform="translate(-1349.38 -1026.234)" fill="#8e8d8e"/>
      <path id="Path_150" data-name="Path 150" d="M2003.13,1266.547h-.372a1.064,1.064,0,0,1-.692-.9c-.053-.319-3.67-33.778,2.766-76.173a1.076,1.076,0,1,1,2.128.319,331.917,331.917,0,0,0-2.979,73.353c8.83-8.936,51.438-52.927,61.438-77.981a1.064,1.064,0,1,1,1.968.8c-11.277,28.3-61.385,78.247-63.512,80.322A1.065,1.065,0,0,1,2003.13,1266.547Z" transform="translate(-1403.514 -913.522)" fill="#8e8d8e"/>
      <path id="Path_151" data-name="Path 151" d="M2255.473,1552.175a1.064,1.064,0,0,1-.8-1.755c.106-.106,10.585-12.554,30.427-30.054l.691-.585c6.862-6.064,15.373-13.564,18.032-22.447,3.3-11.064.957-24.15-7.075-38.937-6.6-12.234-11.809-25.426-16.809-38.14l-1.6-4.1a1.064,1.064,0,1,1,1.968-.8l1.6,4.1c5,12.66,10.107,25.8,16.7,37.927,8.3,15.266,10.692,28.937,7.234,40.533-2.819,9.468-11.6,17.234-18.67,23.458l-.692.585c-19.681,17.394-30.107,29.682-30.214,29.841A1.064,1.064,0,0,1,2255.473,1552.175Z" transform="translate(-1522.129 -1021.271)" fill="#8e8d8e"/>
      <path id="Path_152" data-name="Path 152" d="M2171.95,1444.207h-.213a1.064,1.064,0,0,1-.851-1.224c0-.053.638-3.3,1.968-11.49s2.819-38.565,2.873-38.884a1.065,1.065,0,0,1,2.128.106c-.053,1.277-1.542,30.905-2.873,39.1s-1.968,11.49-1.968,11.543A1.064,1.064,0,0,1,2171.95,1444.207Z" transform="translate(-1483.023 -1010.488)" fill="#8e8d8e"/>
      <path id="Path_153" data-name="Path 153" d="M2036.219,1200.956a17.019,17.019,0,0,1-4.521-.585c-9.947-2.713-13.245-14.149-13.3-14.256l.532-.16c.053.106,3.245,11.277,12.926,13.883s20.16-2.819,33.565-15.639l.373.372C2054.412,1195.477,2044.518,1200.956,2036.219,1200.956Z" transform="translate(-1411.656 -913.411)" fill="#080305"/>
    </g>
  </g>
</svg>
