<svg id="Illustration" xmlns="http://www.w3.org/2000/svg" xmlns:xlink="http://www.w3.org/1999/xlink" width="2796.7" height="2480.2" viewBox="0 0 2796.7 2480.2"><defs><style>.cls-1{fill:none;}.cls-2{fill:#2fba35;}.cls-3{clip-path:url(#clip-path);}.cls-4{fill:#fff;}.cls-5{fill:#31185e;}.cls-6{fill:url(#linear-gradient);}.cls-7{fill:url(#linear-gradient-2);}.cls-8{fill:#1a1a1a;}.cls-9{fill:url(#linear-gradient-3);}.cls-10{fill:url(#linear-gradient-4);}.cls-11{fill:url(#linear-gradient-5);}.cls-12{fill:url(#linear-gradient-6);}.cls-13{fill:#c5a2fd;}.cls-14{fill:#ac87f4;}.cls-15{fill:url(#linear-gradient-7);}.cls-16{fill:url(#linear-gradient-8);}.cls-17{fill:url(#linear-gradient-9);}.cls-18{fill:url(#linear-gradient-10);}.cls-19{fill:url(#linear-gradient-11);}.cls-20{fill:#0f0f0f;}.cls-21{fill:#39b44a;}</style><clipPath id="clip-path" transform="translate(-66.1 6.8)"><circle class="cls-1" cx="2323" cy="612.4" r="422.1"/></clipPath><linearGradient id="linear-gradient" x1="2368.1" y1="843.77" x2="2280.06" y2="437.41" gradientUnits="userSpaceOnUse"><stop offset="0" stop-color="#febbba"/><stop offset="1" stop-color="#ff928e"/></linearGradient><linearGradient id="linear-gradient-2" x1="15097.12" y1="-2574.37" x2="15310.28" y2="-2626.25" gradientTransform="matrix(0.86, -0.51, 0.51, 0.86, 487.88, 774.37)" xlink:href="#linear-gradient"/><linearGradient id="linear-gradient-3" x1="15089.56" y1="-2605.24" x2="15302.72" y2="-2657.12" gradientTransform="matrix(0.86, -0.51, 0.51, 0.86, 487.88, 774.37)" xlink:href="#linear-gradient"/><linearGradient id="linear-gradient-4" x1="2252.26" y1="1283.08" x2="2035.72" y2="1468.04" gradientTransform="translate(12.7 -21.2) rotate(-1.9)" xlink:href="#linear-gradient"/><linearGradient id="linear-gradient-5" x1="2382.54" y1="1293.05" x2="2504.34" y2="1414.85" gradientTransform="translate(12.7 -21.2) rotate(-1.9)" xlink:href="#linear-gradient"/><linearGradient id="linear-gradient-6" x1="2028.57" y1="922.68" x2="1410.01" y2="1727.41" xlink:href="#linear-gradient"/><linearGradient id="linear-gradient-7" x1="649.82" y1="1442.79" x2="717.49" y2="1087.52" xlink:href="#linear-gradient"/><linearGradient id="linear-gradient-8" x1="832.92" y1="790.97" x2="446.82" y2="1086.4" xlink:href="#linear-gradient"/><linearGradient id="linear-gradient-9" x1="785.03" y1="728.38" x2="398.93" y2="1023.81" xlink:href="#linear-gradient"/><linearGradient id="linear-gradient-10" x1="2202.86" y1="199" x2="2118.2" y2="879.64" xlink:href="#linear-gradient"/><linearGradient id="linear-gradient-11" x1="241.27" y1="2097.91" x2="1101.38" y2="2483.94" xlink:href="#linear-gradient"/></defs><title>node-svg</title><circle class="cls-2" cx="2257.2" cy="618.9" r="443.3"/><g class="cls-3"><path class="cls-4" d="M2851.9,1143.7l-1022,33.4a11.2,11.2,0,0,1-11.6-10.8L1781.5,38.2a11.2,11.2,0,0,1,10.8-11.6l1022-33.4a11.2,11.2,0,0,1,11.6,10.8l36.8,1128.1A11.2,11.2,0,0,1,2851.9,1143.7Z" transform="translate(-66.1 6.8)"/><path class="cls-5" d="M2105.9,664.3s255.7-49,460.3-1.5L2559.5,873s-44.6,292.6-81,422.4c0,0-154.7,32.1-230.4-6,0,0-72.8-363.2-108.4-416.2C2139.8,873.1,2101.3,732.2,2105.9,664.3Z" transform="translate(-66.1 6.8)"/><path class="cls-6" d="M2278.4,473.7l-20,174s72.6,30.5,121.6-5.4l-14.8-121.8Z" transform="translate(-66.1 6.8)"/><path class="cls-7" d="M2384.9,357.4c.9,1.4,19.1,88.2,30.4,142a37.9,37.9,0,0,1-33.7,45.6l-20.7,1.9a73.9,73.9,0,0,1-79.4-60l-18.2-97.4S2364.2,322.5,2384.9,357.4Z" transform="translate(-66.1 6.8)"/><path class="cls-8" d="M2241,390.3c-8.3-9.6-15.7-25.4.7-42.7s36.1-14,48.7-8.7c5.5,2.3,12.2,1,16-3.7a8.7,8.7,0,0,1,8-3.3,12.8,12.8,0,0,0,14.1-11.6c1.1-12.3,7.1-27,28.7-31.9,39.6-9,60.7,30.2,60.9,58.2s-43.2,35.3-68.2,31.5c-18.3-2.8-33.5,13.7-40.3,22.6a13.2,13.2,0,0,0-2.2,11.4l7.2,26.8c-4.1,8.6-8.1,17.3-14,24.7-4.2,5.3-9,8.3-14.1,9.7-7.9-13.6-28.7-15.2-38.4-15.2a13.2,13.2,0,0,1-9.7-4.2c-7.6-8.1-19.6-26.4,1.7-45.4A13.2,13.2,0,0,0,2241,390.3Z" transform="translate(-66.1 6.8)"/><path class="cls-9" d="M2294.6,502.2s-2.5-48.8-22.4-52.8-40.8,11-22.9,39.7C2271.5,524.8,2294.6,502.2,2294.6,502.2Z" transform="translate(-66.1 6.8)"/><path class="cls-5" d="M2105.9,664.3s-384.9,445.9,90.6,596.2l-1.1-33.8s-180.7-143.1-52.1-350.4C2143.3,876.4,2120.1,684.2,2105.9,664.3Z" transform="translate(-66.1 6.8)"/><path class="cls-10" d="M2198.8,1230s59.5-42.6,87-29.9S2314,1233,2314,1233s-12.6,27.5-33.2,21.4-67.4,9-87.9,2.9C2192.9,1257.3,2185.3,1230.5,2198.8,1230Z" transform="translate(-66.1 6.8)"/><path class="cls-5" d="M2566.2,662.9s429.6,405.7-35,586.8l-1.1-33.8s171-154.5,29.1-353C2559.2,862.8,2540.3,697.6,2566.2,662.9Z" transform="translate(-66.1 6.8)"/><path class="cls-11" d="M2526.8,1219.3s-62.2-38.6-88.8-24.2-25.9,34.7-25.9,34.7,14.4,26.6,34.5,19.2,67.9,4.6,87.9-2.9C2534.5,1246.2,2540.4,1218.9,2526.8,1219.3Z" transform="translate(-66.1 6.8)"/></g><path class="cls-12" d="M2357.4,685.7s-193.4,42.7-311.1,97a107.4,107.4,0,0,0-52.6,52.9c-35.2,77.1-140.5,270.4-344.6,362.6,29.4,39,76.7,120.2,97.4,256.6,122.6-91.3,228.5-243.7,279.3-493.7,0,0,38.7,21,87-2.4,25.5-12.4,55-30,77.1-43.8s38.4-35.2,44.8-60.2c8.4-33,3.5-62,3.5-93.2l99.4-30.8S2367.4,719.6,2357.4,685.7Z" transform="translate(-66.1 6.8)"/><path class="cls-13" d="M313.5,2239.7A919.4,919.4,0,0,1,403,2070.4c-59.7-100.7-77.4-238.3,28.6-417.4,77.3,208.6,113.5,513,121.1,647.8,1.4,25.3-6.4,64.5-13.4,93.5a37.8,37.8,0,0,0,29.5,46.1c159.1,30.8,312.5,45.1,452.7,21.1a51.9,51.9,0,0,0,41.8-39.7c91.7-404.7,91.1-683.3,67.1-861.6,94.9,21.2,385.3,66.5,616.2-105.3-20.6-136.4-68-217.6-97.4-256.6-126.8,57.3-291.8,75.6-501.9,2.8a223.3,223.3,0,0,0-60-11.8c-111.8-6.6-480.4-18.5-785.4,82.2a237,237,0,0,0-143,130.1C76.3,1590.9-57.2,2022,313.5,2239.7Z" transform="translate(-66.1 6.8)"/><path class="cls-14" d="M1130.7,1571.7a8.5,8.5,0,0,1-8.4-7.4c-23.8-180.1-72.4-258.7-72.9-259.4a8.5,8.5,0,0,1,14.3-9.1c2.1,3.3,51,82,75.4,266.3a8.5,8.5,0,0,1-7.3,9.5Z" transform="translate(-66.1 6.8)"/><path class="cls-15" d="M615.6,940s-21.1,223.3-39.7,289.3a22.6,22.6,0,0,0,10.6,25.8c31.6,18,107.2,47.4,210.8-3.3a47,47,0,0,0,26.1-44.2l-9.1-215.8Z" transform="translate(-66.1 6.8)"/><path class="cls-16" d="M818.8,654.4S886.3,809.6,890.8,891s22.1,134.3-72.1,150.7S645.3,1011.2,602.3,930c0,0-67.3-125-52.2-176.2S818.8,654.4,818.8,654.4Z" transform="translate(-66.1 6.8)"/><path class="cls-8" d="M634.5,871.7l5.4-2.4a12.9,12.9,0,0,0,6.3-17.8c-13.3-25.7-39.2-84.4-5.7-98.2,43.1-17.7,213.8-52.5,250.6-113.1,35.4-58.2,4-133.4-43.1-154.7a6.5,6.5,0,0,0-8.5,2.8l-3.9,7.4a6.4,6.4,0,0,1-11.8-1.2,6.4,6.4,0,0,0-11.5-1.7c-11.3,18.1-41.9,47.5-123.6,62.6C572.4,577,495.6,624,493.7,704.3a6.4,6.4,0,0,1-9.9,5.3c-8.6-5.2-22.3-7.7-40.6,7.7-31.9,26.8-18.8,96.4,51.1,153.6a6.4,6.4,0,0,1-.3,10.2c-12.7,8.3-31.6,27.9,17.4,54.1,50.7,27.1,88.5,24.9,103,22.5a6.4,6.4,0,0,0,5.2-7.7L604,879.5a6.4,6.4,0,0,1,6.2-7.8Z" transform="translate(-66.1 6.8)"/><path class="cls-17" d="M637.4,886.6s-25.8-99.1-70.2-71.3S590.3,926.3,626,930Z" transform="translate(-66.1 6.8)"/><path class="cls-18" d="M2077.4,938.1a8.5,8.5,0,0,1-6.6-13.8c7.3-9,72.2-88.4,97.2-102.5,9.1-5.1,14.5-10.5,15.7-15.4a12.5,12.5,0,0,0-1.1-8l-76.3,15.3-43.2,37.1a8.5,8.5,0,0,1-11-12.8l44.9-38.5a8.5,8.5,0,0,1,3.8-1.9l84.4-16.9a8.4,8.4,0,0,1,8.7,3.6c6.2,9.2,8.2,17.7,6.3,26.1-2.3,9.9-10.1,18.5-23.8,26.2-18.8,10.6-73.1,74.7-92.4,98.4A8.4,8.4,0,0,1,2077.4,938.1Z" transform="translate(-66.1 6.8)"/><path class="cls-19" d="M634.1,2347l298.5,3.7-104.5-98.4c-26-24.4-65.6-28.4-95.6-9a225.9,225.9,0,0,0-53.1,47.3S493.3,2222.6,403,2070.3a919.5,919.5,0,0,0-89.5,169.3C394.5,2287.2,499.4,2324.6,634.1,2347Z" transform="translate(-66.1 6.8)"/><path class="cls-8" d="M666.3,2385.5H668l757.8-.8a33.6,33.6,0,1,0-.1-67.1l-757.8.8a33.6,33.6,0,0,0-1.7,67.1Z" transform="translate(-66.1 6.8)"/><path class="cls-8" d="M2107.1,1704.7H1476a120.4,120.4,0,0,0-108.8,68.2l-291.8,612.1h784.3a73.1,73.1,0,0,0,68-45.7L2154,1772.9C2167,1740.2,2142.7,1704.7,2107.1,1704.7Z" transform="translate(-66.1 6.8)"/><path class="cls-20" d="M1662.5,2018.6c-13.7,42-3.6,82.9,22.6,91.2s58.4-19,72.1-61,3.6-82.9-22.6-91.2S1676.1,1976.5,1662.5,2018.6Z" transform="translate(-66.1 6.8)"/><g id="circle-three"><circle class="cls-21" cx="2607.3" cy="269.2" r="152.4"/><polygon class="cls-4" points="2601.7 274.6 2601.7 244.9 2575.9 230 2550.1 244.9 2550.1 274.6 2575.9 289.5 2601.7 274.6"/><path class="cls-4" d="M2769.2,263.3,2786,273l-16.8,9.7-25.8-14.9V238.1l25.8-14.9,15.6,9a113.8,113.8,0,0,1,2.9,20.4l-9.5,5.5V247.8l-9-5.2-9,5.2v10.4Z" transform="translate(-66.1 6.8)"/><polygon class="cls-4" points="2708.1 262.7 2708.1 256.9 2703.1 254 2698.1 256.9 2698.1 262.7 2703.1 265.5 2708.1 262.7"/><path class="cls-4" d="M2604,238.1v39.2l-17.2-9.8V247.4l-8.6-5-8.6,5v20.1l-9.8,5.6a115.5,115.5,0,0,1,2.1-40.5l16.3-9.4Z" transform="translate(-66.1 6.8)"/><path class="cls-4" d="M2714,188.7v39.5l-8.6-5-25.8,14.9v29.8l25.8,14.9,25.8-14.9v-70Zm0,69.2-8.6,5-8.6-5V248l8.6-5,8.6,5Z" transform="translate(-66.1 6.8)"/><path class="cls-4" d="M2686.2,309.1a5.4,5.4,0,0,0-5.6-4.7c-5,0-8.5.7-8.5,3.4s9.8,2.8,13.5,3.9,7,3.9,5.4,9-6.7,5.6-14.4,5.6a9,9,0,0,1-9.5-9h4.4s-.5,3.9,4.6,4.6,10.1,1,10.7-3-16.6-2.6-18.2-7.8-.5-10.1,8.2-10.9,13.6,3,13.6,8.7Z" transform="translate(-66.1 6.8)"/><path class="cls-4" d="M2643.9,329.6l9.7,5.6a7.3,7.3,0,0,0,10.9-6.3V301.1h-3.9v26.7a4,4,0,0,1-6,3.4l-6.7-3.9V298.9l24.7-14.2,24.7,14.2v28.5l-24.7,14.2-7.1-4.1-4.6,1.9,11.7,6.8,28.6-16.5v-33l-28.6-16.5-28.6,16.5v33h0Z" transform="translate(-66.1 6.8)"/></g></svg>