<?xml version="1.0" encoding="utf-8"?>
<!-- Generator: Adobe Illustrator 21.0.2, SVG Export Plug-In . SVG Version: 6.00 Build 0)  -->
<svg version="1.1" id="Outline" xmlns="http://www.w3.org/2000/svg" xmlns:xlink="http://www.w3.org/1999/xlink" x="0px" y="0px"
	 viewBox="0 0 800 800" style="enable-background:new 0 0 800 800;" xml:space="preserve">
<style type="text/css">
	.st0{fill:#161616;}
	.st1{fill:#110F0F;}
	.st2{opacity:0.13;fill:#F9F9F9;enable-background:new    ;}
	.st3{fill:#2FBA35;}
	.st4{opacity:0.13;}
	.st5{fill:none;stroke:url(#SVGID_1_);stroke-linecap:round;stroke-miterlimit:10;}
	.st6{fill:none;stroke:url(#SVGID_2_);stroke-linecap:round;stroke-miterlimit:10;}
	.st7{opacity:0.14;fill:#FFFFFF;enable-background:new    ;}
	.st8{font-family:'Poppins-Regular';}
	.st9{font-size:18.1689px;}
	.st10{fill:none;stroke:url(#SVGID_3_);stroke-miterlimit:10;stroke-opacity:0;}
	.st11{fill:none;stroke:url(#SVGID_4_);stroke-linecap:round;stroke-miterlimit:10;}
	.st12{fill:none;stroke:url(#SVGID_5_);stroke-linecap:round;stroke-miterlimit:10;}
	.st13{fill:none;stroke:url(#SVGID_6_);stroke-miterlimit:10;stroke-opacity:0;}
	.st14{fill:none;stroke:url(#SVGID_7_);stroke-linecap:round;stroke-miterlimit:10;}
	.st15{fill:none;stroke:url(#SVGID_8_);stroke-linecap:round;stroke-miterlimit:10;}
	.st16{fill:none;stroke:url(#SVGID_9_);stroke-miterlimit:10;stroke-opacity:0;}
</style>
<g id="web">
	<path class="st0" d="M552.8,385.7H54.4c-9.2,0-16.6-7.4-16.6-16.6V33.6c0-9.2,7.4-16.6,16.6-16.6h498.4c9.2,0,16.6,7.4,16.6,16.6
		v335.5C569.4,378.3,562,385.7,552.8,385.7z"/>
	<path class="st1" d="M545.2,17.1H62.1c-13.4,0-24.2,10.8-24.2,24.2v14.6h531.5V41.3C569.4,27.9,558.6,17.1,545.2,17.1z"/>
	<g>
		
			<image style="overflow:visible;opacity:0.4;enable-background:new    ;" width="261" height="105" xlink:href="BFED5A62.png"  transform="matrix(0.9954 0 0 0.9954 262.9065 193.5926)">
		</image>
		<g>
			<g>
				<g>
					<path class="st2" d="M513.5,210H272.6c-4.1,0-7.5-3.4-7.5-7.5l0,0c0-4.1,3.4-7.5,7.5-7.5h240.8c4.1,0,7.5,3.4,7.5,7.5l0,0
						C521,206.6,517.6,210,513.5,210z"/>
				</g>
				<g>
					<path class="st2" d="M513.5,252.2H272.6c-4.1,0-7.5-3.4-7.5-7.5l0,0c0-4.1,3.4-7.5,7.5-7.5h240.8c4.1,0,7.5,3.4,7.5,7.5l0,0
						C521,248.9,517.6,252.2,513.5,252.2z"/>
				</g>
				<g>
					<path class="st2" d="M513.5,294.5H272.6c-4.1,0-7.5-3.4-7.5-7.5l0,0c0-4.1,3.4-7.5,7.5-7.5h240.8c4.1,0,7.5,3.4,7.5,7.5l0,0
						C521,291.1,517.6,294.5,513.5,294.5z"/>
				</g>
			</g>
		</g>
	</g>
	<g>
		
			<image style="overflow:visible;opacity:0.4;enable-background:new    ;" width="458" height="51" xlink:href="BFED5A63.png"  transform="matrix(0.9976 0 0 0.9976 74.8517 93.411)">
		</image>
		<g>
			<g>
				<path class="st2" d="M522.5,141.1H84.8c-4.2,0-7.6-3.4-7.6-7.6v-30.7c0-4.2,3.4-7.6,7.6-7.6h437.7c4.2,0,7.6,3.4,7.6,7.6v30.7
					C530,137.7,526.6,141.1,522.5,141.1z"/>
			</g>
		</g>
	</g>
	<g>
		<g>
			
				<image style="overflow:visible;opacity:0.4;enable-background:new    ;" width="21" height="21" xlink:href="BFED5A64.png"  transform="matrix(0.9524 0 0 0.9524 61.0032 27.05)">
			</image>
			<g>
				<circle class="st3" cx="70.9" cy="36.2" r="8.9"/>
			</g>
		</g>
		<g>
			
				<image style="overflow:visible;opacity:0.4;enable-background:new    ;" width="20" height="21" xlink:href="BFED5A65.png"  transform="matrix(0.9512 0 0 0.9512 90.9907 27.0618)">
			</image>
			<g>
				<circle class="st3" cx="100.4" cy="36.2" r="8.9"/>
			</g>
		</g>
		<g>
			
				<image style="overflow:visible;opacity:0.5;enable-background:new    ;" width="21" height="21" xlink:href="BFED5A60.png"  transform="matrix(0.9524 0 0 0.9524 120.0032 27.05)">
			</image>
			<g>
				<circle class="st3" cx="129.9" cy="36.2" r="8.9"/>
			</g>
		</g>
	</g>
	<g class="st4">
		
			<linearGradient id="SVGID_1_" gradientUnits="userSpaceOnUse" x1="483.8032" y1="685.2501" x2="503.2437" y2="685.2501" gradientTransform="matrix(1 0 0 -1 0 802)">
			<stop  offset="0" style="stop-color:#FFFFFF"/>
			<stop  offset="1" style="stop-color:#DCEEFF"/>
		</linearGradient>
		<circle class="st5" cx="493.5" cy="116.7" r="9.2"/>
		
			<linearGradient id="SVGID_2_" gradientUnits="userSpaceOnUse" x1="528.3846" y1="509.6891" x2="529.3846" y2="509.6891" gradientTransform="matrix(0.7071 -0.7071 -0.7071 -0.7071 490.132 860.3236)">
			<stop  offset="0" style="stop-color:#FFFFFF"/>
			<stop  offset="1" style="stop-color:#DCEEFF"/>
		</linearGradient>
		<line class="st6" x1="500.7" y1="122.9" x2="506.7" y2="128.9"/>
	</g>
	<text transform="matrix(1 0 0 1 104.8667 122.8207)" class="st7 st8 st9">Search...</text>
	<g>
		<g>
			<path class="st2" d="M194.4,267c-3.5,19.8-20.7,34.9-41.5,34.9c-23.3,0-42.2-18.9-42.2-42.2c0-20.9,15.1-38.1,35-41.5v-33.7
				c-38.4,3.6-68.4,35.9-68.4,75.3c0,41.8,33.9,75.6,75.6,75.6c39.3,0,71.6-30,75.2-68.3L194.4,267L194.4,267z"/>
			
				<linearGradient id="SVGID_3_" gradientUnits="userSpaceOnUse" x1="76.8032" y1="542.0246" x2="228.6524" y2="542.0246" gradientTransform="matrix(1 0 0 -1 0 802)">
				<stop  offset="0" style="stop-color:#E5F3FF"/>
				<stop  offset="1" style="stop-color:#7499BC"/>
			</linearGradient>
			<path class="st10" d="M194.4,267c-3.5,19.8-20.7,34.9-41.5,34.9c-23.3,0-42.2-18.9-42.2-42.2c0-20.9,15.1-38.1,35-41.5v-33.7
				c-38.4,3.6-68.4,35.9-68.4,75.3c0,41.8,33.9,75.6,75.6,75.6c39.3,0,71.6-30,75.2-68.3L194.4,267L194.4,267z"/>
		</g>
		<g>
			
				<image style="overflow:visible;opacity:0.6;enable-background:new    ;" width="92" height="92" xlink:href="BFED5A61.png"  transform="matrix(1 0 0 1 146.3032 177.3499)">
			</image>
			<g>
				<g>
					<path class="st3" d="M155.8,184.2v33.5c20.9,1.5,37.6,18.2,39.1,39.1h33.5C226.9,217.4,195.2,185.7,155.8,184.2z"/>
				</g>
			</g>
		</g>
	</g>
</g>
<g id="web_1_">
	<path class="st0" d="M779.3,613.4H280.9c-9.2,0-16.6-7.4-16.6-16.6V261.3c0-9.2,7.4-16.6,16.6-16.6h498.4c9.2,0,16.6,7.4,16.6,16.6
		v335.5C795.9,606,788.5,613.4,779.3,613.4z"/>
	<path class="st1" d="M771.7,244.8H288.6c-13.4,0-24.2,10.8-24.2,24.2v14.6h531.5V269C795.9,255.6,785.1,244.8,771.7,244.8z"/>
	<g>
		
			<image style="overflow:visible;opacity:0.4;enable-background:new    ;" width="261" height="105" xlink:href="BFED5A62.png"  transform="matrix(0.9954 0 0 0.9954 489.4065 421.2926)">
		</image>
		<g>
			<g>
				<g>
					<path class="st2" d="M740,437.7H499.1c-4.1,0-7.5-3.4-7.5-7.5l0,0c0-4.1,3.4-7.5,7.5-7.5h240.8c4.1,0,7.5,3.4,7.5,7.5l0,0
						C747.5,434.3,744.1,437.7,740,437.7z"/>
				</g>
				<g>
					<path class="st2" d="M740,479.9H499.1c-4.1,0-7.5-3.4-7.5-7.5l0,0c0-4.1,3.4-7.5,7.5-7.5h240.8c4.1,0,7.5,3.4,7.5,7.5l0,0
						C747.5,476.6,744.1,479.9,740,479.9z"/>
				</g>
				<g>
					<path class="st2" d="M740,522.3H499.1c-4.1,0-7.5-3.4-7.5-7.5l0,0c0-4.1,3.4-7.5,7.5-7.5h240.8c4.1,0,7.5,3.4,7.5,7.5l0,0
						C747.5,518.8,744.1,522.3,740,522.3z"/>
				</g>
			</g>
		</g>
	</g>
	<g>
		
			<image style="overflow:visible;opacity:0.4;enable-background:new    ;" width="458" height="51" xlink:href="BFED5A63.png"  transform="matrix(0.9976 0 0 0.9976 301.3517 321.111)">
		</image>
		<g>
			<g>
				<path class="st2" d="M749,368.8H311.3c-4.2,0-7.6-3.4-7.6-7.6v-30.7c0-4.2,3.4-7.6,7.6-7.6H749c4.2,0,7.6,3.4,7.6,7.6v30.7
					C756.5,365.4,753.1,368.8,749,368.8z"/>
			</g>
		</g>
	</g>
	<g>
		<g>
			
				<image style="overflow:visible;opacity:0.4;enable-background:new    ;" width="21" height="21" xlink:href="BFED5A64.png"  transform="matrix(0.9524 0 0 0.9524 287.5032 254.75)">
			</image>
			<g>
				<circle class="st3" cx="297.4" cy="263.9" r="8.9"/>
			</g>
		</g>
		<g>
			
				<image style="overflow:visible;opacity:0.4;enable-background:new    ;" width="20" height="21" xlink:href="BFED5A65.png"  transform="matrix(0.9512 0 0 0.9512 317.4908 254.7619)">
			</image>
			<g>
				<circle class="st3" cx="326.9" cy="263.9" r="8.9"/>
			</g>
		</g>
		<g>
			
				<image style="overflow:visible;opacity:0.5;enable-background:new    ;" width="21" height="21" xlink:href="BFED5A60.png"  transform="matrix(0.9524 0 0 0.9524 346.5032 254.75)">
			</image>
			<g>
				<circle class="st3" cx="356.4" cy="263.9" r="8.9"/>
			</g>
		</g>
	</g>
	<g class="st4">
		
			<linearGradient id="SVGID_4_" gradientUnits="userSpaceOnUse" x1="710.3032" y1="457.55" x2="729.7437" y2="457.55" gradientTransform="matrix(1 0 0 -1 0 802)">
			<stop  offset="0" style="stop-color:#FFFFFF"/>
			<stop  offset="1" style="stop-color:#DCEEFF"/>
		</linearGradient>
		<circle class="st11" cx="720" cy="344.4" r="9.2"/>
		
			<linearGradient id="SVGID_5_" gradientUnits="userSpaceOnUse" x1="527.536" y1="188.5181" x2="528.536" y2="188.5181" gradientTransform="matrix(0.7071 -0.7071 -0.7071 -0.7071 490.132 860.3236)">
			<stop  offset="0" style="stop-color:#FFFFFF"/>
			<stop  offset="1" style="stop-color:#DCEEFF"/>
		</linearGradient>
		<line class="st12" x1="727.2" y1="350.6" x2="733.2" y2="356.6"/>
	</g>
	<text transform="matrix(1 0 0 1 331.3668 350.5207)" class="st7 st8 st9">Search...</text>
	<g>
		<g>
			<path class="st2" d="M420.9,494.7c-3.5,19.8-20.7,34.9-41.5,34.9c-23.3,0-42.2-18.9-42.2-42.2c0-20.9,15.1-38.1,35-41.5v-33.7
				c-38.4,3.6-68.4,35.9-68.4,75.3c0,41.8,33.9,75.6,75.6,75.6c39.3,0,71.6-30,75.2-68.3L420.9,494.7L420.9,494.7z"/>
			
				<linearGradient id="SVGID_6_" gradientUnits="userSpaceOnUse" x1="303.3033" y1="314.3246" x2="455.1524" y2="314.3246" gradientTransform="matrix(1 0 0 -1 0 802)">
				<stop  offset="0" style="stop-color:#E5F3FF"/>
				<stop  offset="1" style="stop-color:#7499BC"/>
			</linearGradient>
			<path class="st13" d="M420.9,494.7c-3.5,19.8-20.7,34.9-41.5,34.9c-23.3,0-42.2-18.9-42.2-42.2c0-20.9,15.1-38.1,35-41.5v-33.7
				c-38.4,3.6-68.4,35.9-68.4,75.3c0,41.8,33.9,75.6,75.6,75.6c39.3,0,71.6-30,75.2-68.3L420.9,494.7L420.9,494.7z"/>
		</g>
		<g>
			
				<image style="overflow:visible;opacity:0.6;enable-background:new    ;" width="92" height="92" xlink:href="BFED5A61.png"  transform="matrix(1 0 0 1 372.8032 405.05)">
			</image>
			<g>
				<g>
					<path class="st3" d="M382.3,411.9v33.5c20.9,1.5,37.6,18.2,39.1,39.1h33.5C453.4,445.1,421.7,413.4,382.3,411.9z"/>
				</g>
			</g>
		</g>
	</g>
</g>
<g id="web_2_">
	<path class="st0" d="M529.3,781H30.9c-9.2,0-16.6-7.4-16.6-16.6V428.8c0-9.2,7.4-16.6,16.6-16.6h498.4c9.2,0,16.6,7.4,16.6,16.6
		v335.5C545.9,773.5,538.5,781,529.3,781z"/>
	<path class="st1" d="M521.7,412.3H38.6c-13.4,0-24.2,10.8-24.2,24.2v14.6h531.5v-14.6C545.9,423.1,535.1,412.3,521.7,412.3z"/>
	<g>
		
			<image style="overflow:visible;opacity:0.4;enable-background:new    ;" width="261" height="105" xlink:href="BFED5A62.png"  transform="matrix(0.9954 0 0 0.9954 239.4065 588.7927)">
		</image>
		<g>
			<g>
				<g>
					<path class="st2" d="M490,605.3H249.1c-4.1,0-7.5-3.4-7.5-7.5l0,0c0-4.1,3.4-7.5,7.5-7.5h240.8c4.1,0,7.5,3.4,7.5,7.5l0,0
						C497.5,601.8,494.1,605.3,490,605.3z"/>
				</g>
				<g>
					<path class="st2" d="M490,647.4H249.1c-4.1,0-7.5-3.4-7.5-7.5l0,0c0-4.1,3.4-7.5,7.5-7.5h240.8c4.1,0,7.5,3.4,7.5,7.5l0,0
						C497.5,644.2,494.1,647.4,490,647.4z"/>
				</g>
				<g>
					<path class="st2" d="M490,689.8H249.1c-4.1,0-7.5-3.4-7.5-7.5l0,0c0-4.1,3.4-7.5,7.5-7.5h240.8c4.1,0,7.5,3.4,7.5,7.5l0,0
						C497.5,686.3,494.1,689.8,490,689.8z"/>
				</g>
			</g>
		</g>
	</g>
	<g>
		
			<image style="overflow:visible;opacity:0.4;enable-background:new    ;" width="458" height="51" xlink:href="BFED5A63.png"  transform="matrix(0.9976 0 0 0.9976 51.3517 488.6111)">
		</image>
		<g>
			<g>
				<path class="st2" d="M499,536.3H61.3c-4.2,0-7.6-3.4-7.6-7.6V498c0-4.2,3.4-7.6,7.6-7.6H499c4.2,0,7.6,3.4,7.6,7.6v30.7
					C506.5,532.9,503.1,536.3,499,536.3z"/>
			</g>
		</g>
	</g>
	<g>
		<g>
			
				<image style="overflow:visible;opacity:0.4;enable-background:new    ;" width="21" height="21" xlink:href="BFED5A64.png"  transform="matrix(0.9524 0 0 0.9524 37.5032 422.25)">
			</image>
			<g>
				<circle class="st3" cx="47.4" cy="431.4" r="8.9"/>
			</g>
		</g>
		<g>
			
				<image style="overflow:visible;opacity:0.4;enable-background:new    ;" width="20" height="21" xlink:href="BFED5A65.png"  transform="matrix(0.9512 0 0 0.9512 67.4907 422.2619)">
			</image>
			<g>
				<circle class="st3" cx="76.9" cy="431.4" r="8.9"/>
			</g>
		</g>
		<g>
			
				<image style="overflow:visible;opacity:0.5;enable-background:new    ;" width="21" height="21" xlink:href="BFED5A60.png"  transform="matrix(0.9524 0 0 0.9524 96.5032 422.25)">
			</image>
			<g>
				<circle class="st3" cx="106.4" cy="431.4" r="8.9"/>
			</g>
		</g>
	</g>
	<g class="st4">
		
			<linearGradient id="SVGID_7_" gradientUnits="userSpaceOnUse" x1="460.3032" y1="290.05" x2="479.7437" y2="290.05" gradientTransform="matrix(1 0 0 -1 0 802)">
			<stop  offset="0" style="stop-color:#FFFFFF"/>
			<stop  offset="1" style="stop-color:#DCEEFF"/>
		</linearGradient>
		<circle class="st14" cx="470" cy="511.9" r="9.2"/>
		
			<linearGradient id="SVGID_8_" gradientUnits="userSpaceOnUse" x1="232.3161" y1="246.855" x2="233.3161" y2="246.855" gradientTransform="matrix(0.7071 -0.7071 -0.7071 -0.7071 490.132 860.3236)">
			<stop  offset="0" style="stop-color:#FFFFFF"/>
			<stop  offset="1" style="stop-color:#DCEEFF"/>
		</linearGradient>
		<line class="st15" x1="477.2" y1="518.2" x2="483.2" y2="524.2"/>
	</g>
	<text transform="matrix(1 0 0 1 81.3668 518.0208)" class="st7 st8 st9">Search...</text>
	<g>
		<g>
			<path class="st2" d="M170.9,662.3c-3.5,19.8-20.7,34.9-41.5,34.9c-23.3,0-42.2-18.9-42.2-42.2c0-20.9,15.1-38.1,35-41.5v-33.7
				c-38.4,3.6-68.4,35.9-68.4,75.3c0,41.8,33.9,75.6,75.6,75.6c39.3,0,71.6-30,75.2-68.3L170.9,662.3L170.9,662.3z"/>
			
				<linearGradient id="SVGID_9_" gradientUnits="userSpaceOnUse" x1="53.3032" y1="146.8246" x2="205.1524" y2="146.8246" gradientTransform="matrix(1 0 0 -1 0 802)">
				<stop  offset="0" style="stop-color:#E5F3FF"/>
				<stop  offset="1" style="stop-color:#7499BC"/>
			</linearGradient>
			<path class="st16" d="M170.9,662.3c-3.5,19.8-20.7,34.9-41.5,34.9c-23.3,0-42.2-18.9-42.2-42.2c0-20.9,15.1-38.1,35-41.5v-33.7
				c-38.4,3.6-68.4,35.9-68.4,75.3c0,41.8,33.9,75.6,75.6,75.6c39.3,0,71.6-30,75.2-68.3L170.9,662.3L170.9,662.3z"/>
		</g>
		<g>
			
				<image style="overflow:visible;opacity:0.6;enable-background:new    ;" width="92" height="92" xlink:href="BFED5A61.png"  transform="matrix(1 0 0 1 122.8032 572.55)">
			</image>
			<g>
				<g>
					<path class="st3" d="M132.3,579.4v33.5c20.9,1.5,37.6,18.2,39.1,39.1h33.5C203.4,612.7,171.7,580.9,132.3,579.4z"/>
				</g>
			</g>
		</g>
	</g>
</g>
</svg>
