<svg xmlns="http://www.w3.org/2000/svg" width="60" height="60" viewBox="0 0 60 60">
  <g id="Group_4" data-name="Group 4" transform="translate(-305 -1597)">
    <rect id="Rectangle_93" data-name="Rectangle 93" width="60" height="60" rx="7" transform="translate(305 1597)" fill="#2fba35"/>
    <path id="Icon_awesome-tools" data-name="Icon awesome-tools" d="M29.362,23.186,22.5,16.325a4.351,4.351,0,0,0-5-.814L11.25,9.264V5.625L3.75,0,0,3.75l5.625,7.5H9.263L15.51,17.5a4.36,4.36,0,0,0,.814,5l6.862,6.862a2.179,2.179,0,0,0,3.088,0l3.088-3.088a2.189,2.189,0,0,0,0-3.088Zm-9.926-10A6.165,6.165,0,0,1,23.824,15l1.137,1.137a8.294,8.294,0,0,0,2.566-1.729A8.427,8.427,0,0,0,29.748,6.4a.7.7,0,0,0-1.178-.322l-4.36,4.36-3.979-.662L19.57,5.8l4.36-4.36A.707.707,0,0,0,23.6.252a8.441,8.441,0,0,0-8,2.221,8.3,8.3,0,0,0-2.414,6.07l4.811,4.811a6.383,6.383,0,0,1,1.447-.17Zm-6.088,4.8-3.322-3.322L1.1,23.6a3.75,3.75,0,0,0,5.3,5.3l7.242-7.242a6.292,6.292,0,0,1-.293-3.674Zm-9.6,9.668a1.406,1.406,0,1,1,1.406-1.406A1.41,1.41,0,0,1,3.75,27.657Z" transform="translate(320.004 1612)" fill="#fff"/>
  </g>
</svg>
