<svg id="Layer_1" data-name="Layer 1" xmlns="http://www.w3.org/2000/svg" width="512" height="512" viewBox="0 0 512 512">
  <defs>
    <style>
      .cls-1 {
        fill: #2fba35;
      }
    </style>
  </defs>
  <title>app</title>
  <path d="M343.9,17.1H153.4c-24.4,0-44.7,24-44.7,53.7V440.8c0,29.6,19.8,53.7,44.7,53.7H343.9c24.4,0,44.7-24,44.7-53.7V70.8C388.7,41.1,368.8,17.1,343.9,17.1Zm30.9,423.7c0,20.7-13.8,36.9-30.9,36.9H153.4c-17.1,0-30.9-16.8-30.9-36.9V70.8c0-20.7,13.8-36.9,30.9-36.9H343.9c17.1,0,30.9,16.8,30.9,36.9Z"/>
  <path d="M305.2,70.2H191.2c-3.7,0-6.9,3.9-6.9,8.4s3.2,8.4,6.9,8.4H305.2c3.7,0,6.9-3.9,6.9-8.4S308.9,70.2,305.2,70.2Z"/>
  <g>
    <path class="cls-1" d="M196.1,335.1h12.8v12.8a14.6,14.6,0,0,0,29.3,0V335.1h25.6v12.8a14.6,14.6,0,0,0,29.3,0V335.1h12.8V254.5H196.1Z"/>
    <path class="cls-1" d="M308.2,180.5a7.2,7.2,0,0,0-3.7-1,7.3,7.3,0,0,0-6.3,3.7l-11,19.1a54.9,54.9,0,0,0-72.3,0l-11.1-19.1a7.3,7.3,0,0,0-6.3-3.7,7.2,7.2,0,0,0-3.7,1,7.3,7.3,0,0,0-2.7,10L204.7,214a54.4,54.4,0,0,0-8.7,29.5H305.9a54.4,54.4,0,0,0-8.7-29.5l13.6-23.5A7.3,7.3,0,0,0,308.2,180.5Zm-78.2,48.4a5.5,5.5,0,1,1,5.5-5.5A5.5,5.5,0,0,1,229.9,228.9Zm42.1,0a5.5,5.5,0,1,1,5.5-5.5A5.5,5.5,0,0,1,272.1,228.9Z"/>
    <path class="cls-1" d="M331.5,254.5a11,11,0,0,0-11,11h0v36.6a11,11,0,1,0,22,0V265.5a11,11,0,0,0-11-11Z"/>
    <path class="cls-1" d="M170.5,254.5a11,11,0,0,0-11,11h0v36.6a11,11,0,1,0,22,0V265.5a11,11,0,0,0-11-11Z"/>
  </g>
</svg>
