<svg id="Layer_1" data-name="Layer 1" xmlns="http://www.w3.org/2000/svg" width="512" height="512" viewBox="0 0 512 512">
  <defs>
    <style>
      .cls-1 {
        fill: #2fba35;
      }
    </style>
  </defs>
  <title>app</title>
  <path d="M343.9,17.1H153.4c-24.4,0-44.7,24-44.7,53.7V440.8c0,29.6,19.8,53.7,44.7,53.7H343.9c24.4,0,44.7-24,44.7-53.7V70.8C388.7,41.1,368.8,17.1,343.9,17.1Zm30.9,423.7c0,20.7-13.8,36.9-30.9,36.9H153.4c-17.1,0-30.9-16.8-30.9-36.9V70.8c0-20.7,13.8-36.9,30.9-36.9H343.9c17.1,0,30.9,16.8,30.9,36.9Z"/>
  <path d="M305.2,70.2H191.2c-3.7,0-6.9,3.9-6.9,8.4s3.2,8.4,6.9,8.4H305.2c3.7,0,6.9-3.9,6.9-8.4S308.9,70.2,305.2,70.2Z"/>
  <g>
    <g>
      <path class="cls-1" d="M227.8,307.5h54.3v-8.7H227.8Z"/>
      <path class="cls-1" d="M273.4,232l27.2,40,9.2-4.4-27.2-40Z"/>
      <path class="cls-1" d="M200.3,267.6l9.4,4.5L236.6,232l-9.2-4.4Z"/>
    </g>
    <g>
      <g>
        <path class="cls-1" d="M257.6,197.6v36.1l33.1-15.8V181.8Z"/>
        <path class="cls-1" d="M219.3,217.9l33.1,15.8V197.6l-33.1-15.8Z"/>
        <path class="cls-1" d="M222.8,177.6,255,193.1l32.2-15.5L255,162.2Z"/>
      </g>
      <g>
        <path class="cls-1" d="M189.5,302.4v36.1l33.1-15.8V286.6Z"/>
        <path class="cls-1" d="M151.3,322.7l33.1,15.8V302.4l-33.1-15.8Z"/>
        <path class="cls-1" d="M154.7,282.5l32.2,15.5,32.2-15.5L186.9,267Z"/>
      </g>
      <g>
        <path class="cls-1" d="M325.7,302.4v36.1l33.1-15.8V286.6Z"/>
        <path class="cls-1" d="M287.4,322.7l33,15.8V302.4l-33-15.8v36.1Z"/>
        <path class="cls-1" d="M290.8,282.5l32.2,15.5,32.2-15.5L323.1,267Z"/>
      </g>
    </g>
  </g>
</svg>
