<svg id="Layer_1" data-name="Layer 1" xmlns="http://www.w3.org/2000/svg" width="250" height="250" viewBox="0 0 250 250">
  <defs>
    <style>
      .cls-1 {
        fill: #010101;
      }

      .cls-2 {
        fill: #39b54a;
      }
    </style>
  </defs>
  <title>Untitled-1</title>
  <g>
    <path class="cls-1" d="M44.8,121.8a2.8,2.8,0,0,0-4.8,2v79.3a2.8,2.8,0,0,0,2.8,2.8h79.3a2.8,2.8,0,0,0,2-4.8Zm.8,78.5V130.7l69.7,69.7Z"/>
    <path class="cls-1" d="M59.8,189H82.5a2.8,2.8,0,0,0,2-4.8L61.8,161.5a2.8,2.8,0,0,0-4.8,2v22.7A2.8,2.8,0,0,0,59.8,189Zm2.8-18.7,13,13h-13Z"/>
    <rect class="cls-1" x="71.2" y="47.3" width="5.7" height="5.67"/>
    <rect class="cls-1" x="82.5" y="47.3" width="5.7" height="5.67"/>
    <rect class="cls-1" x="93.8" y="47.3" width="5.7" height="5.67"/>
    <path class="cls-2" d="M98.4,87.2a2.8,2.8,0,0,0-1.7,2.6V121a2.8,2.8,0,0,0,1.7,2.6l25.5,11.3a2.8,2.8,0,0,0,2.3,0h0l25.5-11.3a2.8,2.8,0,0,0,1.7-2.6V89.8a2.8,2.8,0,0,0-1.7-2.6h0L126.1,75.9a2.8,2.8,0,0,0-2.3,0L98.3,87.2ZM122.2,128l-19.8-8.8v-25l19.8,8.8Zm25.5-8.8L127.8,128V103l19.8-8.8ZM125,81.6l18.5,8.2L125,98.1l-18.5-8.2Z"/>
    <rect class="cls-2" x="122.2" y="143.7" width="5.7" height="14.17"/>
    <rect class="cls-2" x="122.2" y="55.8" width="5.7" height="14.17"/>
    <rect class="cls-2" x="79.9" y="77.6" width="5.7" height="13.15" transform="translate(-28.9 122.6) rotate(-64.5)"/>
    <rect class="cls-2" x="160.7" y="81.3" width="13.1" height="5.67" transform="translate(-19.9 80.3) rotate(-25.5)"/>
    <rect class="cls-2" x="76.2" y="126.7" width="13.1" height="5.67" transform="translate(-47.7 48.3) rotate(-25.5)"/>
    <path class="cls-1" d="M207.2,166.3h-17V122.2l16.7-16.7a10.8,10.8,0,1,0-15.3-15.3h0l-1.3,1.3V67.2a2.8,2.8,0,0,0-.8-2L161,36.8a2.8,2.8,0,0,0-2-.8H71.2A11.3,11.3,0,0,0,59.8,47.3v82.2h5.7V47.3a5.7,5.7,0,0,1,5.7-5.7h85v17A11.3,11.3,0,0,0,167.5,70h17V97.2L140,141.7a2.8,2.8,0,0,0-.8,1.4l-2.8,14.2a2.8,2.8,0,0,0,2.2,3.3h1.1l14.2-2.8a2.8,2.8,0,0,0,1.4-.8l29.2-29.2v38.5H127.8a2.8,2.8,0,0,0-2.8,2.8v8.5H110.8v5.7H125v8.5a2.8,2.8,0,0,0,2.8,2.8h79.3a2.8,2.8,0,0,0,2.8-2.8V169.2A2.8,2.8,0,0,0,207.2,166.3ZM161.8,58.7v-13l18.7,18.7h-13A5.7,5.7,0,0,1,161.8,58.7Zm-15.8,85,44.2-44.2,7.3,7.3L153.3,151Zm53.1-51a5.2,5.2,0,0,1,3.7,8.8l-1.3,1.3-7.3-7.3,1.3-1.3A5.1,5.1,0,0,1,199.2,92.7Zm-55.4,56.7,3.8,3.8-4.8,1ZM204.3,189H130.7V172h5.7v5.7H142V172h5.7v5.7h5.7V172H159v5.7h5.7V172h5.7v5.7H176V172h5.7v5.7h5.7V172H193v5.7h5.7V172h5.7Z"/>
  </g>
</svg>
