<svg id="Layer_1" data-name="Layer 1" xmlns="http://www.w3.org/2000/svg" width="250" height="250" viewBox="0 0 250 250">
  <defs>
    <style>
      .cls-1 {
        fill: #010101;
      }

      .cls-2 {
        fill: #39b54a;
      }
    </style>
  </defs>
  <title>Untitled-1</title>
  <g>
    <circle class="cls-1" cx="155.9" cy="53.6" r="2.8"/>
    <rect class="cls-1" x="108.3" y="134.8" width="28" height="5.6"/>
    <rect class="cls-1" x="113.9" y="146" width="16.8" height="5.6"/>
    <circle class="cls-1" cx="178.3" cy="53.6" r="2.8"/>
    <circle class="cls-1" cx="167.1" cy="53.6" r="2.8"/>
    <rect class="cls-1" x="74.7" y="146" width="16.8" height="5.6"/>
    <rect class="cls-1" x="74.7" y="157.2" width="16.8" height="5.6"/>
    <path class="cls-1" d="M133.5,95.6H111.1a2.8,2.8,0,0,0-2.8,2.8v22.4a2.8,2.8,0,0,0,2.8,2.8h22.4a2.8,2.8,0,0,0,2.8-2.8V98.4A2.8,2.8,0,0,0,133.5,95.6ZM130.7,118H113.9V101.2h16.8Z"/>
    <rect class="cls-1" x="113.9" y="157.2" width="16.8" height="5.6"/>
    <path class="cls-1" d="M160,168.4l9-8.4a2.8,2.8,0,0,0,.2-4H169c-1.4,3.3-3.6,5.8-6.1,8.4s-5.1,4.9-4.6,8.7a3.8,3.8,0,0,1-.1,1.4l6.9,6.5a2.8,2.8,0,1,0,3.8-4.1Z"/>
    <path class="cls-1" d="M207.8,166.1h-.1l-3.7-3.5a27.7,27.7,0,0,1-1.6,7.3,6.9,6.9,0,0,1,1.9,4.1l3.7-3.5.2-.2.2-.2h0A2.8,2.8,0,0,0,207.8,166.1Z"/>
    <path class="cls-1" d="M154.2,138.6a29.8,29.8,0,0,1,4.7-3.8H147.5v5.6h5.1Z"/>
    <path class="cls-1" d="M192.3,130.8V65.4a2.8,2.8,0,0,0,0-1.2V42.4a2.8,2.8,0,0,0-2.8-2.8H55.1a2.8,2.8,0,0,0-2.8,2.8v140a2.8,2.8,0,0,0,2.8,2.8h90.6a39.2,39.2,0,1,0,46.6-54.4ZM57.9,45.2H186.7V62H57.9ZM181.1,202a33.6,33.6,0,0,1-33.6-33.6,34,34,0,0,1,.2-4h-.1l-.2.2c-1.7,2.1-4,1.5-5.4-.1-.1,1.3-.2,2.6-.2,3.9H69.1V174h73.2a38.9,38.9,0,0,0,1.2,5.6H57.9V67.6H186.7v62a40.4,40.4,0,0,0-5-.4c1.2,1.7,1.1,4.4-.9,5.6h.2a33.6,33.6,0,0,1,0,67.2Z"/>
    <rect class="cls-1" x="80.3" y="84.4" width="89.6" height="5.6"/>
    <rect class="cls-1" x="74.7" y="73.2" width="100.8" height="5.6"/>
    <path class="cls-1" d="M172.7,95.6H150.3a2.8,2.8,0,0,0-2.8,2.8v22.4a2.8,2.8,0,0,0,2.8,2.8h22.4a2.8,2.8,0,0,0,2.8-2.8V98.4A2.8,2.8,0,0,0,172.7,95.6ZM169.9,118H153.1V101.2h16.8Z"/>
    <rect class="cls-1" x="69.1" y="134.8" width="28" height="5.6"/>
    <path class="cls-1" d="M71.9,123.6H94.3a2.8,2.8,0,0,0,2.8-2.8V98.4a2.8,2.8,0,0,0-2.8-2.8H71.9a2.8,2.8,0,0,0-2.8,2.8v22.4A2.8,2.8,0,0,0,71.9,123.6Zm2.8-22.4H91.5V118H74.7Z"/>
  </g>
  <g>
    <path class="cls-2" d="M169.3,156.2a2.8,2.8,0,0,0-4-.1l-10.8,10.2a2.8,2.8,0,0,0-.8,3.9l.3.4h.1l11.1,10.5a2.8,2.8,0,0,0,3.8-4.1l-9-8.4,9-8.4A2.8,2.8,0,0,0,169.3,156.2Z"/>
    <path class="cls-2" d="M187.8,149.1l-.9-.2a2.8,2.8,0,0,0-2.7,2L173,184.5a2.8,2.8,0,1,0,5.3,1.9h0l11.2-33.6A2.8,2.8,0,0,0,187.8,149.1Z"/>
    <path class="cls-2" d="M208,166.3h-.1l-10.8-10.1a2.8,2.8,0,1,0-3.8,4.1l9,8.4-9,8.4a2.8,2.8,0,1,0,3.8,4.1l11.1-10.5.2-.2.2-.2h0A2.8,2.8,0,0,0,208,166.3Z"/>
    <path class="cls-2" d="M192.4,131v-.6a55.3,55.3,0,0,1-5.6-1.5v.9a38.3,38.3,0,0,0-25.7,5.2h-.6l-.6.5a6.8,6.8,0,0,1-1.3.6l-.9.8-2.6,2.3-2,1.5h.7a39.1,39.1,0,0,0-11.8,28h-.2c.2,1.8.3,3.7.4,5.6h.3a38.9,38.9,0,0,0,1.2,5.6H143c.5,1.9,1.1,3.8,1.7,5.6h1.1A39.2,39.2,0,1,0,192.4,131Zm-11.2,71.2a33.6,33.6,0,1,1,33.6-33.6A33.6,33.6,0,0,1,181.2,202.2Z"/>
  </g>
</svg>
