<svg xmlns="http://www.w3.org/2000/svg" width="47.78" height="60.409" viewBox="0 0 47.78 60.409">
  <g id="Group_28" data-name="Group 28" transform="translate(-259.22 -1092.795)">
    <path id="Path_37" data-name="Path 37" d="M923.881,1119.414a27.746,27.746,0,0,1,.848,4.637,29.452,29.452,0,0,0,0,5.485c.339,1.979.792,4.128,1.753,3.393s1.753.17,2.6-3.393-.565-5.146,1.979-5.485,2.941-.339,3.506,1.527.226,3.28.735,5.033.283,4.411,1.7,4.128,2.827,1.3,3.393-1.809-.452-5.2,0-6.051.283-2.149,1.81-2.375,3.789-.961,4.807-.848-.113-1.47,0-1.923-.566-3.449-3.28-3.223S923.881,1119.414,923.881,1119.414Z" transform="translate(-642.402 -8.373)" fill="#2fba35"/>
    <g id="theme" transform="translate(259.22 1092.795)">
      <path id="Path_4" data-name="Path 4" d="M90.469,26.115a3.522,3.522,0,1,0,3.522,3.522A3.526,3.526,0,0,0,90.469,26.115Zm0,4.683a1.162,1.162,0,1,1,1.162-1.162A1.163,1.163,0,0,1,90.469,30.8Z" transform="translate(-83.003 -23.034)" fill="#1c2227"/>
      <path id="Path_5" data-name="Path 5" d="M156.279,26.115a3.522,3.522,0,1,0,3.522,3.522A3.526,3.526,0,0,0,156.279,26.115Zm0,4.683a1.162,1.162,0,1,1,1.162-1.162A1.163,1.163,0,0,1,156.279,30.8Z" transform="translate(-141.048 -23.034)" fill="#1c2227"/>
      <path id="Path_6" data-name="Path 6" d="M222.087,26.115a3.522,3.522,0,1,0,3.522,3.522,3.526,3.526,0,0,0-3.522-3.522Zm0,4.683a1.162,1.162,0,1,1,1.162-1.162,1.163,1.163,0,0,1-1.162,1.162Z" transform="translate(-199.092 -23.034)" fill="#1c2227"/>
      <path id="Path_7" data-name="Path 7" d="M320.851,94.283h0a1.18,1.18,0,1,0-1.183-1.18A1.179,1.179,0,0,0,320.854,94.283Z" transform="translate(-288.269 -81.077)" fill="#1c2227"/>
      <path id="Path_8" data-name="Path 8" d="M100.3,18.77a3.457,3.457,0,0,0-3.379-2.132V4.933A4.939,4.939,0,0,0,91.989,0H59.333a5.819,5.819,0,0,0-5.812,5.812V34.138a5.819,5.819,0,0,0,5.812,5.812H84.087V43.63h-.649A2.744,2.744,0,0,0,80.7,46.37v9.47a4.569,4.569,0,0,0,9.138,0V46.37a2.744,2.744,0,0,0-2.741-2.741h-.649V39.95H91.11a5.819,5.819,0,0,0,5.812-5.812V31.076a3.476,3.476,0,0,0,3.384-2.142,13.45,13.45,0,0,0,0-10.164ZM87.476,46.37v9.47a2.209,2.209,0,0,1-4.419,0V46.37a.381.381,0,0,1,.381-.381h3.657A.382.382,0,0,1,87.476,46.37Zm3.636-20.707v5.712a1.162,1.162,0,1,1-2.324,0V26.086a4.525,4.525,0,0,0-4.057-4.495,4.469,4.469,0,0,0-4.92,4.4l-.023,3.285a1.046,1.046,0,0,1-2.093-.007c-.011-8.927.143-9.093-.448-10.274h19.87a1.074,1.074,0,0,1,1,.666,11.054,11.054,0,0,1,.61,2.028c-3.616.024-3.773-.057-4.444.081A3.978,3.978,0,0,0,91.111,25.663Zm-8.94.349a2.1,2.1,0,0,1,2.1-2.084,2.161,2.161,0,0,1,2.158,2.158v2.63H82.152Zm-8.756,2.7a1.08,1.08,0,0,1-1-.674,11.041,11.041,0,0,1,0-8.37c.543-1.331,2.924-.576,2.924,1.227v7.817ZM59.333,37.591a3.456,3.456,0,0,1-3.452-3.452V13.205h25.5a1.18,1.18,0,0,0,0-2.36h-25.5V5.812A3.456,3.456,0,0,1,59.333,2.36H91.985a2.581,2.581,0,0,1,2.578,2.578v5.908h-3.74a1.18,1.18,0,0,0,0,2.36h3.74v3.433H73.415a3.431,3.431,0,0,0-3.188,2.142,13.471,13.471,0,0,0-.938,3.774H68.014A4.021,4.021,0,0,0,64,26.571v4.983a4.334,4.334,0,0,0,4.329,4.329H82.808a1.28,1.28,0,0,1,1.279,1.278v.429Zm35.229-3.452A3.456,3.456,0,0,1,91.11,37.59H86.446v-.429a3.642,3.642,0,0,0-3.638-3.638H68.326a1.972,1.972,0,0,1-1.969-1.969V26.571a1.659,1.659,0,0,1,1.657-1.657h1.254a13.465,13.465,0,0,0,.959,4.02,3.43,3.43,0,0,0,3.188,2.142h2.44a3.4,3.4,0,0,0,5.773,0h4.8v.3a3.522,3.522,0,0,0,7.043,0v-.3h1.091v3.062Zm3.559-6.1a1.08,1.08,0,0,1-1,.674H93.471V25.663a1.614,1.614,0,0,1,1.612-1.612h3.856a11.128,11.128,0,0,1-.818,3.991Z" transform="translate(-53.521 0)" fill="#1c2227"/>
    </g>
  </g>
</svg>
