<svg id="Layer_1" data-name="Layer 1" xmlns="http://www.w3.org/2000/svg" width="512" height="512" viewBox="0 0 512 512">
  <defs>
    <style>
      .cls-1 {
        fill: #2fba35;
      }
    </style>
  </defs>
  <title>app</title>
  <path class="cls-1" d="M248.1,215.3c-2.2-28.9,13.2-35.6,33-42.3C285.5,199.7,267.9,210.8,248.1,215.3Zm1.9,8.5c9.6-.5,23.3-10.6,36-10.6s25.4,8.5,31.7,16.9c-12.7,10.6-23.3,23.3-23.3,36,0,19,10.6,25.4,25.4,36-4.2,23.3-23.3,48.6-40.2,48.6-12.7,0-21.2-8.5-29.6-8.5s-19,8.5-31.7,8.5c-16.9,0-46.5-44.4-46.5-88.8,0-31.7,27.5-48.6,46.5-48.6C231,213.2,241.6,223.8,250.1,223.8Z"/>
  <path d="M343.9,17.1H153.4c-24.4,0-44.7,24-44.7,53.7V440.8c0,29.6,19.8,53.7,44.7,53.7H343.9c24.4,0,44.7-24,44.7-53.7V70.8C388.7,41.1,368.8,17.1,343.9,17.1Zm30.9,423.7c0,20.7-13.8,36.9-30.9,36.9H153.4c-17.1,0-30.9-16.8-30.9-36.9V70.8c0-20.7,13.8-36.9,30.9-36.9H343.9c17.1,0,30.9,16.8,30.9,36.9Z"/>
  <path d="M305.2,70.2H191.2c-3.7,0-6.9,3.9-6.9,8.4s3.2,8.4,6.9,8.4H305.2c3.7,0,6.9-3.9,6.9-8.4S308.9,70.2,305.2,70.2Z"/>
</svg>
