<?xml version="1.0" encoding="utf-8"?>
<!-- Generator: Adobe Illustrator 21.0.2, SVG Export Plug-In . SVG Version: 6.00 Build 0)  -->
<svg version="1.1" id="Layer_1" xmlns="http://www.w3.org/2000/svg" xmlns:xlink="http://www.w3.org/1999/xlink" x="0px" y="0px"
	 viewBox="0 0 50.6 15.4" style="enable-background:new 0 0 50.6 15.4;" xml:space="preserve">
<style type="text/css">
	.st0{fill:none;stroke:#212121;stroke-miterlimit:10;}
	.st1{fill:none;stroke:#2FBA35;stroke-miterlimit:10;}
	.st2{fill:#2FBA35;}
	.st3{enable-background:new    ;}
	.st4{fill:#212121;}
</style>
<title>favicon</title>
<line class="st0" x1="3" y1="5.9" x2="3" y2="13.3"/>
<path class="st0" d="M2.8,7.6h9.1c0.2,0,0.5-0.1,0.7-0.2c0.7-0.5,2-1.8,0.2-4.4"/>
<circle class="st1" cx="5.4" cy="4.1" r="1.4"/>
<circle class="st1" cx="9.6" cy="4.1" r="1.4"/>
<rect x="3.1" y="3.5" class="st2" width="1" height="0.6"/>
<circle cx="5.4" cy="4.1" r="0.5"/>
<circle cx="9.6" cy="4.2" r="0.5"/>
<path class="st1" d="M6.3,3.4c0,0,1.3-0.2,2.3,0.1"/>
<g class="st3">
	<path class="st4" d="M17.5,2.4c0.3-0.1,0.7-0.1,1.3-0.1c0.7,0,1.2,0.2,1.5,0.4c0.3,0.2,0.5,0.6,0.5,1.1c0,0.5-0.1,0.8-0.4,1.1
		c-0.4,0.4-0.9,0.6-1.6,0.6c-0.2,0-0.4,0-0.5,0v2.1h-0.7L17.5,2.4L17.5,2.4z M18.2,4.9C18.3,5,18.5,5,18.7,5C19.5,5,20,4.6,20,3.9
		c0-0.7-0.5-1-1.2-1c-0.3,0-0.5,0-0.6,0.1V4.9z"/>
	<path class="st4" d="M21.8,5.8c0,0.9,0.6,1.3,1.3,1.3c0.5,0,0.8-0.1,1-0.2l0.1,0.5c-0.2,0.1-0.7,0.2-1.2,0.2
		c-1.2,0-1.8-0.8-1.8-1.9s0.7-2,1.8-2c1.2,0,1.5,1.1,1.5,1.8c0,0.1,0,0.2,0,0.3L21.8,5.8L21.8,5.8z M23.8,5.3c0-0.4-0.2-1.1-0.9-1.1
		c-0.7,0-1,0.6-1,1.1H23.8z"/>
	<path class="st4" d="M25.3,5c0-0.4,0-0.8,0-1.2h0.6l0,0.7h0c0.2-0.5,0.6-0.8,1-0.8c0.1,0,0.1,0,0.2,0v0.6c-0.1,0-0.1,0-0.2,0
		c-0.5,0-0.8,0.4-0.9,0.9c0,0.1,0,0.2,0,0.3v2h-0.7L25.3,5L25.3,5z"/>
	<path class="st4" d="M28.1,7.6V4.3h-0.5V3.8h0.5V3.6c0-0.5,0.1-1,0.4-1.3C28.8,2.1,29.1,2,29.4,2C29.7,2,29.9,2,30,2.1l-0.1,0.5
		c-0.1,0-0.2-0.1-0.4-0.1c-0.6,0-0.7,0.5-0.7,1.1v0.2h0.9v0.5h-0.9v3.2L28.1,7.6L28.1,7.6z"/>
	<path class="st4" d="M30.6,5.8c0,0.9,0.6,1.3,1.3,1.3c0.5,0,0.8-0.1,1-0.2L33,7.4c-0.2,0.1-0.7,0.2-1.2,0.2c-1.2,0-1.8-0.8-1.8-1.9
		s0.7-2,1.8-2c1.2,0,1.5,1.1,1.5,1.8c0,0.1,0,0.2,0,0.3L30.6,5.8L30.6,5.8z M32.6,5.3c0-0.4-0.2-1.1-0.9-1.1c-0.7,0-1,0.6-1,1.1
		H32.6z"/>
	<path class="st4" d="M36.7,7.4c-0.2,0.1-0.6,0.2-1.1,0.2c-1.1,0-1.9-0.8-1.9-1.9c0-1.2,0.8-2,2-2c0.4,0,0.8,0.1,0.9,0.2l-0.2,0.5
		c-0.2-0.1-0.4-0.2-0.8-0.2c-0.9,0-1.3,0.6-1.3,1.4c0,0.9,0.6,1.4,1.3,1.4c0.4,0,0.6-0.1,0.8-0.2L36.7,7.4z"/>
	<path class="st4" d="M38.4,2.7v1.1h1v0.5h-1v2c0,0.5,0.1,0.7,0.5,0.7c0.2,0,0.3,0,0.4,0l0,0.5c-0.1,0.1-0.3,0.1-0.6,0.1
		c-0.3,0-0.6-0.1-0.7-0.3c-0.2-0.2-0.3-0.5-0.3-1v-2h-0.6V3.8h0.6V2.9L38.4,2.7z"/>
	<path class="st4" d="M40.9,2.8c0,0.2-0.2,0.4-0.4,0.4c-0.2,0-0.4-0.2-0.4-0.4c0-0.2,0.2-0.4,0.4-0.4C40.8,2.3,40.9,2.5,40.9,2.8z
		 M40.2,7.6V3.8h0.7v3.7L40.2,7.6L40.2,7.6z"/>
	<path class="st4" d="M45.4,5.7c0,1.4-1,2-1.9,2c-1,0-1.8-0.7-1.8-1.9c0-1.3,0.8-2,1.9-2C44.7,3.7,45.4,4.5,45.4,5.7z M42.4,5.7
		c0,0.8,0.5,1.4,1.1,1.4c0.7,0,1.1-0.6,1.1-1.5c0-0.6-0.3-1.4-1.1-1.4C42.8,4.2,42.4,5,42.4,5.7z"/>
	<path class="st4" d="M46.2,4.8c0-0.4,0-0.7,0-1h0.6l0,0.6h0c0.2-0.4,0.6-0.7,1.2-0.7c0.5,0,1.3,0.3,1.3,1.6v2.2h-0.7V5.4
		c0-0.6-0.2-1.1-0.9-1.1c-0.4,0-0.8,0.3-0.9,0.7c0,0.1,0,0.2,0,0.3v2.2h-0.7L46.2,4.8L46.2,4.8z"/>
</g>
<g class="st3">
	<path class="st2" d="M21.3,12.9c-0.2,0.1-0.7,0.2-1.2,0.2c-0.6,0-1.1-0.2-1.4-0.5c-0.3-0.4-0.4-0.8-0.4-1.2c0-0.7,0.3-1.4,0.8-1.9
		c0.5-0.4,1.1-0.6,1.7-0.6c0.5,0,0.9,0.1,1,0.2l-0.2,0.4c-0.2-0.1-0.5-0.2-0.9-0.2c-0.5,0-1,0.2-1.3,0.5c-0.4,0.4-0.6,1-0.6,1.5
		c0,0.8,0.4,1.4,1.3,1.4c0.3,0,0.5-0.1,0.6-0.1l0.2-1.3h-0.9l0.1-0.4h1.4L21.3,12.9z"/>
	<path class="st2" d="M27.8,12.9c-0.2,0.1-0.6,0.2-1,0.2c-0.8,0-1.2-0.5-1.2-1.2c0-0.9,0.7-1.9,1.7-1.9c0.6,0,0.9,0.3,0.9,0.8
		c0,0.8-0.9,1-2,1c0,0.1,0,0.4,0.1,0.6c0.1,0.3,0.4,0.4,0.7,0.4c0.4,0,0.6-0.1,0.8-0.2L27.8,12.9z M27.2,10.3c-0.5,0-0.9,0.5-1,1
		c0.8,0,1.5-0.1,1.5-0.6C27.7,10.5,27.5,10.3,27.2,10.3z"/>
	<path class="st2" d="M34.1,12.9c-0.2,0.1-0.6,0.2-1,0.2c-0.8,0-1.2-0.5-1.2-1.2c0-0.9,0.7-1.9,1.7-1.9c0.6,0,0.9,0.3,0.9,0.8
		c0,0.8-0.9,1-2,1c0,0.1,0,0.4,0.1,0.6c0.1,0.3,0.4,0.4,0.7,0.4c0.4,0,0.6-0.1,0.8-0.2L34.1,12.9z M33.5,10.3c-0.5,0-0.9,0.5-1,1
		c0.8,0,1.5-0.1,1.5-0.6C34,10.5,33.8,10.3,33.5,10.3z"/>
	<path class="st2" d="M38.2,13l0.8-4.4h0.5l-0.5,2.8h0c0.1-0.1,0.2-0.2,0.3-0.3l1.1-1.1h0.6l-1.3,1.2l0.9,1.8h-0.6l-0.7-1.5L39,11.9
		L38.7,13L38.2,13L38.2,13z"/>
	<path class="st2" d="M44.6,12.5c0.1,0.1,0.4,0.2,0.7,0.2c0.3,0,0.6-0.2,0.6-0.5c0-0.2-0.1-0.4-0.4-0.6c-0.3-0.2-0.5-0.5-0.5-0.8
		c0-0.5,0.5-0.9,1.1-0.9c0.3,0,0.5,0.1,0.6,0.1l-0.1,0.4c-0.1-0.1-0.3-0.1-0.5-0.1c-0.3,0-0.5,0.2-0.5,0.5c0,0.2,0.1,0.4,0.4,0.5
		c0.3,0.2,0.6,0.5,0.6,0.8c0,0.6-0.5,1-1.2,1c-0.3,0-0.6-0.1-0.7-0.2L44.6,12.5z"/>
</g>
<rect x="11" y="3.5" class="st2" width="1" height="0.6"/>
</svg>
