<svg id="Layer_1" data-name="Layer 1" xmlns="http://www.w3.org/2000/svg" width="250" height="250" viewBox="0 0 250 250">
  <defs>
    <style>
      .cls-1 {
        fill: #39b54a;
      }

      .cls-2 {
        fill: #010101;
      }
    </style>
  </defs>
  <title>maintenance</title>
  <path class="cls-1" d="M197.8,190.9l-56.9-57.3-8.3-5.8s-20,.2-22.7-4.2-7.9-19.2-7.9-23.1,5.8-1.7,7.1,1,7.1,7.1,7.1,7.1h4.6c1.3,0,13.1-13.5,13.1-13.5l-15-16.9a100.6,100.6,0,0,1,17.5,3.1c10.4,2.7,15.8,17.1,15.2,18.3s2.9,14.2,2.9,14.2l23.8,26.1,32.3,33.3,4,7.7-4.4,10.4-13.1.2Z"/>
  <path class="cls-2" d="M213.6,170.4l-37-37a66.3,66.3,0,0,0,6.8-17.1h11.3a3.2,3.2,0,0,0,3.4-3.4V93a3.2,3.2,0,0,0-3.4-3.4H183.5a56.6,56.6,0,0,0-7.5-18.1l7.9-7.9a3.3,3.3,0,0,0,0-4.8l-14-14a3.3,3.3,0,0,0-4.8,0l-7.9,7.9A56.6,56.6,0,0,0,139,45.1V33.8a3.2,3.2,0,0,0-3.4-3.4H115.7a3.2,3.2,0,0,0-3.4,3.4V45.1a56.6,56.6,0,0,0-18.1,7.5l-7.9-7.9a3.3,3.3,0,0,0-4.8,0L67.7,58.4a3.3,3.3,0,0,0,0,4.8l7.9,8.2a56.6,56.6,0,0,0-7.5,18.1H56.8A3.2,3.2,0,0,0,53.4,93v19.5a3.2,3.2,0,0,0,3.4,3.4H68.1a56.6,56.6,0,0,0,7.5,18.1l-7.9,7.9a3.3,3.3,0,0,0,0,4.8l14,14a3.3,3.3,0,0,0,4.8,0l7.9-7.9a56.6,56.6,0,0,0,18.1,7.5v11.3a3.2,3.2,0,0,0,3.4,3.4h19.5a3.2,3.2,0,0,0,3.4-3.4V160.4a57.9,57.9,0,0,0,17.1-6.8l37,37a13.7,13.7,0,0,0,9.9,4.1,13.2,13.2,0,0,0,9.9-4.1A13.9,13.9,0,0,0,213.6,170.4Zm-78.4-16.1a3.3,3.3,0,0,0-2.7,3.4v10.6h-13V157.7a3.3,3.3,0,0,0-2.7-3.4,49.6,49.6,0,0,1-20.5-8.6,3.6,3.6,0,0,0-4.5.3l-7.9,7.5-9.2-9.2,7.5-7.5a3.6,3.6,0,0,0,.3-4.5,49.6,49.6,0,0,1-8.6-20.5,3,3,0,0,0-3.1-2.7H60.2v-13H70.8a3.3,3.3,0,0,0,3.4-2.7,49.6,49.6,0,0,1,8.6-20.5,3.6,3.6,0,0,0-.3-4.5l-7.5-7.5,9.2-9.2,7.5,7.5a3.6,3.6,0,0,0,4.5.3,49.6,49.6,0,0,1,20.5-8.6,3.3,3.3,0,0,0,2.7-3.4V37.2h12.7V47.8a3.3,3.3,0,0,0,2.7,3.4,49.6,49.6,0,0,1,20.5,8.6,3.6,3.6,0,0,0,4.5-.3l7.5-7.5,9.2,8.9-7.5,7.5a3.6,3.6,0,0,0-.3,4.5,49.6,49.6,0,0,1,8.6,20.5,3.3,3.3,0,0,0,3.4,2.7h10.6v13H180.7a3.3,3.3,0,0,0-3.4,2.7,55.3,55.3,0,0,1-5.8,16.4l-7.5-7.5a41.4,41.4,0,0,0,4.1-18.1,42.7,42.7,0,0,0-42.5-42.5c-23.3,0-42.1,19.2-42.1,42.8a42.4,42.4,0,0,0,60.6,38.3l7.5,7.5A77.2,77.2,0,0,1,135.2,154.3Zm11.6-71.2a28.5,28.5,0,0,0-20.2-8.6,29.7,29.7,0,0,0-9.6,1.7,2.9,2.9,0,0,0-2.1,2.4,2.8,2.8,0,0,0,1,3.1l14,14-10.6,10.6-14-14a4.8,4.8,0,0,0-3.1-1,3.6,3.6,0,0,0-2.4,2.1,29.8,29.8,0,0,0,5.8,29.1,28.8,28.8,0,0,0,20.9,9.2,26.7,26.7,0,0,0,7.5-1l4.8,4.8a33.7,33.7,0,0,1-13,2.4,35.6,35.6,0,1,1,35.6-35.6,33.7,33.7,0,0,1-2.4,13l-4.8-4.8A29.1,29.1,0,0,0,146.8,83.1Zm62,102.7a7.9,7.9,0,0,1-10.6,0l-60.9-60.9a3.1,3.1,0,0,0-2.4-1,1.3,1.3,0,0,0-1,.3,26.7,26.7,0,0,1-7.5,1.4,21.7,21.7,0,0,1-16.1-6.8,22.1,22.1,0,0,1-5.8-16.4l12,12a3.3,3.3,0,0,0,4.8,0l15.4-15.4a3.3,3.3,0,0,0,0-4.8L124.9,81.7A22.2,22.2,0,0,1,142,87.8a22.4,22.4,0,0,1,5.1,22.9,3.7,3.7,0,0,0,.7,3.4l60.9,60.9A7.9,7.9,0,0,1,208.8,185.8Z"/>
</svg>
