<svg id="Layer_1" data-name="Layer 1" xmlns="http://www.w3.org/2000/svg" width="512" height="512" viewBox="0 0 512 512">
  <defs>
    <style>
      .cls-1 {
        fill: #2fba35;
      }

      .cls-2 {
        fill: none;
        stroke: #2fba35;
        stroke-miterlimit: 10;
        stroke-width: 5px;
      }
    </style>
  </defs>
  <title>app</title>
  <path d="M343.9,17.1H153.4c-24.4,0-44.7,24-44.7,53.7V440.8c0,29.6,19.8,53.7,44.7,53.7H343.9c24.4,0,44.7-24,44.7-53.7V70.8C388.7,41.1,368.8,17.1,343.9,17.1Zm30.9,423.7c0,20.7-13.8,36.9-30.9,36.9H153.4c-17.1,0-30.9-16.8-30.9-36.9V70.8c0-20.7,13.8-36.9,30.9-36.9H343.9c17.1,0,30.9,16.8,30.9,36.9Z"/>
  <path d="M305.2,70.2H191.2c-3.7,0-6.9,3.9-6.9,8.4s3.2,8.4,6.9,8.4H305.2c3.7,0,6.9-3.9,6.9-8.4S308.9,70.2,305.2,70.2Z"/>
  <g>
    <path class="cls-1" d="M251.9,195.5h0a19.4,19.4,0,1,0,0-38.7h0a19.4,19.4,0,1,0,0,38.7Z"/>
    <path class="cls-1" d="M269.5,198.1a28,28,0,0,1-17.5,6.1h-.1a28,28,0,0,1-17.5-6.1,42.4,42.4,0,0,0-23.8,29.5,8.8,8.8,0,0,0,8.6,10.6h65.4a8.8,8.8,0,0,0,8.6-10.6A42.4,42.4,0,0,0,269.5,198.1Z"/>
  </g>
  <g>
    <path class="cls-1" d="M190.4,301h0a19.4,19.4,0,1,0,0-38.7h0a19.4,19.4,0,1,0,0,38.7Z"/>
    <path class="cls-1" d="M207.9,303.7a28,28,0,0,1-17.5,6.1h-.1a28,28,0,0,1-17.5-6.1,42.4,42.4,0,0,0-23.8,29.5,8.8,8.8,0,0,0,8.6,10.6h65.4a8.8,8.8,0,0,0,8.6-10.6A42.4,42.4,0,0,0,207.9,303.7Z"/>
  </g>
  <g>
    <path class="cls-1" d="M314.3,299.6h0a19.4,19.4,0,1,0,0-38.7h0a19.4,19.4,0,1,0,0,38.7Z"/>
    <path class="cls-1" d="M331.8,302.3a28,28,0,0,1-17.5,6.1h-.1a28,28,0,0,1-17.5-6.1A42.4,42.4,0,0,0,273,331.8a8.8,8.8,0,0,0,8.6,10.6H347a8.8,8.8,0,0,0,8.6-10.6A42.4,42.4,0,0,0,331.8,302.3Z"/>
  </g>
  <polyline class="cls-2" points="205.6 264.6 250.1 242.9 298.4 266.9"/>
</svg>
