<svg id="Layer_1" data-name="Layer 1" xmlns="http://www.w3.org/2000/svg" width="22.5" height="21.5" viewBox="0 0 22.5 21.5">
  <defs>
    <style>
      .cls-1 {
        fill: #212121;
      }

      .cls-2 {
        fill: #2fba35;
      }
    </style>
  </defs>
  <title>our-services</title>
  <g id="main-body">
    <path class="cls-1" d="M21.5,13.3h-.1a4.4,4.4,0,0,1-1.7.5H3.1V24.1H1.4V9.7H3.1v2.5H19.6l.9-.3c2.3-1.7,2.3-4.1.1-7.3l1.4-1C25.9,9.2,22.9,12.3,21.5,13.3Z" transform="translate(-1.4 -2.6)"/>
  </g>
  <g id="eyes">
    <circle cx="5.5" cy="3.6" r="1"/>
    <circle cx="13.7" cy="3.8" r="1"/>
  </g>
  <g id="upper-body">
    <path class="cls-2" d="M18.5,5.1a3.6,3.6,0,0,0-6.4-.7H9.9a3.6,3.6,0,0,0-6.4.8H2.5V6.2h.9a3.6,3.6,0,0,0,7.2,0,3.5,3.5,0,0,0-.1-1h1.3a3.2,3.2,0,0,0-.1.9,3.6,3.6,0,0,0,7.2,0h1.1V5.1ZM7,8.1A1.9,1.9,0,1,1,8.8,6.2,1.9,1.9,0,0,1,7,8.1Zm8.2,0A1.9,1.9,0,1,1,17,6.2,1.9,1.9,0,0,1,15.1,8.1Z" transform="translate(-1.4 -2.6)"/>
  </g>
</svg>
