<svg id="Layer_1" data-name="Layer 1" xmlns="http://www.w3.org/2000/svg" width="512" height="512" viewBox="0 0 512 512">
  <defs>
    <style>
      .cls-1 {
        fill: #2fba35;
      }

      .cls-2 {
        fill: none;
        stroke: #2fba35;
        stroke-miterlimit: 10;
        stroke-width: 6px;
      }
    </style>
  </defs>
  <title>app</title>
  <path d="M343.9,17.1H153.4c-24.4,0-44.7,24-44.7,53.7V440.8c0,29.6,19.8,53.7,44.7,53.7H343.9c24.4,0,44.7-24,44.7-53.7V70.8C388.7,41.1,368.8,17.1,343.9,17.1Zm30.9,423.7c0,20.7-13.8,36.9-30.9,36.9H153.4c-17.1,0-30.9-16.8-30.9-36.9V70.8c0-20.7,13.8-36.9,30.9-36.9H343.9c17.1,0,30.9,16.8,30.9,36.9Z"/>
  <path d="M305.2,70.2H191.2c-3.7,0-6.9,3.9-6.9,8.4s3.2,8.4,6.9,8.4H305.2c3.7,0,6.9-3.9,6.9-8.4S308.9,70.2,305.2,70.2Z"/>
  <g>
    <circle class="cls-1" cx="247.3" cy="258.4" r="15.9"/>
    <g>
      <path class="cls-2" d="M247.3,226c21.4,0,41.3,3.1,56.2,8.2,18.1,6.2,29.2,15.6,29.2,24.2s-11.8,18.9-31.1,25.3c-14.7,4.9-33.9,7.4-54.2,7.4s-40.5-2.4-55.4-7.4c-18.8-6.4-30-16.5-30-25.3s10.6-17.8,28.4-24c15-5.2,35.4-8.4,57-8.4Z"/>
      <path class="cls-2" d="M219.1,242.2c10.7-18.5,23.3-34.2,35.2-44.6,14.4-12.5,28.1-17.4,35.5-13.2s10.5,19.6,6.4,39.6c-3.1,15.1-10.6,33.1-20.7,50.7s-22.3,33.9-34.1,44.2c-14.9,13-29.3,17.8-36.9,13.4s-10.1-18.1-6.6-36.6c3-15.6,10.4-34.9,21.2-53.6Z"/>
      <path class="cls-2" d="M219.2,274.8c-10.7-18.5-18-37.2-21.1-52.8-3.7-18.7-1.1-33.1,6.3-37.3s22.2.7,37.5,14.3c11.5,10.3,23.4,25.7,33.6,43.2s18.2,36.3,21.3,51.6c3.8,19.4.7,34.3-6.8,38.7s-20.7-.2-35-12.5c-12.1-10.4-25-26.4-35.8-45.1Z"/>
    </g>
  </g>
</svg>
