<svg id="Layer_1" data-name="Layer 1" xmlns="http://www.w3.org/2000/svg" width="250" height="250" viewBox="0 0 250 250">
  <defs>
    <style>
      .cls-1 {
        fill: #39b54a;
      }

      .cls-2 {
        fill: #010101;
      }
    </style>
  </defs>
  <title>research</title>
  <path class="cls-1" d="M85.8,120.4s.8-27.3.5-27.1,8.8,1.8,8.8,1.8l1.1,26.3Z"/>
  <g>
    <path class="cls-2" d="M112.8,47a57.4,57.4,0,1,0,57.4,57.4A57.4,57.4,0,0,0,112.8,47Zm0,109.3a51.9,51.9,0,1,1,51.9-51.9A51.9,51.9,0,0,1,112.8,156.3Z"/>
    <path class="cls-2" d="M167.8,145a68.5,68.5,0,1,0-11.3,11.9l40.7,40.7A8.2,8.2,0,1,0,209,186.3l-.2-.2ZM50,104.4a62.9,62.9,0,1,1,62.9,62.9A62.9,62.9,0,0,1,50,104.4Zm155,89.4a2.7,2.7,0,0,1-3.8,0l-40.6-40.6q2-1.9,3.8-4L205,189.9a2.7,2.7,0,0,1,.8,1.9A2.7,2.7,0,0,1,205,193.8Z"/>
    <path class="cls-1" d="M85.5,123.5H96.4a2.7,2.7,0,0,0,2.7-2.7V93.4a2.7,2.7,0,0,0-2.7-2.7H85.5a2.7,2.7,0,0,0-2.7,2.7v27.3A2.7,2.7,0,0,0,85.5,123.5Zm2.7-27.3h5.5V118H88.2Z"/>
    <path class="cls-1" d="M107.4,123.5h10.9a2.7,2.7,0,0,0,2.7-2.7V88a2.7,2.7,0,0,0-2.7-2.7H107.4a2.7,2.7,0,0,0-2.7,2.7v32.8A2.7,2.7,0,0,0,107.4,123.5Zm2.7-32.8h5.5V118h-5.5Z"/>
    <path class="cls-1" d="M140.2,79.8H129.2a2.7,2.7,0,0,0-2.7,2.7v38.3a2.7,2.7,0,0,0,2.7,2.7h10.9a2.7,2.7,0,0,0,2.7-2.7V82.5A2.7,2.7,0,0,0,140.2,79.8ZM137.5,118H132V85.2h5.5Z"/>
    <path class="cls-2" d="M174.1,47h7.1V41.5H173a2.7,2.7,0,0,0-1.9.8l-8.2,8.2,3.9,3.9Z"/>
    <rect class="cls-2" x="186.7" y="41.5" width="24.6" height="5.47"/>
    <rect class="cls-2" x="186.7" y="52.4" width="5.5" height="5.47"/>
    <rect class="cls-2" x="197.6" y="52.4" width="13.7" height="5.47"/>
    <rect class="cls-2" x="186.7" y="63.4" width="24.6" height="5.47"/>
    <path class="cls-2" d="M84.4,189.1H77.3v5.5h8.2a2.7,2.7,0,0,0,1.9-.8l8.2-8.2-3.9-3.9Z"/>
    <rect class="cls-2" x="47.2" y="189.1" width="24.6" height="5.47"/>
    <rect class="cls-2" x="66.4" y="178.2" width="5.5" height="5.47"/>
    <rect class="cls-2" x="47.2" y="178.2" width="13.7" height="5.47"/>
    <rect class="cls-2" x="47.2" y="167.3" width="24.6" height="5.47"/>
    <rect class="cls-1" x="82.8" y="129" width="60.1" height="5.47"/>
  </g>
  <rect class="cls-1" x="108.5" y="88.8" width="8.3" height="31.58"/>
  <rect class="cls-1" x="130.9" y="83.9" width="8.3" height="35.42"/>
  <path class="cls-2" d="M158.4,154.3l44.5,44.4s5.9-3.2,5.9-4.5-1.5-5.5-1.5-5.9-42.6-41-42.6-41Z"/>
</svg>
