<svg id="Layer_1" data-name="Layer 1" xmlns="http://www.w3.org/2000/svg" width="512" height="512" viewBox="0 0 512 512">
  <defs>
    <style>
      .cls-1 {
        fill: #2fba35;
      }
    </style>
  </defs>
  <title>app</title>
  <path d="M343.9,17.1H153.4c-24.4,0-44.7,24-44.7,53.7V440.8c0,29.6,19.8,53.7,44.7,53.7H343.9c24.4,0,44.7-24,44.7-53.7V70.8C388.7,41.1,368.8,17.1,343.9,17.1Zm30.9,423.7c0,20.7-13.8,36.9-30.9,36.9H153.4c-17.1,0-30.9-16.8-30.9-36.9V70.8c0-20.7,13.8-36.9,30.9-36.9H343.9c17.1,0,30.9,16.8,30.9,36.9Z"/>
  <path d="M305.2,70.2H191.2c-3.7,0-6.9,3.9-6.9,8.4s3.2,8.4,6.9,8.4H305.2c3.7,0,6.9-3.9,6.9-8.4S308.9,70.2,305.2,70.2Z"/>
  <path class="cls-1" d="M355.5,279.3c-.7-5.5-3.7-9.8-8.4-13.1h0c-11.5-8.2-26.6-6.4-39.1-1.8-5-8.2-5.3-14.5-2.4-23.4.4-1.1.1-1.8-1.1-2.3-2.9-1.2-7-.6-9.9.2a2.4,2.4,0,0,0-1.9,1.8c-2.1,9.8-8.5,18.8-14.1,27.1-3.9-7.5-3.6-13.4-1-21.3a1.4,1.4,0,0,0-.8-2c-2.9-1.5-7.4-.8-10.4.1s-8.6,18-10.3,21.4c-3.5,7.1-6.5,18.1-12.4,23.7-5-6.4,9.1-20.8,4.4-26.6a4.3,4.3,0,0,0-6.3-.2c.4-3.1.7-5.1-.1-7.7a5.8,5.8,0,0,0-6.1-4.2c-7.3.2-13.7,5.6-18.1,10.7s-15.1,7.9-21,10.9c-10.1-8.8-32.1-18.2-32.6-33.2-.6-16.9,19.6-28.4,33-35.3,17.5-8.9,44.5-20.1,64.4-10.3a11.3,11.3,0,0,1,6,13.5c-3.8,13.9-19.1,23.2-32.4,27.4-6.6,2.1-13.7,3.7-20.7,3.2-9.3-.5-16.5-6.2-17.5-6.5s-.8.9-.5,1.5c9.6,25.3,58.4,6.8,71.2-6.2,6.1-6.2,9.9-12.3,11.5-21.8,1.9-11.2-6.3-18.1-12.5-21-31.5-14.6-75.1,4.5-99,24-10.3,8.5-23.3,21.9-17.3,36s26.2,23.1,39.1,32.5c-10.4,5.2-23.4,10.5-30.2,20.2-3.9,5.6-5.2,11.5-2.4,17.8,5.1,11.2,23.6,6.3,31.4,1.4s12-10.5,14-18.3a28.9,28.9,0,0,0-1.6-20l11.6-5.9c-3.1,9.3-4.5,21,2,29.5,2.6,3.4,9.3,3.5,12.1.1s5.9-10,8.3-15.1c-.3,3.8-.8,8.1.6,11.4s4.9,4.6,8.4,2.2c10.7-7.4,17.6-27.8,22.8-39.7a66.4,66.4,0,0,0,5.6,14.7,2.1,2.1,0,0,1-.3,2.9c-3.9,4.3-13.3,11.5-14.2,17.4a2.7,2.7,0,0,0,2.3,3c6.3,1.3,13.3-1,18.4-4.5s7.1-8.5,5.8-14.4c-1.9-8.4,4.4-17.8,10.4-24.7a42.9,42.9,0,0,0,5.7,14.8c-5.3,4.6-13.2,11.2-12.1,19a4.7,4.7,0,0,0,5.9,3.9c6.4-1.3,11.9-4.1,15.9-9s2.3-9.2.8-14c9.7-2.8,19.4-3.3,29.1,0,4.7,1.6,8.4,4.2,10.6,8.4s1.2,9.8-4.1,13.2c-1.3.9-2.3,1.6-1.8,1.9s2,.9,5.4-1.3a12.1,12.1,0,0,0,6-8.8,15,15,0,0,0,0-3.1ZM194.1,289.5c-.5,6.7-3.9,12.2-9.4,16.6-3.1,2.5-6.9,4.5-10.7,4.9s-6.8-.6-7-4.5c-.7-11.1,16.6-22,26.2-25.3a22.6,22.6,0,0,1,1,8.3h0Zm41.7-29.3c-1.6,9-6,25.2-13.1,31.7-1,.9-1.9.8-2.4-.3-4.2-9.7,1.5-29.8,13.4-32.9C235.2,258.3,236.1,258.9,235.8,260.2Zm28.5,33.1,10.2-10.9C274.9,286.4,267.4,294.5,264.3,293.2Zm32.7-7.2c-1,.5-3.1,1-3.2.3-.6-4.9,4.8-10.1,8.1-12.5C303.7,278.5,301.6,283.6,296.9,286.1Z"/>
</svg>
