<svg id="Layer_1" data-name="Layer 1" xmlns="http://www.w3.org/2000/svg" width="250" height="250" viewBox="0 0 250 250">
  <defs>
    <style>
      .cls-1 {
        fill: #010101;
      }

      .cls-2 {
        fill: #39b54a;
      }
    </style>
  </defs>
  <title>Untitled-1</title>
  <g>
    <path class="cls-1" d="M213,110.9H145.2V43.1H213Zm-61.5-6.3h55.3V49.4H151.5Z"/>
    <path class="cls-1" d="M97.8,110.9H30V43.1H97.8Zm-61.5-6.3H91.5V49.4H36.3Z"/>
    <path class="cls-2" d="M213,209.5H145.2V141.7H213Zm-61.5-6.3h55.3V148H151.5Z"/>
    <polygon class="cls-2" points="172.9 191.5 158.6 177.3 163.1 172.9 172.9 182.7 193.6 161.9 198.1 166.3 172.9 191.5"/>
    <rect class="cls-1" x="175.9" y="27.5" width="6.3" height="18.75"/>
    <rect class="cls-1" x="108.4" y="73.9" width="39.9" height="6.29"/>
    <polygon class="cls-1" points="135 178.7 60.8 178.7 60.8 107.8 67.1 107.8 67.1 172.5 135 172.5 135 178.7"/>
    <polygon class="cls-1" points="122.1 192.9 117.6 188.5 130.5 175.6 117.6 162.7 122.1 158.3 139.4 175.6 122.1 192.9"/>
    <polygon class="cls-1" points="121.3 94.3 104 77 121.3 59.7 125.8 64.1 112.9 77 125.8 89.9 121.3 94.3"/>
  </g>
</svg>
