<?xml version="1.0" encoding="utf-8"?>
<!-- Generator: Adobe Illustrator 21.0.2, SVG Export Plug-In . SVG Version: 6.00 Build 0)  -->
<svg version="1.1" id="Layer_1" xmlns="http://www.w3.org/2000/svg" xmlns:xlink="http://www.w3.org/1999/xlink" x="0px" y="0px"
	 viewBox="0 0 240 240" style="enable-background:new 0 0 240 240;" xml:space="preserve">
<style type="text/css">
	.st0{fill:#0BA84D;}
	.st1{fill:#FFFFFF;}
	.st2{fill:#FF0000;}
</style>
<circle class="st0" cx="120" cy="120" r="116"/>
<path class="st1" d="M165.6,75.4C154.3,64.2,139.3,58,123.3,58c-15.9,0-30.9,6.2-42.3,17.4s-17.6,26.2-17.6,42l0,0
	c0,9.6,2.5,19.3,7.3,28.1L63.6,178l32.8-7.5c8.3,4.2,17.6,6.4,26.9,6.4l0,0c15.9,0,30.9-6.2,42.3-17.4c11.4-11.3,17.6-26.2,17.7-42
	C183.3,101.8,177,86.8,165.6,75.4L165.6,75.4z M123.3,167.6L123.3,167.6c-8.4,0-16.7-2.1-24.1-6.1l-1.6-0.8l-21.8,5l4.7-21.5
	l-0.9-1.6c-4.5-7.8-6.9-16.5-6.9-25c0-27.6,22.7-50.1,50.6-50.1c13.5,0,26.1,5.2,35.6,14.7c9.7,9.6,15,22.2,15,35.4
	C173.9,145.1,151.2,167.6,123.3,167.6L123.3,167.6z M107,91.3h-2.6c-0.9,0-2.4,0.3-3.7,1.7s-4.8,4.7-4.8,11.4s4.9,13.2,5.6,14.1
	s9.5,15.2,23.4,20.6c11.6,4.6,13.9,3.6,16.5,3.4c2.5-0.2,8.1-3.3,9.3-6.5s1.1-5.9,0.8-6.5s-1.3-0.9-2.6-1.6l-9.3-4.5
	c-1.3-0.5-2.2-0.7-3.1,0.7s-3.6,4.5-4.4,5.4s-1.6,1-3,0.3s-5.7-2.2-11-6.8c-4.1-3.6-6.9-8.2-7.7-9.6s-0.1-2.1,0.6-2.8
	c0.6-0.6,1.4-1.4,2.1-2.2s0.9-1.4,1.3-2.3c0.5-0.9,0.2-1.7-0.1-2.4l-4.2-10.1C109.1,91.4,108,91.3,107,91.3z"/>
<circle class="st2" cx="198.8" cy="37.8" r="16.8"/>
</svg>
