<svg width="217" height="200" viewBox="0 0 217 200" fill="none" xmlns="http://www.w3.org/2000/svg">
<g clip-path="url(#clip0_16_25)">
<path d="M158.341 4H62.3408C52.3997 4 44.3408 12.0589 44.3408 22V178C44.3408 187.941 52.3997 196 62.3408 196H158.341C168.282 196 176.341 187.941 176.341 178V22C176.341 12.0589 168.282 4 158.341 4Z" stroke="#004BB9" stroke-width="8"/>
<path d="M31.232 80.9185H16.002V87.6105H31.232V80.9185Z" fill="#004BB9"/>
<path d="M31.382 108.182H15.002V114.873H31.382V108.182Z" fill="#004BB9"/>
<path d="M31.382 121.807H15.002V128.498H31.382V121.807Z" fill="#004BB9"/>
<path d="M31.611 94.5405H0.000976562V101.232H31.611V94.5405Z" fill="#004BB9"/>
<path d="M31.382 53.6535H15.002V60.3445H31.382V53.6535Z" fill="#004BB9"/>
<path d="M31.382 67.2835H15.002V73.9745H31.382V67.2835Z" fill="#004BB9"/>
<path d="M31.611 40.0215H0.000976562V46.7125H31.611V40.0215Z" fill="#004BB9"/>
<path d="M193.452 179.788V21.674L204.968 3.87402L216.481 21.674V179.788H193.452ZM200.144 23.651V173.097H209.79V23.651L204.969 16.194L200.144 23.651Z" fill="#004BB9"/>
<path d="M193.452 184.612V173.096H216.48V184.612C216.48 187.666 215.267 190.594 213.108 192.754C210.949 194.913 208.02 196.126 204.966 196.126C201.913 196.126 198.984 194.913 196.825 192.754C194.666 190.594 193.452 187.666 193.452 184.612ZM200.144 179.788V184.612C200.135 185.251 200.253 185.886 200.491 186.479C200.73 187.072 201.083 187.612 201.532 188.067C201.981 188.522 202.516 188.884 203.105 189.131C203.695 189.377 204.328 189.504 204.967 189.504C205.606 189.504 206.239 189.377 206.829 189.131C207.418 188.884 207.953 188.522 208.402 188.067C208.851 187.612 209.204 187.072 209.443 186.479C209.681 185.886 209.799 185.251 209.789 184.612V179.788H200.144Z" fill="#004BB9"/>
<path d="M108.001 181.5C114.905 181.5 120.501 175.904 120.501 169C120.501 162.096 114.905 156.5 108.001 156.5C101.097 156.5 95.501 162.096 95.501 169C95.501 175.904 101.097 181.5 108.001 181.5Z" stroke="#004BB9" stroke-width="7"/>
<path d="M67.1689 83.4674L81.6759 97.9744C82.1797 98.5034 82.7857 98.9245 83.4571 99.2123C84.1285 99.5 84.8514 99.6484 85.5819 99.6484C86.3124 99.6484 87.0353 99.5 87.7067 99.2123C88.3781 98.9245 88.9841 98.5034 89.4879 97.9744C90.5596 96.901 91.1615 95.4462 91.1615 93.9294C91.1615 92.4126 90.5596 90.9578 89.4879 89.8844L79.4439 79.5624L90.0439 68.9624C90.5868 68.4338 91.0192 67.8026 91.3161 67.1055C91.6131 66.4084 91.7686 65.6593 91.7736 64.9016C91.7786 64.1439 91.6331 63.3928 91.3455 62.6918C91.0579 61.9909 90.6339 61.354 90.0981 60.8182C89.5623 60.2824 88.9255 59.8584 88.2245 59.5708C87.5235 59.2832 86.7724 59.1377 86.0147 59.1427C85.257 59.1477 84.5079 59.3032 83.8108 59.6002C83.1137 59.8971 82.4825 60.3295 81.9539 60.8724L67.4469 75.3774C66.8697 75.873 66.4016 76.4829 66.0722 77.1687C65.7427 77.8544 65.5592 78.6011 65.533 79.3614C65.5069 80.1217 65.6388 80.8792 65.9204 81.5859C66.202 82.2927 66.6271 82.9333 67.1689 83.4674Z" fill="#004BB9"/>
<path d="M134.962 97.9744C135.466 98.5034 136.072 98.9245 136.743 99.2123C137.414 99.5001 138.137 99.6484 138.868 99.6484C139.598 99.6484 140.321 99.5001 140.993 99.2123C141.664 98.9245 142.27 98.5034 142.774 97.9744L157.28 83.4674C157.804 82.9597 158.221 82.3529 158.509 81.6824C158.796 81.0118 158.947 80.2909 158.954 79.5614C158.974 78.828 158.835 78.0988 158.546 77.4244C158.257 76.75 157.825 76.1464 157.28 75.6554L143.052 60.8704C142.523 60.3276 141.892 59.8951 141.195 59.5982C140.498 59.3013 139.749 59.1458 138.991 59.1408C138.233 59.1357 137.482 59.2812 136.781 59.5689C136.08 59.8565 135.443 60.2805 134.908 60.8163C134.372 61.352 133.948 61.9889 133.66 62.6899C133.373 63.3909 133.227 64.142 133.232 64.8997C133.237 65.6574 133.393 66.4065 133.69 67.1036C133.986 67.8007 134.419 68.4318 134.962 68.9604L145.562 79.5604L134.962 90.1604C134.432 90.6642 134.011 91.2704 133.723 91.942C133.435 92.6136 133.287 93.3367 133.287 94.0674C133.287 94.7982 133.435 95.5213 133.723 96.1929C134.011 96.8645 134.432 97.4706 134.962 97.9744V97.9744Z" fill="#004BB9"/>
<path d="M104.831 110.529C105.389 110.529 105.668 110.808 106.231 110.808C107.533 110.823 108.8 110.386 109.818 109.572C110.835 108.759 111.539 107.618 111.811 106.344L124.081 55.2924C124.264 54.5597 124.301 53.798 124.19 53.051C124.079 52.3039 123.822 51.586 123.433 50.9383C123.045 50.2907 122.533 49.7258 121.926 49.2761C121.319 48.8264 120.63 48.5006 119.897 48.3174C119.164 48.1341 118.403 48.097 117.656 48.2081C116.908 48.3191 116.191 48.5763 115.543 48.9648C114.895 49.3533 114.33 49.8656 113.881 50.4724C113.431 51.0792 113.105 51.7687 112.922 52.5014L100.647 103.555C100.427 104.289 100.362 105.06 100.457 105.819C100.552 106.579 100.804 107.31 101.198 107.967C101.592 108.623 102.119 109.19 102.744 109.631C103.37 110.073 104.08 110.379 104.831 110.529V110.529Z" fill="#004BB9"/>
</g>
<defs>
<clipPath id="clip0_16_25">
<rect width="216.482" height="200" fill="white"/>
</clipPath>
</defs>
</svg>
