<svg width="221" height="200" viewBox="0 0 221 200" fill="none" xmlns="http://www.w3.org/2000/svg">
<g clip-path="url(#clip0_16_51)">
<path d="M158.341 4H62.3408C52.3997 4 44.3408 12.0589 44.3408 22V178C44.3408 187.941 52.3997 196 62.3408 196H158.341C168.282 196 176.341 187.941 176.341 178V22C176.341 12.0589 168.282 4 158.341 4Z" stroke="#004BB9" stroke-width="8"/>
<path d="M31.232 80.9185H16.002V87.6105H31.232V80.9185Z" fill="#004BB9"/>
<path d="M31.382 108.182H15.002V114.873H31.382V108.182Z" fill="#004BB9"/>
<path d="M31.382 121.807H15.002V128.498H31.382V121.807Z" fill="#004BB9"/>
<path d="M31.611 94.5405H0.000976562V101.232H31.611V94.5405Z" fill="#004BB9"/>
<path d="M31.382 53.6535H15.002V60.3445H31.382V53.6535Z" fill="#004BB9"/>
<path d="M31.382 67.2835H15.002V73.9745H31.382V67.2835Z" fill="#004BB9"/>
<path d="M31.611 40.0215H0.000976562V46.7125H31.611V40.0215Z" fill="#004BB9"/>
<path d="M204.682 80.9185H189.452V87.6105H204.682V80.9185Z" fill="#004BB9"/>
<path d="M205.682 108.182H189.302V114.873H205.682V108.182Z" fill="#004BB9"/>
<path d="M205.682 121.807H189.302V128.498H205.682V121.807Z" fill="#004BB9"/>
<path d="M220.683 94.5405H189.073V101.232H220.683V94.5405Z" fill="#004BB9"/>
<path d="M205.682 53.6535H189.302V60.3445H205.682V53.6535Z" fill="#004BB9"/>
<path d="M205.682 67.2835H189.302V73.9745H205.682V67.2835Z" fill="#004BB9"/>
<path d="M220.683 40.0215H189.073V46.7125H220.683V40.0215Z" fill="#004BB9"/>
<path d="M108.001 181.5C114.905 181.5 120.501 175.904 120.501 169C120.501 162.096 114.905 156.5 108.001 156.5C101.097 156.5 95.501 162.096 95.501 169C95.501 175.904 101.097 181.5 108.001 181.5Z" stroke="#004BB9" stroke-width="7"/>
<path d="M151.237 85.808C151.668 85.808 152.082 85.6366 152.387 85.3315C152.693 85.0264 152.864 84.6125 152.864 84.181C152.864 83.7495 152.693 83.3357 152.387 83.0306C152.082 82.7254 151.668 82.554 151.237 82.554H142.38V71.708H151.237C151.668 71.708 152.082 71.5366 152.387 71.2315C152.693 70.9264 152.864 70.5125 152.864 70.081C152.864 69.6495 152.693 69.2357 152.387 68.9306C152.082 68.6254 151.668 68.454 151.237 68.454H142.38V62.399C142.378 59.6191 141.273 56.9537 139.307 54.9881C137.341 53.0224 134.676 51.9171 131.896 51.915H125.84V42.876C125.84 42.4445 125.669 42.0307 125.363 41.7256C125.058 41.4204 124.644 41.249 124.213 41.249C123.781 41.249 123.368 41.4204 123.063 41.7256C122.757 42.0307 122.586 42.4445 122.586 42.876V51.733H111.74V42.876C111.74 42.4445 111.569 42.0307 111.263 41.7256C110.958 41.4204 110.544 41.249 110.113 41.249C109.681 41.249 109.268 41.4204 108.963 41.7256C108.657 42.0307 108.486 42.4445 108.486 42.876V51.733H97.641V42.876C97.641 42.4445 97.4696 42.0307 97.1644 41.7256C96.8593 41.4204 96.4455 41.249 96.014 41.249C95.5825 41.249 95.1686 41.4204 94.8635 41.7256C94.5584 42.0307 94.387 42.4445 94.387 42.876V51.733H88.332C85.5519 51.7351 82.8864 52.8405 80.9207 54.8064C78.955 56.7723 77.8498 59.438 77.848 62.218V68.273H68.628C68.1965 68.273 67.7826 68.4444 67.4775 68.7496C67.1724 69.0547 67.001 69.4685 67.001 69.9C67.001 70.3315 67.1724 70.7454 67.4775 71.0505C67.7826 71.3556 68.1965 71.527 68.628 71.527H77.485V82.373H68.628C68.1965 82.373 67.7826 82.5444 67.4775 82.8496C67.1724 83.1547 67.001 83.5685 67.001 84C67.001 84.4315 67.1724 84.8454 67.4775 85.1505C67.7826 85.4556 68.1965 85.627 68.628 85.627H77.485V96.473H68.628C68.1965 96.473 67.7826 96.6444 67.4775 96.9496C67.1724 97.2547 67.001 97.6685 67.001 98.1C67.001 98.5315 67.1724 98.9454 67.4775 99.2505C67.7826 99.5556 68.1965 99.727 68.628 99.727H77.485V105.783C77.4874 108.563 78.5929 111.228 80.5587 113.194C82.5246 115.159 85.1901 116.264 87.97 116.266H94.026V125.123C94.026 125.555 94.1974 125.968 94.5025 126.273C94.8076 126.579 95.2215 126.75 95.653 126.75C96.0845 126.75 96.4983 126.579 96.8034 126.273C97.1086 125.968 97.28 125.555 97.28 125.123V116.266H108.125V125.123C108.125 125.555 108.296 125.968 108.602 126.273C108.907 126.579 109.32 126.75 109.752 126.75C110.183 126.75 110.597 126.579 110.902 126.273C111.208 125.968 111.379 125.555 111.379 125.123V116.266H122.225V125.123C122.225 125.555 122.396 125.968 122.702 126.273C123.007 126.579 123.42 126.75 123.852 126.75C124.283 126.75 124.697 126.579 125.002 126.273C125.308 125.968 125.479 125.555 125.479 125.123V116.266H131.535C134.315 116.264 136.98 115.158 138.945 113.193C140.911 111.227 142.016 108.562 142.018 105.782V99.726H150.875C151.306 99.726 151.72 99.5546 152.025 99.2495C152.331 98.9444 152.502 98.5305 152.502 98.099C152.502 97.6675 152.331 97.2537 152.025 96.9486C151.72 96.6434 151.306 96.472 150.875 96.472H142.018V85.627H151.237V85.808ZM139.037 106.142C139.042 107.081 138.861 108.012 138.504 108.881C138.147 109.749 137.622 110.539 136.958 111.203C136.293 111.867 135.504 112.392 134.636 112.749C133.767 113.106 132.836 113.287 131.897 113.282H87.97C87.0309 113.287 86.1 113.106 85.2314 112.749C84.3627 112.392 83.5735 111.867 82.9094 111.203C82.2453 110.539 81.7196 109.749 81.3627 108.881C81.0057 108.012 80.8247 107.081 80.83 106.142V62.218C80.8247 61.2789 81.0057 60.3481 81.3627 59.4794C81.7196 58.6107 82.2453 57.8215 82.9094 57.1575C83.5735 56.4934 84.3627 55.9677 85.2314 55.6107C86.1 55.2538 87.0309 55.0727 87.97 55.078H131.802C132.741 55.0727 133.672 55.2538 134.541 55.6107C135.409 55.9677 136.198 56.4934 136.863 57.1575C137.527 57.8215 138.052 58.6107 138.409 59.4794C138.766 60.3481 138.947 61.2789 138.942 62.218V106.144L139.037 106.142Z" fill="#004BB9" stroke="#004BB9" stroke-width="3"/>
<path d="M103.538 81.293C103.381 81.3791 103.243 81.4957 103.132 81.636C103.02 81.7762 102.938 81.9372 102.89 82.1096C102.842 82.282 102.828 82.4623 102.851 82.6399C102.873 82.8175 102.931 82.9889 103.02 83.144C104.871 86.253 102.28 88.993 102.206 89.144C101.957 89.4024 101.817 89.7474 101.817 90.1065C101.817 90.4656 101.957 90.8106 102.206 91.069C102.469 91.3091 102.813 91.4406 103.169 91.437C103.353 91.4422 103.536 91.4048 103.703 91.3278C103.87 91.2508 104.017 91.1362 104.132 90.993C105.539 89.513 107.687 85.663 105.39 81.74C105.194 81.447 104.894 81.2385 104.551 81.1557C104.208 81.0729 103.847 81.1219 103.538 81.293V81.293Z" fill="#004BB9" stroke="#004BB9"/>
<path d="M105.977 72.78C106.136 72.6961 106.276 72.5791 106.387 72.4368C106.497 72.2946 106.576 72.1303 106.618 71.9551C106.66 71.7799 106.664 71.5977 106.63 71.4208C106.596 71.2438 106.525 71.0762 106.421 70.929C106.339 70.7749 106.223 70.6415 106.082 70.5389C105.941 70.4363 105.779 70.3673 105.607 70.337C105.434 70.2857 105.251 70.2723 105.072 70.2977C104.893 70.3231 104.722 70.3866 104.57 70.484C103.876 70.8893 103.283 71.446 102.834 72.1126C102.385 72.7793 102.093 73.5386 101.979 74.334C101.832 75.815 102.645 77.295 104.2 78.628C104.32 78.7352 104.461 78.8167 104.613 78.8674C104.766 78.9181 104.928 78.9371 105.088 78.923C105.292 78.9395 105.496 78.8999 105.679 78.8086C105.861 78.7173 106.016 78.5778 106.125 78.405C106.343 78.1176 106.442 77.7568 106.401 77.3981C106.36 77.0394 106.182 76.7105 105.904 76.48C105.312 75.962 104.571 75.222 104.646 74.555C104.842 73.8126 105.319 73.1758 105.977 72.78V72.78Z" fill="#004BB9" stroke="#004BB9"/>
<path d="M125.078 73.298C124.84 71.5128 123.998 69.8629 122.691 68.6235C121.384 67.3841 119.692 66.63 117.897 66.487C117.046 65.2056 115.755 64.2799 114.269 63.8844C112.782 63.4889 111.202 63.651 109.827 64.34C108.954 63.9026 107.991 63.6746 107.015 63.674C105.977 63.6845 104.957 63.9457 104.042 64.4355C103.127 64.9253 102.343 65.6292 101.759 66.487C99.9589 66.6163 98.2593 67.3657 96.9499 68.6077C95.6405 69.8497 94.8022 71.5073 94.578 73.298C93.4829 73.8512 92.5633 74.6982 91.9222 75.7442C91.2811 76.7903 90.9438 77.9942 90.948 79.221C90.9545 80.5932 91.3668 81.9327 92.133 83.071C91.6941 84.0226 91.4668 85.0581 91.467 86.106C91.4633 87.1185 91.6798 88.1196 92.1017 89.04C92.5235 89.9604 93.1406 90.778 93.91 91.436C94.0036 93.1943 94.6161 94.8853 95.6704 96.2955C96.7246 97.7057 98.1732 98.7718 99.833 99.359C100.116 100.36 100.609 101.29 101.279 102.085C101.95 102.881 102.782 103.524 103.721 103.973C104.66 104.421 105.683 104.664 106.723 104.686C107.764 104.708 108.796 104.507 109.753 104.098C110.645 104.471 111.599 104.672 112.566 104.69C114.161 104.663 115.706 104.133 116.982 103.176C118.259 102.219 119.2 100.883 119.673 99.36C121.333 98.7728 122.781 97.7067 123.836 96.2965C124.89 94.8863 125.503 93.1953 125.596 91.437C126.365 90.779 126.983 89.9614 127.404 89.041C127.826 88.1206 128.043 87.1195 128.039 86.107C128.039 85.0587 127.811 84.0228 127.372 83.071C128.17 81.9486 128.586 80.599 128.557 79.222C128.622 78.0022 128.327 76.79 127.709 75.7367C127.09 74.6833 126.175 73.8352 125.078 73.298V73.298ZM108.569 101.727C108.026 101.911 107.453 101.986 106.881 101.948C106.309 101.91 105.751 101.76 105.237 101.506C104.631 101.208 104.09 100.793 103.646 100.285C103.201 99.7769 102.862 99.1854 102.648 98.545C102.574 98.25 102.501 97.879 102.427 97.508C102.397 97.3229 102.432 97.1331 102.527 96.971C102.621 96.809 102.769 96.6849 102.945 96.62C103.102 96.5276 103.281 96.477 103.463 96.473C103.682 96.4669 103.894 96.5462 104.055 96.694L104.647 97.212C104.934 97.4325 105.295 97.5327 105.654 97.4915C106.014 97.4502 106.343 97.2707 106.572 96.991C106.78 96.6865 106.884 96.3226 106.867 95.954C106.816 95.6021 106.63 95.2838 106.349 95.066L105.757 94.548C105.176 94.088 104.469 93.8139 103.73 93.7613C102.99 93.7086 102.252 93.88 101.611 94.253C101.192 94.4697 100.824 94.7728 100.531 95.1424C100.238 95.512 100.026 95.9397 99.911 96.397C99.0264 95.8696 98.282 95.1366 97.7408 94.2603C97.1996 93.384 96.8776 92.3902 96.802 91.363C96.8995 90.5299 97.2611 89.7498 97.8338 89.137C98.4065 88.5241 99.1604 88.1106 99.985 87.957C100.157 87.9268 100.319 87.8578 100.461 87.7552C100.602 87.6526 100.717 87.5192 100.799 87.365C100.896 87.2128 100.96 87.0415 100.985 86.8625C101.011 86.6836 100.997 86.5013 100.946 86.328C100.907 86.1551 100.833 85.9921 100.729 85.8488C100.625 85.7055 100.492 85.5851 100.339 85.4949C100.187 85.4047 100.017 85.3466 99.8416 85.3243C99.6658 85.302 99.4873 85.3158 99.317 85.365C98.4271 85.5654 97.5871 85.9443 96.848 86.4789C96.1088 87.0135 95.4859 87.6926 95.017 88.475C94.5694 87.7629 94.3382 86.9361 94.3513 86.0951C94.3644 85.254 94.6214 84.4349 95.091 83.737C95.2671 83.4805 95.3487 83.1707 95.3219 82.8607C95.2951 82.5507 95.1616 82.2596 94.944 82.037C94.5853 81.6779 94.3021 81.2504 94.1113 80.78C93.9205 80.3096 93.8259 79.8057 93.833 79.298C93.8233 78.7294 93.9453 78.1662 94.1893 77.6526C94.4334 77.1389 94.793 76.6886 95.24 76.337C95.6625 77.363 96.2964 78.2884 97.1003 79.053C97.9043 79.8177 98.8603 80.4044 99.906 80.775C100.07 80.841 100.248 80.8664 100.424 80.849C100.699 80.8456 100.967 80.759 101.191 80.6007C101.416 80.4424 101.588 80.2197 101.684 79.962C101.757 79.7991 101.795 79.6223 101.795 79.4435C101.795 79.2648 101.757 79.088 101.684 78.925C101.517 78.6099 101.259 78.3522 100.944 78.185C100.053 77.8798 99.2596 77.3409 98.6475 76.6247C98.0354 75.9084 97.6267 75.0411 97.464 74.113C97.5025 72.8365 98.0316 71.6239 98.9412 70.7275C99.8509 69.831 101.071 69.3198 102.348 69.3H102.648C102.918 69.3176 103.187 69.2572 103.424 69.126C103.66 68.9948 103.854 68.7983 103.982 68.56C104.263 67.9285 104.72 67.3906 105.297 67.0102C105.874 66.6297 106.549 66.4225 107.24 66.413C107.726 66.3974 108.209 66.5004 108.647 66.713V101.725L108.569 101.727ZM124.857 81.96C124.64 82.1826 124.506 82.4737 124.479 82.7837C124.452 83.0937 124.534 83.4035 124.71 83.66C125.208 84.3759 125.467 85.231 125.45 86.103C125.448 86.917 125.217 87.714 124.784 88.403C124.327 87.612 123.709 86.9261 122.969 86.3904C122.229 85.8547 121.384 85.4811 120.49 85.294C120.138 85.2275 119.773 85.2792 119.453 85.441C119.171 85.6391 118.962 85.9255 118.861 86.255C118.794 86.6075 118.846 86.972 119.008 87.292C119.206 87.5751 119.492 87.7841 119.822 87.886C120.625 88.0592 121.358 88.4693 121.925 89.0633C122.493 89.6573 122.869 90.4079 123.005 91.218C122.971 92.2651 122.666 93.2855 122.122 94.1804C121.577 95.0753 120.81 95.8144 119.896 96.326C119.596 95.4348 118.995 94.6759 118.196 94.179C117.549 93.824 116.814 93.6634 116.078 93.7166C115.342 93.7698 114.637 94.0346 114.048 94.479L113.456 94.997C113.175 95.2148 112.989 95.5331 112.938 95.885C112.912 96.0689 112.925 96.2562 112.975 96.4348C113.026 96.6135 113.114 96.7795 113.233 96.922C113.462 97.2017 113.791 97.3812 114.151 97.4225C114.51 97.4637 114.871 97.3635 115.158 97.143L115.75 96.624C115.908 96.5054 116.097 96.4352 116.295 96.4221C116.492 96.4089 116.689 96.4534 116.861 96.55C117.021 96.636 117.154 96.7644 117.245 96.9211C117.336 97.0778 117.383 97.2567 117.379 97.438C117.305 97.806 117.305 98.178 117.232 98.475C117.027 99.1202 116.691 99.7162 116.245 100.226C115.799 100.735 115.253 101.147 114.641 101.436C114.128 101.691 113.569 101.842 112.997 101.88C112.425 101.918 111.851 101.842 111.309 101.657V66.709C111.749 66.5038 112.23 66.4012 112.716 66.409C113.405 66.4278 114.075 66.6388 114.651 67.0182C115.227 67.3975 115.685 67.9302 115.974 68.556C116.095 68.8001 116.287 69.0015 116.525 69.1337C116.763 69.2659 117.036 69.3225 117.307 69.296C117.412 69.3 117.516 69.2744 117.607 69.222C118.876 69.2663 120.082 69.7853 120.987 70.6764C121.892 71.5675 122.429 72.7657 122.493 74.034C122.328 74.9723 121.91 75.8477 121.284 76.5654C120.657 77.2831 119.846 77.8159 118.939 78.106C118.769 78.1669 118.614 78.2648 118.486 78.3928C118.358 78.5208 118.26 78.6756 118.199 78.846C118.126 79.0091 118.088 79.1858 118.088 79.3645C118.088 79.5433 118.126 79.72 118.199 79.883C118.302 80.1342 118.474 80.3512 118.695 80.509C118.916 80.6668 119.177 80.759 119.448 80.775C119.624 80.7869 119.8 80.7617 119.966 80.701C121.021 80.331 121.988 79.7448 122.804 78.9799C123.62 78.2151 124.267 77.2883 124.704 76.259C125.139 76.6212 125.49 77.0735 125.733 77.5848C125.976 78.0961 126.105 78.654 126.111 79.22C126.004 80.2453 125.563 81.207 124.856 81.957L124.857 81.96Z" fill="#004BB9" stroke="#004BB9"/>
<path d="M116.786 83.144C116.878 82.9883 116.938 82.8158 116.962 82.6366C116.987 82.4574 116.975 82.2751 116.928 82.1005C116.882 81.9258 116.8 81.7622 116.689 81.6194C116.579 81.4765 116.44 81.3573 116.283 81.2686C116.125 81.1798 115.951 81.1235 115.772 81.1028C115.592 81.082 115.41 81.0974 115.236 81.1479C115.063 81.1984 114.901 81.2831 114.76 81.397C114.62 81.5108 114.503 81.6516 114.418 81.811C113.596 83.2812 113.274 84.9785 113.501 86.6475C113.727 88.3165 114.489 89.8668 115.673 91.065C115.789 91.2082 115.936 91.3228 116.103 91.3998C116.27 91.4768 116.452 91.5142 116.636 91.509C116.99 91.4991 117.329 91.3693 117.599 91.141C117.842 90.8831 117.983 90.546 117.997 90.1919C118.011 89.8378 117.896 89.4908 117.673 89.215C117.527 89.066 114.935 86.325 116.786 83.144Z" fill="#004BB9" stroke="#004BB9"/>
<path d="M113.824 76.407C113.544 76.6363 113.365 76.9654 113.324 77.3247C113.282 77.684 113.383 78.0453 113.603 78.332C113.869 78.6319 114.241 78.8174 114.64 78.85C114.961 78.8546 115.274 78.7506 115.528 78.555C117.157 77.223 117.897 75.816 117.749 74.261C117.602 71.966 115.38 70.561 115.158 70.411C115.007 70.3186 114.839 70.2569 114.664 70.2293C114.49 70.2018 114.311 70.2089 114.139 70.2504C113.967 70.2918 113.804 70.3668 113.661 70.471C113.518 70.5751 113.397 70.7065 113.305 70.8575C113.212 71.0085 113.15 71.1763 113.123 71.3511C113.095 71.526 113.102 71.7046 113.144 71.8767C113.185 72.0488 113.26 72.2111 113.365 72.3542C113.469 72.4974 113.6 72.6186 113.751 72.711C114.046 72.932 115.009 73.599 115.009 74.411C115.157 75.147 114.417 75.963 113.824 76.407Z" fill="#004BB9" stroke="#004BB9"/>
</g>
<defs>
<clipPath id="clip0_16_51">
<rect width="220.683" height="200" fill="white"/>
</clipPath>
</defs>
</svg>
