<svg width="221" height="200" viewBox="0 0 221 200" fill="none" xmlns="http://www.w3.org/2000/svg">
<g clip-path="url(#clip0_16_175)">
<path d="M158.341 4H62.3408C52.3997 4 44.3408 12.0589 44.3408 22V178C44.3408 187.941 52.3997 196 62.3408 196H158.341C168.282 196 176.341 187.941 176.341 178V22C176.341 12.0589 168.282 4 158.341 4Z" stroke="#004BB9" stroke-width="8"/>
<path d="M31.232 80.9185H16.002V87.6105H31.232V80.9185Z" fill="#004BB9"/>
<path d="M31.382 108.182H15.002V114.873H31.382V108.182Z" fill="#004BB9"/>
<path d="M31.382 121.807H15.002V128.498H31.382V121.807Z" fill="#004BB9"/>
<path d="M31.611 94.5405H0.000976562V101.232H31.611V94.5405Z" fill="#004BB9"/>
<path d="M31.382 53.6535H15.002V60.3445H31.382V53.6535Z" fill="#004BB9"/>
<path d="M31.382 67.2835H15.002V73.9745H31.382V67.2835Z" fill="#004BB9"/>
<path d="M31.611 40.0215H0.000976562V46.7125H31.611V40.0215Z" fill="#004BB9"/>
<path d="M204.682 80.9185H189.452V87.6105H204.682V80.9185Z" fill="#004BB9"/>
<path d="M205.682 108.182H189.302V114.873H205.682V108.182Z" fill="#004BB9"/>
<path d="M205.682 121.807H189.302V128.498H205.682V121.807Z" fill="#004BB9"/>
<path d="M220.683 94.5405H189.073V101.232H220.683V94.5405Z" fill="#004BB9"/>
<path d="M205.682 53.6535H189.302V60.3445H205.682V53.6535Z" fill="#004BB9"/>
<path d="M205.682 67.2835H189.302V73.9745H205.682V67.2835Z" fill="#004BB9"/>
<path d="M220.683 40.0215H189.073V46.7125H220.683V40.0215Z" fill="#004BB9"/>
<path d="M108.001 181.5C114.905 181.5 120.501 175.904 120.501 169C120.501 162.096 114.905 156.5 108.001 156.5C101.097 156.5 95.501 162.096 95.501 169C95.501 175.904 101.097 181.5 108.001 181.5Z" stroke="#004BB9" stroke-width="7"/>
<path d="M109.044 45.8641C108.88 45.8796 108.719 45.9177 108.565 45.9771L77.9229 58.5911C77.5863 58.7267 77.2985 58.9611 77.0974 59.2632C76.8963 59.5653 76.7912 59.9212 76.7959 60.2841V101.742C76.7976 102.1 76.9057 102.448 77.1064 102.744C77.3071 103.04 77.5914 103.269 77.9229 103.403L108.566 116.021C108.999 116.197 109.484 116.197 109.918 116.021L140.561 103.403C140.892 103.269 141.177 103.04 141.377 102.744C141.578 102.448 141.686 102.1 141.688 101.742V60.2841C141.692 59.9217 141.587 59.5665 141.386 59.265C141.185 58.9634 140.897 58.7296 140.561 58.5941L109.917 45.9761C109.64 45.8671 109.34 45.8286 109.044 45.8641V45.8641ZM109.244 49.6111L135.127 60.2841L109.241 70.9301L83.3579 60.2841L109.244 49.6111ZM80.4039 62.9611L107.442 74.1141V111.657L80.4039 100.504V62.9611ZM138.084 62.9611V100.504L111.046 111.657V74.1131L138.084 62.9611Z" fill="#004BB9" stroke="#004BB9" stroke-width="4"/>
</g>
<defs>
<clipPath id="clip0_16_175">
<rect width="220.683" height="200" fill="white"/>
</clipPath>
</defs>
</svg>
