<svg width="193" height="200" viewBox="0 0 193 200" fill="none" xmlns="http://www.w3.org/2000/svg">
<g clip-path="url(#clip0_16_206)">
<path d="M100.512 16.508H92.7789V23.199H100.512V16.508Z" fill="#004BB9"/>
<path d="M113.136 176.818H80.1489V183.509H113.136V176.818Z" fill="#004BB9"/>
<path d="M136.6 200H58.475C53.9315 199.997 49.5748 198.192 46.3604 194.981C43.1461 191.769 41.3367 187.414 41.329 182.871V163.659H48.02V182.871C48.0255 185.64 49.1292 188.295 51.089 190.251C53.0488 192.208 55.7046 193.308 58.474 193.309H136.6C139.367 193.305 142.02 192.204 143.977 190.248C145.933 188.291 147.034 185.638 147.038 182.871V163.659H153.729V182.871C153.724 187.413 151.918 191.767 148.707 194.978C145.496 198.189 141.141 199.995 136.6 200V200Z" fill="#004BB9"/>
<path d="M153.731 147.316H147.04V17.144C147.039 14.3744 145.939 11.7185 143.981 9.75902C142.024 7.79952 139.37 6.6965 136.6 6.692H58.475C55.7035 6.69465 53.0464 7.79662 51.0865 9.75612C49.1266 11.7156 48.0241 14.3726 48.021 17.144V147.316H41.33V17.144C41.335 12.5985 43.143 8.24063 46.3572 5.02656C49.5715 1.8125 53.9295 0.00476439 58.475 0L136.6 0C141.143 0.00688455 145.499 1.81578 148.71 5.02981C151.921 8.24385 153.727 12.6005 153.73 17.144L153.731 147.316Z" fill="#004BB9"/>
<path d="M150.383 33.021H44.679V39.712H150.383V33.021Z" fill="#004BB9"/>
<path d="M150.383 160.313H44.679V167.004H150.383V160.313Z" fill="#004BB9"/>
<path d="M79.254 70.939H56.205V47.891H79.254V70.939ZM62.9 64.248H72.565V54.582H62.9V64.248Z" fill="#004BB9"/>
<path d="M138.859 70.939H115.811V47.891H138.859V70.939ZM122.5 64.248H132.165V54.582H122.5V64.248Z" fill="#004BB9"/>
<path d="M109.055 70.939H86.0079V47.891H109.056V70.939H109.055ZM92.6999 64.248H102.365V54.582H92.6999V64.248Z" fill="#004BB9"/>
<path d="M79.254 100.741H56.205V77.693H79.254V100.741ZM62.9 94.05H72.565V84.384H62.9V94.05Z" fill="#004BB9"/>
<path d="M109.055 100.741H86.0079V77.693H109.056V100.741H109.055ZM92.6999 94.05H102.365V84.384H92.6999V94.05Z" fill="#004BB9"/>
<path d="M116.119 129.106H108.684V135.797H116.119V129.106Z" fill="#004BB9"/>
<path d="M101.249 129.106H93.814V135.797H101.249V129.106Z" fill="#004BB9"/>
<path d="M86.379 129.106H78.944V135.797H86.379V129.106Z" fill="#004BB9"/>
<path d="M175.914 167.005H17.8L0 155.489L17.8 143.976H175.914V167.005ZM19.777 160.313H169.223V150.667H19.777L12.32 155.488L19.777 160.313Z" fill="#004BB9"/>
<path d="M180.738 167.005H169.222V143.977H180.738C183.792 143.977 186.72 145.19 188.88 147.349C191.039 149.509 192.252 152.437 192.252 155.491C192.252 158.545 191.039 161.473 188.88 163.633C186.72 165.792 183.792 167.005 180.738 167.005ZM175.914 160.313H180.738C181.377 160.322 182.012 160.204 182.605 159.966C183.198 159.728 183.738 159.374 184.193 158.925C184.648 158.477 185.01 157.942 185.257 157.352C185.503 156.763 185.63 156.13 185.63 155.491C185.63 154.851 185.503 154.218 185.257 153.629C185.01 153.039 184.648 152.504 184.193 152.056C183.738 151.607 183.198 151.253 182.605 151.015C182.012 150.777 181.377 150.659 180.738 150.668H175.914V160.313Z" fill="#004BB9"/>
<path d="M17.89 73.918H2.66003V80.61H17.89V73.918Z" fill="#004BB9"/>
<path d="M34.27 101.182H17.89V107.873H34.27V101.182Z" fill="#004BB9"/>
<path d="M34.27 114.806H17.89V121.497H34.27V114.806Z" fill="#004BB9"/>
<path d="M34.27 87.54H2.66003V94.232H34.27V87.54Z" fill="#004BB9"/>
<path d="M34.27 46.653H17.89V53.344H34.27V46.653Z" fill="#004BB9"/>
<path d="M34.27 60.283H17.89V66.974H34.27V60.283Z" fill="#004BB9"/>
<path d="M34.27 33.021H2.66003V39.712H34.27V33.021Z" fill="#004BB9"/>
<path d="M192.403 73.907H177.173V80.598H192.403V73.907Z" fill="#004BB9"/>
<path d="M177.173 46.642H160.793V53.333H177.173V46.642Z" fill="#004BB9"/>
<path d="M177.173 33.021H160.793V39.712H177.173V33.021Z" fill="#004BB9"/>
<path d="M192.403 60.283H160.793V66.974H192.403V60.283Z" fill="#004BB9"/>
<path d="M177.173 101.17H160.793V107.861H177.173V101.17Z" fill="#004BB9"/>
<path d="M177.173 87.54H160.793V94.232H177.173V87.54Z" fill="#004BB9"/>
<path d="M192.403 114.806H160.793V121.497H192.403V114.806Z" fill="#004BB9"/>
</g>
<defs>
<clipPath id="clip0_16_206">
<rect width="192.403" height="200" fill="white"/>
</clipPath>
</defs>
</svg>
