<svg width="221" height="200" viewBox="0 0 221 200" fill="none" xmlns="http://www.w3.org/2000/svg">
<g clip-path="url(#clip0_16_246)">
<path d="M128.035 105.432V103.192C128.027 100.666 127.021 98.2454 125.234 96.4592C123.448 94.6731 121.028 93.6663 118.502 93.6589H115.628C115.367 92.5343 114.797 91.5053 113.981 90.689C113.164 89.8728 112.135 89.3021 111.011 89.0419V86.6109C111.919 86.2896 112.685 85.6574 113.173 84.8261C113.661 83.9947 113.839 83.0176 113.676 82.0677C113.513 81.1177 113.019 80.2559 112.282 79.6346C111.545 79.0134 110.613 78.6726 109.649 78.6726C108.685 78.6726 107.752 79.0134 107.015 79.6346C106.278 80.2559 105.784 81.1177 105.621 82.0677C105.459 83.0176 105.637 83.9947 106.124 84.8261C106.612 85.6574 107.378 86.2896 108.287 86.6109V89.0419C107.162 89.3021 106.133 89.8728 105.317 90.689C104.5 91.5053 103.93 92.5343 103.67 93.6589H100.797C98.2697 93.665 95.848 94.6711 94.0607 96.4575C92.2735 98.2438 91.266 100.665 91.2587 103.192V105.432C90.2749 105.725 89.4121 106.329 88.7986 107.152C88.1851 107.975 87.8538 108.974 87.8538 110.001C87.8538 111.028 88.1851 112.027 88.7986 112.85C89.4121 113.673 90.2749 114.276 91.2587 114.57V116.81C91.266 119.336 92.2728 121.756 94.059 123.543C95.8451 125.329 98.2656 126.336 100.792 126.343H118.492C121.018 126.336 123.438 125.329 125.224 123.543C127.011 121.756 128.017 119.336 128.025 116.81V114.57C129.008 114.276 129.871 113.673 130.485 112.85C131.098 112.027 131.43 111.028 131.43 110.001C131.43 108.974 131.098 107.975 130.485 107.152C129.871 106.329 129.008 105.725 128.025 105.432H128.035ZM109.649 91.6159C110.312 91.6173 110.96 91.8111 111.515 92.1737C112.07 92.5364 112.507 93.0523 112.775 93.6589H106.524C106.791 93.0525 107.228 92.5367 107.783 92.174C108.338 91.8114 108.986 91.6175 109.649 91.6159V91.6159ZM125.311 116.816C125.307 118.621 124.589 120.351 123.313 121.627C122.037 122.903 120.307 123.622 118.502 123.625H100.802C98.9968 123.622 97.2667 122.903 95.9905 121.627C94.7142 120.351 93.9958 118.621 93.9927 116.816V103.192C93.9945 101.388 94.7111 99.6578 95.9855 98.3807C97.26 97.1036 98.9885 96.3835 100.793 96.3779H118.493C120.298 96.3811 122.028 97.0995 123.304 98.3757C124.58 99.652 125.298 101.382 125.302 103.187L125.311 116.816Z" fill="#004BB9"/>
<path d="M103.378 109.621C104.127 109.625 104.861 109.406 105.486 108.993C106.111 108.58 106.599 107.99 106.889 107.299C107.179 106.608 107.257 105.846 107.114 105.111C106.97 104.375 106.612 103.699 106.084 103.167C105.556 102.635 104.882 102.272 104.147 102.124C103.413 101.976 102.651 102.049 101.958 102.334C101.265 102.619 100.672 103.103 100.254 103.725C99.8365 104.347 99.6129 105.08 99.6117 105.829C99.6114 106.83 100.007 107.79 100.713 108.5C101.419 109.209 102.377 109.611 103.378 109.616V109.621ZM103.378 104.773C103.589 104.769 103.796 104.828 103.974 104.942C104.152 105.056 104.291 105.221 104.375 105.415C104.458 105.609 104.482 105.823 104.444 106.031C104.405 106.238 104.305 106.429 104.157 106.58C104.01 106.731 103.82 106.834 103.613 106.877C103.406 106.919 103.192 106.9 102.996 106.82C102.801 106.74 102.634 106.603 102.516 106.428C102.398 106.253 102.336 106.046 102.336 105.835C102.336 105.557 102.445 105.29 102.64 105.091C102.835 104.893 103.1 104.778 103.378 104.773V104.773Z" fill="#004BB9"/>
<path d="M115.921 109.621C116.67 109.625 117.404 109.406 118.029 108.993C118.655 108.579 119.143 107.989 119.433 107.298C119.722 106.607 119.8 105.845 119.656 105.109C119.513 104.373 119.154 103.697 118.625 103.165C118.097 102.634 117.422 102.271 116.687 102.123C115.952 101.976 115.19 102.049 114.497 102.335C113.804 102.621 113.212 103.106 112.795 103.729C112.378 104.352 112.155 105.084 112.155 105.834C112.154 106.835 112.55 107.795 113.256 108.505C113.962 109.214 114.92 109.616 115.921 109.621V109.621ZM115.921 104.773C116.132 104.77 116.339 104.829 116.516 104.944C116.693 105.059 116.832 105.224 116.915 105.417C116.998 105.611 117.021 105.826 116.982 106.033C116.943 106.24 116.843 106.431 116.695 106.582C116.547 106.732 116.357 106.835 116.151 106.877C115.944 106.92 115.729 106.899 115.534 106.819C115.339 106.739 115.172 106.603 115.055 106.428C114.937 106.252 114.874 106.046 114.875 105.835C114.875 105.556 114.985 105.289 115.18 105.09C115.376 104.891 115.642 104.777 115.921 104.773Z" fill="#004BB9"/>
<path d="M99.6747 115.486H119.992V118.321C116.418 119.088 112.781 119.521 109.128 119.612C105.934 119.587 102.758 119.153 99.6747 118.321V115.486Z" fill="#004BB9"/>
<path d="M158.606 40.0389H120.725C119.788 40.0726 118.903 40.4756 118.262 41.1598C117.621 41.8441 117.278 42.754 117.306 43.6909V65.4049C117.295 65.8613 117.375 66.3152 117.542 66.74C117.709 67.1649 117.959 67.5522 118.277 67.8793C118.596 68.2063 118.976 68.4666 119.396 68.6448C119.817 68.8229 120.268 68.9155 120.725 68.9169H122.425L121.025 75.4379L130.106 68.9169H158.606C159.062 68.9155 159.514 68.8229 159.934 68.6448C160.354 68.4666 160.735 68.2063 161.053 67.8793C161.371 67.5522 161.621 67.1649 161.788 66.74C161.955 66.3152 162.035 65.8613 162.025 65.4049V43.6909C162.053 42.754 161.709 41.8441 161.068 41.1598C160.428 40.4756 159.542 40.0726 158.606 40.0389V40.0389ZM158.299 65.1909H121.032L121.041 43.7649H158.294L158.299 65.1909Z" fill="#004BB9" stroke="#004BB9" stroke-width="2"/>
<path d="M62.0827 40.0389H99.9637C100.9 40.0726 101.786 40.4756 102.426 41.1598C103.067 41.8441 103.411 42.754 103.383 43.6909V65.4049C103.393 65.8613 103.313 66.3152 103.146 66.74C102.979 67.1649 102.729 67.5522 102.411 67.8793C102.093 68.2063 101.712 68.4666 101.292 68.6448C100.872 68.8229 100.42 68.9155 99.9637 68.9169H98.2637L99.6637 75.4389L90.5907 68.9179H62.0907C61.6335 68.9175 61.181 68.8258 60.7597 68.648C60.3385 68.4702 59.957 68.2101 59.6378 67.8828C59.3185 67.5555 59.0679 67.1677 58.9006 66.7422C58.7333 66.3167 58.6528 65.862 58.6637 65.4049V43.6909C58.6356 42.754 58.9794 41.8441 59.62 41.1598C60.2606 40.4756 61.146 40.0726 62.0827 40.0389V40.0389ZM62.3897 65.1909H99.6517L99.6427 43.7649H62.3897V65.1909Z" fill="#004BB9" stroke="#004BB9" stroke-width="2"/>
<path d="M158.341 4H62.3408C52.3997 4 44.3408 12.0589 44.3408 22V178C44.3408 187.941 52.3997 196 62.3408 196H158.341C168.282 196 176.341 187.941 176.341 178V22C176.341 12.0589 168.282 4 158.341 4Z" stroke="#004BB9" stroke-width="8"/>
<path d="M31.232 80.9185H16.002V87.6105H31.232V80.9185Z" fill="#004BB9"/>
<path d="M31.382 108.182H15.002V114.873H31.382V108.182Z" fill="#004BB9"/>
<path d="M31.382 121.807H15.002V128.498H31.382V121.807Z" fill="#004BB9"/>
<path d="M31.611 94.5405H0.000976562V101.232H31.611V94.5405Z" fill="#004BB9"/>
<path d="M31.382 53.6535H15.002V60.3445H31.382V53.6535Z" fill="#004BB9"/>
<path d="M31.382 67.2835H15.002V73.9745H31.382V67.2835Z" fill="#004BB9"/>
<path d="M31.611 40.0215H0.000976562V46.7125H31.611V40.0215Z" fill="#004BB9"/>
<path d="M204.682 80.9185H189.452V87.6105H204.682V80.9185Z" fill="#004BB9"/>
<path d="M205.682 108.182H189.302V114.873H205.682V108.182Z" fill="#004BB9"/>
<path d="M205.682 121.807H189.302V128.498H205.682V121.807Z" fill="#004BB9"/>
<path d="M220.683 94.5405H189.073V101.232H220.683V94.5405Z" fill="#004BB9"/>
<path d="M205.682 53.6535H189.302V60.3445H205.682V53.6535Z" fill="#004BB9"/>
<path d="M205.682 67.2835H189.302V73.9745H205.682V67.2835Z" fill="#004BB9"/>
<path d="M220.683 40.0215H189.073V46.7125H220.683V40.0215Z" fill="#004BB9"/>
<path d="M108.001 181.5C114.905 181.5 120.501 175.904 120.501 169C120.501 162.096 114.905 156.5 108.001 156.5C101.097 156.5 95.501 162.096 95.501 169C95.501 175.904 101.097 181.5 108.001 181.5Z" stroke="#004BB9" stroke-width="7"/>
</g>
<defs>
<clipPath id="clip0_16_246">
<rect width="220.683" height="200" fill="white"/>
</clipPath>
</defs>
</svg>
