<svg width="199" height="196" viewBox="0 0 199 196" fill="none" xmlns="http://www.w3.org/2000/svg">
<g clip-path="url(#clip0_16_282)">
<path d="M20.742 195.993H75.21C80.7091 195.987 85.9811 193.799 89.8694 189.911C93.7578 186.022 95.9449 180.75 95.951 175.251C95.9511 174.843 95.8708 174.439 95.7147 174.061C95.5585 173.684 95.3296 173.342 95.041 173.053C94.7523 172.764 94.4097 172.535 94.0325 172.379C93.6554 172.223 93.2512 172.143 92.843 172.143H89.823V131.969C89.8198 129.389 88.7933 126.915 86.9687 125.091C85.1441 123.266 82.6703 122.24 80.09 122.237H51.072V113.687C52.7273 113.167 54.2257 112.24 55.4301 110.991C56.6345 109.742 57.5064 108.211 57.966 106.538H88.366C89.1863 108.819 90.6907 110.792 92.6738 112.186C94.657 113.581 97.0222 114.329 99.4465 114.329C101.871 114.329 104.236 113.581 106.219 112.186C108.202 110.792 109.707 108.819 110.527 106.538H140.946C141.442 108.363 142.427 110.019 143.794 111.326C145.161 112.633 146.859 113.543 148.705 113.956V122.237H118.825C116.245 122.24 113.771 123.266 111.946 125.091C110.122 126.915 109.095 129.389 109.092 131.969V172.143H106.072C105.664 172.143 105.26 172.223 104.882 172.379C104.505 172.535 104.163 172.764 103.874 173.053C103.585 173.342 103.356 173.684 103.2 174.061C103.044 174.439 102.964 174.843 102.964 175.251C102.97 180.749 105.156 186.021 109.043 189.91C112.931 193.798 118.202 195.986 123.7 195.993H178.17C183.669 195.987 188.941 193.799 192.829 189.911C196.717 186.022 198.903 180.75 198.909 175.251C198.909 174.843 198.829 174.439 198.673 174.061C198.517 173.684 198.288 173.342 197.999 173.053C197.71 172.764 197.368 172.535 196.991 172.379C196.613 172.223 196.209 172.143 195.801 172.143H192.781V131.969C192.778 129.389 191.751 126.915 189.927 125.091C188.102 123.266 185.628 122.24 183.048 122.237H154.918V113.411C156.521 112.753 157.934 111.704 159.028 110.361C160.122 109.018 160.863 107.422 161.183 105.719C161.503 104.016 161.392 102.261 160.861 100.612C160.329 98.9626 159.393 97.4727 158.139 96.2775C156.885 95.0823 155.351 94.2197 153.679 93.7684C152.006 93.317 150.247 93.2911 148.561 93.6931C146.876 94.095 145.318 94.9121 144.029 96.0698C142.74 97.2276 141.761 98.6893 141.181 100.322H111.1C110.695 98.1286 109.679 96.0941 108.169 94.4526C106.659 92.8112 104.716 91.6297 102.564 91.044V83.081H158.633C162.418 83.0839 166.091 81.793 169.042 79.4224C171.993 77.0519 174.045 73.744 174.858 70.0472C175.671 66.3504 175.196 62.4867 173.513 59.0966C171.829 55.7066 169.037 52.9938 165.6 51.408C163.557 36.748 150.2 27.214 137.228 30.545C132.39 12.696 117.117 0.051 99.593 0C82.269 0 66.984 12.564 62.052 30.352C48.552 26.703 35.132 36.606 33.222 51.428C29.793 53.022 27.0109 55.7391 25.3363 59.1295C23.6616 62.5199 23.1947 66.3804 24.0128 70.0723C24.8309 73.7642 26.8849 77.0661 29.835 79.4317C32.7852 81.7973 36.4546 83.0847 40.236 83.081H96.343V91.044C94.1908 91.6296 92.2477 92.8111 90.7376 94.4525C89.2274 96.094 88.2115 98.1285 87.807 100.322H57.728C57.1387 98.6544 56.1327 97.1653 54.8058 95.996C53.4788 94.8267 51.8749 94.0161 50.1465 93.6412C48.418 93.2663 46.6224 93.3396 44.9303 93.8541C43.2381 94.3686 41.7056 95.3072 40.4784 96.5808C39.2512 97.8544 38.3699 99.4206 37.9185 101.131C37.467 102.841 37.4603 104.638 37.8989 106.351C38.3376 108.065 39.207 109.637 40.4247 110.92C41.6423 112.203 43.1678 113.153 44.856 113.68V122.237H15.864C13.2837 122.24 10.8099 123.266 8.9853 125.091C7.16067 126.915 6.13418 129.389 6.131 131.969V172.143H3.108C2.69981 172.143 2.2956 172.223 1.91846 172.379C1.54133 172.535 1.19865 172.764 0.910019 173.053C0.621389 173.342 0.39246 173.684 0.236315 174.061C0.0801699 174.439 -0.000131236 174.843 1.60994e-07 175.251C0.00608795 180.75 2.19335 186.023 6.08191 189.911C9.97048 193.8 15.2427 195.987 20.742 195.993V195.993ZM192.359 178.359C191.646 181.593 189.851 184.486 187.272 186.562C184.692 188.638 181.481 189.772 178.17 189.777H123.7C120.389 189.772 117.178 188.638 114.598 186.562C112.019 184.486 110.224 181.593 109.511 178.359H192.36H192.359ZM183.047 128.453C183.979 128.454 184.873 128.824 185.533 129.484C186.193 130.143 186.564 131.037 186.565 131.969V172.143H115.3V131.969C115.301 131.037 115.672 130.143 116.332 129.484C116.992 128.824 117.886 128.454 118.818 128.453H183.047V128.453ZM150.932 99.631C151.76 99.6306 152.569 99.8757 153.257 100.335C153.945 100.795 154.482 101.448 154.799 102.213C155.116 102.977 155.199 103.819 155.038 104.63C154.876 105.442 154.478 106.188 153.893 106.773C153.308 107.358 152.562 107.757 151.75 107.919C150.939 108.08 150.097 107.997 149.333 107.68C148.568 107.364 147.915 106.827 147.455 106.139C146.995 105.451 146.75 104.642 146.75 103.814C146.75 102.705 147.191 101.641 147.975 100.857C148.759 100.072 149.823 99.6315 150.932 99.631ZM40.236 76.866C37.7584 76.8662 35.3624 75.9808 33.4802 74.3697C31.5981 72.7585 30.3539 70.5276 29.9721 68.0796C29.5903 65.6316 30.0961 63.1278 31.3983 61.02C32.7004 58.9122 34.713 57.3392 37.073 56.585C37.6746 56.3945 38.204 56.0254 38.5906 55.5266C38.9771 55.0278 39.2026 54.4231 39.237 53.793C39.975 40.327 52.537 32.351 62.937 37.285C63.3657 37.4877 63.835 37.5897 64.3092 37.5832C64.7833 37.5766 65.2497 37.4618 65.6726 37.2474C66.0956 37.0329 66.4639 36.7246 66.7494 36.3461C67.0349 35.9675 67.2301 35.5286 67.32 35.063C70.54 18.349 84.11 6.216 99.72 6.216C115.239 6.261 128.778 18.452 131.91 35.201C131.997 35.6645 132.189 36.1021 132.47 36.4806C132.752 36.8591 133.116 37.1687 133.534 37.386C133.953 37.6032 134.416 37.7224 134.887 37.7345C135.359 37.7467 135.827 37.6514 136.256 37.456C146.148 32.946 158.727 40.368 159.593 53.821C159.632 54.4486 159.861 55.0495 160.25 55.5439C160.639 56.0383 161.168 56.4028 161.769 56.589C163.876 57.2436 165.718 58.5582 167.021 60.339C168.325 62.1197 169.021 64.2722 169.008 66.479C169.005 69.2312 167.91 71.8698 165.965 73.8167C164.02 75.7637 161.382 76.8602 158.63 76.866H40.236ZM99.436 96.795H99.456C100.95 96.7995 102.381 97.3957 103.437 98.4531C104.493 99.5105 105.086 100.943 105.088 102.437C105.088 102.769 105.058 103.073 105.049 103.221C104.867 104.582 104.194 105.83 103.157 106.73C102.12 107.631 100.79 108.121 99.4168 108.11C98.0436 108.099 96.7217 107.587 95.6994 106.67C94.6771 105.753 94.0248 104.494 93.865 103.13C93.8243 102.901 93.8039 102.669 93.804 102.437C93.8058 100.942 94.4002 99.5088 95.4568 98.4513C96.5134 97.3938 97.9461 96.7982 99.441 96.795H99.436ZM43.79 103.811C43.79 102.983 44.0354 102.175 44.4951 101.486C44.9549 100.798 45.6083 100.262 46.3729 99.9455C47.1374 99.6288 47.9786 99.5459 48.7903 99.7074C49.6019 99.8688 50.3474 100.267 50.9325 100.852C51.5177 101.438 51.9162 102.183 52.0776 102.995C52.239 103.806 52.1562 104.648 51.8395 105.412C51.5228 106.177 50.9866 106.83 50.2985 107.29C49.6105 107.75 48.8015 107.995 47.974 107.995C46.8643 107.995 45.8001 107.554 45.0155 106.77C44.2308 105.985 43.79 104.921 43.79 103.811ZM12.347 131.969C12.3483 131.037 12.7195 130.143 13.379 129.484C14.0385 128.824 14.9326 128.454 15.865 128.453H80.09C81.0224 128.454 81.9165 128.824 82.576 129.484C83.2355 130.143 83.6067 131.037 83.608 131.969V172.143H12.347V131.969ZM9.239 178.359H89.4C88.687 181.593 86.8923 184.487 84.3123 186.563C81.7324 188.639 78.5215 189.773 75.21 189.777H20.742C17.4302 189.773 14.2188 188.639 11.6384 186.563C9.05807 184.487 7.26307 181.593 6.55 178.359H9.239Z" fill="#004BB9"/>
<path d="M146.792 187.176H155.075C155.899 187.176 156.69 186.849 157.273 186.266C157.856 185.683 158.183 184.892 158.183 184.068C158.183 183.244 157.856 182.453 157.273 181.87C156.69 181.287 155.899 180.96 155.075 180.96H146.792C145.968 180.96 145.177 181.287 144.594 181.87C144.011 182.453 143.684 183.244 143.684 184.068C143.684 184.892 144.011 185.683 144.594 186.266C145.177 186.849 145.968 187.176 146.792 187.176V187.176Z" fill="#004BB9"/>
<path d="M43.832 187.176H52.121C52.9453 187.176 53.7358 186.849 54.3187 186.266C54.9015 185.683 55.229 184.892 55.229 184.068C55.229 183.244 54.9015 182.453 54.3187 181.87C53.7358 181.287 52.9453 180.96 52.121 180.96H43.832C43.0077 180.96 42.2172 181.287 41.6343 181.87C41.0514 182.453 40.724 183.244 40.724 184.068C40.724 184.892 41.0514 185.683 41.6343 186.266C42.2172 186.849 43.0077 187.176 43.832 187.176V187.176Z" fill="#004BB9"/>
</g>
<defs>
<clipPath id="clip0_16_282">
<rect width="198.909" height="195.993" fill="white"/>
</clipPath>
</defs>
</svg>
