<svg width="221" height="200" viewBox="0 0 221 200" fill="none" xmlns="http://www.w3.org/2000/svg">
<g clip-path="url(#clip0_16_288)">
<path d="M158.341 4H62.3408C52.3997 4 44.3408 12.0589 44.3408 22V178C44.3408 187.941 52.3997 196 62.3408 196H158.341C168.282 196 176.341 187.941 176.341 178V22C176.341 12.0589 168.282 4 158.341 4Z" stroke="#004BB9" stroke-width="8"/>
<path d="M31.232 80.9185H16.002V87.6105H31.232V80.9185Z" fill="#004BB9"/>
<path d="M31.382 108.182H15.002V114.873H31.382V108.182Z" fill="#004BB9"/>
<path d="M31.382 121.807H15.002V128.498H31.382V121.807Z" fill="#004BB9"/>
<path d="M31.611 94.5405H0.000976562V101.232H31.611V94.5405Z" fill="#004BB9"/>
<path d="M31.382 53.6535H15.002V60.3445H31.382V53.6535Z" fill="#004BB9"/>
<path d="M31.382 67.2835H15.002V73.9745H31.382V67.2835Z" fill="#004BB9"/>
<path d="M31.611 40.0215H0.000976562V46.7125H31.611V40.0215Z" fill="#004BB9"/>
<path d="M204.682 80.9185H189.452V87.6105H204.682V80.9185Z" fill="#004BB9"/>
<path d="M205.682 108.182H189.302V114.873H205.682V108.182Z" fill="#004BB9"/>
<path d="M205.682 121.807H189.302V128.498H205.682V121.807Z" fill="#004BB9"/>
<path d="M220.683 94.5405H189.073V101.232H220.683V94.5405Z" fill="#004BB9"/>
<path d="M205.682 53.6535H189.302V60.3445H205.682V53.6535Z" fill="#004BB9"/>
<path d="M205.682 67.2835H189.302V73.9745H205.682V67.2835Z" fill="#004BB9"/>
<path d="M220.683 40.0215H189.073V46.7125H220.683V40.0215Z" fill="#004BB9"/>
<path d="M110.342 186.5C117.245 186.5 122.842 180.904 122.842 174C122.842 167.096 117.245 161.5 110.342 161.5C103.438 161.5 97.8418 167.096 97.8418 174C97.8418 180.904 103.438 186.5 110.342 186.5Z" stroke="#004BB9" stroke-width="7"/>
<path d="M113.342 54.667C111.891 54.667 110.474 54.2369 109.268 53.4311C108.062 52.6254 107.122 51.4801 106.567 50.1402C106.012 48.8003 105.867 47.3258 106.15 45.9034C106.433 44.4809 107.131 43.1743 108.157 42.1488C109.182 41.1232 110.489 40.4248 111.911 40.1419C113.334 39.8589 114.808 40.0042 116.148 40.5592C117.488 41.1142 118.633 42.0541 119.439 43.26C120.245 44.4659 120.675 45.8836 120.675 47.334C120.675 49.2788 119.902 51.144 118.527 52.5192C117.152 53.8944 115.287 54.667 113.342 54.667ZM113.342 42.445C112.375 42.445 111.43 42.7317 110.626 43.2689C109.822 43.8061 109.195 44.5697 108.825 45.463C108.455 46.3564 108.358 47.3394 108.547 48.2878C108.735 49.2361 109.201 50.1073 109.885 50.791C110.568 51.4748 111.44 51.9404 112.388 52.129C113.336 52.3177 114.319 52.2209 115.213 51.8508C116.106 51.4808 116.87 50.8542 117.407 50.0502C117.944 49.2462 118.231 48.3009 118.231 47.334C118.231 46.0373 117.716 44.7938 116.799 43.8769C115.882 42.9601 114.638 42.445 113.342 42.445V42.445Z" fill="#004BB9" stroke="#004BB9" stroke-width="2"/>
<path d="M113.342 128.001C111.891 128.001 110.474 127.571 109.268 126.765C108.062 125.959 107.122 124.814 106.567 123.474C106.012 122.134 105.867 120.66 106.15 119.237C106.433 117.815 107.131 116.508 108.157 115.483C109.182 114.457 110.489 113.759 111.911 113.476C113.334 113.193 114.808 113.338 116.148 113.893C117.488 114.448 118.633 115.388 119.439 116.594C120.245 117.8 120.675 119.218 120.675 120.668C120.675 122.613 119.902 124.478 118.527 125.853C117.152 127.228 115.287 128.001 113.342 128.001ZM113.342 115.779C112.375 115.779 111.43 116.066 110.626 116.603C109.822 117.14 109.195 117.904 108.825 118.797C108.455 119.69 108.358 120.673 108.547 121.622C108.735 122.57 109.201 123.441 109.885 124.125C110.568 124.809 111.44 125.274 112.388 125.463C113.336 125.652 114.319 125.555 115.213 125.185C116.106 124.815 116.87 124.188 117.407 123.384C117.944 122.58 118.231 121.635 118.231 120.668C118.231 119.371 117.716 118.128 116.799 117.211C115.882 116.294 114.638 115.779 113.342 115.779V115.779Z" fill="#004BB9" stroke="#004BB9" stroke-width="2"/>
<path d="M150.009 91.334C148.558 91.334 147.141 90.9039 145.935 90.0981C144.729 89.2924 143.789 88.1471 143.234 86.8072C142.679 85.4673 142.534 83.9928 142.817 82.5704C143.1 81.1479 143.798 79.8413 144.824 78.8158C145.849 77.7902 147.156 77.0918 148.578 76.8089C150.001 76.5259 151.475 76.6711 152.815 77.2262C154.155 77.7812 155.3 78.7211 156.106 79.927C156.912 81.1329 157.342 82.5506 157.342 84.001C157.342 85.9458 156.569 87.811 155.194 89.1862C153.819 90.5614 151.954 91.334 150.009 91.334V91.334ZM150.009 79.112C149.042 79.112 148.097 79.3987 147.293 79.9359C146.489 80.4731 145.862 81.2367 145.492 82.13C145.122 83.0234 145.025 84.0064 145.214 84.9548C145.402 85.9031 145.868 86.7743 146.552 87.458C147.235 88.1418 148.107 88.6074 149.055 88.796C150.003 88.9847 150.986 88.8879 151.88 88.5178C152.773 88.1478 153.537 87.5211 154.074 86.7172C154.611 85.9132 154.898 84.9679 154.898 84.001C154.898 82.7043 154.383 81.4608 153.466 80.5439C152.549 79.6271 151.305 79.112 150.009 79.112V79.112Z" fill="#004BB9" stroke="#004BB9" stroke-width="2"/>
<path d="M76.6748 91.334C75.2245 91.334 73.8067 90.9039 72.6008 90.0981C71.3949 89.2924 70.455 88.1471 69.9 86.8072C69.345 85.4673 69.1998 83.9928 69.4827 82.5704C69.7656 81.1479 70.464 79.8413 71.4896 78.8158C72.5151 77.7902 73.8217 77.0918 75.2442 76.8089C76.6667 76.5259 78.1411 76.6711 79.481 77.2262C80.8209 77.7812 81.9662 78.7211 82.772 79.927C83.5777 81.1329 84.0078 82.5506 84.0078 84.001C84.0078 85.9458 83.2352 87.811 81.86 89.1862C80.4848 90.5614 78.6196 91.334 76.6748 91.334V91.334ZM76.6748 79.112C75.7078 79.112 74.7626 79.3987 73.9586 79.9359C73.1546 80.4731 72.528 81.2367 72.158 82.13C71.7879 83.0234 71.6911 84.0064 71.8797 84.9548C72.0684 85.9031 72.534 86.7743 73.2178 87.458C73.9015 88.1418 74.7726 88.6074 75.721 88.796C76.6694 88.9847 77.6524 88.8879 78.5457 88.5178C79.4391 88.1478 80.2026 87.5211 80.7399 86.7172C81.2771 85.9132 81.5638 84.9679 81.5638 84.001C81.5638 82.7043 81.0487 81.4608 80.1318 80.5439C79.215 79.6271 77.9714 79.112 76.6748 79.112V79.112Z" fill="#004BB9" stroke="#004BB9" stroke-width="2"/>
<path d="M88.8968 115.779C87.4465 115.779 86.0287 115.349 84.8228 114.543C83.6169 113.737 82.677 112.592 82.122 111.252C81.567 109.912 81.4217 108.438 81.7047 107.015C81.9876 105.593 82.686 104.286 83.7116 103.261C84.7371 102.235 86.0437 101.537 87.4662 101.254C88.8887 100.971 90.3631 101.116 91.703 101.671C93.0429 102.226 94.1882 103.166 94.994 104.372C95.7997 105.578 96.2298 106.996 96.2298 108.446C96.2298 110.391 95.4572 112.256 94.082 113.631C92.7068 115.006 90.8416 115.779 88.8968 115.779V115.779ZM88.8968 103.557C87.9298 103.557 86.9846 103.844 86.1806 104.381C85.3766 104.918 84.75 105.682 84.3799 106.575C84.0099 107.468 83.9131 108.451 84.1017 109.4C84.2904 110.348 84.756 111.219 85.4397 111.903C86.1235 112.587 86.9946 113.052 87.943 113.241C88.8914 113.43 89.8744 113.333 90.7677 112.963C91.6611 112.593 92.4246 111.966 92.9618 111.162C93.4991 110.358 93.7858 109.413 93.7858 108.446C93.7858 107.149 93.2707 105.906 92.3538 104.989C91.437 104.072 90.1934 103.557 88.8968 103.557V103.557Z" fill="#004BB9" stroke="#004BB9" stroke-width="2"/>
<path d="M88.8968 66.889C87.4465 66.889 86.0287 66.4589 84.8228 65.6531C83.6169 64.8474 82.677 63.7021 82.122 62.3622C81.567 61.0223 81.4217 59.5478 81.7047 58.1254C81.9876 56.7029 82.686 55.3963 83.7116 54.3708C84.7371 53.3452 86.0437 52.6468 87.4662 52.3639C88.8887 52.0809 90.3631 52.2261 91.703 52.7812C93.0429 53.3362 94.1882 54.2761 94.994 55.482C95.7997 56.6879 96.2298 58.1056 96.2298 59.556C96.2298 61.5008 95.4572 63.366 94.082 64.7412C92.7068 66.1164 90.8416 66.889 88.8968 66.889V66.889ZM88.8968 54.667C87.9298 54.667 86.9846 54.9537 86.1806 55.4909C85.3766 56.0281 84.75 56.7917 84.3799 57.685C84.0099 58.5784 83.9131 59.5614 84.1017 60.5098C84.2904 61.4581 84.756 62.3293 85.4397 63.013C86.1235 63.6967 86.9946 64.1624 87.943 64.351C88.8914 64.5397 89.8744 64.4428 90.7677 64.0728C91.6611 63.7028 92.4246 63.0761 92.9618 62.2721C93.4991 61.4682 93.7858 60.5229 93.7858 59.556C93.7858 58.2593 93.2707 57.0158 92.3538 56.0989C91.437 55.1821 90.1934 54.667 88.8968 54.667V54.667Z" fill="#004BB9" stroke="#004BB9" stroke-width="2"/>
<path d="M137.787 66.889C136.336 66.889 134.919 66.4589 133.713 65.6531C132.507 64.8474 131.567 63.7021 131.012 62.3622C130.457 61.0223 130.312 59.5478 130.595 58.1254C130.878 56.7029 131.576 55.3963 132.602 54.3708C133.627 53.3452 134.934 52.6468 136.356 52.3639C137.779 52.0809 139.253 52.2261 140.593 52.7812C141.933 53.3362 143.078 54.2761 143.884 55.482C144.69 56.6879 145.12 58.1056 145.12 59.556C145.12 61.5008 144.347 63.366 142.972 64.7412C141.597 66.1164 139.732 66.889 137.787 66.889V66.889ZM137.787 54.667C136.82 54.667 135.875 54.9537 135.071 55.4909C134.267 56.0281 133.64 56.7917 133.27 57.685C132.9 58.5784 132.803 59.5614 132.992 60.5098C133.18 61.4581 133.646 62.3293 134.33 63.013C135.013 63.6967 135.885 64.1624 136.833 64.351C137.781 64.5397 138.764 64.4428 139.658 64.0728C140.551 63.7028 141.315 63.0761 141.852 62.2721C142.389 61.4682 142.676 60.5229 142.676 59.556C142.676 58.2593 142.161 57.0158 141.244 56.0989C140.327 55.1821 139.083 54.667 137.787 54.667V54.667Z" fill="#004BB9" stroke="#004BB9" stroke-width="2"/>
<path d="M137.787 115.779C136.336 115.779 134.919 115.349 133.713 114.543C132.507 113.737 131.567 112.592 131.012 111.252C130.457 109.912 130.312 108.438 130.595 107.015C130.878 105.593 131.576 104.286 132.602 103.261C133.627 102.235 134.934 101.537 136.356 101.254C137.779 100.971 139.253 101.116 140.593 101.671C141.933 102.226 143.078 103.166 143.884 104.372C144.69 105.578 145.12 106.996 145.12 108.446C145.12 110.391 144.347 112.256 142.972 113.631C141.597 115.006 139.732 115.779 137.787 115.779ZM137.787 103.557C136.82 103.557 135.875 103.844 135.071 104.381C134.267 104.918 133.64 105.682 133.27 106.575C132.9 107.468 132.803 108.451 132.992 109.4C133.18 110.348 133.646 111.219 134.33 111.903C135.013 112.587 135.885 113.052 136.833 113.241C137.781 113.43 138.764 113.333 139.658 112.963C140.551 112.593 141.315 111.966 141.852 111.162C142.389 110.358 142.676 109.413 142.676 108.446C142.676 107.149 142.161 105.906 141.244 104.989C140.327 104.072 139.083 103.557 137.787 103.557Z" fill="#004BB9" stroke="#004BB9" stroke-width="2"/>
<path d="M103.441 72.389L94.0308 62.978L93.9088 62.856C93.7887 62.7496 93.6488 62.6682 93.497 62.6163C93.3453 62.5644 93.1847 62.5431 93.0247 62.5537C92.8647 62.5642 92.7083 62.6064 92.5647 62.6778C92.4211 62.7492 92.293 62.8483 92.188 62.9695C92.0829 63.0907 92.003 63.2315 91.9527 63.3838C91.9024 63.5361 91.8828 63.6968 91.8951 63.8567C91.9073 64.0166 91.9512 64.1725 92.0241 64.3154C92.097 64.4582 92.1975 64.5852 92.3198 64.689L101.731 74.099C102.238 73.4696 102.811 72.8963 103.441 72.389V72.389Z" fill="#004BB9" stroke="#004BB9" stroke-width="2"/>
<path d="M114.564 68.844V53.444C114.564 53.1199 114.435 52.8091 114.206 52.5799C113.977 52.3507 113.666 52.222 113.342 52.222C113.018 52.222 112.707 52.3507 112.478 52.5799C112.249 52.8091 112.12 53.1199 112.12 53.444V68.844C112.487 68.844 112.976 68.722 113.342 68.722C113.753 68.7019 114.165 68.7431 114.564 68.844V68.844Z" fill="#004BB9" stroke="#004BB9" stroke-width="2"/>
<path d="M112.12 99.156V114.556C112.12 114.88 112.249 115.191 112.478 115.42C112.707 115.649 113.018 115.778 113.342 115.778C113.666 115.778 113.977 115.649 114.206 115.42C114.435 115.191 114.564 114.88 114.564 114.556V99.156C114.197 99.156 113.708 99.278 113.342 99.278C112.931 99.298 112.519 99.2569 112.12 99.156V99.156Z" fill="#004BB9" stroke="#004BB9" stroke-width="2"/>
<path d="M143.898 82.778H128.498C128.498 83.145 128.62 83.634 128.62 84C128.64 84.4111 128.599 84.8229 128.498 85.222H143.898C144.222 85.222 144.533 85.0932 144.762 84.864C144.991 84.6349 145.12 84.324 145.12 84C145.12 83.6759 144.991 83.365 144.762 83.1359C144.533 82.9067 144.222 82.778 143.898 82.778V82.778Z" fill="#004BB9" stroke="#004BB9" stroke-width="2"/>
<path d="M98.1858 82.778H82.7858C82.4617 82.778 82.1509 82.9067 81.9217 83.1359C81.6925 83.365 81.5638 83.6759 81.5638 84C81.5638 84.324 81.6925 84.6349 81.9217 84.864C82.1509 85.0932 82.4617 85.222 82.7858 85.222H98.1858C98.1858 84.855 98.0638 84.366 98.0638 84C98.0437 83.5888 98.0849 83.177 98.1858 82.778V82.778Z" fill="#004BB9" stroke="#004BB9" stroke-width="2"/>
<path d="M124.954 74.099L134.365 64.688L134.487 64.566C134.593 64.4459 134.675 64.3059 134.727 64.1542C134.778 64.0024 134.8 63.8419 134.789 63.6819C134.779 63.5218 134.736 63.3655 134.665 63.2219C134.594 63.0782 134.494 62.9502 134.373 62.8452C134.252 62.7401 134.111 62.6601 133.959 62.6098C133.807 62.5596 133.646 62.54 133.486 62.5523C133.326 62.5645 133.17 62.6084 133.027 62.6813C132.885 62.7542 132.758 62.8547 132.654 62.977L123.243 72.389C123.873 72.8962 124.446 73.4695 124.954 74.099Z" fill="#004BB9" stroke="#004BB9" stroke-width="2"/>
<path d="M101.731 93.901L92.3198 103.312C92.2046 103.424 92.1128 103.557 92.0497 103.705C91.9866 103.852 91.9535 104.011 91.9523 104.171C91.9511 104.332 91.9818 104.491 92.0426 104.639C92.1035 104.788 92.1932 104.923 92.3067 105.036C92.4201 105.15 92.555 105.239 92.7035 105.3C92.8519 105.361 93.011 105.392 93.1715 105.39C93.3319 105.389 93.4905 105.356 93.6381 105.293C93.7856 105.23 93.9191 105.138 94.0308 105.023L103.442 95.612C102.812 95.1044 102.238 94.5308 101.731 93.901Z" fill="#004BB9" stroke="#004BB9" stroke-width="2"/>
<path d="M123.243 95.612L132.654 105.023C132.766 105.138 132.899 105.23 133.047 105.293C133.194 105.356 133.353 105.389 133.513 105.39C133.674 105.392 133.833 105.361 133.981 105.3C134.13 105.239 134.264 105.15 134.378 105.036C134.491 104.923 134.581 104.788 134.642 104.639C134.703 104.491 134.734 104.332 134.732 104.171C134.731 104.011 134.698 103.852 134.635 103.705C134.572 103.557 134.48 103.424 134.365 103.312L124.954 93.901C124.446 94.5308 123.873 95.1044 123.243 95.612Z" fill="#004BB9" stroke="#004BB9" stroke-width="2"/>
<path d="M113.342 100.5C109.543 100.484 105.867 99.1531 102.939 96.7327C100.012 94.3123 98.0129 90.9523 97.2833 87.2243C96.5536 83.4963 97.1382 79.6307 98.9374 76.2851C100.737 72.9395 103.64 70.3207 107.152 68.8741C110.665 67.4276 114.57 67.2427 118.203 68.351C121.837 69.4592 124.974 71.7921 127.081 74.9527C129.188 78.1134 130.136 81.9065 129.761 85.6867C129.387 89.467 127.715 93.0008 125.029 95.687C123.493 97.2179 121.67 98.431 119.664 99.2569C117.659 100.083 115.511 100.505 113.342 100.5V100.5ZM113.342 69.944C110.562 69.944 107.844 70.7683 105.533 72.3128C103.221 73.8573 101.42 76.0526 100.356 78.621C99.2919 81.1894 99.0135 84.0156 99.5559 86.7422C100.098 89.4688 101.437 91.9733 103.403 93.9391C105.368 95.9048 107.873 97.2435 110.6 97.7859C113.326 98.3282 116.152 98.0499 118.721 96.986C121.289 95.9222 123.484 94.1206 125.029 91.8091C126.573 89.4976 127.398 86.78 127.398 84V84C127.377 80.2786 125.889 76.7158 123.257 74.0844C120.626 71.453 117.063 69.9652 113.342 69.944V69.944Z" fill="#004BB9" stroke="#004BB9" stroke-width="2"/>
<path d="M110.776 89.745C110.615 89.7495 110.455 89.719 110.307 89.6556C110.16 89.5922 110.027 89.4975 109.92 89.378L106.376 85.834C106.261 85.7223 106.169 85.5888 106.106 85.4412C106.043 85.2937 106.01 85.1351 106.008 84.9747C106.007 84.8142 106.038 84.6551 106.099 84.5067C106.159 84.3582 106.249 84.2233 106.363 84.1099C106.476 83.9964 106.611 83.9067 106.76 83.8458C106.908 83.785 107.067 83.7543 107.228 83.7555C107.388 83.7567 107.547 83.7898 107.694 83.8529C107.842 83.916 107.975 84.0078 108.087 84.123V84.123L110.776 86.812L118.598 78.99C118.708 78.8741 118.841 78.7818 118.988 78.7187C119.135 78.6557 119.293 78.6232 119.453 78.6232C119.613 78.6232 119.772 78.6557 119.919 78.7187C120.066 78.7818 120.199 78.8741 120.309 78.99C120.425 79.1004 120.517 79.2331 120.58 79.3802C120.643 79.5272 120.675 79.6855 120.675 79.8455C120.675 80.0055 120.643 80.1638 120.58 80.3108C120.517 80.4579 120.425 80.5906 120.309 80.701L111.509 89.501C111.295 89.6542 111.039 89.7392 110.776 89.745V89.745Z" fill="#004BB9" stroke="#004BB9" stroke-width="2"/>
</g>
<defs>
<clipPath id="clip0_16_288">
<rect width="220.683" height="200" fill="white"/>
</clipPath>
</defs>
</svg>
