<svg width="217" height="200" viewBox="0 0 217 200" fill="none" xmlns="http://www.w3.org/2000/svg">
<g clip-path="url(#clip0_16_364)">
<path d="M158.342 4H62.3418C52.4007 4 44.3418 12.0589 44.3418 22V178C44.3418 187.941 52.4007 196 62.3418 196H158.342C168.283 196 176.342 187.941 176.342 178V22C176.342 12.0589 168.283 4 158.342 4Z" stroke="#004BB9" stroke-width="8"/>
<path d="M31.2329 80.9185H16.0029V87.6105H31.2329V80.9185Z" fill="#004BB9"/>
<path d="M31.3829 108.182H15.0029V114.873H31.3829V108.182Z" fill="#004BB9"/>
<path d="M31.3829 121.806H15.0029V128.497H31.3829V121.806Z" fill="#004BB9"/>
<path d="M31.612 94.5405H0.00195312V101.232H31.612V94.5405Z" fill="#004BB9"/>
<path d="M31.3829 53.6535H15.0029V60.3445H31.3829V53.6535Z" fill="#004BB9"/>
<path d="M31.3829 67.2835H15.0029V73.9745H31.3829V67.2835Z" fill="#004BB9"/>
<path d="M31.612 40.0215H0.00195312V46.7125H31.612V40.0215Z" fill="#004BB9"/>
<path d="M193.453 179.788V21.674L204.969 3.87402L216.482 21.674V179.788H193.453ZM200.145 23.651V173.097H209.791V23.651L204.97 16.194L200.145 23.651Z" fill="#004BB9"/>
<path d="M193.453 184.612V173.096H216.481V184.612C216.481 187.666 215.268 190.594 213.109 192.754C210.95 194.913 208.021 196.126 204.967 196.126C201.914 196.126 198.985 194.913 196.826 192.754C194.667 190.594 193.453 187.666 193.453 184.612ZM200.145 179.788V184.612C200.136 185.251 200.254 185.886 200.492 186.479C200.731 187.072 201.084 187.612 201.533 188.067C201.982 188.522 202.517 188.884 203.106 189.131C203.696 189.377 204.329 189.504 204.968 189.504C205.607 189.504 206.24 189.377 206.83 189.131C207.419 188.884 207.954 188.522 208.403 188.067C208.852 187.612 209.205 187.072 209.443 186.479C209.682 185.886 209.8 185.251 209.79 184.612V179.788H200.145Z" fill="#004BB9"/>
<path d="M108.002 181.5C114.906 181.5 120.502 175.904 120.502 169C120.502 162.096 114.906 156.5 108.002 156.5C101.098 156.5 95.502 162.096 95.502 169C95.502 175.904 101.098 181.5 108.002 181.5Z" stroke="#004BB9" stroke-width="7"/>
<path d="M124.69 27C115.342 30.158 108.058 33.316 109.096 47C118.443 44.895 126.767 39.632 124.69 27ZM95.002 46C86.002 46 73.002 54 73.002 69C73.002 90 87.002 111 95.002 111C101.002 111 106.002 107 110.002 107C114.002 107 118.002 111 124.002 111C132.002 111 141.002 99 143.002 88C136.002 83 131.002 80 131.002 71C131.002 65 136.002 59 142.002 54C139.002 50 133.002 46 127.002 46C121.002 46 114.55 50.747 110.002 51C106.002 51 101.002 46 95.002 46V46Z" fill="#004BB9"/>
</g>
<defs>
<clipPath id="clip0_16_364">
<rect width="216.482" height="200" fill="white"/>
</clipPath>
</defs>
</svg>
