<svg width="221" height="200" viewBox="0 0 221 200" fill="none" xmlns="http://www.w3.org/2000/svg">
<g clip-path="url(#clip0_16_390)">
<path d="M158.341 4H62.3408C52.3997 4 44.3408 12.0589 44.3408 22V178C44.3408 187.941 52.3997 196 62.3408 196H158.341C168.282 196 176.341 187.941 176.341 178V22C176.341 12.0589 168.282 4 158.341 4Z" stroke="#004BB9" stroke-width="8"/>
<path d="M31.232 80.9185H16.002V87.6105H31.232V80.9185Z" fill="#004BB9"/>
<path d="M31.382 108.182H15.002V114.873H31.382V108.182Z" fill="#004BB9"/>
<path d="M31.382 121.806H15.002V128.497H31.382V121.806Z" fill="#004BB9"/>
<path d="M31.611 94.5405H0.000976562V101.232H31.611V94.5405Z" fill="#004BB9"/>
<path d="M31.382 53.6535H15.002V60.3445H31.382V53.6535Z" fill="#004BB9"/>
<path d="M31.382 67.2835H15.002V73.9745H31.382V67.2835Z" fill="#004BB9"/>
<path d="M31.611 40.0215H0.000976562V46.7125H31.611V40.0215Z" fill="#004BB9"/>
<path d="M204.682 80.9185H189.452V87.6105H204.682V80.9185Z" fill="#004BB9"/>
<path d="M205.682 108.182H189.302V114.873H205.682V108.182Z" fill="#004BB9"/>
<path d="M205.682 121.806H189.302V128.497H205.682V121.806Z" fill="#004BB9"/>
<path d="M220.683 94.5405H189.073V101.232H220.683V94.5405Z" fill="#004BB9"/>
<path d="M205.682 53.6535H189.302V60.3445H205.682V53.6535Z" fill="#004BB9"/>
<path d="M205.682 67.2835H189.302V73.9745H205.682V67.2835Z" fill="#004BB9"/>
<path d="M220.683 40.0215H189.073V46.7125H220.683V40.0215Z" fill="#004BB9"/>
<path d="M108.001 181.5C114.905 181.5 120.501 175.904 120.501 169C120.501 162.096 114.905 156.5 108.001 156.5C101.097 156.5 95.501 162.096 95.501 169C95.501 175.904 101.097 181.5 108.001 181.5Z" stroke="#004BB9" stroke-width="7"/>
<path d="M145.332 70.343C145.184 69.475 144.757 68.6791 144.114 68.077C137.725 61.713 129.661 57.2919 120.86 55.327C118.049 54.6887 115.184 54.3144 112.303 54.209C112.159 54.1966 112.016 54.1756 111.875 54.146H108.809C108.265 54.19 107.725 54.246 107.177 54.276C95.5804 55.0275 84.6546 59.9786 76.4442 68.203C75.8799 68.7644 75.5024 69.4862 75.3632 70.27C75.3411 70.3498 75.3144 70.4283 75.2832 70.505V71.377C75.3763 71.7521 75.4905 72.1217 75.6252 72.484C75.8663 73.0516 76.2388 73.5538 76.7121 73.9491C77.1854 74.3444 77.746 74.6215 78.3474 74.7576C78.9489 74.8937 79.5742 74.8848 80.1715 74.7317C80.7689 74.5785 81.3213 74.2856 81.7832 73.877C82.7312 73.04 83.6212 72.135 84.5932 71.327C91.6254 65.4558 100.453 62.1644 109.613 61.9985C118.772 61.8326 127.713 64.8022 134.953 70.415C136.319 71.485 137.572 72.702 138.872 73.855C139.358 74.2923 139.947 74.6003 140.583 74.7507C141.22 74.901 141.884 74.8889 142.515 74.7154C143.145 74.542 143.722 74.2127 144.192 73.7579C144.662 73.3032 145.01 72.7375 145.204 72.113C145.28 71.871 145.337 71.625 145.404 71.381V70.505C145.373 70.4546 145.349 70.4001 145.332 70.343V70.343Z" fill="#004BB9"/>
<path d="M109.702 68.005C108.602 68.105 106.847 68.183 105.116 68.424C100.27 69.1015 95.6195 70.7889 91.4663 73.377C89.0352 74.8657 86.799 76.6515 84.8093 78.693C84.236 79.3002 83.8762 80.0776 83.7842 80.9076C83.6921 81.7376 83.873 82.575 84.2993 83.293C84.722 84.0115 85.3627 84.5767 86.1283 84.9066C86.8939 85.2366 87.7446 85.3141 88.5573 85.128C89.4249 84.8784 90.2066 84.3939 90.8163 83.728C95.3868 79.3028 101.334 76.5744 107.669 75.996C110.118 75.7553 112.589 75.8444 115.014 76.261C119 76.9212 122.795 78.437 126.138 80.704C127.589 81.6901 128.946 82.806 130.194 84.038C130.651 84.5258 131.229 84.8843 131.869 85.0774C132.509 85.2706 133.189 85.2915 133.839 85.138C134.534 85.0095 135.178 84.6852 135.694 84.2031C136.211 83.721 136.579 83.1013 136.755 82.417C136.972 81.7258 136.985 80.9867 136.792 80.2885C136.599 79.5902 136.208 78.9626 135.667 78.481C128.63 71.599 120.169 68.175 109.702 68.005Z" fill="#004BB9"/>
<path d="M110.846 82.209C107.096 82.1458 103.39 83.021 100.064 84.755C98.0648 85.7993 96.2478 87.161 94.6843 88.787C94.1167 89.3985 93.7637 90.1781 93.6785 91.008C93.5934 91.8379 93.7807 92.673 94.2123 93.387C94.6358 94.0979 95.2738 94.6561 96.0346 94.9815C96.7954 95.3069 97.6397 95.3827 98.4463 95.198C99.312 94.9413 100.095 94.4608 100.715 93.805C102.369 92.2431 104.381 91.1107 106.575 90.5071C108.768 89.9035 111.076 89.8472 113.296 90.343C116.007 90.9071 118.492 92.2549 120.443 94.219C121.201 94.8727 122.18 95.2103 123.179 95.1621C124.179 95.1139 125.121 94.6836 125.812 93.9601C126.503 93.2365 126.889 92.2752 126.892 91.2748C126.894 90.2744 126.511 89.3114 125.823 88.585C121.856 84.5839 116.48 82.2952 110.846 82.209V82.209Z" fill="#004BB9"/>
<path d="M110.344 104.526C112.89 104.526 114.953 102.462 114.953 99.917C114.953 97.3715 112.89 95.308 110.344 95.308C107.799 95.308 105.735 97.3715 105.735 99.917C105.735 102.462 107.799 104.526 110.344 104.526Z" fill="#004BB9"/>
</g>
<defs>
<clipPath id="clip0_16_390">
<rect width="220.683" height="200" fill="white"/>
</clipPath>
</defs>
</svg>
