<svg width="115" height="175" viewBox="0 0 115 175" fill="none" xmlns="http://www.w3.org/2000/svg">
<g clip-path="url(#clip0_16_426)">
<path d="M111.114 60.87C112.054 60.87 112.955 60.4966 113.62 59.832C114.285 59.1674 114.658 58.2659 114.658 57.326C114.658 56.3861 114.285 55.4846 113.62 54.82C112.955 54.1554 112.054 53.782 111.114 53.782H92.465V42.045H111.112C111.577 42.045 112.038 41.9533 112.468 41.7752C112.898 41.5971 113.289 41.3361 113.618 41.007C113.947 40.6779 114.208 40.2872 114.386 39.8572C114.564 39.4272 114.656 38.9664 114.656 38.501C114.656 38.0356 114.564 37.5747 114.386 37.1448C114.208 36.7148 113.947 36.3241 113.618 35.995C113.289 35.6659 112.898 35.4049 112.468 35.2268C112.038 35.0487 111.577 34.957 111.112 34.957H92.465V31.104C92.4634 28.7393 91.5239 26.4717 89.8526 24.7987C88.1814 23.1257 85.9147 22.184 83.55 22.18H79.701V3.544C79.701 3.0786 79.6093 2.61775 79.4312 2.18777C79.2531 1.75779 78.9921 1.3671 78.663 1.03801C78.3339 0.708923 77.9432 0.447874 77.5132 0.269771C77.0833 0.0916683 76.6224 0 76.157 0C75.6916 0 75.2307 0.0916683 74.8008 0.269771C74.3708 0.447874 73.9801 0.708923 73.651 1.03801C73.3219 1.3671 73.0609 1.75779 72.8828 2.18777C72.7047 2.61775 72.613 3.0786 72.613 3.544V22.181H60.877V3.544C60.877 2.60407 60.5036 1.70264 59.839 1.03801C59.1744 0.373385 58.2729 2.38419e-07 57.333 2.38419e-07C56.3931 2.38419e-07 55.4916 0.373385 54.827 1.03801C54.1624 1.70264 53.789 2.60407 53.789 3.544V22.181H42.052V3.544C42.052 2.60407 41.6786 1.70264 41.014 1.03801C40.3494 0.373385 39.4479 2.38419e-07 38.508 2.38419e-07C37.5681 2.38419e-07 36.6666 0.373385 36.002 1.03801C35.3374 1.70264 34.964 2.60407 34.964 3.544V22.181H31.108C28.7425 22.1839 26.4747 23.125 24.8021 24.7978C23.1295 26.4705 22.1886 28.7385 22.186 31.104V34.958H3.544C2.60407 34.958 1.70264 35.3314 1.03801 35.996C0.373385 36.6606 0 37.5621 0 38.502C0 39.4419 0.373385 40.3434 1.03801 41.008C1.70264 41.6726 2.60407 42.046 3.544 42.046H22.186V53.783H3.544C2.60407 53.783 1.70264 54.1564 1.03801 54.821C0.373385 55.4856 0 56.3871 0 57.327C0 58.2669 0.373385 59.1684 1.03801 59.833C1.70264 60.4976 2.60407 60.871 3.544 60.871H22.186V72.604H3.544C3.07859 72.604 2.61775 72.6957 2.18777 72.8738C1.75779 73.0519 1.3671 73.3129 1.03801 73.642C0.708923 73.9711 0.447872 74.3618 0.26977 74.7918C0.091667 75.2217 0 75.6826 0 76.148C0 76.6134 0.091667 77.0743 0.26977 77.5042C0.447872 77.9342 0.708923 78.3249 1.03801 78.654C1.3671 78.9831 1.75779 79.2441 2.18777 79.4222C2.61775 79.6003 3.07859 79.692 3.544 79.692H22.186V83.537C22.1881 85.903 23.1287 88.1715 24.8013 89.8449C26.4739 91.5183 28.742 92.4598 31.108 92.463H34.959V111.104C34.959 112.044 35.3324 112.945 35.997 113.61C36.6616 114.275 37.5631 114.648 38.503 114.648C39.4429 114.648 40.3444 114.275 41.009 113.61C41.6736 112.945 42.047 112.044 42.047 111.104V92.467H53.789V128.814H18.289C17.3492 128.814 16.4479 129.188 15.7833 129.852C15.1187 130.517 14.7453 131.418 14.745 132.358V150.591C11.9564 151.44 9.56564 153.263 8.00821 155.728C6.45077 158.192 5.83026 161.133 6.25968 164.017C6.68909 166.9 8.13988 169.533 10.3478 171.437C12.5557 173.34 15.3739 174.387 18.289 174.387C21.2041 174.387 24.0223 173.34 26.2302 171.437C28.4381 169.533 29.8889 166.9 30.3183 164.017C30.7477 161.133 30.1272 158.192 28.5698 155.728C27.0124 153.263 24.6216 151.44 21.833 150.591V135.904H53.787V150.591C50.9988 151.441 48.6086 153.264 47.0515 155.728C45.4945 158.192 44.8742 161.133 45.3038 164.016C45.7333 166.899 47.184 169.532 49.3917 171.435C51.5994 173.338 54.4172 174.385 57.332 174.385C60.2468 174.385 63.0646 173.338 65.2723 171.435C67.48 169.532 68.9307 166.899 69.3602 164.016C69.7898 161.133 69.1695 158.192 67.6125 155.728C66.0554 153.264 63.6652 151.441 60.877 150.591V135.904H92.822V150.592C90.0326 151.441 87.641 153.265 86.083 155.729C84.525 158.194 83.9042 161.137 84.3336 164.021C84.7631 166.905 86.2142 169.539 88.4227 171.443C90.6311 173.347 93.4501 174.394 96.366 174.394C99.2819 174.394 102.101 173.347 104.309 171.443C106.518 169.539 107.969 166.905 108.398 164.021C108.828 161.137 108.207 158.194 106.649 155.729C105.091 153.265 102.699 151.441 99.91 150.592V132.356C99.9097 131.416 99.5363 130.515 98.8717 129.85C98.2071 129.186 97.3058 128.812 96.366 128.812H60.877V92.467H72.613V111.111C72.613 111.576 72.7047 112.037 72.8828 112.467C73.0609 112.897 73.3219 113.288 73.651 113.617C73.9801 113.946 74.3708 114.207 74.8008 114.385C75.2307 114.563 75.6916 114.655 76.157 114.655C76.6224 114.655 77.0833 114.563 77.5132 114.385C77.9432 114.207 78.3339 113.946 78.663 113.617C78.9921 113.288 79.2531 112.897 79.4312 112.467C79.6093 112.037 79.701 111.576 79.701 111.111V92.467H83.552C85.917 92.4628 88.1838 91.5206 89.8551 89.8473C91.5263 88.1739 92.4657 85.906 92.467 83.541V79.696H111.114C112.054 79.696 112.955 79.3226 113.62 78.658C114.285 77.9934 114.658 77.0919 114.658 76.152C114.658 75.2121 114.285 74.3106 113.62 73.646C112.955 72.9814 112.054 72.608 111.114 72.608H92.465V60.872H111.114V60.87ZM23.364 162.222C23.364 163.225 23.0665 164.206 22.509 165.04C21.9516 165.875 21.1593 166.525 20.2324 166.909C19.3054 167.293 18.2854 167.393 17.3013 167.198C16.3172 167.002 15.4133 166.519 14.7038 165.809C13.9944 165.1 13.5112 164.196 13.3155 163.212C13.1197 162.228 13.2202 161.208 13.6042 160.281C13.9881 159.354 14.6383 158.561 15.4726 158.004C16.3068 157.447 17.2877 157.149 18.291 157.149C19.6364 157.149 20.9268 157.683 21.8782 158.635C22.8295 159.586 23.364 160.877 23.364 162.222ZM62.399 162.222C62.3992 163.226 62.1018 164.207 61.5444 165.041C60.9869 165.876 60.1946 166.526 59.2674 166.91C58.3403 167.295 57.32 167.395 56.3357 167.2C55.3514 167.004 54.4472 166.521 53.7375 165.811C53.0278 165.102 52.5444 164.198 52.3486 163.213C52.1527 162.229 52.2531 161.209 52.6371 160.281C53.0211 159.354 53.6715 158.562 54.5059 158.004C55.3404 157.447 56.3214 157.149 57.325 157.149C58.6705 157.149 59.961 157.683 60.9125 158.635C61.864 159.586 62.3987 160.876 62.399 162.222V162.222ZM101.444 162.222C101.444 163.226 101.147 164.207 100.59 165.042C100.032 165.877 99.2401 166.527 98.313 166.912C97.3858 167.296 96.3654 167.397 95.3809 167.202C94.3963 167.006 93.4919 166.523 92.7818 165.814C92.0718 165.105 91.5881 164.2 91.3919 163.216C91.1957 162.232 91.2958 161.211 91.6795 160.284C92.0633 159.356 92.7135 158.563 93.5478 158.005C94.3822 157.447 95.3633 157.149 96.367 157.149C97.0335 157.149 97.6934 157.28 98.3093 157.535C98.9251 157.789 99.4847 158.163 99.9562 158.634C100.428 159.105 100.802 159.664 101.057 160.28C101.312 160.896 101.444 161.556 101.444 162.222V162.222ZM85.377 83.54C85.3778 84.0258 85.1859 84.4921 84.8434 84.8367C84.5009 85.1812 84.0358 85.3759 83.55 85.378H31.108C30.6212 85.3769 30.1547 85.1828 29.8109 84.8382C29.4671 84.4937 29.274 84.0268 29.274 83.54V31.104C29.2743 30.6175 29.4675 30.151 29.8113 29.8068C30.1552 29.4625 30.6215 29.2688 31.108 29.268H83.552C84.0375 29.2699 84.5025 29.4642 84.845 29.8083C85.1875 30.1525 85.3795 30.6185 85.379 31.104V83.54H85.377Z" fill="#004BB9"/>
</g>
<defs>
<clipPath id="clip0_16_426">
<rect width="114.658" height="174.395" fill="white"/>
</clipPath>
</defs>
</svg>
