<svg width="108" height="108" viewBox="0 0 108 108" fill="none" xmlns="http://www.w3.org/2000/svg">
<g clip-path="url(#clip0_16_432)">
<path d="M64.648 11.146C64.648 8.94153 63.9943 6.78657 62.7695 4.95362C61.5448 3.12067 59.804 1.69206 57.7674 0.848444C55.7307 0.00482953 53.4896 -0.215899 51.3275 0.214172C49.1654 0.644243 47.1793 1.7058 45.6205 3.26459C44.0618 4.82339 43.0002 6.80942 42.5701 8.97153C42.1401 11.1336 42.3608 13.3747 43.2044 15.4114C44.048 17.4481 45.4766 19.1888 47.3096 20.4136C49.1425 21.6383 51.2975 22.292 53.502 22.292C56.457 22.2886 59.29 21.1132 61.3796 19.0236C63.4691 16.9341 64.6445 14.1011 64.648 11.146ZM53.502 17.834C52.1792 17.834 50.8861 17.4418 49.7863 16.7069C48.6865 15.972 47.8293 14.9275 47.3231 13.7054C46.8169 12.4833 46.6844 11.1386 46.9425 9.84124C47.2005 8.5439 47.8375 7.35221 48.7728 6.41688C49.7082 5.48154 50.8999 4.84457 52.1972 4.58651C53.4945 4.32846 54.8393 4.4609 56.0613 4.9671C57.2834 5.4733 58.3279 6.33052 59.0628 7.43035C59.7977 8.53019 60.19 9.82324 60.19 11.146C60.1868 12.9188 59.4811 14.6181 58.2276 15.8716C56.974 17.1252 55.2748 17.8308 53.502 17.834V17.834Z" fill="#004BB9"/>
<path d="M33.439 42.355V44.584H73.565V42.355C73.565 39.7203 73.046 37.1114 72.0378 34.6772C71.0295 32.2431 69.5517 30.0313 67.6886 28.1683C65.8256 26.3053 63.6139 24.8275 61.1797 23.8192C58.7456 22.811 56.1367 22.292 53.502 22.292C50.8673 22.292 48.2583 22.811 45.8242 23.8192C43.39 24.8275 41.1783 26.3053 39.3153 28.1683C37.4523 30.0313 35.9744 32.2431 34.9662 34.6772C33.9579 37.1114 33.439 39.7203 33.439 42.355V42.355ZM53.502 26.755C57.2525 26.7596 60.8764 28.1127 63.7121 30.5675C66.5477 33.0222 68.4061 36.4148 68.948 40.126H38.056C38.5967 36.4139 40.4546 33.0201 43.2904 30.5643C46.1262 28.1086 49.7507 26.7548 53.502 26.75V26.755Z" fill="#004BB9"/>
<path d="M31.209 73.565C31.209 71.3605 30.5553 69.2056 29.3306 67.3726C28.1058 65.5397 26.3651 64.1111 24.3284 63.2674C22.2917 62.4238 20.0506 62.2031 17.8885 62.6332C15.7264 63.0632 13.7404 64.1248 12.1816 65.6836C10.6228 67.2424 9.56124 69.2284 9.13116 71.3905C8.70109 73.5526 8.92182 75.7937 9.76544 77.8304C10.609 79.8671 12.0377 81.6078 13.8706 82.8326C15.7036 84.0573 17.8585 84.711 20.063 84.711C23.018 84.7076 25.8511 83.5322 27.9406 81.4426C30.0301 79.3531 31.2056 76.5201 31.209 73.565V73.565ZM20.063 80.253C18.7402 80.253 17.4472 79.8608 16.3473 79.1259C15.2475 78.391 14.3903 77.3465 13.8841 76.1244C13.3779 74.9023 13.2454 73.5576 13.5035 72.2602C13.7616 70.9629 14.3985 69.7712 15.3339 68.8359C16.2692 67.9005 17.4609 67.2636 18.7582 67.0055C20.0556 66.7475 21.4003 66.8799 22.6224 67.3861C23.8445 67.8923 24.889 68.7495 25.6239 69.8494C26.3588 70.9492 26.751 72.2422 26.751 73.565C26.7478 75.3378 26.0422 77.0371 24.7886 78.2906C23.5351 79.5442 21.8358 80.2498 20.063 80.253V80.253Z" fill="#004BB9"/>
<path d="M40.126 104.774C40.126 99.453 38.0122 94.3499 34.2497 90.5873C30.4871 86.8248 25.384 84.711 20.063 84.711C14.742 84.711 9.63886 86.8248 5.87632 90.5873C2.11377 94.3499 0 99.453 0 104.774V107.003H40.126V104.774ZM4.617 102.545C5.153 98.8307 7.0095 95.4339 9.8463 92.9771C12.6831 90.5203 16.3102 89.168 20.063 89.168C23.8158 89.168 27.4429 90.5203 30.2797 92.9771C33.1165 95.4339 34.973 98.8307 35.509 102.545H4.617Z" fill="#004BB9"/>
<path d="M98.087 73.565C98.087 71.3605 97.4333 69.2056 96.2086 67.3726C94.9839 65.5397 93.2431 64.1111 91.2064 63.2674C89.1698 62.4238 86.9287 62.2031 84.7666 62.6332C82.6045 63.0632 80.6184 64.1248 79.0596 65.6836C77.5008 67.2424 76.4393 69.2284 76.0092 71.3905C75.5791 73.5526 75.7999 75.7937 76.6435 77.8304C77.4871 79.8671 78.9157 81.6078 80.7487 82.8326C82.5816 84.0573 84.7366 84.711 86.941 84.711C89.8961 84.7076 92.7291 83.5322 94.8187 81.4426C96.9082 79.3531 98.0836 76.5201 98.087 73.565V73.565ZM86.941 80.253C85.6183 80.253 84.3252 79.8608 83.2254 79.1259C82.1256 78.391 81.2683 77.3465 80.7621 76.1244C80.2559 74.9023 80.1235 73.5576 80.3816 72.2602C80.6396 70.9629 81.2766 69.7712 82.2119 68.8359C83.1473 67.9005 84.3389 67.2636 85.6363 67.0055C86.9336 66.7475 88.2784 66.8799 89.5004 67.3861C90.7225 67.8923 91.767 68.7495 92.5019 69.8494C93.2368 70.9492 93.629 72.2422 93.629 73.565C93.6259 75.3378 92.9202 77.0371 91.6667 78.2906C90.4131 79.5442 88.7138 80.2498 86.941 80.253V80.253Z" fill="#004BB9"/>
<path d="M86.9411 84.711C81.6219 84.7171 76.5223 86.8328 72.7611 90.594C68.9999 94.3553 66.8841 99.4548 66.8781 104.774V107.003H107.004V104.774C106.998 99.4548 104.882 94.3553 101.121 90.594C97.3598 86.8328 92.2602 84.7171 86.9411 84.711V84.711ZM71.4951 102.545C72.0318 98.8314 73.8886 95.4355 76.7252 92.9794C79.5618 90.5233 83.1884 89.1714 86.9406 89.1714C90.6927 89.1714 94.3193 90.5233 97.1559 92.9794C99.9926 95.4355 101.849 98.8314 102.386 102.545H71.4951Z" fill="#004BB9"/>
<path d="M51.273 53.502V68.184L38.551 80.902L41.703 84.054L53.503 72.254L65.303 84.054L68.458 80.902L55.732 68.184V53.502H51.273Z" fill="#004BB9"/>
</g>
<defs>
<clipPath id="clip0_16_432">
<rect width="107.004" height="107.003" fill="white"/>
</clipPath>
</defs>
</svg>
