<svg width="217" height="200" viewBox="0 0 217 200" fill="none" xmlns="http://www.w3.org/2000/svg">
<g clip-path="url(#clip0_16_441)">
<path d="M158.341 4H62.3408C52.3997 4 44.3408 12.0589 44.3408 22V178C44.3408 187.941 52.3997 196 62.3408 196H158.341C168.282 196 176.341 187.941 176.341 178V22C176.341 12.0589 168.282 4 158.341 4Z" stroke="#004BB9" stroke-width="8"/>
<path d="M31.232 80.9185H16.002V87.6105H31.232V80.9185Z" fill="#004BB9"/>
<path d="M31.382 108.182H15.002V114.873H31.382V108.182Z" fill="#004BB9"/>
<path d="M31.382 121.806H15.002V128.497H31.382V121.806Z" fill="#004BB9"/>
<path d="M31.611 94.5405H0.000976562V101.232H31.611V94.5405Z" fill="#004BB9"/>
<path d="M31.382 53.6535H15.002V60.3445H31.382V53.6535Z" fill="#004BB9"/>
<path d="M31.382 67.2835H15.002V73.9745H31.382V67.2835Z" fill="#004BB9"/>
<path d="M31.611 40.0215H0.000976562V46.7125H31.611V40.0215Z" fill="#004BB9"/>
<path d="M193.452 179.788V21.674L204.968 3.87402L216.481 21.674V179.788H193.452ZM200.144 23.651V173.097H209.79V23.651L204.969 16.194L200.144 23.651Z" fill="#004BB9"/>
<path d="M193.452 184.612V173.096H216.48V184.612C216.48 187.666 215.267 190.594 213.108 192.754C210.949 194.913 208.02 196.126 204.966 196.126C201.913 196.126 198.984 194.913 196.825 192.754C194.666 190.594 193.452 187.666 193.452 184.612ZM200.144 179.788V184.612C200.135 185.251 200.253 185.886 200.491 186.479C200.73 187.072 201.083 187.612 201.532 188.067C201.981 188.522 202.516 188.884 203.105 189.131C203.695 189.377 204.328 189.504 204.967 189.504C205.606 189.504 206.239 189.377 206.829 189.131C207.418 188.884 207.953 188.522 208.402 188.067C208.851 187.612 209.204 187.072 209.443 186.479C209.681 185.886 209.799 185.251 209.789 184.612V179.788H200.144Z" fill="#004BB9"/>
<path d="M84.3857 51.6405H59.3047V26.5605H84.3857V51.6405ZM66.5897 44.3596H77.1067V33.8415H66.5897V44.3596Z" fill="#004BB9"/>
<path d="M163.177 51.6405H138.097V26.5605H163.177V51.6405ZM145.377 44.3596H155.894V33.8415H145.376L145.377 44.3596Z" fill="#004BB9"/>
<path d="M123.78 51.6405H98.7007V26.5605H123.781V51.6405H123.78ZM105.983 44.3596H116.5V33.8415H105.983V44.3596Z" fill="#004BB9"/>
<path d="M84.3857 92.0696H59.3047V66.9896H84.3857V92.0696ZM66.5857 84.7886H77.1067V74.2706H66.5897L66.5857 84.7886Z" fill="#004BB9"/>
<path d="M83.7817 132.141H58.7007V107.061H83.7817V132.141ZM65.9817 124.86H76.5027V114.342H65.9857L65.9817 124.86Z" fill="#004BB9"/>
<path d="M123.78 92.0696H98.7007V66.9896H123.781V92.0696H123.78ZM105.98 84.7886H116.493V74.2706H105.983L105.98 84.7886Z" fill="#004BB9"/>
<path d="M123.176 132.141H98.0967V107.061H123.177V132.141H123.176ZM105.376 124.86H115.889V114.342H105.379L105.376 124.86Z" fill="#004BB9"/>
<path d="M163.78 92.4396H138.701V67.3596H163.781V92.4396H163.78ZM145.98 85.1586H156.493V74.6406H145.983L145.98 85.1586Z" fill="#004BB9"/>
<path d="M163.176 132.51H138.097V107.43H163.177V132.51H163.176ZM145.376 125.229H155.889V114.711H145.379L145.376 125.229Z" fill="#004BB9"/>
<path d="M108.001 181.5C114.905 181.5 120.501 175.904 120.501 169C120.501 162.096 114.905 156.5 108.001 156.5C101.097 156.5 95.501 162.096 95.501 169C95.501 175.904 101.097 181.5 108.001 181.5Z" stroke="#004BB9" stroke-width="7"/>
</g>
<defs>
<clipPath id="clip0_16_441">
<rect width="216.482" height="200" fill="white"/>
</clipPath>
</defs>
</svg>
