<svg width="222" height="200" viewBox="0 0 222 200" fill="none" xmlns="http://www.w3.org/2000/svg">
<g clip-path="url(#clip0_16_498)">
<path d="M199.134 4H62.3398C52.3987 4 44.3398 12.0589 44.3398 22V178C44.3398 187.941 52.3987 196 62.3398 196H199.134C209.075 196 217.134 187.941 217.134 178V22C217.134 12.0589 209.075 4 199.134 4Z" stroke="#004BB9" stroke-width="8"/>
<path d="M188.678 170.514H73.0362C68.8712 170.514 65.4902 172.291 65.4902 174.484C65.4902 176.677 68.8672 178.454 73.0362 178.454H188.681C192.846 178.454 196.227 176.677 196.227 174.484C196.227 172.291 192.842 170.514 188.678 170.514Z" fill="#004BB9"/>
<path d="M188.678 149.104H73.0362C68.8712 149.104 65.4902 150.882 65.4902 153.076C65.4902 155.27 68.8672 157.048 73.0362 157.048H188.681C192.846 157.048 196.227 155.27 196.227 153.076C196.227 150.882 192.842 149.104 188.678 149.104Z" fill="#004BB9"/>
<path d="M31.23 80.9185H16V87.6105H31.23V80.9185Z" fill="#004BB9"/>
<path d="M31.61 108.182H15.23V114.873H31.61V108.182Z" fill="#004BB9"/>
<path d="M31.61 121.806H15.23V128.497H31.61V121.806Z" fill="#004BB9"/>
<path d="M31.61 94.5405H0V101.232H31.61V94.5405Z" fill="#004BB9"/>
<path d="M31.61 53.6535H15.23V60.3445H31.61V53.6535Z" fill="#004BB9"/>
<path d="M31.61 67.2835H15.23V73.9745H31.61V67.2835Z" fill="#004BB9"/>
<path d="M31.61 40.0215H0V46.7125H31.61V40.0215Z" fill="#004BB9"/>
<path d="M40.748 38.4502H217.834" stroke="#004BB9" stroke-width="9"/>
<path d="M61.4561 28C64.7698 28 67.4561 25.3137 67.4561 22C67.4561 18.6863 64.7698 16 61.4561 16C58.1423 16 55.4561 18.6863 55.4561 22C55.4561 25.3137 58.1423 28 61.4561 28Z" fill="#004BB9"/>
<path d="M78.4561 28C81.7698 28 84.4561 25.3137 84.4561 22C84.4561 18.6863 81.7698 16 78.4561 16C75.1423 16 72.4561 18.6863 72.4561 22C72.4561 25.3137 75.1423 28 78.4561 28Z" fill="#004BB9"/>
<path d="M95.4561 28C98.7698 28 101.456 25.3137 101.456 22C101.456 18.6863 98.7698 16 95.4561 16C92.1423 16 89.4561 18.6863 89.4561 22C89.4561 25.3137 92.1423 28 95.4561 28Z" fill="#004BB9"/>
<path d="M85.688 103.991L100.195 118.498C100.699 119.027 101.305 119.448 101.976 119.736C102.648 120.024 103.37 120.172 104.101 120.172C104.831 120.172 105.554 120.024 106.226 119.736C106.897 119.448 107.503 119.027 108.007 118.498C109.079 117.425 109.681 115.97 109.681 114.453C109.681 112.937 109.079 111.482 108.007 110.408L97.963 100.086L108.563 89.4863C109.106 88.9577 109.538 88.3265 109.835 87.6295C110.132 86.9324 110.288 86.1832 110.293 85.4256C110.298 84.6679 110.152 83.9167 109.865 83.2158C109.577 82.5148 109.153 81.8779 108.617 81.3421C108.081 80.8064 107.444 80.3824 106.744 80.0947C106.043 79.8071 105.291 79.6616 104.534 79.6666C103.776 79.6717 103.027 79.8272 102.33 80.1241C101.633 80.421 101.002 80.8535 100.473 81.3963L85.966 95.9013C85.3888 96.3969 84.9206 97.0069 84.5912 97.6926C84.2618 98.3784 84.0782 99.125 84.0521 99.8853C84.0259 100.646 84.1578 101.403 84.4394 102.11C84.721 102.817 85.1461 103.457 85.688 103.991Z" fill="#004BB9"/>
<path d="M153.481 118.498C153.985 119.027 154.591 119.448 155.262 119.736C155.933 120.024 156.656 120.172 157.387 120.172C158.117 120.172 158.84 120.024 159.512 119.736C160.183 119.448 160.789 119.027 161.293 118.498L175.799 103.991C176.323 103.484 176.74 102.877 177.028 102.206C177.315 101.536 177.466 100.815 177.473 100.085C177.493 99.3519 177.354 98.6227 177.065 97.9483C176.776 97.2739 176.344 96.6703 175.799 96.1794L161.571 81.3944C161.042 80.8515 160.411 80.4191 159.714 80.1221C159.017 79.8252 158.268 79.6697 157.51 79.6647C156.752 79.6596 156.001 79.8052 155.3 80.0928C154.599 80.3804 153.962 80.8044 153.427 81.3402C152.891 81.876 152.467 82.5128 152.179 83.2138C151.892 83.9148 151.746 84.6659 151.751 85.4236C151.756 86.1813 151.912 86.9304 152.209 87.6275C152.505 88.3246 152.938 88.9558 153.481 89.4844L164.081 100.084L153.481 110.684C152.951 111.188 152.53 111.794 152.242 112.466C151.954 113.138 151.806 113.861 151.806 114.591C151.806 115.322 151.954 116.045 152.242 116.717C152.53 117.388 152.951 117.995 153.481 118.498V118.498Z" fill="#004BB9"/>
<path d="M123.35 131.053C123.908 131.053 124.187 131.332 124.75 131.332C126.052 131.346 127.32 130.91 128.337 130.096C129.354 129.282 130.058 128.142 130.33 126.868L142.6 75.8163C142.783 75.0836 142.82 74.322 142.709 73.5749C142.598 72.8278 142.341 72.11 141.953 71.4623C141.564 70.8146 141.052 70.2498 140.445 69.8001C139.838 69.3503 139.149 69.0246 138.416 68.8413C137.683 68.658 136.922 68.6209 136.175 68.732C135.427 68.8431 134.71 69.1002 134.062 69.4887C133.414 69.8773 132.849 70.3895 132.4 70.9963C131.95 71.6032 131.624 72.2926 131.441 73.0253L119.166 124.079C118.946 124.812 118.881 125.584 118.976 126.343C119.071 127.103 119.323 127.834 119.717 128.491C120.111 129.147 120.638 129.714 121.263 130.155C121.889 130.597 122.599 130.902 123.35 131.053V131.053Z" fill="#004BB9"/>
</g>
<defs>
<clipPath id="clip0_16_498">
<rect width="221.134" height="200" fill="white"/>
</clipPath>
</defs>
</svg>
