<svg width="222" height="200" viewBox="0 0 222 200" fill="none" xmlns="http://www.w3.org/2000/svg">
<g clip-path="url(#clip0_16_472)">
<path d="M199.134 4H62.3398C52.3987 4 44.3398 12.0589 44.3398 22V178C44.3398 187.941 52.3987 196 62.3398 196H199.134C209.075 196 217.134 187.941 217.134 178V22C217.134 12.0589 209.075 4 199.134 4Z" stroke="#004BB9" stroke-width="8"/>
<path d="M188.678 170.514H73.0362C68.8712 170.514 65.4902 172.291 65.4902 174.484C65.4902 176.677 68.8672 178.454 73.0362 178.454H188.681C192.846 178.454 196.227 176.677 196.227 174.484C196.227 172.291 192.842 170.514 188.678 170.514Z" fill="#004BB9"/>
<path d="M188.678 149.104H73.0362C68.8712 149.104 65.4902 150.882 65.4902 153.076C65.4902 155.27 68.8672 157.048 73.0362 157.048H188.681C192.846 157.048 196.227 155.27 196.227 153.076C196.227 150.882 192.842 149.104 188.678 149.104Z" fill="#004BB9"/>
<path d="M187.228 64.4541H74.4902C71.7288 64.4541 69.4902 66.6927 69.4902 69.4541V122.454C69.4902 125.216 71.7288 127.454 74.4902 127.454H187.228C189.99 127.454 192.228 125.216 192.228 122.454V69.4541C192.228 66.6927 189.99 64.4541 187.228 64.4541Z" stroke="#004BB9" stroke-width="8"/>
<path d="M72.572 66.7003L188.084 126.621" stroke="#004BB9" stroke-width="8"/>
<path d="M188.096 66.7003L72.5839 126.621" stroke="#004BB9" stroke-width="8"/>
<path d="M31.23 80.9185H16V87.6105H31.23V80.9185Z" fill="#004BB9"/>
<path d="M31.61 108.182H15.23V114.873H31.61V108.182Z" fill="#004BB9"/>
<path d="M31.61 121.806H15.23V128.497H31.61V121.806Z" fill="#004BB9"/>
<path d="M31.61 94.5405H0V101.232H31.61V94.5405Z" fill="#004BB9"/>
<path d="M31.61 53.6535H15.23V60.3445H31.61V53.6535Z" fill="#004BB9"/>
<path d="M31.61 67.2835H15.23V73.9745H31.61V67.2835Z" fill="#004BB9"/>
<path d="M31.61 40.0215H0V46.7125H31.61V40.0215Z" fill="#004BB9"/>
<path d="M40.748 38.4502H217.834" stroke="#004BB9" stroke-width="9"/>
<path d="M61.4561 28C64.7698 28 67.4561 25.3137 67.4561 22C67.4561 18.6863 64.7698 16 61.4561 16C58.1423 16 55.4561 18.6863 55.4561 22C55.4561 25.3137 58.1423 28 61.4561 28Z" fill="#004BB9"/>
<path d="M78.4561 28C81.7698 28 84.4561 25.3137 84.4561 22C84.4561 18.6863 81.7698 16 78.4561 16C75.1423 16 72.4561 18.6863 72.4561 22C72.4561 25.3137 75.1423 28 78.4561 28Z" fill="#004BB9"/>
<path d="M95.4561 28C98.7698 28 101.456 25.3137 101.456 22C101.456 18.6863 98.7698 16 95.4561 16C92.1423 16 89.4561 18.6863 89.4561 22C89.4561 25.3137 92.1423 28 95.4561 28Z" fill="#004BB9"/>
</g>
<defs>
<clipPath id="clip0_16_472">
<rect width="221.134" height="200" fill="white"/>
</clipPath>
</defs>
</svg>
