<svg width="217" height="200" viewBox="0 0 217 200" fill="none" xmlns="http://www.w3.org/2000/svg">
<g clip-path="url(#clip0_16_2)">
<path d="M158.342 4H62.3418C52.4007 4 44.3418 12.0589 44.3418 22V178C44.3418 187.941 52.4007 196 62.3418 196H158.342C168.283 196 176.342 187.941 176.342 178V22C176.342 12.0589 168.283 4 158.342 4Z" stroke="#004BB9" stroke-width="8"/>
<path d="M146.438 42.4541H74.3457C71.5843 42.4541 69.3457 44.6927 69.3457 47.4541V100.454C69.3457 103.216 71.5843 105.454 74.3457 105.454H146.438C149.199 105.454 151.438 103.216 151.438 100.454V47.4541C151.438 44.6927 149.199 42.4541 146.438 42.4541Z" stroke="#004BB9" stroke-width="8"/>
<path d="M150.234 156.514H70.5418C67.6718 156.514 65.3418 158.291 65.3418 160.484C65.3418 162.677 67.6688 164.454 70.5418 164.454H150.236C153.106 164.454 155.436 162.677 155.436 160.484C155.436 158.291 153.104 156.514 150.234 156.514Z" fill="#004BB9"/>
<path d="M150.234 135.104H70.5418C67.6718 135.104 65.3418 136.882 65.3418 139.076C65.3418 141.27 67.6688 143.048 70.5418 143.048H150.236C153.106 143.048 155.436 141.27 155.436 139.076C155.436 136.882 153.104 135.104 150.234 135.104Z" fill="#004BB9"/>
<path d="M70.2266 44.7002L149.826 104.621" stroke="#004BB9" stroke-width="8"/>
<path d="M149.842 44.7002L70.2422 104.621" stroke="#004BB9" stroke-width="8"/>
<path d="M15.232 80.9185H0.00195312V87.6105H15.232V80.9185Z" fill="#004BB9"/>
<path d="M31.6119 108.182H15.2319V114.873H31.6119V108.182Z" fill="#004BB9"/>
<path d="M31.6119 121.807H15.2319V128.498H31.6119V121.807Z" fill="#004BB9"/>
<path d="M31.612 94.5405H0.00195312V101.232H31.612V94.5405Z" fill="#004BB9"/>
<path d="M31.6119 53.6535H15.2319V60.3445H31.6119V53.6535Z" fill="#004BB9"/>
<path d="M31.6119 67.2835H15.2319V73.9745H31.6119V67.2835Z" fill="#004BB9"/>
<path d="M31.612 40.0215H0.00195312V46.7125H31.612V40.0215Z" fill="#004BB9"/>
<path d="M193.453 179.788V21.674L204.969 3.87402L216.482 21.674V179.788H193.453ZM200.145 23.651V173.097H209.791V23.651L204.97 16.194L200.145 23.651Z" fill="#004BB9"/>
<path d="M193.453 184.612V173.096H216.481V184.612C216.481 187.666 215.268 190.594 213.109 192.754C210.95 194.913 208.021 196.126 204.967 196.126C201.914 196.126 198.985 194.913 196.826 192.754C194.667 190.594 193.453 187.666 193.453 184.612ZM200.145 179.788V184.612C200.136 185.251 200.254 185.886 200.492 186.479C200.731 187.072 201.084 187.612 201.533 188.067C201.982 188.522 202.517 188.884 203.106 189.131C203.696 189.377 204.329 189.504 204.968 189.504C205.607 189.504 206.24 189.377 206.83 189.131C207.419 188.884 207.954 188.522 208.403 188.067C208.852 187.612 209.205 187.072 209.443 186.479C209.682 185.886 209.8 185.251 209.79 184.612V179.788H200.145Z" fill="#004BB9"/>
</g>
<defs>
<clipPath id="clip0_16_2">
<rect width="216.482" height="200" fill="white"/>
</clipPath>
</defs>
</svg>
