<svg xmlns="http://www.w3.org/2000/svg" xmlns:xlink="http://www.w3.org/1999/xlink" viewBox="0 0 754 500"><defs><style>.cls-1{isolation:isolate;}.cls-2{fill:url(#linear-gradient);}.cls-3{opacity:0.32;}.cls-3,.cls-38,.cls-68{mix-blend-mode:multiply;}.cls-4{fill:url(#linear-gradient-2);}.cls-5{fill:url(#linear-gradient-3);}.cls-6{fill:url(#linear-gradient-4);}.cls-32,.cls-7,.cls-79{fill:#fff;}.cls-10,.cls-11,.cls-12,.cls-13,.cls-14,.cls-15,.cls-16,.cls-17,.cls-18,.cls-19,.cls-20,.cls-21,.cls-22,.cls-79,.cls-8,.cls-80,.cls-9{mix-blend-mode:color-dodge;}.cls-8{fill:url(#radial-gradient);}.cls-9{fill:url(#radial-gradient-2);}.cls-10{fill:url(#radial-gradient-3);}.cls-11{fill:url(#radial-gradient-4);}.cls-12{fill:url(#radial-gradient-5);}.cls-13{fill:url(#radial-gradient-6);}.cls-14{fill:url(#radial-gradient-7);}.cls-15{fill:url(#radial-gradient-8);}.cls-16{fill:url(#radial-gradient-9);}.cls-17{fill:url(#radial-gradient-10);}.cls-18{fill:url(#radial-gradient-11);}.cls-19{fill:url(#radial-gradient-12);}.cls-20{fill:url(#radial-gradient-13);}.cls-21{fill:url(#radial-gradient-14);}.cls-22{fill:url(#radial-gradient-15);}.cls-23,.cls-26,.cls-27,.cls-28,.cls-29,.cls-30,.cls-31,.cls-32{opacity:0.57;}.cls-23,.cls-26,.cls-27,.cls-28,.cls-29,.cls-30,.cls-31,.cls-32,.cls-37,.cls-39,.cls-78{mix-blend-mode:overlay;}.cls-24{fill:url(#linear-gradient-5);}.cls-25{fill:url(#linear-gradient-6);}.cls-26{fill:url(#linear-gradient-7);}.cls-27{fill:url(#linear-gradient-8);}.cls-28{fill:url(#linear-gradient-9);}.cls-29{fill:url(#linear-gradient-10);}.cls-30{fill:url(#linear-gradient-11);}.cls-31{fill:url(#linear-gradient-12);}.cls-33{fill:#dcdcdc;}.cls-34{fill:gray;}.cls-35{fill:url(#linear-gradient-13);}.cls-36{fill:url(#linear-gradient-14);}.cls-38{opacity:0.75;}.cls-39{opacity:0.36;}.cls-40{fill:#232323;}.cls-41{fill:url(#linear-gradient-15);}.cls-42{fill:url(#linear-gradient-16);}.cls-43{fill:url(#linear-gradient-17);}.cls-44{fill:url(#linear-gradient-18);}.cls-45{fill:url(#linear-gradient-19);}.cls-46{fill:url(#linear-gradient-20);}.cls-47{fill:url(#linear-gradient-21);}.cls-48{fill:url(#linear-gradient-22);}.cls-49{fill:url(#linear-gradient-23);}.cls-50{fill:url(#linear-gradient-24);}.cls-51{fill:url(#linear-gradient-25);}.cls-52{fill:url(#linear-gradient-26);}.cls-53{fill:url(#linear-gradient-27);}.cls-54{fill:url(#linear-gradient-28);}.cls-55{fill:url(#linear-gradient-29);}.cls-56{fill:url(#linear-gradient-30);}.cls-57{fill:url(#linear-gradient-31);}.cls-58{fill:url(#linear-gradient-32);}.cls-59{fill:url(#linear-gradient-33);}.cls-60{fill:url(#linear-gradient-34);}.cls-61{fill:url(#linear-gradient-35);}.cls-62{fill:url(#linear-gradient-36);}.cls-63{fill:url(#linear-gradient-37);}.cls-64{fill:url(#linear-gradient-38);}.cls-65{opacity:0.65;mix-blend-mode:screen;}.cls-66{fill:url(#linear-gradient-39);}.cls-67{fill:url(#linear-gradient-40);}.cls-69{fill:url(#linear-gradient-41);}.cls-70{fill:url(#linear-gradient-42);}.cls-71{fill:url(#linear-gradient-43);}.cls-72{fill:url(#linear-gradient-44);}.cls-73{fill:url(#linear-gradient-45);}.cls-74{fill:url(#linear-gradient-46);}.cls-75{opacity:0.62;}.cls-76{fill:#78adf8;}.cls-77{opacity:0.27;}.cls-78{opacity:0.94;}.cls-80{fill:url(#radial-gradient-16);}.cls-81{fill:url(#linear-gradient-47);}.cls-82{fill:url(#linear-gradient-48);}.cls-83{fill:url(#linear-gradient-49);}.cls-84{fill:url(#linear-gradient-50);}.cls-85{fill:url(#radial-gradient-17);}.cls-86{fill:url(#radial-gradient-18);}.cls-87{fill:url(#linear-gradient-51);}.cls-88{fill:url(#linear-gradient-52);}.cls-89{fill:url(#linear-gradient-53);}.cls-90{fill:url(#linear-gradient-54);}.cls-91{fill:url(#linear-gradient-55);}.cls-92{fill:url(#linear-gradient-56);}.cls-93{fill:url(#linear-gradient-57);}.cls-94{fill:url(#linear-gradient-58);}.cls-95{fill:url(#linear-gradient-59);}.cls-96{fill:url(#linear-gradient-60);}.cls-97{fill:url(#linear-gradient-61);}.cls-98{fill:url(#linear-gradient-62);}.cls-99{fill:url(#linear-gradient-63);}.cls-100{fill:url(#linear-gradient-64);}</style><linearGradient id="linear-gradient" x1="538.52" y1="-239.34" x2="253.08" y2="625.43" gradientUnits="userSpaceOnUse"><stop offset="0" stop-color="#000031"/><stop offset="0.26" stop-color="#111d50"/><stop offset="0.55" stop-color="#1e366a"/><stop offset="0.8" stop-color="#27457a"/><stop offset="1" stop-color="#2a4a80"/></linearGradient><linearGradient id="linear-gradient-2" x1="169.63" y1="383.44" x2="202.38" y2="383.44" gradientUnits="userSpaceOnUse"><stop offset="0" stop-color="#5356cf"/><stop offset="1" stop-color="#95f7ff"/></linearGradient><linearGradient id="linear-gradient-3" x1="173.2" y1="384.77" x2="198.78" y2="384.77" gradientUnits="userSpaceOnUse"><stop offset="0" stop-color="#5356cf"/><stop offset="1" stop-color="#9373fb"/></linearGradient><linearGradient id="linear-gradient-4" x1="173.23" y1="378.9" x2="198.78" y2="378.9" gradientUnits="userSpaceOnUse"><stop offset="0" stop-color="#f3d038"/><stop offset="0.99" stop-color="#dd4372"/></linearGradient><radialGradient id="radial-gradient" cx="531.45" cy="313" r="4.51" gradientTransform="translate(2.9 37.3)" gradientUnits="userSpaceOnUse"><stop offset="0" stop-color="#fff"/><stop offset="0.03" stop-color="#ededed"/><stop offset="0.14" stop-color="#b6b6b6"/><stop offset="0.26" stop-color="#858585"/><stop offset="0.37" stop-color="#5c5c5c"/><stop offset="0.49" stop-color="#3b3b3b"/><stop offset="0.61" stop-color="#212121"/><stop offset="0.73" stop-color="#0f0f0f"/><stop offset="0.86" stop-color="#040404"/><stop offset="1"/></radialGradient><radialGradient id="radial-gradient-2" cx="-1008.83" cy="-9.44" r="4.51" gradientTransform="matrix(0.28, -1.18, 0.02, 17.6, 813.03, -713.78)" xlink:href="#radial-gradient"/><radialGradient id="radial-gradient-3" cx="535.87" cy="241" r="3.48" gradientTransform="translate(-1.9 37.1)" xlink:href="#radial-gradient"/><radialGradient id="radial-gradient-4" cx="535.06" cy="253.04" r="6.47" gradientTransform="translate(-1.1 37.2)" xlink:href="#radial-gradient"/><radialGradient id="radial-gradient-5" cx="176.76" cy="207.42" r="4.51" gradientTransform="translate(-3.4 61.2)" xlink:href="#radial-gradient"/><radialGradient id="radial-gradient-6" cx="-2308.65" cy="-101.1" r="4.51" gradientTransform="matrix(0.28, -1.18, 0.02, 17.6, 813.03, -713.78)" xlink:href="#radial-gradient"/><radialGradient id="radial-gradient-7" cx="181.18" cy="135.42" r="3.48" gradientTransform="translate(-8.2 61.1)" xlink:href="#radial-gradient"/><radialGradient id="radial-gradient-8" cx="180.37" cy="147.45" r="6.47" gradientTransform="translate(-7.4 61.1)" xlink:href="#radial-gradient"/><radialGradient id="radial-gradient-9" cx="-1494.68" cy="-50.13" r="4.51" gradientTransform="matrix(0.28, -1.18, 0.02, 17.6, 813.03, -713.78)" xlink:href="#radial-gradient"/><radialGradient id="radial-gradient-10" cx="-1478.01" cy="-50.67" r="4.51" gradientTransform="matrix(0.74, -0.95, -7.36, 15.99, 1150.51, -460.03)" xlink:href="#radial-gradient"/><radialGradient id="radial-gradient-11" cx="-1634.61" cy="-60.75" r="4.51" gradientTransform="matrix(-0.74, -0.95, 7.36, 15.99, -398.51, -460.03)" xlink:href="#radial-gradient"/><radialGradient id="radial-gradient-12" cx="150.56" cy="260.95" r="4.51" gradientTransform="translate(0.3 62.8)" xlink:href="#radial-gradient"/><radialGradient id="radial-gradient-13" cx="-2390.13" cy="-103.42" r="4.51" gradientTransform="matrix(0.28, -1.18, 0.02, 17.6, 813.03, -713.78)" xlink:href="#radial-gradient"/><radialGradient id="radial-gradient-14" cx="154.98" cy="188.95" r="3.48" gradientTransform="translate(-4.5 62.7)" xlink:href="#radial-gradient"/><radialGradient id="radial-gradient-15" cx="154.17" cy="200.98" r="6.47" gradientTransform="translate(-3.7 62.7)" xlink:href="#radial-gradient"/><linearGradient id="linear-gradient-5" x1="-148.51" y1="75.93" x2="-148.51" y2="206.29" gradientTransform="matrix(-1, 0, 0, 1, 337.52, 0)" gradientUnits="userSpaceOnUse"><stop offset="0" stop-color="#2d2e56" stop-opacity="0"/><stop offset="0.15" stop-color="#575878" stop-opacity="0.2"/><stop offset="0.39" stop-color="#9292a7" stop-opacity="0.48"/><stop offset="0.6" stop-color="#c1c1cd" stop-opacity="0.7"/><stop offset="0.77" stop-color="#e3e3e8" stop-opacity="0.86"/><stop offset="0.92" stop-color="#f7f7f9" stop-opacity="0.96"/><stop offset="1" stop-color="#fff"/></linearGradient><linearGradient id="linear-gradient-6" x1="239.46" y1="164.21" x2="215.79" y2="247.05" xlink:href="#linear-gradient-4"/><linearGradient id="linear-gradient-7" x1="518.67" y1="342.23" x2="518.67" y2="385.69" gradientTransform="matrix(1, 0, 0, 1, 0, 0)" xlink:href="#linear-gradient-5"/><linearGradient id="linear-gradient-8" x1="487.32" y1="404.67" x2="514.71" y2="403.44" gradientTransform="translate(0.8 0.9)" gradientUnits="userSpaceOnUse"><stop offset="0" stop-color="#2d2e56" stop-opacity="0"/><stop offset="0.38" stop-color="#7c7c95" stop-opacity="0.37"/><stop offset="1" stop-color="#fff"/></linearGradient><linearGradient id="linear-gradient-9" x1="162.83" y1="220.7" x2="162.83" y2="296.96" gradientTransform="matrix(1, 0, 0, 1, 0, 0)" xlink:href="#linear-gradient-5"/><linearGradient id="linear-gradient-10" x1="143.28" y1="338.28" x2="160.27" y2="337.52" gradientTransform="translate(0.6 2)" xlink:href="#linear-gradient-8"/><linearGradient id="linear-gradient-11" x1="178.3" y1="339.76" x2="520.56" y2="323.37" gradientUnits="userSpaceOnUse"><stop offset="0" stop-color="#dfdfe5" stop-opacity="0.96"/><stop offset="0.58" stop-color="#2d2e56" stop-opacity="0"/><stop offset="0.74" stop-color="#7c7c95" stop-opacity="0.37"/><stop offset="1" stop-color="#fff"/></linearGradient><linearGradient id="linear-gradient-12" x1="163.53" y1="340.47" x2="535.32" y2="322.67" xlink:href="#linear-gradient-11"/><linearGradient id="linear-gradient-13" x1="278.44" y1="311.63" x2="502.07" y2="311.63" xlink:href="#linear-gradient-4"/><linearGradient id="linear-gradient-14" x1="527.75" y1="320.15" x2="576.11" y2="320.15" xlink:href="#linear-gradient-4"/><linearGradient id="linear-gradient-15" x1="471.84" y1="311.7" x2="488.41" y2="311.7" gradientUnits="userSpaceOnUse"><stop offset="0" stop-color="#a7a9ac"/><stop offset="0" stop-color="#d1d3d4"/><stop offset="0.12" stop-color="#8b9298"/><stop offset="0.14" stop-color="#92989e"/><stop offset="0.27" stop-color="#bcbfc2"/><stop offset="0.37" stop-color="#d6d7d8"/><stop offset="0.43" stop-color="#e0e0e0"/><stop offset="0.47" stop-color="#d5d6d6"/><stop offset="0.54" stop-color="#b7babb"/><stop offset="0.63" stop-color="#878d8f"/><stop offset="0.74" stop-color="#465053"/><stop offset="0.79" stop-color="#6a7072"/><stop offset="0.89" stop-color="#a8a8a8"/><stop offset="0.96" stop-color="#cfccc9"/><stop offset="1" stop-color="#ded9d6"/><stop offset="1" stop-color="#e5e2df"/></linearGradient><linearGradient id="linear-gradient-16" x1="488.37" y1="307.13" x2="472.25" y2="317.3" gradientUnits="userSpaceOnUse"><stop offset="0" stop-color="#a7a9ac"/><stop offset="0" stop-color="#d1d3d4"/><stop offset="0.12" stop-color="#8b9298"/><stop offset="0.14" stop-color="#92989e"/><stop offset="0.27" stop-color="#bcbfc2"/><stop offset="0.37" stop-color="#d6d7d8"/><stop offset="0.43" stop-color="#e0e0e0"/><stop offset="1" stop-color="#ded9d6"/><stop offset="1" stop-color="#e5e2df"/></linearGradient><linearGradient id="linear-gradient-17" x1="453.85" y1="324.1" x2="464.42" y2="324.1" xlink:href="#linear-gradient-15"/><linearGradient id="linear-gradient-18" x1="464.58" y1="321.3" x2="454.21" y2="327.84" xlink:href="#linear-gradient-16"/><linearGradient id="linear-gradient-19" x1="517.72" y1="276.72" x2="491.65" y2="293.16" gradientUnits="userSpaceOnUse"><stop offset="0" stop-color="#575757"/><stop offset="0.01" stop-color="#575757" stop-opacity="0.83"/><stop offset="0.02" stop-color="#565656" stop-opacity="0.38"/><stop offset="0.03" stop-color="#565656" stop-opacity="0"/><stop offset="0.21" stop-color="#4d4d4d" stop-opacity="0.31"/><stop offset="0.51" stop-color="#373737"/><stop offset="1" stop-color="#5c5c5c" stop-opacity="0"/></linearGradient><linearGradient id="linear-gradient-20" x1="283.99" y1="397.48" x2="317.32" y2="397.48" gradientUnits="userSpaceOnUse"><stop offset="0" stop-color="#565656" stop-opacity="0"/><stop offset="0.19" stop-color="#4d4d4d" stop-opacity="0.31"/><stop offset="0.51" stop-color="#373737"/><stop offset="1" stop-color="#5c5c5c" stop-opacity="0"/></linearGradient><linearGradient id="linear-gradient-21" x1="248.99" y1="378.68" x2="465.02" y2="237.25" xlink:href="#linear-gradient-15"/><linearGradient id="linear-gradient-22" x1="185.94" y1="310.26" x2="521.08" y2="310.26" gradientUnits="userSpaceOnUse"><stop offset="0" stop-color="#575757"/><stop offset="0" stop-color="#545454"/><stop offset="0.15" stop-color="#454545"/><stop offset="0.26" stop-color="#373737"/><stop offset="0.52" stop-color="#5c5c5c"/><stop offset="0.67" stop-color="#4d4d4d"/><stop offset="0.88" stop-color="#333"/><stop offset="1" stop-color="#515151"/><stop offset="1" stop-color="#424242"/></linearGradient><linearGradient id="linear-gradient-23" x1="471.71" y1="303.62" x2="496.56" y2="233.49" gradientUnits="userSpaceOnUse"><stop offset="0" stop-color="#a7a9ac"/><stop offset="1" stop-color="#f0f4ff"/></linearGradient><linearGradient id="linear-gradient-24" x1="190.54" y1="310.26" x2="516.49" y2="310.26" xlink:href="#linear-gradient-15"/><linearGradient id="linear-gradient-25" x1="191.13" y1="310.26" x2="515.9" y2="310.26" gradientUnits="userSpaceOnUse"><stop offset="0" stop-color="#73cbfd"/><stop offset="0.2" stop-color="#70c6fd"/><stop offset="0.44" stop-color="#68b7fd"/><stop offset="0.71" stop-color="#5a9ffc"/><stop offset="0.99" stop-color="#477dfb"/><stop offset="1" stop-color="#467bfb"/></linearGradient><linearGradient id="linear-gradient-26" x1="459.21" y1="247.31" x2="459.21" y2="249.28" gradientUnits="userSpaceOnUse"><stop offset="0" stop-color="#373737"/><stop offset="1" stop-color="#5c5c5c"/></linearGradient><linearGradient id="linear-gradient-27" x1="471.7" y1="255.08" x2="474.85" y2="255.08" xlink:href="#linear-gradient-26"/><linearGradient id="linear-gradient-28" x1="330.01" y1="359.21" x2="464.73" y2="359.21" gradientTransform="matrix(0.85, -0.52, 0.52, 0.85, -133.49, 262.16)" gradientUnits="userSpaceOnUse"><stop offset="0" stop-color="#565656" stop-opacity="0"/><stop offset="0.14" stop-color="#545454" stop-opacity="0.22"/><stop offset="0.41" stop-color="#4f4f4f" stop-opacity="0.78"/><stop offset="0.51" stop-color="#4d4d4d"/><stop offset="1" stop-color="#5c5c5c" stop-opacity="0"/></linearGradient><linearGradient id="linear-gradient-29" x1="377.1" y1="177.69" x2="398.4" y2="318.52" xlink:href="#linear-gradient-25"/><linearGradient id="linear-gradient-30" x1="578.83" y1="353.77" x2="632" y2="353.77" xlink:href="#linear-gradient-4"/><linearGradient id="linear-gradient-31" x1="564.45" y1="350.39" x2="576.96" y2="350.39" xlink:href="#linear-gradient-4"/><linearGradient id="linear-gradient-32" x1="573.83" y1="349.69" x2="602.78" y2="349.69" xlink:href="#linear-gradient-4"/><linearGradient id="linear-gradient-33" x1="569.17" y1="354.03" x2="603.8" y2="354.03" xlink:href="#linear-gradient-4"/><linearGradient id="linear-gradient-34" x1="554.49" y1="306.8" x2="521.35" y2="326.62" xlink:href="#linear-gradient-25"/><linearGradient id="linear-gradient-35" x1="564.43" y1="323.42" x2="531.3" y2="343.24" xlink:href="#linear-gradient-25"/><linearGradient id="linear-gradient-36" x1="565.17" y1="321.3" x2="532.03" y2="341.12" xlink:href="#linear-gradient-25"/><linearGradient id="linear-gradient-37" x1="558.47" y1="313.45" x2="525.34" y2="333.27" xlink:href="#linear-gradient-25"/><linearGradient id="linear-gradient-38" x1="561.9" y1="319.18" x2="528.76" y2="339" xlink:href="#linear-gradient-25"/><linearGradient id="linear-gradient-39" x1="190.31" y1="327.23" x2="351.23" y2="327.23" xlink:href="#linear-gradient-25"/><linearGradient id="linear-gradient-40" x1="239.51" y1="298.7" x2="273.9" y2="298.7" xlink:href="#linear-gradient-4"/><linearGradient id="linear-gradient-41" x1="396.15" y1="409.5" x2="396.15" y2="433.95" gradientUnits="userSpaceOnUse"><stop offset="0" stop-color="#fff"/><stop offset="0.13" stop-color="#f6fcff"/><stop offset="0.34" stop-color="#ddf4ff"/><stop offset="0.6" stop-color="#b4e7fe"/><stop offset="0.92" stop-color="#7cd5fe"/><stop offset="1" stop-color="#6bd0fe"/></linearGradient><linearGradient id="linear-gradient-42" x1="396.15" y1="383.76" x2="396.15" y2="430.86" gradientUnits="userSpaceOnUse"><stop offset="0" stop-color="#fff"/><stop offset="0.2" stop-color="#f6fdff"/><stop offset="0.53" stop-color="#ddf7ff"/><stop offset="0.94" stop-color="#b4eefe"/><stop offset="1" stop-color="#aeedfe"/></linearGradient><linearGradient id="linear-gradient-43" x1="416.39" y1="399.46" x2="371.9" y2="426.8" xlink:href="#linear-gradient-42"/><linearGradient id="linear-gradient-44" x1="408.95" y1="398.22" x2="382.6" y2="424.57" xlink:href="#linear-gradient-25"/><linearGradient id="linear-gradient-45" x1="423.83" y1="225.13" x2="533.11" y2="225.13" gradientTransform="matrix(1, 0, 0, 1, 0, 0)" xlink:href="#linear-gradient-5"/><linearGradient id="linear-gradient-46" x1="423.44" y1="220.69" x2="517.01" y2="220.69" xlink:href="#linear-gradient-4"/><radialGradient id="radial-gradient-16" cx="406.66" cy="141.73" r="23.41" gradientTransform="translate(-8.3 46)" xlink:href="#radial-gradient"/><linearGradient id="linear-gradient-47" x1="256.41" y1="277.14" x2="383.7" y2="271.44" gradientTransform="translate(0.4 1.3)" xlink:href="#linear-gradient-8"/><linearGradient id="linear-gradient-48" x1="275.99" y1="256.15" x2="385.78" y2="251.23" gradientTransform="translate(0.3 1.3)" xlink:href="#linear-gradient-8"/><linearGradient id="linear-gradient-49" x1="317.37" y1="234.86" x2="390.08" y2="231.61" gradientTransform="translate(0.3 1.3)" xlink:href="#linear-gradient-8"/><linearGradient id="linear-gradient-50" x1="316.91" y1="224.64" x2="389.62" y2="221.39" gradientTransform="translate(-0.4 2.5) rotate(-0.2)" xlink:href="#linear-gradient-8"/><radialGradient id="radial-gradient-17" cx="434.95" cy="282.55" r="6.28" gradientUnits="userSpaceOnUse"><stop offset="0" stop-color="#f9e836"/><stop offset="1" stop-color="#db1ab8"/></radialGradient><radialGradient id="radial-gradient-18" cx="340.41" cy="228.7" r="2.47" xlink:href="#radial-gradient-17"/><linearGradient id="linear-gradient-51" x1="306.15" y1="134.25" x2="260.59" y2="256.74" xlink:href="#linear-gradient-25"/><linearGradient id="linear-gradient-52" x1="306.15" y1="134.25" x2="260.59" y2="256.74" xlink:href="#linear-gradient-25"/><linearGradient id="linear-gradient-53" x1="319.67" y1="139.28" x2="274.11" y2="261.77" xlink:href="#linear-gradient-25"/><linearGradient id="linear-gradient-54" x1="317.55" y1="137.75" x2="271.99" y2="260.24" xlink:href="#linear-gradient-25"/><linearGradient id="linear-gradient-55" x1="313.24" y1="136.15" x2="267.68" y2="258.64" xlink:href="#linear-gradient-25"/><linearGradient id="linear-gradient-56" x1="308.93" y1="134.54" x2="263.37" y2="257.03" xlink:href="#linear-gradient-25"/><linearGradient id="linear-gradient-57" x1="337.59" y1="145.2" x2="292.03" y2="267.69" xlink:href="#linear-gradient-25"/><linearGradient id="linear-gradient-58" x1="298.52" y1="131.41" x2="252.95" y2="253.9" xlink:href="#linear-gradient-25"/><linearGradient id="linear-gradient-59" x1="298.52" y1="131.41" x2="252.95" y2="253.9" xlink:href="#linear-gradient-25"/><linearGradient id="linear-gradient-60" x1="372.72" y1="159.01" x2="327.16" y2="281.51" xlink:href="#linear-gradient-25"/><linearGradient id="linear-gradient-61" x1="366.13" y1="155.82" x2="320.57" y2="278.31" xlink:href="#linear-gradient-25"/><linearGradient id="linear-gradient-62" x1="370.97" y1="157.62" x2="325.4" y2="280.11" xlink:href="#linear-gradient-25"/><linearGradient id="linear-gradient-63" x1="335.62" y1="145.21" x2="290.05" y2="267.7" xlink:href="#linear-gradient-25"/><linearGradient id="linear-gradient-64" x1="372.72" y1="159.01" x2="327.16" y2="281.51" xlink:href="#linear-gradient-25"/></defs><title>android-and-iPhone-app-development-company</title><g class="cls-1"><g id="BACKGROUND_1" data-name="BACKGROUND 1"><rect class="cls-2" width="754" height="500"/><g class="cls-3"><path class="cls-4" d="M197.5,376.7c6.4,3.7,6.5,9.7.1,13.4s-16.7,3.7-23.2,0-6.4-9.7-.1-13.4S191.1,373,197.5,376.7Z" transform="translate(2)"/></g><path class="cls-5" d="M198.8,379.2v2.4h-.1l-.2.2h-.1l-.3.4h-.1l-.3.3h-.1l-.2.2h-.2l-.2.2H196l-.2.2h-.4l-.3.2-.6.3h-.2l-.5.2h-.2l-.6.3h-.1l-.6.2H180.3l-.6-.2h-.1l-.7-.2h-.1l-.8-.4h-.1l-.8-.4c-2.5-1.5-3.8-3.4-3.8-5.3v4.4c0,1.9,1.3,3.8,3.8,5.3l.8.4h.1l.8.4h.1l.7.2h.1l.6.2h12.1l.6-.2h.1l.6-.3h.2l.5-.2h.2l.6-.3h.7l.2-.2h.2l.2-.2h.2l.2-.2h.1l.3-.3h.1l.3-.4h.1l.2-.2h.1v-.2h.1V385h.1v-.5h0v-.6h0v-4.2Z" transform="translate(2)"/><path class="cls-6" d="M195,373.7c5,2.9,5,7.6.1,10.5s-13.1,2.9-18.1,0-5-7.6-.1-10.5S190,370.8,195,373.7Z" transform="translate(2)"/><path class="cls-7" d="M192.3,377.3c1.5.9,1.7,2.3,0,3.7l1.6.9-2,1.1-1.5-.9a15.2,15.2,0,0,1-4.6,1.5l-1.4-2a12.4,12.4,0,0,0,4.1-1.4c.9-.5,1.1-.8.7-1s-5.6,3-9.3.9c-1.6-.9-1.8-2.3.2-3.9l-1.5-.9,2-1.1,1.5.9a13.7,13.7,0,0,1,3.6-1.2l1.4,2a11,11,0,0,0-3.4,1.2c-1,.6-1,.9-.7,1.1S188.7,375.2,192.3,377.3Z" transform="translate(2)"/><circle class="cls-8" cx="534.4" cy="350.3" r="4.5" transform="translate(-20.2 36.5) rotate(-3.8)"/><path class="cls-9" d="M535.3,303.4c0,43.9-.5,81.8-1.2,84.8s-1.3-30.2-1.3-74.1.5-81.8,1.2-84.8S535.2,259.5,535.3,303.4Z" transform="translate(2)"/><circle class="cls-10" cx="534" cy="278.1" r="3.5" transform="translate(-15.4 36.3) rotate(-3.8)"/><circle class="cls-11" cx="534" cy="290.2" r="6.5" transform="translate(-16.2 36.3) rotate(-3.8)"/><circle class="cls-12" cx="173.4" cy="268.6" r="4.5" transform="translate(-15.6 12.2) rotate(-3.8)"/><path class="cls-13" d="M174.3,221.7c0,43.9-.5,81.8-1.2,84.8s-1.3-30.2-1.3-74.1.5-81.8,1.2-84.8S174.3,177.9,174.3,221.7Z" transform="translate(2)"/><circle class="cls-14" cx="173" cy="196.5" r="3.5" transform="translate(-10.7 12) rotate(-3.8)"/><circle class="cls-15" cx="173" cy="208.5" r="6.5" transform="translate(-11.5 12) rotate(-3.8)"/><path class="cls-16" d="M400.2,159.8c0,43.9-.5,81.8-1.2,84.8s-1.3-30.2-1.3-74.1.5-81.8,1.2-84.8S400.2,115.9,400.2,159.8Z" transform="translate(2)"/><path class="cls-17" d="M426.2,135.5c-18.3,39.9-34.7,74.1-36.6,76.5s11.5-28,29.8-67.9S454.2,70.1,456,67.7,444.5,95.7,426.2,135.5Z" transform="translate(2)"/><path class="cls-18" d="M368.3,123.9c18.3,39.9,34.7,74.1,36.6,76.5s-11.5-28-29.8-67.9S340.3,58.4,338.5,56,350,84,368.3,123.9Z" transform="translate(2)"/><circle class="cls-19" cx="150.8" cy="323.8" r="4.5" transform="translate(-19.3 10.8) rotate(-3.8)"/><path class="cls-20" d="M151.7,276.9c0,43.9-.5,81.8-1.2,84.8s-1.3-30.2-1.3-74.1.5-81.8,1.2-84.8S151.7,233,151.7,276.9Z" transform="translate(2)"/><circle class="cls-21" cx="150.4" cy="251.7" r="3.5" transform="translate(-14.5 10.6) rotate(-3.8)"/><circle class="cls-22" cx="150.4" cy="263.7" r="6.5" transform="translate(-15.3 10.6) rotate(-3.8)"/><g class="cls-23"><path class="cls-24" d="M467.5,165.6a6.1,6.1,0,0,0-2.6-.8c-9.8-.8-8.5,16.8-18.3,14.1-.8-.4-15.6-7.5-21.3-2l121.3,70c-.3-.5-5.1-10.3-13.5-15.2l-1.7-.9-.6-.3c-4.3-2.5-6.5-9.1-8.5-15.6s-3.9-12.9-7.3-14.9l-.7-.3c-7-2.7-9.3,12.9-18.4,7.7a17.5,17.5,0,0,1-3.4-2.7C481.6,193.8,475.8,170.3,467.5,165.6Z" transform="translate(2)"/></g><path class="cls-25" d="M242.4,228.8v-8.3c0-1.9-1.4-2.7-3-1.7L194,245a6.6,6.6,0,0,0-3,5.2v8.3c0,3.2,2.3,4.5,5.1,2.9l15-8.6,10.7-6.2,15.6-9,.8-.5,3.4,1.9h.4a1.1,1.1,0,0,0,.5-.9Zm-35.3,12.6a4.1,4.1,0,0,0-1.1,3A4.1,4.1,0,0,1,207.1,241.4Zm2.8-.3a1,1,0,0,0-.4-.6,1,1,0,0,1,.4.6,3.2,3.2,0,0,1,.1,1A3.2,3.2,0,0,0,209.9,241Zm9.3-6,.2-.6-.2.6a2.5,2.5,0,0,1-.6.8A2.5,2.5,0,0,0,219.2,235Z" transform="translate(2)"/><g class="cls-23"><g class="cls-1"><path class="cls-7" d="M555.4,383c10.7,6.2,15.9,14.3,15.6,22.4l-6.1-3.5c-1.1-6-5.6-11.8-13.6-16.4-10.3-5.9-24.1-8.5-37.4-7.9l-5.2-3C525,372.8,542.6,375.7,555.4,383Z" transform="translate(2)"/><path class="cls-7" d="M491.2,409.3a.6.6,0,0,1,0,1.1,2.1,2.1,0,0,1-1.9,0,.6.6,0,0,1,0-1.1A2.1,2.1,0,0,1,491.2,409.3Z" transform="translate(2)"/><path class="cls-7" d="M532.7,396.2c7,4,8,10.2,3,14.8l-1.7-1c4.1-4.1,3.1-9.4-3-12.9s-18.9-4.2-26.1,0c-5.6,3.2-6.8,8-3.7,12l-1.7,1c-4-4.5-2.7-10.2,3.8-13.9C511.5,391.5,524.6,391.5,532.7,396.2Z" transform="translate(2)"/><path class="cls-7" d="M570.6,408.6a19.8,19.8,0,0,1-1.5,4.3l-4.9-2.8a16.4,16.4,0,0,0,.9-4.6Z" transform="translate(2)"/><path class="cls-7" d="M543.3,395.1c6.6,5.8,6.6,13.3.1,19.1l-.6-.4c6.1-5.6,6.1-12.8-.1-18.3Z" transform="translate(2)"/><path class="cls-7" d="M528.6,398.6c5.8,3.4,5.9,8.8.1,12.2s-15.2,3.4-21,0-5.9-8.8-.1-12.2S522.8,395.2,528.6,398.6Zm-19.8,11.5c5.2,3,13.5,3,18.7,0s5.1-7.8-.1-10.8-13.5-3-18.7,0-5.1,7.8.1,10.8" transform="translate(2)"/><path class="cls-7" d="M498.9,416.8a.6.6,0,0,1,0,1.1,2.1,2.1,0,0,1-1.9,0,.6.6,0,0,1,0-1.1A2.1,2.1,0,0,1,498.9,416.8Z" transform="translate(2)"/><path class="cls-7" d="M545.5,388.8c15.2,8.8,15.3,23,.2,31.8s-39.7,8.8-54.9,0-15.3-23-.2-31.8S530.3,380,545.5,388.8Zm-51.6,30c13.5,7.8,35.3,7.8,48.8,0s13.4-20.4-.2-28.2-35.3-7.8-48.8,0-13.4,20.4.2,28.2" transform="translate(2)"/><path class="cls-7" d="M494.2,413.2a.6.6,0,0,1,0,1.1,2.1,2.1,0,0,1-1.9,0,.6.6,0,0,1,0-1.1A2.1,2.1,0,0,1,494.2,413.2Z" transform="translate(2)"/><path class="cls-7" d="M567.7,415.4a26.7,26.7,0,0,1-2.4,3.2l-4.4-2.5a22,22,0,0,0,2.2-3.3Z" transform="translate(2)"/><path class="cls-7" d="M503.6,378.8a59.1,59.1,0,0,0-18.8,6.7c-14.4,8.4-17.4,20.8-9.1,30.9l-4.4,2.5c-10.5-11.5-7.4-26.1,9.3-35.8a64.6,64.6,0,0,1,18.3-6.9Z" transform="translate(2)"/><path class="cls-7" d="M536.3,394.1c10.1,5.8,10.1,15.3.1,21.1s-26.3,5.8-36.4,0-10.1-15.3-.1-21.1S526.2,388.3,536.3,394.1Zm-35.8,20.8c9.8,5.7,25.6,5.7,35.4,0s9.7-14.8-.1-20.5-25.6-5.7-35.4,0-9.7,14.8.1,20.5" transform="translate(2)"/><path class="cls-7" d="M563.2,420.8a38.7,38.7,0,0,1-4.8,3.8l-4.2-2.4a33.3,33.3,0,0,0,4.7-3.9Z" transform="translate(2)"/><path class="cls-7" d="M551,428.7c-18.1,8.3-43.4,8.8-62.3,1.4l4.2-2.5c16.5,6.1,38.2,5.7,53.9-1.3Z" transform="translate(2)"/></g></g><g class="cls-23"><g class="cls-1"><path class="cls-7" d="M182.9,327.8c6.1,3.5,9,8.1,8.8,12.7l-3.5-2c-.6-3.4-3.2-6.7-7.7-9.3s-13.6-4.8-21.2-4.5l-3-1.7C165.7,322,175.7,323.6,182.9,327.8Z" transform="translate(2)"/><path class="cls-7" d="M146.5,342.6a.3.3,0,0,1,0,.6,1.2,1.2,0,0,1-1.1,0,.3.3,0,0,1,0-.6A1.2,1.2,0,0,1,146.5,342.6Z" transform="translate(2)"/><path class="cls-7" d="M170.1,335.2c4,2.3,4.5,5.8,1.7,8.4l-1-.6c2.3-2.3,1.8-5.3-1.7-7.3a16.3,16.3,0,0,0-14.8,0c-3.2,1.8-3.9,4.6-2.1,6.8l-1,.6c-2.3-2.6-1.5-5.8,2.1-7.9S165.5,332.6,170.1,335.2Z" transform="translate(2)"/><path class="cls-7" d="M191.5,342.2a11.2,11.2,0,0,1-.8,2.4l-2.8-1.6a9.3,9.3,0,0,0,.5-2.6Z" transform="translate(2)"/><path class="cls-7" d="M176,334.6c3.7,3.3,3.7,7.5.1,10.8l-.4-.2c3.5-3.2,3.5-7.2-.1-10.4Z" transform="translate(2)"/><path class="cls-7" d="M167.7,336.6c3.3,1.9,3.3,5,0,6.9a13.1,13.1,0,0,1-11.9,0c-3.3-1.9-3.3-5,0-6.9A13.1,13.1,0,0,1,167.7,336.6Zm-11.2,6.5a11.7,11.7,0,0,0,10.6,0c2.9-1.7,2.9-4.4,0-6.1a11.7,11.7,0,0,0-10.6,0c-2.9,1.7-2.9,4.4,0,6.1" transform="translate(2)"/><path class="cls-7" d="M150.9,346.9a.3.3,0,0,1,0,.6,1.2,1.2,0,0,1-1.1,0,.3.3,0,0,1,0-.6A1.2,1.2,0,0,1,150.9,346.9Z" transform="translate(2)"/><path class="cls-7" d="M177.3,331c8.6,5,8.7,13,.1,18s-22.5,5-31.1,0-8.7-13-.1-18S168.7,326,177.3,331ZM148,348c7.7,4.4,20,4.4,27.7,0s7.6-11.6-.1-16-20-4.4-27.7,0-7.6,11.6.1,16" transform="translate(2)"/><path class="cls-7" d="M148.2,344.9a.3.3,0,0,1,0,.6,1.2,1.2,0,0,1-1.1,0,.3.3,0,0,1,0-.6A1.2,1.2,0,0,1,148.2,344.9Z" transform="translate(2)"/><path class="cls-7" d="M189.9,346.1l-1.4,1.8-2.5-1.4a12.5,12.5,0,0,0,1.2-1.9Z" transform="translate(2)"/><path class="cls-7" d="M153.5,325.3a33.5,33.5,0,0,0-10.7,3.8c-8.2,4.7-9.9,11.8-5.1,17.5l-2.5,1.4c-6-6.5-4.2-14.8,5.3-20.3a36.7,36.7,0,0,1,10.4-3.9Z" transform="translate(2)"/><path class="cls-7" d="M172.1,334.1c5.7,3.3,5.7,8.7.1,12s-14.9,3.3-20.6,0-5.8-8.7-.1-12S166.3,330.8,172.1,334.1Zm-20.3,11.8c5.6,3.2,14.5,3.2,20,0s5.5-8.4-.1-11.6-14.5-3.2-20.1,0-5.5,8.4.1,11.6" transform="translate(2)"/><path class="cls-7" d="M187.3,349.2a21.9,21.9,0,0,1-2.7,2.2l-2.4-1.4a18.9,18.9,0,0,0,2.7-2.2Z" transform="translate(2)"/><path class="cls-7" d="M180.4,353.7c-10.2,4.7-24.6,5-35.3.8l2.4-1.4c9.4,3.5,21.6,3.2,30.6-.7Z" transform="translate(2)"/></g></g><path class="cls-26" d="M536.8,404.6a4.8,4.8,0,0,0,0-1.9V338.4H500.5v66.2h.1c.8,4.7,8.6,8.4,18.1,8.4s17.1-3.7,18.1-8.4h0Z" transform="translate(2)"/><ellipse class="cls-27" cx="518.7" cy="404.2" rx="18.2" ry="9.3" transform="translate(0.8 1.6) rotate(-0.2)"/><path class="cls-28" d="M174.1,339.7a3,3,0,0,0,0-1.2V214H151.5V339.7h0c.5,2.9,5.4,5.2,11.3,5.2s10.6-2.3,11.2-5.2h0Z" transform="translate(2)"/><ellipse class="cls-29" cx="162.8" cy="339.4" rx="11.3" ry="5.8" transform="translate(1 0.5) rotate(-0.2)"/><path class="cls-30" d="M348.6,419.5c-45.3,0-87.9-9-120.1-25.3S178,355.7,178,332.1s17.7-45.8,50.2-62.5,75.3-25.9,121-26h1.1c45.3,0,87.9,9,120.1,25.3s50.5,38.6,50.6,62.1-17.7,45.8-50.2,62.5-75.3,25.9-121,26Zm1.6-174.7h-1.1c-45.5.1-88.3,9.3-120.5,25.9s-49.6,38.3-49.5,61.4,17.8,44.8,49.9,61.1,75.1,25.3,120.6,25.1S438,409,470.1,392.4s49.6-38.3,49.5-61.4-17.8-44.8-49.9-61.1S395.4,244.8,350.2,244.8Z" transform="translate(2)"/><path class="cls-31" d="M348.6,427.1c-49.2,0-95.5-9.7-130.5-27.5s-54.8-41.9-54.9-67.5,19.3-49.7,54.5-67.8,81.8-28.1,131.4-28.3h1.1c49.2,0,95.5,9.7,130.5,27.5s54.8,41.9,54.9,67.5-19.3,49.7-54.5,67.8S399.4,427,349.7,427.1Zm1.7-189.8h-1.1c-49.5.2-95.9,10.1-130.8,28.1s-53.9,41.6-53.8,66.7,19.3,48.6,54.2,66.3,81.6,27.4,131,27.3,95.9-10.1,130.8-28.1,53.9-41.6,53.8-66.7-19.3-48.6-54.2-66.3S399.3,237.3,350.3,237.3Z" transform="translate(2)"/><path class="cls-32" d="M445.2,361.6h0a9.7,9.7,0,0,0-8.8,0c-1.5.9-2.1,2-1.8,3.2h0v.2h0v.2h0l.2.2h0l.2.2h0l.9.7h.1l1,.5h.2l.6.2H440a9.4,9.4,0,0,0,5.2-1C447.6,365.3,447.6,363,445.2,361.6Z" transform="translate(2)"/><path class="cls-32" d="M172.9,335.9h-.1a17.2,17.2,0,0,0-15.5,0c-2.7,1.5-3.7,3.6-3.1,5.6h0v.5h.1l.2.4h.1l.3.4h0l.4.4h.1a8.3,8.3,0,0,0,1.7,1.3h.2l1.7.8h.3l1,.3h.2l.7.2h2.4a16.6,16.6,0,0,0,9.2-1.8C177.1,342.5,177.2,338.5,172.9,335.9Z" transform="translate(2)"/><path class="cls-33" d="M483.3,287.3l-1.9-1.8Z" transform="translate(2)"/><path class="cls-33" d="M484.5,288.6l-1.2-1.3Z" transform="translate(2)"/><path class="cls-34" d="M486.2,290.3l-1.7-1.8Z" transform="translate(2)"/><path class="cls-34" d="M487.4,291.7l-1.2-1.3Z" transform="translate(2)"/><path class="cls-33" d="M414.5,252.8l1.5.4Z" transform="translate(2)"/><path class="cls-33" d="M400.1,249.9l1.9.3Z" transform="translate(2)"/><path class="cls-33" d="M392,248.8l3.3.4Z" transform="translate(2)"/><path class="cls-34" d="M390.5,248.6l1.5.2Z" transform="translate(2)"/><path class="cls-33" d="M380.9,247.7l3.7.3Z" transform="translate(2)"/><path class="cls-34" d="M379,247.5h0Z" transform="translate(2)"/><path class="cls-33" d="M376,247.3l3,.2Z" transform="translate(2)"/><path class="cls-33" d="M374,247.2h0Z" transform="translate(2)"/><path class="cls-34" d="M369,247.1h0Z" transform="translate(2)"/><path class="cls-33" d="M366.2,247h0Z" transform="translate(2)"/><path class="cls-33" d="M364.1,247h0Z" transform="translate(2)"/><path class="cls-33" d="M355.9,247.1h0Z" transform="translate(2)"/><path class="cls-34" d="M342.5,247.8l2.2-.2Z" transform="translate(2)"/><path class="cls-33" d="M337.6,248.3l2.3-.2Z" transform="translate(2)"/><path class="cls-34" d="M332.8,248.8l2.3-.3Z" transform="translate(2)"/><path class="cls-33" d="M328,249.5l2.3-.3Z" transform="translate(2)"/><path class="cls-34" d="M325.5,249.9l2.6-.4Z" transform="translate(2)"/><path class="cls-33" d="M314.2,252l2.9-.6Z" transform="translate(2)"/><path class="cls-33" d="M302.8,254.8l2.3-.6Z" transform="translate(2)"/><path class="cls-34" d="M283.8,261.2l3.3-1.3Z" transform="translate(2)"/><path class="cls-33" d="M281.7,262l2.1-.8-2.2.9Z" transform="translate(2)"/><g class="cls-1"><path class="cls-34" d="M384.6,248h0Z" transform="translate(2)"/><path class="cls-33" d="M385.7,248.1l4.8.5Z" transform="translate(2)"/><path class="cls-33" d="M404.9,250.8l1.9.4Z" transform="translate(2)"/><path class="cls-34" d="M311.9,252.5l2.3-.5Z" transform="translate(2)"/><path class="cls-34" d="M309.6,253l2.3-.5Z" transform="translate(2)"/><path class="cls-33" d="M300.6,255.4l2.2-.6Z" transform="translate(2)"/><path class="cls-34" d="M296.2,256.7l2.2-.7Z" transform="translate(2)"/><path class="cls-34" d="M291.7,258.2l2.2-.7Z" transform="translate(2)"/><path class="cls-34" d="M289.6,258.9l2.1-.7Z" transform="translate(2)"/><path class="cls-33" d="M488.9,293.5l-1.5-1.8Z" transform="translate(2)"/><path class="cls-33" d="M491.3,296.6l-1.4-1.8Z" transform="translate(2)"/><path class="cls-34" d="M498.2,308.9l-.5-1.3Z" transform="translate(2)"/><path class="cls-33" d="M499,310.9l-.8-2Z" transform="translate(2)"/><path class="cls-33" d="M499.5,312.4l-.5-1.5Z" transform="translate(2)"/><path class="cls-33" d="M500.1,314.2l-.6-1.9Z" transform="translate(2)"/><path class="cls-35" d="M461,270.6l.5.3.6.3.6.3.6.3,1.1.7.5.3.5.3.6.4.5.3.5.3.5.3.5.4.5.4,1,.7.5.4.5.4,1.5,1.1.5.4.5.4c37.4,28.1,38.5,67.2,3.2,95.9-2.8,2.3-8.4,2.5-11.8.6s-3-3.9-1-5.6c28.5-23.1,30.4-53.6,6.2-77.7l-3.2-3-3.5-2.9-8.6-6.1-4.4-2.7-.5-.3-4.7-2.5-11.4-5.2-6.5-2.5c-44.1-14.8-96.7-13.5-136.2,2.9a12.4,12.4,0,0,1-10-.5c-3.4-2-2.9-5.2,1-6.8,40.9-17,94.2-19.6,139-7.7l.7.2.7.2,2.1.6.7.2.7.2,2.1.6.7.2.7.2.7.2,1.3.4.7.2.7.2.7.2.6.2.6.2,2,.7.6.2.6.2.7.2.7.3,1.3.5.6.2,2,.8,1.2.5,1.3.5.6.3,3.1,1.4.6.3.6.3.6.3,1.3.6,1.2.6,1.2.6.6.3.6.3.6.3.6.3.6.3,1.1.6.6.3.6.3.6.3Z" transform="translate(2)"/><path class="cls-33" d="M502,325.9c0-.5-.1-1-.1-1.6S502,325.4,502,325.9Z" transform="translate(2)"/><path class="cls-33" d="M502.1,327.8c0,.5,0,1,0,1.5S502.1,328.3,502.1,327.8Z" transform="translate(2)"/><path class="cls-33" d="M501.4,335.9c.2-1,.3-2,.4-2.9C501.7,333.9,501.5,334.9,501.4,335.9Z" transform="translate(2)"/><path class="cls-33" d="M501.1,337.3l.3-1.4Z" transform="translate(2)"/><path class="cls-33" d="M499.7,342.5l.5-1.7Z" transform="translate(2)"/><path class="cls-33" d="M497.1,349.1l.8-1.7Z" transform="translate(2)"/><path class="cls-33" d="M494.5,354l.9-1.6Z" transform="translate(2)"/><path class="cls-33" d="M486.6,364.7l1.3-1.4Z" transform="translate(2)"/><path class="cls-34" d="M480.6,370.8l1.6-1.5Z" transform="translate(2)"/><path class="cls-34" d="M477.2,373.7l1.7-1.4Z" transform="translate(2)"/></g><path class="cls-33" d="M477.2,373.7l-.8.7-.4.3Z" transform="translate(2)"/><path class="cls-32" d="M476,374.7a115.4,115.4,0,0,1-14.4,9.8C407.5,416,319.4,416,265,384.5s-54.8-82.5-.6-113.9a147.1,147.1,0,0,1,17.3-8.5c-3.8,1.6-4.2,4.8-.9,6.8a12.3,12.3,0,0,0,9.8.6,130.6,130.6,0,0,0-15.2,7.5c-48.1,28-47.9,73.3.6,101.3s126.7,28,174.9,0a102.6,102.6,0,0,0,12.9-8.8c-2,1.8-1.6,4.1,1,5.6S473.1,376.7,476,374.7Z" transform="translate(2)"/><path class="cls-33" d="M492.2,298l-1-1.3Z" transform="translate(2)"/><path class="cls-33" d="M494.3,301.2l-.8-1.2Z" transform="translate(2)"/><path class="cls-34" d="M501.3,319.2l-.3-1.6Z" transform="translate(2)"/><path class="cls-33" d="M500.7,339.2l.4-1.9Z" transform="translate(2)"/><path class="cls-33" d="M499.2,344.1l.6-1.6Z" transform="translate(2)"/><path class="cls-33" d="M498.5,345.8l.6-1.7Z" transform="translate(2)"/><path class="cls-33" d="M491.3,358.9l1.3-1.8Z" transform="translate(2)"/><path class="cls-33" d="M490,360.7l1.3-1.8Z" transform="translate(2)"/><path class="cls-34" d="M483.7,367.8l1.4-1.5Z" transform="translate(2)"/><path class="cls-33" d="M482.1,369.3l1.6-1.5Z" transform="translate(2)"/><path class="cls-33" d="M572,314.9l-.4-.4Z" transform="translate(2)"/><path class="cls-33" d="M572.3,315.2l-.3-.3Z" transform="translate(2)"/><path class="cls-34" d="M572.7,315.5l-.4-.4Z" transform="translate(2)"/><path class="cls-34" d="M572.9,315.8l-.3-.3Z" transform="translate(2)"/><path class="cls-33" d="M557.2,307.4h0Z" transform="translate(2)"/><path class="cls-33" d="M554.1,306.8h0Z" transform="translate(2)"/><path class="cls-33" d="M552.3,306.6h0Z" transform="translate(2)"/><path class="cls-34" d="M552,306.5h0Z" transform="translate(2)"/><path class="cls-33" d="M549.9,306.3h0Z" transform="translate(2)"/><path class="cls-34" d="M549.5,306.3h0Z" transform="translate(2)"/><path class="cls-33" d="M548.8,306.2h0Z" transform="translate(2)"/><path class="cls-33" d="M548.4,306.2h0Z" transform="translate(2)"/><path class="cls-34" d="M547.3,306.2h0Z" transform="translate(2)"/><path class="cls-33" d="M546.7,306.2h0Z" transform="translate(2)"/><path class="cls-33" d="M546.3,306.2h0Z" transform="translate(2)"/><path class="cls-33" d="M544.5,306.2h0Z" transform="translate(2)"/><path class="cls-34" d="M541.6,306.3h0Z" transform="translate(2)"/><path class="cls-33" d="M540.5,306.4h0Z" transform="translate(2)"/><path class="cls-34" d="M539.5,306.6h0Z" transform="translate(2)"/><path class="cls-33" d="M538.5,306.7h0Z" transform="translate(2)"/><path class="cls-34" d="M537.9,306.8h0Z" transform="translate(2)"/><path class="cls-33" d="M535.5,307.2h0Z" transform="translate(2)"/><path class="cls-33" d="M533,307.9h0Z" transform="translate(2)"/><path class="cls-34" d="M528.9,309.2l.7-.3Z" transform="translate(2)"/><path class="cls-33" d="M528.4,309.4l.5-.2-.5.2Z" transform="translate(2)"/><g class="cls-1"><path class="cls-34" d="M550.7,306.4h0Z" transform="translate(2)"/><path class="cls-33" d="M550.9,306.4h0Z" transform="translate(2)"/><path class="cls-33" d="M555.1,307h0Z" transform="translate(2)"/><path class="cls-34" d="M535,307.4h0Z" transform="translate(2)"/><path class="cls-34" d="M534.5,307.5h0Z" transform="translate(2)"/><path class="cls-33" d="M532.5,308h0Z" transform="translate(2)"/><path class="cls-34" d="M531.6,308.3h0Z" transform="translate(2)"/><path class="cls-34" d="M530.6,308.6l.5-.2Z" transform="translate(2)"/><path class="cls-34" d="M530.2,308.8l.5-.2Z" transform="translate(2)"/><path class="cls-33" d="M573.2,316.2l-.3-.4Z" transform="translate(2)"/><path class="cls-33" d="M573.8,316.9l-.3-.4Z" transform="translate(2)"/><path class="cls-34" d="M575.3,319.6v0Z" transform="translate(2)"/><path class="cls-33" d="M575.4,320l-.2-.4Z" transform="translate(2)"/><path class="cls-33" d="M575.6,320.3v0Z" transform="translate(2)"/><path class="cls-33" d="M575.7,320.7v0Z" transform="translate(2)"/><path class="cls-36" d="M567.2,311.3h2.1l.3.2h.2c8.1,6.1,8.3,14.5.7,20.7a2.5,2.5,0,0,1-2.5.1c-.6-.3-.6-.8-.2-1.2,6.2-5,6.6-11.6,1.3-16.8l-.7-.7-.7-.6-1.9-1.3-1-.6h-.1l-1-.5-2.5-1.1-1.4-.5c-9.5-3.2-20.9-2.9-29.5.6a2.7,2.7,0,0,1-2.2-.1c-.7-.4-.6-1.1.2-1.5,8.8-3.7,20.4-4.2,30.1-1.7h2.9l.4.2h1l.4.2h.7l.7.3h2.6Z" transform="translate(2)"/><path class="cls-33" d="M576.1,323.2v0Z" transform="translate(2)"/><path class="cls-33" d="M576.1,323.6c0,.1,0,.2,0,.3S576.1,323.7,576.1,323.6Z" transform="translate(2)"/><path class="cls-33" d="M576,325.4v0Z" transform="translate(2)"/><path class="cls-33" d="M575.9,325.7v0Z" transform="translate(2)"/><path class="cls-33" d="M575.6,326.8v0Z" transform="translate(2)"/><path class="cls-33" d="M575,328.3l.2-.4Z" transform="translate(2)"/><path class="cls-33" d="M574.5,329.3l.2-.3Z" transform="translate(2)"/><path class="cls-33" d="M572.8,331.6l.3-.3Z" transform="translate(2)"/><path class="cls-34" d="M571.5,332.9l.3-.3Z" transform="translate(2)"/><path class="cls-34" d="M570.7,333.6l.4-.3Z" transform="translate(2)"/></g><path class="cls-33" d="M570.7,333.6l-.2.2h-.1Z" transform="translate(2)"/><path class="cls-32" d="M570.5,333.8a24.9,24.9,0,0,1-3.1,2.1c-11.7,6.8-30.8,6.8-42.5,0s-11.8-17.8-.1-24.6a31.8,31.8,0,0,1,3.7-1.8c-.8.4-.9,1-.2,1.5a2.7,2.7,0,0,0,2.1.1l-3.3,1.6c-10.4,6-10.4,15.9.1,21.9s27.4,6,37.8,0a22.2,22.2,0,0,0,2.8-1.9c-.4.4-.4.9.2,1.2A2.6,2.6,0,0,0,570.5,333.8Z" transform="translate(2)"/><path class="cls-33" d="M574,317.2l-.2-.3Z" transform="translate(2)"/><path class="cls-33" d="M574.4,317.9l-.2-.3Z" transform="translate(2)"/><path class="cls-34" d="M575.9,321.8v0Z" transform="translate(2)"/><path class="cls-33" d="M575.8,326.1v0Z" transform="translate(2)"/><path class="cls-33" d="M575.5,327.2v0Z" transform="translate(2)"/><path class="cls-33" d="M575.3,327.5v0Z" transform="translate(2)"/><path class="cls-33" d="M573.8,330.4l.3-.4Z" transform="translate(2)"/><path class="cls-33" d="M573.5,330.8l.3-.4Z" transform="translate(2)"/><path class="cls-34" d="M572.1,332.3l.3-.3Z" transform="translate(2)"/><path class="cls-33" d="M571.8,332.6l.3-.3Z" transform="translate(2)"/><g class="cls-37"><image class="cls-38" width="359" height="230" transform="translate(181 207)" xlink:href="android-and-iPhone-app-development-company1.png"/><path d="M514.9,281.4h0c-.1-2.6-1.8-5.1-5.2-7.1l-94.8-54.7c-6.9-4-18.2-4-25,0l-196.1,114c-3.3,1.9-5,4.4-5.1,6.9h0s-.2,8.6.7,10.5h0a11.1,11.1,0,0,0,4.5,4.4l84.3,48.7h0l10.5,6.1c6.9,4,18.2,4,25,0l180-104.6h0l16.1-9.4c3.3-1.9,5-4.5,5.1-7h0c0-.1,0-.2,0-.3v-7C514.9,281.6,514.9,281.5,514.9,281.4Z" transform="translate(2)"/></g><g class="cls-39"><image class="cls-38" width="359" height="230" transform="translate(181 207)" xlink:href="android-and-iPhone-app-development-company2.png"/><path d="M514.9,281.4h0c-.1-2.6-1.8-5.1-5.2-7.1l-94.8-54.7c-6.9-4-18.2-4-25,0l-196.1,114c-3.3,1.9-5,4.4-5.1,6.9h0s-.2,8.6.7,10.5h0a11.1,11.1,0,0,0,4.5,4.4l84.3,48.7h0l10.5,6.1c6.9,4,18.2,4,25,0l180-104.6h0l16.1-9.4c3.3-1.9,5-4.5,5.1-7h0c0-.1,0-.2,0-.3v-7C514.9,281.6,514.9,281.5,514.9,281.4Z" transform="translate(2)"/></g><path class="cls-40" d="M520.5,287.6c0-.1,0-.2,0-.3v-7.5l-4.4.8-.9-.6-97-56c-7.1-4.1-18.6-4.1-25.6,0L194.1,339.3l-7.6,1s-.2,8.8.7,10.8h0a11.3,11.3,0,0,0,4.6,4.5l97,56c7.1,4.1,18.6,4.1,25.6,0L515.3,294.9c3.4-2,5.1-4.6,5.2-7.2h0Z" transform="translate(2)"/><path d="M405.4,220.9a26.2,26.2,0,0,1,12.8,3.1l97,56,.9.6,4.4-.8v7.5c0,.1,0,.2,0,.3h0c-.1,2.6-1.8,5.2-5.2,7.2L314.5,411.6a28.3,28.3,0,0,1-25.6,0l-97-56a11.3,11.3,0,0,1-4.6-4.5h0c-1-1.9-.7-10.8-.7-10.8l7.6-1L392.5,224a26.1,26.1,0,0,1,12.8-3.1m0-.5a26.5,26.5,0,0,0-13.1,3.1L193.9,338.8l-7.5.9H186v.5c0,.9-.2,9,.8,11a11.9,11.9,0,0,0,4.8,4.7l97,56a28.8,28.8,0,0,0,26.2,0L515.5,295.3c3.3-1.9,5.3-4.5,5.5-7.3h0v-.3h0c0-.1,0-.2,0-.3v-8.1h-.6l-4.2.8-.7-.5-97-56a26.6,26.6,0,0,0-13.1-3.1Z" transform="translate(2)"/><path class="cls-41" d="M487.1,306.2c.7-.4,1.3-.1,1.3.8a2.9,2.9,0,0,1-1.3,2.3l-13.9,8c-.7.4-1.3.1-1.3-.8a2.9,2.9,0,0,1,1.3-2.3Z" transform="translate(2)"/><path d="M487.7,306c.4,0,.7.3.7.9a2.9,2.9,0,0,1-1.3,2.3l-13.9,8-.6.2c-.4,0-.7-.3-.7-.9a2.9,2.9,0,0,1,1.3-2.3l13.9-8,.6-.2m0-.3h0l-.7.2L473,314a3.2,3.2,0,0,0-1.5,2.5c0,.7.4,1.2,1,1.2l.7-.2,13.9-8a3.2,3.2,0,0,0,1.5-2.5c0-.7-.4-1.2-1-1.2Z" transform="translate(2)"/><path class="cls-42" d="M487.5,306.5c.7-.4,1.3-.1,1.3.8a2.9,2.9,0,0,1-1.3,2.3l-13.9,8c-.7.4-1.3.1-1.3-.8a2.9,2.9,0,0,1,1.3-2.3Z" transform="translate(2)"/><path class="cls-43" d="M463.1,320.3c.7-.4,1.3-.1,1.3.8a2.9,2.9,0,0,1-1.3,2.3l-7.9,4.5c-.7.4-1.3.1-1.3-.8a2.9,2.9,0,0,1,1.3-2.3Z" transform="translate(2)"/><path d="M463.7,320.1c.4,0,.7.3.7.9a2.9,2.9,0,0,1-1.3,2.3l-7.9,4.5-.6.2c-.4,0-.7-.3-.7-.9a2.9,2.9,0,0,1,1.3-2.3l7.9-4.5.6-.2m0-.3h0l-.7.2-7.9,4.5a3.2,3.2,0,0,0-1.5,2.5c0,.7.4,1.2,1,1.2l.7-.2,7.9-4.5a3.2,3.2,0,0,0,1.5-2.5c0-.7-.4-1.2-1-1.2Z" transform="translate(2)"/><path class="cls-44" d="M463.5,320.7c.7-.4,1.3-.1,1.3.8a2.9,2.9,0,0,1-1.3,2.3l-7.9,4.5c-.7.4-1.3.1-1.3-.8a2.9,2.9,0,0,1,1.3-2.3Z" transform="translate(2)"/><path class="cls-45" d="M498.8,304.4l16.5-9.6c3.4-2,5.1-4.6,5.2-7.2h0c0-.1,0-.2,0-.3v-7.5l-4.4.8-.9-.6-13.8-7.9h-2.7Z" transform="translate(2)"/><path class="cls-46" d="M323.9,380.3H278.1v25l10.7,6.2c7.1,4.1,18.6,4.1,25.6,0l9.5-5.5Z" transform="translate(2)"/><path class="cls-47" d="M515.2,272.5c7.1,4.1,7.1,10.8.1,14.9L314.5,404c-7,4.1-18.5,4.1-25.6,0l-97-56c-7.1-4.1-7.1-10.8-.1-14.8L392.5,216.5c7-4.1,18.6-4.1,25.6,0Z" transform="translate(2)"/><path class="cls-48" d="M405.4,213.4a26.2,26.2,0,0,1,12.8,3.1l97,56c7.1,4.1,7.1,10.8.1,14.9L314.5,404a28.3,28.3,0,0,1-25.6,0l-97-56c-7.1-4.1-7.1-10.8-.1-14.8L392.5,216.5a26.1,26.1,0,0,1,12.8-3.1m0-.5h0a26.5,26.5,0,0,0-13.1,3.1L191.5,332.7c-3.6,2.1-5.5,4.9-5.5,7.9s2,5.8,5.6,7.9l97,56a28.8,28.8,0,0,0,26.2,0L515.5,287.8c3.6-2.1,5.5-4.9,5.5-7.9s-2-5.8-5.6-7.9l-97-56a26.6,26.6,0,0,0-13.1-3.1Z" transform="translate(2)"/><path class="cls-49" d="M515.2,272.5l-60.8-35.1c-2.8,22.5.1,51.2,25.4,70.6l35.5-20.6C522.3,283.2,522.3,276.6,515.2,272.5Z" transform="translate(2)"/><path class="cls-50" d="M301.7,405a20,20,0,0,1-9.8-2.4l-97-56c-2.8-1.6-4.3-3.7-4.3-6s1.5-4.4,4.2-6L395.5,217.9a21.6,21.6,0,0,1,19.6,0l27.4,15.8a2.1,2.1,0,0,1,1.1,1.4,1.7,1.7,0,0,1-.5,1.4l-2.3,2.5a.7.7,0,0,0-.2.6,1.3,1.3,0,0,0,.7.8l31.7,18.3a4.4,4.4,0,0,0,2.1.5l1.4-.2,4.4-1.3,1.5-.2a4.7,4.7,0,0,1,2.3.6l27.4,15.8c2.8,1.6,4.3,3.7,4.3,6s-1.5,4.4-4.2,6L311.5,402.6A19.8,19.8,0,0,1,301.7,405Z" transform="translate(2)"/><path class="cls-51" d="M511.9,274.4c5.3,3,5.3,8,.1,11L311.2,402.1c-5.2,3-13.8,3-19,0l-97-56c-5.3-3-5.3-8-.1-11L395.8,218.4c5.2-3,13.8-3,19,0l27.4,15.8c.9.5,1.1,1.3.5,1.9l-2.3,2.5c-.7.8-.4,1.7.6,2.3l31.7,18.3a5.4,5.4,0,0,0,4,.3l4.4-1.3a4.5,4.5,0,0,1,3.3.3Z" transform="translate(2)"/><path class="cls-52" d="M465.7,250.1a.4.4,0,0,1,0,.7,1.3,1.3,0,0,1-1.2,0l-11.9-6.9a.4.4,0,0,1,0-.7,1.3,1.3,0,0,1,1.2,0Z" transform="translate(2)"/><path class="cls-53" d="M474.4,254.4a.7.7,0,0,1,0,1.3,2.4,2.4,0,0,1-2.2,0,.7.7,0,0,1,0-1.3A2.5,2.5,0,0,1,474.4,254.4Z" transform="translate(2)"/><path class="cls-54" d="M450.7,329.2c.6,1-37.3,24.1-48.2,30.7s-68,37.5-68.6,36.5,55.6-33.4,66.5-40.1S450.1,328.2,450.7,329.2Z" transform="translate(2)"/><path class="cls-55" d="M481.2,258.3l-4.4,1.3a5.4,5.4,0,0,1-4-.3L441.1,241c-1.1-.6-1.3-1.6-.6-2.3l2.3-2.5c.6-.6.4-1.4-.5-1.9l-27.4-15.8c-5.3-3-13.8-3-19,0L278.9,286.3c27.6,10.4,61.2,16.4,97.6,16.4,51.8,0,98.2-12.4,129.3-31.9l-21.3-12.3A4.5,4.5,0,0,0,481.2,258.3Z" transform="translate(2)"/><polygon class="cls-56" points="632 367.8 629.8 369.1 578.8 339.7 581.1 338.4 632 367.8"/><g class="cls-1"><polygon class="cls-57" points="577 352.7 574.7 354 564.5 348.1 566.7 346.8 577 352.7"/><polygon class="cls-58" points="602.8 356.8 600.6 358 573.8 342.6 576.1 341.3 602.8 356.8"/><polygon class="cls-59" points="603.8 362.7 601.6 364 569.2 345.3 571.4 344 603.8 362.7"/></g><path class="cls-60" d="M543.2,316.6l-.7.4-3.7-2.1-2.8,1.3,1,.6c2.4,1.4,2.4,2.5,1,3.3a5.4,5.4,0,0,1-5.4-.3c-1.2-.7-1.9-1.5-1.9-2.3h1.1c0,.6.5,1.4,1.6,2a3.7,3.7,0,0,0,3.7.3c1-.6,1-1.3-1-2.5l-1.7-1,4.4-2.1Z" transform="translate(2)"/><path class="cls-61" d="M556.2,328.4c1.1.6,1,1.6-.4,2.3a4.2,4.2,0,0,1-4,.2c-1.1-.6-.9-1.6.4-2.3A4.2,4.2,0,0,1,556.2,328.4Zm-3.8,2.2a3,3,0,0,0,2.9-.2c1-.6,1.2-1.2.4-1.7a3,3,0,0,0-2.9.2c-1,.6-1.2,1.3-.4,1.7" transform="translate(2)"/><polygon class="cls-62" points="561.8 326.2 562.5 326.6 549 328.1 548.3 327.7 561.8 326.2"/><path class="cls-63" d="M548.4,319.5c1.9,1.1,1.7,2.8-.8,4.2s-5.4,1.6-7.3.5-1.7-2.7.9-4.2S546.6,318.4,548.4,319.5Zm-7.4,4.3c1.4.8,3.6.7,5.7-.6s2.4-2.5.9-3.3-3.6-.7-5.7.6-2.4,2.5-1,3.3" transform="translate(2)"/><path class="cls-64" d="M554.7,325.7a4.2,4.2,0,0,1-4,.2c-1.1-.6-1-1.6.4-2.3a4.1,4.1,0,0,1,4-.2C556.1,324,556,324.9,554.7,325.7Zm-3.1-1.8c-1,.6-1.2,1.2-.4,1.7a3,3,0,0,0,2.9-.2c1-.6,1.2-1.3.4-1.7a3,3,0,0,0-2.9.2" transform="translate(2)"/><g class="cls-65"><path class="cls-66" d="M348.3,342c3.9,2.3,4,6,.1,8.2l-37.5,21.8a15.7,15.7,0,0,1-14.2,0L193.3,312.4c-3.9-2.3-4-6,0-8.2l37.5-21.8a15.7,15.7,0,0,1,14.2,0Z" transform="translate(2)"/></g><polygon class="cls-7" points="315.6 358.3 312.6 360 277.4 339.7 280.4 337.9 315.6 358.3"/><g class="cls-1"><polygon class="cls-7" points="252.2 302.1 249.2 303.9 232.8 294.4 235.9 292.7 252.2 302.1"/><polygon class="cls-67" points="273.9 306.9 270.9 308.6 239.5 290.5 242.6 288.8 273.9 306.9"/><polygon class="cls-7" points="250.7 329.5 247.7 331.3 208.4 308.6 211.5 306.8 250.7 329.5"/><polygon class="cls-7" points="275.5 335.1 272.5 336.9 215.9 304.2 219 302.5 275.5 335.1"/><polygon class="cls-7" points="298.9 340.6 295.9 342.4 222.8 300.2 225.9 298.5 298.9 340.6"/></g><polygon class="cls-7" points="322.5 354.3 319.5 356 299.2 344.3 302.3 342.6 322.5 354.3"/><g class="cls-68"><path class="cls-69" d="M429.6,419.4c2.3,1.3,2.3,3.5,0,4.8l-29.2,17a9.1,9.1,0,0,1-8.3,0l-29.4-17c-2.3-1.3-2.3-3.5,0-4.8l29.2-17a9.1,9.1,0,0,1,8.3,0Z" transform="translate(2)"/></g><path class="cls-70" d="M435.3,412.6h0l-.3.6h-.1l-.5.6h-.1l-.8.6-32.6,19-.9.4h-.3l-.6.2-.7.2H395l-1-.2h-.2l-.9-.3h-.2l-1-.5-32.8-19a3.8,3.8,0,0,1-1.8-2,2.3,2.3,0,0,1-.1-.7v1.7a3.3,3.3,0,0,0,1.9,2.7l32.8,19,.9.5h.2l.6.2h5.1l.7-.2h.9l.9-.4,32.6-19h.1l.7-.5h.1l.4-.4h.1v-.2l.2-.4h0v-.6h0v-1.7A2.3,2.3,0,0,1,435.3,412.6Z" transform="translate(2)"/><path class="cls-71" d="M433.5,409.2c2.6,1.5,2.6,3.9,0,5.3l-32.6,19a10.2,10.2,0,0,1-9.2,0l-32.8-19c-2.6-1.5-2.6-3.9,0-5.3l32.6-19a10.2,10.2,0,0,1,9.2,0Z" transform="translate(2)"/><path class="cls-72" d="M399.8,398.3l1.2.7.3.2c.3.2.6.5,0,1.3l-2.7,3.9c-.1.3-.4.5-1.1.7l-1.2.2h-2.6c-.7,0-1.3,0-1.6.6a9.4,9.4,0,0,0-.8,4.6,9.6,9.6,0,0,0,2,4.8l.5.5a2,2,0,0,0,1.1.2l4.4-.3a2,2,0,0,1,1.3.2l.6.5c.4.5,1.9,3.2,2.3,3.7s.6.9.5,1.1-1.4,1-3.4,1.5a14.6,14.6,0,0,1-7.3-.7l-1.6-.7c-.9-.5-2.2-1.6-4.5-4.7-4-5.2-1.5-11.4-1.4-11.8A8.3,8.3,0,0,1,388,401a7,7,0,0,1,1.8-1.4,14.4,14.4,0,0,1,7.5-1.7A4.5,4.5,0,0,1,399.8,398.3Z" transform="translate(2)"/><g class="cls-23"><path class="cls-73" d="M533.1,253v3.9a3,3,0,0,1-4.5,2.6L425.3,199.9a3,3,0,0,1-1.5-2.6v-3.9a3,3,0,0,1,4.5-2.6l103.3,59.7A3,3,0,0,1,533.1,253Z" transform="translate(2)"/></g><path class="cls-74" d="M517,244.1V248a3,3,0,0,1-4.5,2.6l-87.6-50.8a3,3,0,0,1-1.5-2.6v-3.9a3,3,0,0,1,4.5-2.6l87.6,50.8A3,3,0,0,1,517,244.1Z" transform="translate(2)"/><g class="cls-75"><path class="cls-76" d="M556.6,269.6a1,1,0,0,1,.5.8v8.2c0,.3-.2.4-.5.3l-10.4-6a1,1,0,0,1-.5-.8v-8.2c0-.3.2-.4.5-.3Z" transform="translate(2)"/></g><g class="cls-77"><path class="cls-76" d="M564.3,286.7a1,1,0,0,1,.5.8v8.2c0,.3-.2.4-.5.3l-10.4-6a1,1,0,0,1-.5-.8V281c0-.3.2-.4.5-.3Z" transform="translate(2)"/></g><g class="cls-75"><path class="cls-76" d="M147.6,291.6a1,1,0,0,0-.5.8v8.2c0,.3.2.4.5.3l10.4-6a1,1,0,0,0,.5-.8v-8.2c0-.3-.2-.4-.5-.3Z" transform="translate(2)"/></g><g class="cls-77"><path class="cls-76" d="M139.9,308.8a1,1,0,0,0-.5.8v8.2c0,.3.2.4.5.3l10.4-6a1,1,0,0,0,.5-.8v-8.2c0-.3-.2-.4-.5-.3Z" transform="translate(2)"/></g><g class="cls-75"><path class="cls-76" d="M190.2,212.7a1,1,0,0,0-.5.8v8.2c0,.3.2.4.5.3l10.4-6a1,1,0,0,0,.5-.8V207c0-.3-.2-.4-.5-.3Z" transform="translate(2)"/></g><g class="cls-77"><path class="cls-76" d="M182.5,229.9a1,1,0,0,0-.5.8v8.2c0,.3.2.4.5.3l10.4-6a1,1,0,0,0,.5-.8v-8.2c0-.3-.2-.4-.5-.3Z" transform="translate(2)"/></g><g class="cls-78"><path class="cls-79" d="M384.5,99.6a3.6,3.6,0,0,0,5.1,5,15.7,15.7,0,0,1,22.2-.1,3.6,3.6,0,1,0,5-5.1A22.9,22.9,0,0,0,384.5,99.6Z" transform="translate(2)"/><path class="cls-79" d="M426.9,89.3a37.2,37.2,0,0,0-52.6.2,3.6,3.6,0,0,0,5.1,5,30.1,30.1,0,0,1,42.5-.1,3.6,3.6,0,1,0,5-5.1Z" transform="translate(2)"/><circle class="cls-79" cx="400.8" cy="112.2" r="7" transform="translate(40.7 317.4) rotate(-45.2)"/></g><circle class="cls-80" cx="398.4" cy="187.7" r="23.4" transform="translate(-9.6 27) rotate(-3.8)"/><g class="cls-23"><ellipse class="cls-81" cx="398.7" cy="272" rx="84.5" ry="43.2" transform="translate(1.2 1.2) rotate(-0.2)"/><path class="cls-7" d="M398.4,315.9c-46.7,0-84.7-19.5-84.8-43.6,0-11.8,8.8-22.8,25-31.2s37.3-12.8,60-12.9h.5c22.5,0,43.6,4.4,59.6,12.5s25.1,19.2,25.2,31-8.8,22.8-25,31.2-37.3,12.8-60,12.9Zm.8-86.4h-.5c-22.5.1-43.6,4.6-59.5,12.8s-24.4,18.8-24.3,30.1c.1,23.4,37.5,42.4,83.6,42.4h.5c22.5-.1,43.6-4.6,59.5-12.8s24.4-18.8,24.3-30.1-8.7-22-24.5-30S421.4,229.4,399.1,229.4Z" transform="translate(2)"/></g><g class="cls-23"><ellipse class="cls-82" cx="398.7" cy="251.9" rx="72.9" ry="37.3" transform="translate(1.2 1.2) rotate(-0.2)"/><path class="cls-7" d="M398.4,289.8c-40.3,0-73.1-16.8-73.2-37.6s32.9-38,73.4-38.1h.5c19.4,0,37.6,3.8,51.4,10.8s21.7,16.6,21.8,26.8h0c0,10.2-7.6,19.8-21.6,27s-32.2,11.1-51.8,11.1Zm.7-74.6h-.4c-39.9.1-72.3,16.7-72.2,36.9s32.3,36.5,72,36.5h.4c19.4-.1,37.6-4,51.3-11s21-16.2,21-25.9h0c0-9.7-7.5-18.9-21.1-25.8S418.3,215.2,399.1,215.2Z" transform="translate(2)"/></g><g class="cls-23"><ellipse class="cls-83" cx="398.7" cy="232.5" rx="48.3" ry="24.7" transform="translate(1.3 1.2) rotate(-0.2)"/><path class="cls-7" d="M398.5,257.8c-26.8,0-48.6-11.2-48.7-25.1s21.9-25.4,48.8-25.4h.3c26.8,0,48.6,11.2,48.7,25.1h0c0,13.9-21.9,25.4-48.8,25.4Zm.4-49.4h-.3c-26.3.1-47.7,11-47.6,24.2s21.3,24,47.5,24h.3c26.3-.1,47.7-11,47.6-24.2h0C446.4,219.1,425.1,208.4,398.9,208.4Z" transform="translate(2)"/></g><g class="cls-23"><path class="cls-84" d="M447,232.3c0,13.6-21.5,24.8-48.2,24.8s-48.3-10.9-48.4-24.5,21.5-45.3,48.2-45.4S447,218.7,447,232.3Z" transform="translate(2)"/><path class="cls-7" d="M398.5,257.8c-26.8,0-48.6-11.2-48.7-25.1s21-45.9,48.8-46h.1c27.6,0,48.8,32.4,48.9,45.7h0c0,13.9-21.9,25.4-48.8,25.4Zm.3-69.9h-.1c-26.6.1-47.7,32.2-47.6,44.8s21.3,24,47.5,24h.3c26.3-.1,47.7-11,47.6-24.2h0C446.4,219.4,425.7,187.8,398.8,187.8Z" transform="translate(2)"/></g><circle class="cls-85" cx="436.5" cy="285.3" r="6"/><circle class="cls-86" cx="341" cy="229.8" r="2.4"/><path class="cls-87" d="M266.4,239.8a2.6,2.6,0,0,0-1.2,2c0,.7.5,1,1.2.7a2.6,2.6,0,0,0,1.2-2C267.6,239.7,267,239.4,266.4,239.8Z" transform="translate(2)"/><path class="cls-88" d="M269.8,238.7c0,.1,0,.3,0,.4s0,.2,0,.4a7.6,7.6,0,0,1-3.4,5.6c-1.9,1.1-3.4.2-3.4-2a7.5,7.5,0,0,1,3.4-5.9C268.1,236.2,269.6,236.9,269.8,238.7Zm-3.4,5.6a6.1,6.1,0,0,0,2.8-4.8c0-1.7-1.3-2.5-2.8-1.6a6.1,6.1,0,0,0-2.8,4.8c0,1.8,1.3,2.5,2.8,1.6" transform="translate(2)"/><path class="cls-89" d="M304.1,205.5v8.1l-13.6,7.8-4.6,8-16.1,9.3q0,.2,0,.4c0,.1,0,.2,0,.4l16.3-9.4,4.6-8,14-8.1v-8.9Z" transform="translate(2)"/><polygon class="cls-90" points="297.2 183.6 299.5 187.7 303 185.7 300.7 181.6 297.2 183.6"/><polygon class="cls-91" points="291 187.2 293.3 191.3 296.7 189.3 294.5 185.2 291 187.2"/><polygon class="cls-92" points="284.7 190.9 287 194.9 290.5 192.9 288.2 188.8 284.7 190.9"/><polygon class="cls-93" points="310.3 193.4 307.8 196.8 307.8 200.3 333.2 185.6 333.1 180.2 310.3 193.4"/><g class="cls-1"><path class="cls-94" d="M270.3,205.9a2.6,2.6,0,0,0-1.2,2c0,.7.5,1,1.2.7a2.6,2.6,0,0,0,1.2-2C271.5,205.9,270.9,205.6,270.3,205.9Z" transform="translate(2)"/><path class="cls-95" d="M273.7,204.9q0,.2,0,.4t0,.4a7.6,7.6,0,0,1-3.4,5.5c-1.9,1.1-3.4.2-3.4-2a7.6,7.6,0,0,1,3.4-5.9C272.1,202.3,273.5,203,273.7,204.9Zm-3.4,5.5a6.1,6.1,0,0,0,2.8-4.8c0-1.8-1.3-2.5-2.8-1.6a6.1,6.1,0,0,0-2.8,4.8c0,1.7,1.3,2.5,2.8,1.6" transform="translate(2)"/></g><path class="cls-96" d="M362.8,181.8c1.9-1.1,3.4-.2,3.4,2a7.6,7.6,0,0,1-3.4,5.9c-1.8,1-3.2.3-3.4-1.6q0-.2,0-.4c0-.1,0-.3,0-.4A7.6,7.6,0,0,1,362.8,181.8Zm0,7.1a6.1,6.1,0,0,0,2.8-4.8c0-1.7-1.3-2.5-2.8-1.6a6.1,6.1,0,0,0-2.8,4.8c0,1.8,1.3,2.5,2.8,1.6" transform="translate(2)"/><polygon class="cls-97" points="342.9 200.5 342.9 201.9 359 192.6 359 191.2 342.9 200.5"/><polygon class="cls-98" points="353.6 197.9 354.2 199 359 196.2 359 194.8 353.6 197.9"/><path class="cls-99" d="M273.7,204.9c0,.1,0,.2,0,.4s0,.3,0,.4l27-15.6v17.7l3.3-1.9v-.4l.7-.4v.4l18.4-10.6,12.3,7,23.9-13.8q0-.2,0-.4c0-.1,0-.3,0-.4L335.7,201l-12.3-7-21.9,12.6V188.9Z" transform="translate(2)"/><path class="cls-100" d="M362.8,184.4a2.6,2.6,0,0,0-1.2,2c0,.7.5,1,1.2.7a2.6,2.6,0,0,0,1.2-2C363.9,184.3,363.4,184,362.8,184.4Z" transform="translate(2)"/></g></g></svg>