<?xml version="1.0" encoding="utf-8"?>
<!-- Generator: Adobe Illustrator 21.0.2, SVG Export Plug-In . SVG Version: 6.00 Build 0)  -->
<svg version="1.1" id="Layer_1" xmlns="http://www.w3.org/2000/svg" xmlns:xlink="http://www.w3.org/1999/xlink" x="0px" y="0px"
	 viewBox="0 0 750 500" style="enable-background:new 0 0 750 500;" xml:space="preserve">
<style type="text/css">
	.st0{fill:#3D64F2;}
	.st1{fill:#6782FD;}
	.st2{display:none;}
	.st3{display:inline;opacity:0.1;}
	.st4{display:inline;}
	.st5{fill:#D1855E;}
	.st6{fill:#423847;}
	.st7{fill:#FFFFFF;}
	.st8{opacity:0.1;fill:#423847;}
	.st9{opacity:0.3;}
	.st10{fill:none;stroke:#423847;stroke-width:0.3603;stroke-miterlimit:10;}
	.st11{fill:#FBC38E;}
	.st12{opacity:0.47;fill:#FFF6E7;}
	.st13{fill:none;stroke:#FFFFFF;stroke-width:0.1828;stroke-miterlimit:10;}
	.st14{fill:none;stroke:#FFFFFF;stroke-width:0.2285;stroke-miterlimit:10;}
	.st15{opacity:0.5;fill:#FFF6E7;}
	.st16{fill:#FDEBE0;}
	.st17{fill:#F37C54;}
	.st18{fill:#EBCFB2;}
	.st19{opacity:0.4;fill:#FFFFFF;}
	.st20{opacity:0.5;fill:#FFFFFF;}
</style>
<g id="BACKGROUND">
	<g>
		<g>
			<g>
				<rect class="st0" width="750" height="500"/>
			</g>
		</g>
	</g>
</g>
<g id="OBJECTS">
	<g>
		<rect class="st1" width="749.7" height="497.7"/>
	</g>
</g>
<g>
	<g class="st2">
		<g class="st3">
			<path d="M284.8,377.8v-72.4h18.8v20.4h5v22.5h12.3v29.5C320.9,377.8,284.4,378.2,284.8,377.8z"/>
			<path d="M314.7,377.8v-57.7c0,0,0.6-6.1,6.1-6.1c0,0,6.7,0.3,6.7,6.7v57.1C327.5,377.8,314.4,377.8,314.7,377.8z"/>
			<path d="M256.3,377.8v-57.7c0,0,0.6-6.1,6.1-6.1c0,0,6.7,0.3,6.7,6.7v57.1C269.1,377.8,256,377.8,256.3,377.8z"/>
			<path d="M265.5,377.8v-27.7h7.5v-21.6l15.4-15.4l-0.5,64.7C287.9,377.8,265.5,378.6,265.5,377.8z"/>
			<path d="M813.1,377.8v-27.7h7.5v-21.6l15.4-15.4l-0.5,64.7C835.5,377.8,813.1,378.6,813.1,377.8z"/>
			<path d="M528.6,377.8v-27.7h7.5V305l15.4-15.4l-0.5,88.2C551,377.8,528.6,378.6,528.6,377.8z"/>
			<path d="M325.4,377.8v-65.7h5.2c5.8,0,10.5,4.7,10.5,10.5v18.9l4.4,4.4V336h11.1v26.4l13.6,15.5H325.4z"/>
			<path d="M832.5,377.8v-65.7h5.2c5.8,0,10.5,4.7,10.5,10.5v18.9l4.4,4.4V336h11.1v26.4l13.6,15.5H832.5z"/>
			<path d="M554.5,377.8v-89.3h5.2c5.8,0,10.5,4.7,10.5,10.5v18.9l4.4,27.9v-33.4h11.1v49.9l13.6,15.5H554.5z"/>
			<path d="M430.6,377.8V278h5.2c5.8,0,10.5,4.7,10.5,10.5v53l4.4,4.4v-44h11.1v60.4l13.6,15.5H430.6z"/>
			<path d="M365.4,338.4v39.4h4.2h17.1v-26.2h-8.2v-17.1c0,0-0.8-0.6-1.9-1.6C372.2,329.4,365.4,332.6,365.4,338.4z"/>
			<path d="M411,304.3v73.5h4.2h17.1v-26.2h-8.2v-51.2c0,0-0.8-0.6-1.9-1.6C417.7,295.3,411,298.5,411,304.3z"/>
			<path d="M236.6,337.6v36c0,2.3,1.9,4.2,4.2,4.2l0,0H258v-26.2h-8.2v-14c0-2-0.9-3.8-2.4-5.1l-0.2-0.1
				C242.9,329.1,236.6,332.1,236.6,337.6z"/>
			<path d="M464.4,303.5v74.3h4.2h64.1v-26.2h-55.1v-48.1c0-2-0.9-3.8-2.4-5.1c-0.1,0-0.1-0.1-0.2-0.1
				C470.7,295,464.4,298,464.4,303.5z"/>
			<path d="M392.2,377.8v-30.2c0-5.3,4.3-43.7,9.7-43.7h6.6v74H392.2z"/>
			<rect x="384.9" y="368.9" width="9.1" height="8.9"/>
			<path d="M654,377.8v-72.4h18.8v20.4h5v22.5h12.3v29.5C690.1,377.8,653.6,378.2,654,377.8z"/>
			<path d="M683.8,377.8v-57.7c0,0,0.6-6.1,6.1-6.1c0,0,6.7,0.3,6.7,6.7v57.1C696.6,377.8,683.5,377.8,683.8,377.8z"/>
			<path d="M625.5,377.8v-57.7c0,0,0.6-6.1,6.1-6.1c0,0,6.7,0.3,6.7,6.7v57.1C638.2,377.8,625.1,377.8,625.5,377.8z"/>
			<path d="M634.7,377.8v-27.7h7.5v-21.6l15.4-15.4l-0.5,64.7C657.1,377.8,634.7,378.6,634.7,377.8z"/>
			<path d="M698.4,377.8v-65.7h5.2c5.8,0,10.5,4.7,10.5,10.5v18.9l4.4,4.4V336h11.1v26.4l13.6,15.5H698.4z"/>
			<path d="M738.5,338.4v39.4h4.2h17.1v-26.2h-8.2v-17.1c0,0-0.8-0.6-1.9-1.6C745.3,329.4,738.5,332.6,738.5,338.4z"/>
			<path d="M605.7,337.6v40.3h4.2h17.1v-26.2h-8.2v-14c0-2-0.9-3.8-2.4-5.1c-0.1,0-0.1-0.1-0.2-0.1
				C612.1,329.1,605.7,332.1,605.7,337.6z"/>
			<path d="M797.7,377.8v-30.2c0-5.3,4.3-9.7,9.7-9.7h6.6v39.9H797.7z"/>
			<rect x="758" y="368.9" width="9.1" height="8.9"/>
			<rect x="509.2" y="315.6" width="21.1" height="62.2"/>
			<rect x="485.1" y="289.3" width="14.2" height="88.5"/>
			<rect x="759.1" y="353.7" width="53.9" height="24.5"/>
			<rect x="576.4" y="363.5" width="53.9" height="14.7"/>
		</g>
		<g class="st4">
			<g>
				<path d="M667.7,378c54.4,0,108.9,0,163.3,0c11.4,0,22.9,0,34.3,0c0.4,0,0.4-0.5,0-0.5c-54.4,0-108.9,0-163.3,0
					c-11.4,0-22.9,0-34.3,0C667.4,377.5,667.4,378,667.7,378L667.7,378z"/>
			</g>
		</g>
		<g class="st4">
			<g>
				<path d="M468.5,376.9c-72.3,0-144.6,0-216.8,0c-0.4,0-0.4,0.5,0,0.5c72.3,0,144.6,0,216.8,0
					C468.8,377.5,468.8,376.9,468.5,376.9L468.5,376.9z"/>
			</g>
		</g>
		<g class="st4">
			<g>
				<path d="M493.9,378c23.8,0,47.6,0,71.4,0c0.4,0,0.4-0.5,0-0.5c-23.8,0-47.6,0-71.4,0C493.6,377.5,493.6,378,493.9,378L493.9,378
					z"/>
			</g>
		</g>
	</g>
	<g>
		<g>
			<path class="st5" d="M541.6,187.4c-2.6-4-11.3-23.7-4.5-31.8c6.8-8,9.9-5.4,9.9-5.4l3.9,6.7L541.6,187.4z"/>
			<path d="M543.2,170.7c0.2-2.5,3.8-20.5,3.8-20.5l3.9,6.7l-9.3,30.5C541.6,187.4,542.3,181.4,543.2,170.7z"/>
			<path class="st6" d="M614,362.8l-101.3-25c-4.7-1.2-7.5-5.9-6.4-10.6l52.9-214.9c1.2-4.7,5.9-7.5,10.6-6.4l101.3,25
				c4.7,1.2,7.5,5.9,6.4,10.6l-52.9,214.9C623.4,361.1,618.7,363.9,614,362.8z"/>
			<path class="st7" d="M615.2,343l-95.2-23.4c-4.1-1-6.7-5.2-5.6-9.3l47.9-194.6c1-4.1,5.2-6.7,9.3-5.6l95.2,23.4
				c4.1,1,6.7,5.2,5.6,9.3l-47.9,194.6C623.6,341.5,619.4,344,615.2,343z"/>
			<path class="st8" d="M642.2,214.3l-86.3-20.9c-2.2-0.5-3.5-2.7-3-4.9l7.1-29.2c0.5-2.2,2.7-3.5,4.9-3l86.3,20.9
				c2.2,0.5,3.5,2.7,3,4.9l-7.1,29.2C646.6,213.5,644.4,214.9,642.2,214.3z"/>
			<path class="st8" d="M571.5,299.8l-41.3-10c-1.2-0.3-1.9-1.5-1.6-2.6l4.7-19.2c0.3-1.2,1.5-1.9,2.6-1.6l41.3,10
				c1.2,0.3,1.9,1.5,1.6,2.6l-4.7,19.2C573.8,299.4,572.6,300.1,571.5,299.8z"/>
			<path class="st8" d="M618.2,311.3l-37.6-8.6c-2.1-0.5-3.3-2.5-2.9-4.6l14.3-62.6c0.5-2.1,2.5-3.3,4.6-2.9l37.6,8.6
				c2.1,0.5,3.3,2.5,2.9,4.6l-14.3,62.6C622.3,310.5,620.3,311.7,618.2,311.3z"/>
			<g class="st9">
				<line class="st10" x1="589.7" y1="230.8" x2="544.6" y2="220.1"/>
				<line class="st10" x1="588.8" y1="234.8" x2="543.7" y2="224"/>
				<line class="st10" x1="587.8" y1="238.4" x2="542.7" y2="227.6"/>
				<line class="st10" x1="586.8" y1="242" x2="541.7" y2="231.2"/>
				<line class="st10" x1="585.6" y1="245.7" x2="540.5" y2="235"/>
				<line class="st10" x1="584.7" y1="249.8" x2="539.6" y2="239.1"/>
			</g>
			<g class="st9">
				<line class="st10" x1="584" y1="254" x2="538.9" y2="243.3"/>
				<line class="st10" x1="583" y1="258" x2="537.9" y2="247.2"/>
				<line class="st10" x1="582.1" y1="261.6" x2="537" y2="250.8"/>
				<line class="st10" x1="581.1" y1="265.2" x2="536" y2="254.4"/>
				<line class="st10" x1="579.9" y1="268.9" x2="534.8" y2="258.2"/>
				<line class="st10" x1="579" y1="273" x2="533.9" y2="262.3"/>
			</g>
			<g class="st9">
				<line class="st10" x1="642.4" y1="218.6" x2="550.8" y2="196.8"/>
				<line class="st10" x1="641.5" y1="222.5" x2="549.9" y2="200.7"/>
				<line class="st10" x1="640.4" y1="226.1" x2="548.8" y2="204.3"/>
				<line class="st10" x1="639.3" y1="229.7" x2="547.7" y2="207.8"/>
				<line class="st10" x1="637.8" y1="233.3" x2="546.1" y2="211.5"/>
				<line class="st10" x1="637" y1="237.5" x2="545.3" y2="215.6"/>
			</g>
			<path class="st11" d="M541.3,344.8c0,0,7.2,40.3,11.3,46.9c4,6.5,9,14.6,9,14.6l7.7,45.8h96.2l-10.8-38.9
				c0,0,23.7-54.1,24.3-98.9s-0.2-75.1-5.6-93.5c-5.4-18.5-7.1-26-15-27.7c-7.9-1.7-11.5,6-12.5,11.4c-0.5,2.9-1,50-1,50l-5.2,37.2
				c0,0-26.9,28.2-40.4,67.6l-27-7.5L541.3,344.8z"/>
			<g>
				<path class="st5" d="M654.5,412.2c-5.6,5-22,12.8-44.2,9.1c0,0,15.3,11.2,25.6,10.2C646.2,430.5,654.5,412.2,654.5,412.2z"/>
			</g>
			<g>
				<g>
					<path d="M610.2,422c14.7,2.3,33,0.9,44.8-9.3c0.7-0.6-0.3-1.5-1-1c-11.4,9.9-29.3,11.1-43.5,8.9
						C609.7,420.5,609.3,421.8,610.2,422L610.2,422z"/>
				</g>
			</g>
			<g>
				<g>
					<path d="M561.6,407.6c3,2.1,6.1,4,9.4,5.7c0.8,0.4,1.5-0.8,0.7-1.2c-3.3-1.7-6.4-3.6-9.4-5.7
						C561.6,405.9,560.9,407.1,561.6,407.6L561.6,407.6z"/>
				</g>
			</g>
			<path class="st5" d="M592.5,383.6c0,0,2.9-11.5,6.8-24.4l-27-7.5c0,0,3.8,9.3,10.7,19.4C584.9,373.8,592.5,383.6,592.5,383.6z"/>
			<g>
				<g>
					<path d="M593.9,379.7c2.5-9.6,5.2-19.2,8-28.8c0.2-0.8-1.1-1.2-1.3-0.4c-2.8,9.6-5.5,19.2-8,28.8
						C592.4,380.2,593.7,380.6,593.9,379.7L593.9,379.7z"/>
				</g>
			</g>
			<path class="st11" d="M526.2,215.9c-3.2,1-9.8,6.3-10.5,16.1c-0.7,9.8,4.2,13.8,8.4,14.3c4.2,0.5,9.1-3.7,10.3-7
				c1.2-3.3,5.8-7.5,4.7-14.9C538.1,217.1,536,212.7,526.2,215.9z"/>
			<g>
				<g>
					<path d="M530.4,245.9c6.2-6.6,10.7-15.1,9.1-24.4c-0.5-2.8-1.2-6-4.1-7.2c-3.1-1.3-6.7-0.4-9.6,0.9c-0.8,0.4-0.1,1.6,0.7,1.2
						c2.8-1.3,7.7-2.4,10.1,0.3c2.1,2.4,2,7.5,1.8,10.5c-0.6,6.8-4.4,12.8-9,17.7C528.8,245.6,529.8,246.6,530.4,245.9L530.4,245.9z
						"/>
				</g>
			</g>
			<path class="st12" d="M517,229.5c-0.6,2.8-0.8,7.6,0.6,10.4c0,0,3,0.3,5.4-0.5c0,0,3-10.3,4.9-13.1c1.9-2.8,3.5-7.1,2.2-8.4
				s-4.6-0.6-5.7-0.3S518.4,222.8,517,229.5z"/>
			<path class="st11" d="M520.6,259.6c-3.8-2-14.2,0.7-17.3,9.8c-3.1,9.1-2,19.1,10,20.5c5.9,0.7,8.8-0.8,12.1-11.9
				c1.4-4.7,1.9-8,1.7-10.4C526.7,263.1,524.1,261.5,520.6,259.6z"/>
			<g>
				<g>
					<path d="M522.4,261.4c3.5,2.1,5.5,4.3,4.7,8.5c-0.5,2.6-1.3,5.3-2.1,7.9c-1.4,4.6-4.1,11-9.5,11.8c-0.9,0.1-0.5,1.4,0.4,1.3
						c6.3-0.8,9.2-8.4,10.7-13.7c2.2-7.4,3.8-12.4-3.5-16.9C522.3,259.7,521.6,260.9,522.4,261.4L522.4,261.4z"/>
				</g>
			</g>
			<path class="st11" d="M499.9,315.6c1.7-4,6.6-4,11-3.7c4.4,0.3,15.4,0.9,15.9,11.7s-4.1,12-12.2,12.9c-8,0.9-13.7,2-15.5-5
				C497.5,324.5,498.5,318.9,499.9,315.6z"/>
			<g>
				<g>
					<path d="M514.5,313c4.7,0.9,12.3,3.3,11.9,9.4c-0.1,0.9,1.3,0.9,1.4,0c0.5-6.8-7.6-9.7-12.9-10.7
						C514,311.5,513.6,312.8,514.5,313L514.5,313z"/>
				</g>
			</g>
			<path class="st12" d="M510.8,334.3c-2-2.6-2.6-15.3-0.9-18.1c0,0,12.8,0.2,13.7,1.6c0.9,1.4,1.7,13.6-1.2,15.1
				C518.1,335.1,510.8,334.3,510.8,334.3z"/>
			<path class="st6" d="M638.5,138.3l-38.7-9.8c-4.9-1.2-7.9-6.2-6.6-11.1l0.7-2.9c0.2-0.8,1.1-1.3,1.9-1.1l53.4,13.5
				c0.8,0.2,1.3,1.1,1.1,1.9l-0.7,2.9C648.4,136.6,643.4,139.6,638.5,138.3z"/>
			
				<ellipse transform="matrix(8.832554e-02 -0.9961 0.9961 8.832554e-02 450.6618 756.4965)" class="st13" cx="638.6" cy="132.1" rx="1.7" ry="1.7"/>
			
				<ellipse transform="matrix(8.832554e-02 -0.9961 0.9961 8.832554e-02 175.9174 870.529)" class="st14" cx="563.5" cy="339.2" rx="4.8" ry="4.8"/>
			
				<ellipse transform="matrix(8.832554e-02 -0.9961 0.9961 8.832554e-02 445.3459 746.3588)" class="st7" cx="630.4" cy="129.9" rx="1.7" ry="1.7"/>
			<path class="st12" d="M503.5,279.9c0,0-0.5-5.9,1.9-11c2.4-5.1,5.4-6.8,7.9-6.8c1.9,0,5.3,1.3,5.9,2.9c1.5,3.8-2.3,11.9-4.1,16.5
				c0,0-0.8,6-6.2,4.1C508.9,285.6,504.1,283.4,503.5,279.9z"/>
			<g>
				<g>
					<path d="M670,217.9c-1.7,1.1-6.3,4-8.2,2.8c-1-0.6-1.4-2.2-1.8-3.2c-0.7-1.5-1.3-3-1.8-4.6c-0.3-0.8-1.6-0.5-1.3,0.4
						c0.7,1.8,1.4,3.6,2.2,5.3c0.5,1.1,1,3.1,2.2,3.6c2.7,1.2,7.5-1.7,9.6-3.1C671.4,218.6,670.8,217.4,670,217.9L670,217.9z"/>
				</g>
			</g>
			<path class="st15" d="M664.1,196.9c0,0-8,1.1-9,2c-1.1,0.9,3.6,20.8,7.9,21.8c4.4,1,8.3-3.7,8.3-3.7S668.5,203.9,664.1,196.9z"/>
			<g>
				<g>
					<path d="M667.7,254.7c3-0.3,5.8-1.1,8.6-2.4c0.8-0.4,0.1-1.5-0.7-1.2c-2.5,1.1-5.1,1.9-7.9,2.2
						C666.9,253.4,666.9,254.8,667.7,254.7L667.7,254.7z"/>
				</g>
			</g>
			<g>
				<g>
					<path d="M670.8,257.8c2.1-0.2,4.1-0.8,6-1.9c0.8-0.5,0.1-1.6-0.7-1.2c-1.6,1-3.4,1.6-5.3,1.7
						C669.9,256.5,669.9,257.8,670.8,257.8L670.8,257.8z"/>
				</g>
			</g>
			<polygon class="st5" points="579.1,364.2 541.3,344.8 572.4,351.7 			"/>
			<polygon class="st8" points="562.3,318.8 567.2,324.9 574.8,321.5 			"/>
		</g>
		<polygon class="st16" points="566.7,436.2 558.1,441.8 568.6,491 681.8,469.1 677.1,436 663,436.2 		"/>
		<path class="st17" d="M568.6,491l113.3-22l5.5-1.6c4.4-1.3,8.9,2,8.9,6.6v40.7H567.2C567.2,514.8,568.6,490,568.6,491z"/>
		<polygon class="st18" points="681.8,469.1 568.6,491 565.2,475.4 647.8,471.5 		"/>
		<g>
			<g>
				<path d="M642.7,449.4c1.4,8.6,2.9,17.1,4.3,25.7c0.1,0.9,1.5,0.5,1.3-0.4c-1.4-8.6-2.9-17.1-4.3-25.7
					C643.9,448.2,642.6,448.6,642.7,449.4L642.7,449.4z"/>
			</g>
		</g>
		<g>
			<g>
				<path d="M650.6,454.7c-1.8,4.4-0.4,10.2,3.4,13.2c4.2,3.3,9.1-0.1,9.8-4.8c0.1-0.9-1.2-1.2-1.3-0.4c-0.3,2.2-1.5,4.5-3.9,5
					c-2.4,0.5-4.3-1.2-5.5-3.1c-1.9-2.9-2.4-6.4-1.1-9.6C652.3,454.3,651,453.9,650.6,454.7L650.6,454.7z"/>
			</g>
		</g>
		<g>
			<g>
				<path d="M574.8,503.1c38.7-9,78.4-13.1,117.1-22.1c0.9-0.2,0.5-1.5-0.4-1.3c-38.7,9-78.4,13.1-117.1,22.1
					C573.6,502,574,503.3,574.8,503.1L574.8,503.1z"/>
			</g>
		</g>
		<g>
			<g>
				<path d="M678.2,475.8c1.9,13.1,2.9,26.2,4.8,39.3c0.1,0.9,1.4,0.5,1.3-0.4c-1.9-13.1-2.9-26.2-4.8-39.3
					C679.4,474.6,678.1,474.9,678.2,475.8L678.2,475.8z"/>
			</g>
		</g>
		<g>
			<g>
				<path d="M569.1,490.3c-2.8-12.4-5.2-24.8-7.3-37.3c-0.5-3-1.6-6.4-1.5-9.4c0-1.8-0.5-0.9,1-2.3c1.7-1.7,3.9-3,5.8-4.5
					c0.7-0.5,0-1.7-0.7-1.2c-2.5,1.9-5,3.8-7.4,5.7c-0.3,0.2-0.4,0.4-0.3,0.8c2.5,16.3,5.5,32.5,9.1,48.6
					C567.9,491.5,569.3,491.1,569.1,490.3L569.1,490.3z"/>
			</g>
		</g>
	</g>
</g>
<path class="st19" d="M303.2,358.4c-1.3-0.4-2.8-0.5-4.3-0.4c-3.1,0.2-6.5,1.2-10.2,2.9c-1.4,0.7-2.9,1.5-4.4,2.3
	c-0.9-1.4-1.8-2.8-2.7-4.1c-2.4-3.3-4.9-5.8-7.5-7.4c-2.6-1.6-5.4-2.4-8-1.6c-2.6,0.7-4.7,2.8-6,5.6c-1.4,2.7-2.2,6.2-2.6,10.3
	c-0.1,1.4-0.2,2.9-0.2,4.4c-1.4,0.1-2.8,0.2-4.1,0.3c-3.9,0.5-7.3,1.4-10,2.8c-2.7,1.4-4.7,3.5-5.4,6.2c-0.7,2.7,0.1,5.4,1.7,8
	c1.6,2.5,4.2,5,7.4,7.3c1.1,0.8,2.4,1.6,3.7,2.4c-1,1.8-1.9,3.5-2.6,5.2c-1.6,3.7-2.6,7.2-2.7,10.2c-0.1,3.1,0.6,5.9,2.6,7.8
	s4.8,2.6,7.9,2.4s6.5-1.2,10.2-2.9c1.4-0.7,2.9-1.4,4.4-2.3c0.9,1.5,1.8,2.9,2.8,4.2c2.4,3.3,4.9,5.8,7.5,7.4s5.4,2.4,8,1.6
	c2.6-0.7,4.7-2.8,6-5.6s2.2-6.2,2.6-10.2c0.2-1.8,0.2-3.8,0.2-5.8c1.6-0.1,3.1-0.2,4.6-0.3c3.9-0.5,7.3-1.4,10-2.8
	c2.7-1.4,4.7-3.5,5.4-6.2c0.7-2.7-0.1-5.4-1.7-8s-4.2-5-7.4-7.3c-1.1-0.8-2.3-1.5-3.5-2.3c0.7-1.4,1.4-2.7,2-4
	c1.6-3.7,2.6-7.2,2.7-10.2c0.1-3.1-0.6-5.9-2.6-7.8C305.7,359.5,304.5,358.8,303.2,358.4z M302.1,361.9c0.8,0.2,1.5,0.6,2,1.1
	c1.1,1,1.6,2.7,1.5,5.1s-0.9,5.5-2.4,8.9c-0.5,1.2-1.1,2.4-1.8,3.6c-3.3-1.8-7-3.4-11.1-4.8c-1.3-3.4-2.8-6.6-4.4-9.4
	c1.4-0.8,2.8-1.6,4.1-2.2c3.4-1.6,6.5-2.4,8.9-2.6C300.3,361.6,301.3,361.7,302.1,361.9z M269.3,353.5c0.9,0.2,1.8,0.6,2.8,1.2
	c2,1.3,4.3,3.5,6.5,6.5c0.9,1.2,1.7,2.5,2.5,3.8c-2.8,1.8-5.6,3.9-8.4,6.2c-4.2-0.7-8.2-1-12-1.1c0-1.4,0.1-2.8,0.2-4
	c0.3-3.7,1.1-6.8,2.2-9s2.4-3.3,3.8-3.7C267.7,353.3,268.5,353.3,269.3,353.5z M283,368.3c1,1.9,2,3.9,2.9,6.1
	c-1.4-0.4-2.7-0.8-4.2-1.2c-1.4-0.4-2.9-0.7-4.3-1C279.4,370.8,281.2,369.5,283,368.3z M280.9,376.7c2.4,0.6,4.6,1.3,6.8,2
	c1,2.6,1.9,5.3,2.7,8.2c0.7,2.5,1.3,5,1.8,7.4c-1.6,1.9-3.3,3.8-5.2,5.7c-1.6,1.7-3.3,3.2-4.9,4.7c-2.6-0.4-5.2-1-7.9-1.7
	c-2.7-0.7-5.4-1.5-7.9-2.4c-0.7-2.1-1.4-4.2-2-6.4c-0.7-2.5-1.3-5-1.8-7.5c1.6-1.9,3.3-3.8,5.2-5.7c2.1-2.1,4.1-4,6.2-5.8
	C276.2,375.6,278.5,376.1,280.9,376.7z M292,380.3c2.8,1.1,5.3,2.3,7.6,3.5c-1.4,2.2-2.9,4.5-4.7,6.9c-0.4-1.6-0.7-3.1-1.2-4.7
	C293.3,384,292.7,382.2,292,380.3z M269.2,374.5c-1.4,1.3-2.8,2.6-4.2,4c-1.2,1.2-2.3,2.4-3.4,3.6c-0.4-2.9-0.7-5.6-0.8-8.2
	C263.5,373.9,266.3,374.1,269.2,374.5z M302.9,385.6c1.1,0.7,2.2,1.4,3.2,2.1c3,2.1,5.2,4.3,6.5,6.3c1.3,2,1.6,3.7,1.3,5.1
	c-0.4,1.4-1.5,2.7-3.6,3.9c-2.1,1.1-5.1,2-8.7,2.4c-1.3,0.2-2.8,0.2-4.2,0.3c-0.2-3.3-0.6-6.8-1.3-10.4
	C298.6,392.1,301,388.8,302.9,385.6z M257.3,374c0.2,3.7,0.6,7.6,1.4,11.7c-2.3,2.9-4.4,5.7-6.2,8.5c-1.2-0.7-2.4-1.5-3.5-2.2
	c-3-2.1-5.2-4.3-6.5-6.3s-1.6-3.7-1.3-5.1c0.4-1.4,1.5-2.7,3.6-3.9c2.1-1.1,5.1-2,8.7-2.4C254.7,374.1,256,374,257.3,374z
	 M279.6,381.9c-4.8-1.2-9.6,1.7-10.9,6.4s1.7,9.6,6.4,10.9c4.8,1.2,9.6-1.7,10.9-6.4C287.2,388,284.3,383.1,279.6,381.9z
	 M259.6,390.4c0.4,1.6,0.8,3.2,1.2,4.8c0.4,1.3,0.7,2.5,1.1,3.7c-2.2-0.9-4.3-1.9-6.3-2.9C256.8,394.2,258.2,392.3,259.6,390.4z
	 M292.9,398.9c0.4,2.4,0.6,4.7,0.8,6.9c-2.2-0.1-4.5-0.2-6.9-0.5c0.9-0.9,1.9-1.8,2.8-2.8C290.8,401.3,291.9,400.1,292.9,398.9z
	 M253.8,399.1c2.9,1.5,6.2,3,9.7,4.3c1.5,4.1,3.2,7.9,5,11.2c-1.4,0.8-2.8,1.6-4.1,2.2c-3.4,1.6-6.5,2.4-8.9,2.6
	c-2.4,0.2-4-0.4-5.1-1.4c-1.1-1-1.6-2.7-1.5-5.1c0.1-2.4,0.9-5.5,2.4-8.9C252,402.4,252.8,400.8,253.8,399.1z M293.8,409.4
	c0,1.9,0,3.8-0.2,5.5c-0.3,3.7-1.1,6.8-2.2,9c-1.1,2.2-2.3,3.3-3.8,3.7s-3.1,0.1-5.2-1.2c-2-1.3-4.3-3.5-6.5-6.5
	c-0.9-1.2-1.7-2.5-2.6-3.9c3.2-2.1,6.6-4.6,9.9-7.5C287,409,290.5,409.3,293.8,409.4z M267.9,404.9c1.8,0.6,3.5,1.1,5.4,1.6
	c1.8,0.5,3.5,0.8,5.3,1.2c-2.4,1.9-4.7,3.6-7,5.1C270.3,410.3,269.1,407.7,267.9,404.9z"/>
<path class="st20" d="M131.8,264.1l-29.3,29.3c-0.5,0.5-0.5,1.4,0,2l7.8,7.8c0.5,0.5,1.4,0.5,2,0l37.1-37.1c0.9-0.9,0.3-2.4-1-2.4
	h-15.6C132.4,263.7,132.1,263.9,131.8,264.1z M149.4,294l-24.1,24.1l-8.8-8.8c-0.5-0.5-0.5-1.4,0-2l15.3-15.3c0.3-0.3,0.6-0.4,1-0.4
	h15.6C149.6,291.6,150.3,293.1,149.4,294z M149.4,322.7l-10.2-10.2l-13.9,5.6l6.6,6.6c0.3,0.3,0.6,0.4,1,0.4h15.6
	C149.6,325,150.3,323.5,149.4,322.7z"/>
<path class="st20" d="M341.5,71.9c-16.4,0-29.7,13.3-29.7,29.7s13.3,29.7,29.7,29.7s29.7-13.3,29.7-29.7c0-4.4-1-8.6-2.7-12.4
	c-1.2,1.9-3,3.4-5.3,4.2c1,2.6,1.5,5.3,1.5,8.2c0,12.8-10.4,23.2-23.2,23.2s-23.2-10.4-23.2-23.2s10.4-23.2,23.2-23.2
	c3.5,0,6.8,0.8,9.7,2.2c0.9-2.1,2.5-3.9,4.5-5C351.5,73.2,346.7,71.9,341.5,71.9z M360.2,77c-3.9,0-7.1,3.2-7.1,7.1s3.2,7.1,7.1,7.1
	c3.9,0,7.1-3.2,7.1-7.1S364.1,77,360.2,77z M341.5,88.7c-7.1,0-12.9,5.8-12.9,12.9c0,7.1,5.8,12.9,12.9,12.9s12.9-5.8,12.9-12.9
	C354.4,94.4,348.6,88.7,341.5,88.7z"/>
<path class="st20" d="M164.2,117.8c-0.5,0-0.9,0.4-0.9,0.9v17l-3.8-2.2c-0.2-0.1-0.5-0.2-0.8-0.2c-0.3,0-0.5,0.1-0.8,0.2l-9.2,5.4
	c-0.5,0.3-0.8,0.8-0.8,1.3V151c0,0.6,0.3,1.1,0.8,1.3l9.2,5.4c0.2,0.1,0.5,0.2,0.8,0.2c0.3,0,0.5-0.1,0.8-0.2l9.2-5.4
	c0.5-0.3,0.8-0.8,0.8-1.3v-5.4v-5.4v-18.6c0-0.5-0.3-1.1-0.8-1.3l-4-2.3C164.5,117.9,164.4,117.8,164.2,117.8z M134,133.3
	c-0.3,0-0.5,0.1-0.8,0.2l-9.2,5.4c-0.5,0.3-0.8,0.8-0.8,1.3V151c0,0.6,0.3,1.1,0.8,1.3l9.2,5.4c0.5,0.3,1.1,0.3,1.6,0l9.2-5.4
	c0.5-0.3,0.8-0.8,0.8-1.3v-10.8c0-0.6-0.3-1.1-0.8-1.3l-9.2-5.4C134.5,133.3,134.2,133.3,134,133.3z M183.4,133.3
	c-0.3,0-0.5,0.1-0.8,0.2l-9.2,5.4c-0.5,0.3-0.8,0.8-0.8,1.3V151c0,0.6,0.3,1.1,0.8,1.3l9,5.4c0.5,0.3,1.1,0.3,1.6,0l4.4-2.6
	c0.5-0.3,0.5-0.9,0-1.2l-9.5-5.6v-5.5l4.6-2.7l4.6,2.7v3.9c0,0.5,0.4,0.6,0.7,0.4c1.2-0.7,4.7-2.7,4.7-2.7c0.5-0.3,0.8-0.8,0.8-1.3
	v-2.9c0-0.6-0.3-1.1-0.8-1.3l-9.2-5.4C183.9,133.3,183.6,133.3,183.4,133.3z M109.3,133.3c-0.3,0-0.5,0.1-0.8,0.2l-9.2,5.4
	c-0.5,0.3-0.8,0.8-0.8,1.4V154c0,0.7,0.7,1.1,1.3,0.8l4.1-2.4c0.5-0.3,0.8-0.8,0.8-1.3v-8.2l4.6-2.7l4.6,2.7v8.2
	c0,0.5,0.3,1.1,0.8,1.3l4.1,2.4c0.6,0.3,1.3-0.1,1.3-0.8v-13.8c0-0.6-0.3-1.1-0.8-1.4l-9.2-5.4C109.8,133.3,109.6,133.3,109.3,133.3
	z M158.7,140.2l4.6,2.7v2.7v2.7l-4.6,2.7l-4.6-2.7v-5.5L158.7,140.2z M183.4,142.5l-2.6,1.5v3.1l2.6,1.5l2.6-1.5v-3.1L183.4,142.5z
	 M146,154.8c-0.3,0-0.6,0.1-0.9,0.2l-8.7,5c-0.6,0.3-0.9,0.9-0.9,1.6v10c0,0.6,0.4,1.3,0.9,1.6l2.3,1.3c1.1,0.5,1.5,0.5,2,0.5
	c1.6,0,2.6-1,2.6-2.7v-9.9c0-0.2-0.1-0.3-0.3-0.3h-1.1c-0.2,0-0.3,0.1-0.3,0.3v9.9c0,0.7-0.8,1.5-2.1,0.9l-2.4-1.4
	c-0.1,0-0.1-0.1-0.1-0.2v-10c0-0.1,0-0.2,0.1-0.2l8.7-5c0.1,0,0.2,0,0.3,0l8.7,5c0.1,0,0.1,0.1,0.1,0.2v10c0,0.1-0.1,0.2-0.1,0.2
	l-8.7,5c-0.1,0-0.2,0-0.3,0l-2.2-1.3c-0.1,0-0.2,0-0.2,0c-0.6,0.4-0.7,0.4-1.3,0.6c-0.2,0-0.4,0.1,0.1,0.4l2.9,1.7
	c0.3,0.2,0.6,0.2,0.9,0.2c0.3,0,0.7-0.1,0.9-0.3l8.7-5c0.6-0.3,0.9-0.9,0.9-1.6v-10c0-0.6-0.4-1.2-0.9-1.6l-8.7-5
	C146.7,154.9,146.3,154.8,146,154.8z M159.6,159.5c-0.9,0-1.7,0.7-1.7,1.7c0,0.9,0.7,1.7,1.7,1.7s1.7-0.8,1.7-1.7
	C161.2,160.2,160.5,159.5,159.6,159.5z M159.6,159.7c0.8,0,1.4,0.6,1.4,1.4c0,0.8-0.6,1.4-1.4,1.4c-0.8,0-1.4-0.6-1.4-1.4
	S158.8,159.7,159.6,159.7z M158.9,160.2v1.9h0.4v-0.7h0.3c0.1,0,0.2,0.1,0.2,0.2c0,0,0.1,0.5,0.1,0.6h0.4c0-0.1-0.1-0.3-0.1-0.5
	c0-0.2-0.1-0.4-0.3-0.4c0.1,0,0.4-0.1,0.4-0.5c0-0.5-0.4-0.5-0.7-0.5H158.9z M159.3,160.5h0.3c0.1,0,0.3,0,0.3,0.3
	c0,0.1,0,0.3-0.3,0.3h-0.3V160.5z M148.4,162c-2.5,0-3.9,1.1-3.9,2.8c0,1.9,1.5,2.4,3.8,2.7c2.8,0.3,3.1,0.7,3.1,1.2
	c0,1-0.8,1.4-2.6,1.4c-2.3,0-2.8-0.6-3-1.7c0-0.1-0.1-0.2-0.3-0.2h-1.1c-0.1,0-0.3,0.1-0.3,0.3c0,1.5,0.8,3.2,4.6,3.2
	c2.8,0,4.4-1.1,4.4-3c0-1.9-1.3-2.4-3.9-2.7c-2.7-0.4-3-0.5-3-1.2c0-0.5,0.2-1.2,2.2-1.2c1.8,0,2.5,0.4,2.7,1.6
	c0,0.1,0.1,0.2,0.2,0.2h1.1c0.1,0,0.1,0,0.2-0.1c0-0.1,0.1-0.1,0.1-0.2C152.5,163,151.1,162,148.4,162z"/>
<path class="st20" d="M400.8,243l-12.6-22.3c-0.8-1.4-2.4-2.3-4-2.3h-25.1c-1.6,0-3.2,0.9-4,2.3L342.7,243c-0.8,1.4-0.8,3.3,0,4.7
	l12.6,22.3c0.8,1.4,2.4,2.3,4,2.3h25.1c1.6,0,3.2-0.9,4-2.3l12.6-22.3C401.6,246.3,401.6,244.4,400.8,243z M383.4,258.8h-4.1
	c-0.2,0-0.4-0.1-0.5-0.3l-7-12.9c0-0.1-0.1-0.1-0.1,0l-7,12.9c-0.1,0.2-0.3,0.3-0.4,0.3h-4.1c-0.4,0-0.7-0.5-0.5-0.8l6.8-12.6
	l-6.8-12.7c-0.2-0.3,0-0.7,0.4-0.8h4.2c0.2,0,0.4,0.1,0.5,0.3l7,12.9c0,0.1,0.1,0.1,0.1,0l7-12.9c0.1-0.2,0.3-0.3,0.5-0.3h4.1
	c0.4,0,0.6,0.5,0.5,0.8l-6.8,12.7l6.8,12.6C384,258.3,383.7,258.8,383.4,258.8z"/>
</svg>
