<svg id="Layer_1" data-name="Layer 1" xmlns="http://www.w3.org/2000/svg" viewBox="0 0 750 500"><defs><style>.cls-1{fill:#3d64f2;}.cls-2{fill:#fff;}.cls-3{fill:none;stroke:#fff;stroke-width:24px;}</style></defs><title>react-native</title><g id="BACKGROUND"><rect class="cls-1" width="750" height="500"/></g><circle class="cls-2" cx="376" cy="252.7" r="37.1"/><path class="cls-3" d="M376,177.2c49.8,0,96.2,7.2,131.1,19.2,42.1,14.5,67.9,36.4,67.9,56.3s-27.4,44-72.6,59C468.3,323,423.3,328.9,376,328.9s-94.5-5.5-129-17.3c-43.7-14.9-70-38.6-70-58.9s24.7-41.5,66.2-56c35-12.2,82.5-19.5,132.8-19.5Z"/><path class="cls-3" d="M310.3,215.1c24.9-43.2,54.2-79.7,82.1-104,33.6-29.2,65.5-40.6,82.7-30.7s24.5,45.7,14.9,92.4c-7.3,35.2-24.6,77.1-48.2,118.1S389.7,370,362.2,394c-34.8,30.4-68.4,41.4-86,31.2s-23.6-42.1-15.4-85.3c6.9-36.5,24.3-81.2,49.4-124.8Z"/><path class="cls-3" d="M310.4,291c-25-43.1-42-86.8-49.1-123-8.5-43.7-2.5-77,14.7-87s51.8,1.7,87.4,33.3c26.9,23.9,54.5,59.8,78.2,100.8s42.5,84.5,49.6,120.3c9,45.3,1.7,79.9-15.9,90.1s-48.3-.6-81.6-29.2C365.7,372,335.6,334.6,310.4,291Z"/></svg>