<svg xmlns="http://www.w3.org/2000/svg" width="192.403" height="200" viewBox="0 0 192.403 200">
  <g id="noun_app_development_1290734" data-name="noun_app development_1290734" transform="translate(-3.8)">
    <g id="Group_8" data-name="Group 8">
      <g id="Group_4" data-name="Group 4">
        <g id="Group_1" data-name="Group 1">
          <rect id="Rectangle_4" data-name="Rectangle 4" width="7.733" height="6.691" transform="translate(96.579 16.508)" fill="#004bb9"/>
          <rect id="Rectangle_5" data-name="Rectangle 5" width="32.987" height="6.691" transform="translate(83.949 176.818)" fill="#004bb9"/>
          <path id="Path_1" data-name="Path 1" d="M140.4,200H62.275a17.158,17.158,0,0,1-17.146-17.129V163.659H51.82v19.212a10.459,10.459,0,0,0,10.454,10.438H140.4a10.452,10.452,0,0,0,10.438-10.438V163.659h6.691v19.212A17.146,17.146,0,0,1,140.4,200Z" fill="#004bb9"/>
          <path id="Path_2" data-name="Path 2" d="M157.531,147.316H150.84V17.144A10.457,10.457,0,0,0,140.4,6.692H62.275A10.464,10.464,0,0,0,51.821,17.144V147.316H45.13V17.144A17.163,17.163,0,0,1,62.275,0H140.4a17.156,17.156,0,0,1,17.13,17.144Z" fill="#004bb9"/>
          <rect id="Rectangle_6" data-name="Rectangle 6" width="105.704" height="6.691" transform="translate(48.479 33.021)" fill="#004bb9"/>
          <rect id="Rectangle_7" data-name="Rectangle 7" width="105.704" height="6.691" transform="translate(48.479 160.313)" fill="#fff"/>
        </g>
        <g id="Group_2" data-name="Group 2">
          <path id="Path_3" data-name="Path 3" d="M83.054,70.939H60.005V47.891H83.054ZM66.7,64.248h9.665V54.582H66.7Z" fill="#004bb9"/>
          <path id="Path_4" data-name="Path 4" d="M142.659,70.939H119.611V47.891h23.048ZM126.3,64.248h9.665V54.582H126.3Z" fill="#004bb9"/>
          <path id="Path_5" data-name="Path 5" d="M112.855,70.939H89.808V47.891h23.048V70.939ZM96.5,64.248h9.665V54.582H96.5Z" fill="#004bb9"/>
          <path id="Path_6" data-name="Path 6" d="M83.054,100.741H60.005V77.693H83.054ZM66.7,94.05h9.665V84.384H66.7Z" fill="#004bb9"/>
          <path id="Path_7" data-name="Path 7" d="M112.855,100.741H89.808V77.693h23.048v23.048ZM96.5,94.05h9.665V84.384H96.5Z" fill="#004bb9"/>
        </g>
        <g id="Group_3" data-name="Group 3">
          <rect id="Rectangle_8" data-name="Rectangle 8" width="7.435" height="6.691" transform="translate(112.484 129.106)" fill="#004bb9"/>
          <rect id="Rectangle_9" data-name="Rectangle 9" width="7.435" height="6.691" transform="translate(97.614 129.106)" fill="#004bb9"/>
          <rect id="Rectangle_10" data-name="Rectangle 10" width="7.435" height="6.691" transform="translate(82.744 129.106)" fill="#004bb9"/>
        </g>
      </g>
      <g id="Group_5" data-name="Group 5">
        <path id="Path_8" data-name="Path 8" d="M179.714,167.005H21.6L3.8,155.489l17.8-11.513H179.714ZM23.577,160.313H173.023v-9.646H23.577l-7.457,4.821Z" fill="#004bb9"/>
        <path id="Path_9" data-name="Path 9" d="M184.538,167.005H173.022V143.977h11.516a11.514,11.514,0,1,1,0,23.028Zm-4.824-6.692h4.824a4.823,4.823,0,1,0,0-9.645h-4.824Z" fill="#004bb9"/>
      </g>
      <g id="Group_6" data-name="Group 6">
        <rect id="Rectangle_11" data-name="Rectangle 11" width="15.23" height="6.692" transform="translate(6.46 73.918)" fill="#004bb9"/>
        <rect id="Rectangle_12" data-name="Rectangle 12" width="16.38" height="6.691" transform="translate(21.69 101.182)" fill="#004bb9"/>
        <rect id="Rectangle_13" data-name="Rectangle 13" width="16.38" height="6.691" transform="translate(21.69 114.806)" fill="#004bb9"/>
        <rect id="Rectangle_14" data-name="Rectangle 14" width="31.61" height="6.692" transform="translate(6.46 87.54)" fill="#004bb9"/>
        <rect id="Rectangle_15" data-name="Rectangle 15" width="16.38" height="6.691" transform="translate(21.69 46.653)" fill="#004bb9"/>
        <rect id="Rectangle_16" data-name="Rectangle 16" width="16.38" height="6.691" transform="translate(21.69 60.283)" fill="#004bb9"/>
        <rect id="Rectangle_17" data-name="Rectangle 17" width="31.61" height="6.691" transform="translate(6.46 33.021)" fill="#004bb9"/>
      </g>
      <g id="Group_7" data-name="Group 7">
        <rect id="Rectangle_18" data-name="Rectangle 18" width="15.23" height="6.691" transform="translate(180.973 73.907)" fill="#004bb9"/>
        <rect id="Rectangle_19" data-name="Rectangle 19" width="16.38" height="6.691" transform="translate(164.593 46.642)" fill="#004bb9"/>
        <rect id="Rectangle_20" data-name="Rectangle 20" width="16.38" height="6.691" transform="translate(164.593 33.021)" fill="#004bb9"/>
        <rect id="Rectangle_21" data-name="Rectangle 21" width="31.61" height="6.691" transform="translate(164.593 60.283)" fill="#004bb9"/>
        <rect id="Rectangle_22" data-name="Rectangle 22" width="16.38" height="6.691" transform="translate(164.593 101.17)" fill="#004bb9"/>
        <rect id="Rectangle_23" data-name="Rectangle 23" width="16.38" height="6.692" transform="translate(164.593 87.54)" fill="#004bb9"/>
        <rect id="Rectangle_24" data-name="Rectangle 24" width="31.61" height="6.691" transform="translate(164.593 114.806)" fill="#004bb9"/>
      </g>
    </g>
  </g>
</svg>
