<svg xmlns="http://www.w3.org/2000/svg" width="509" height="319.738" viewBox="0 0 509 319.738">
  <g id="Group_2" data-name="Group 2" transform="translate(-700.5 -238.262)">
    <g id="Group_1" data-name="Group 1" transform="translate(836.5 238.262)">
      <path id="Path_1" data-name="Path 1" d="M421.256,642.673c5.982-5.055,9.615-13.039,8.662-20.812s-6.855-14.919-14.51-16.57-16.382,2.919-18.707,10.4c-1.28-14.418-2.754-29.439-10.42-41.717-6.941-11.117-18.962-19.072-31.991-20.5s-26.746,3.952-34.871,14.235S309.3,592.943,315,604.75c4.192,8.7,11.916,15.17,20.008,20.435a129.132,129.132,0,0,0,88.318,19.321" transform="translate(-311.75 -327.026)" fill="#f2f2f2"/>
      <path id="Path_2" data-name="Path 2" d="M342.371,560.012a213.074,213.074,0,0,1,62.607,84.657c.6,1.463-1.779,2.1-2.37.653a210.883,210.883,0,0,0-61.975-83.573c-1.227-1,.521-2.728,1.738-1.738Z" transform="translate(-321.817 -329.313)" fill="#fff"/>
      <path id="Path_3" data-name="Path 3" d="M482.743,642.673c-5.982-5.055-9.615-13.039-8.662-20.812s6.855-14.919,14.51-16.57,16.382,2.919,18.707,10.4c1.28-14.418,2.754-29.439,10.42-41.717,6.941-11.117,18.962-19.072,31.991-20.5s26.746,3.952,34.871,14.235S594.694,592.943,589,604.75c-4.192,8.7-11.916,15.17-20.008,20.435a129.132,129.132,0,0,1-88.318,19.321" transform="translate(-369.105 -327.026)" fill="#f2f2f2"/>
      <path id="Path_4" data-name="Path 4" d="M590.88,560.012a213.073,213.073,0,0,0-62.607,84.657c-.6,1.463,1.779,2.1,2.37.653a210.7,210.7,0,0,1,61.975-83.573c1.227-1-.521-2.728-1.738-1.738Z" transform="translate(-388.289 -329.313)" fill="#fff"/>
      <circle id="Ellipse_1" data-name="Ellipse 1" cx="20.037" cy="20.037" r="20.037" transform="translate(111.352 103.417)" fill="#f2f2f2"/>
      <path id="Path_5" data-name="Path 5" d="M389.945,287.388H527.994v7.553H407.568a53.918,53.918,0,0,0-53.918,53.918v85.809H338.545a2.518,2.518,0,0,1-2.518-2.518V341.306a53.918,53.918,0,0,1,53.918-53.918Z" transform="translate(-320.336 -233.005)" fill="#f2f2f2"/>
      <path id="Path_6" data-name="Path 6" d="M460.527,629.478V514.75h33.61V629.478a2.912,2.912,0,0,1-2.909,2.909H463.436a2.912,2.912,0,0,1-2.909-2.909Z" transform="translate(-364.365 -313.411)" fill="#3f3d56"/>
      <path id="Path_7" data-name="Path 7" d="M325.027,429.558V336.267a56.08,56.08,0,0,1,56.016-56.017H523.458V432.789h-195.2A3.236,3.236,0,0,1,325.027,429.558ZM522.165,281.543H381.043a54.786,54.786,0,0,0-54.724,54.724v93.291a1.941,1.941,0,0,0,1.939,1.939H522.165Z" transform="translate(-316.446 -230.481)" fill="#3f3d56"/>
      <path id="Path_8" data-name="Path 8" d="M481.077,337.045a11.647,11.647,0,0,1-11.634-11.634v-83.38a1.941,1.941,0,0,0-1.939-1.939H422.259a3.236,3.236,0,0,1-3.232-3.232V206.482a3.235,3.235,0,0,1,3.232-3.232h67.221a3.235,3.235,0,0,1,3.232,3.232V325.411A11.647,11.647,0,0,1,481.077,337.045Z" transform="translate(-349.689 -203.25)" fill="#2e91fc"/>
      <path id="Path_9" data-name="Path 9" d="M619.869,278.25h0a36.765,36.765,0,0,1,36.842,36.688v106.2H729.1a10.965,10.965,0,0,1,10.988,10.942H583.027V314.938A36.765,36.765,0,0,1,619.869,278.25Z" transform="translate(-407.687 -229.773)" fill="#3f3d56"/>
      <path id="Path_10" data-name="Path 10" d="M626.313,326.483,633.941,358l149.231-36.126-7.629-31.514a2.352,2.352,0,0,0-1.524-1.677,2.323,2.323,0,0,0-.862-.13L686.9,243.885a2.38,2.38,0,0,0-3.01.723l-41.573,57.974L626.64,324.444a.332.332,0,0,0-.057.27A2.354,2.354,0,0,0,626.313,326.483Z" transform="translate(-422.971 -217.528)" fill="#fff"/>
      <path id="Path_11" data-name="Path 11" d="M626.762,324.715a.317.317,0,0,0,.131.2.361.361,0,0,0,.28.055.346.346,0,0,0,.193-.134l.054-.075.816-1.141,14.82-20.66L684.617,245a1.693,1.693,0,0,1,2.147-.515l85.593,44.318.768.4a.823.823,0,0,0,.1.033,1.041,1.041,0,0,1,.175-.017.332.332,0,0,0,.187-.158.339.339,0,0,0-.141-.458l-.106-.056-86.262-44.664a2.38,2.38,0,0,0-3.01.723l-41.573,57.974-15.673,21.862A.332.332,0,0,0,626.762,324.715Z" transform="translate(-423.15 -217.528)" fill="#3f3d56"/>
      <path id="Path_12" data-name="Path 12" d="M694.706,321.077l3.322.368,24.654,2.731,16.344,1.809.965.107,20.394-15.929.781-.61,4.817-3.762,17.137-13.384.1-.94,6.1-55.014a2.879,2.879,0,0,0-2.54-3.175l-81.347-9.011a2.88,2.88,0,0,0-3.175,2.54l-4.3,38.8-2.384,21.514-2.133,19.248-.989,8.939-.289,2.589A2.881,2.881,0,0,0,694.706,321.077Z" transform="translate(-446.276 -210.677)" fill="#e6e6e6"/>
      <path id="Path_13" data-name="Path 13" d="M728.633,294.834l35.237,3.9,12.5,1.384a4.227,4.227,0,1,0,.931-8.4L761.754,290l-32.188-3.569a4.229,4.229,0,1,0-.933,8.407Z" transform="translate(-457.849 -232.656)" fill="#fff"/>
      <path id="Path_14" data-name="Path 14" d="M725.68,318.974c.091.016.182.033.274.042l40.9,4.531,6.83.758a4.229,4.229,0,0,0,.93-8.406l-9.875-1.093-32.4-3.59-5.453-.6a4.227,4.227,0,0,0-1.208,8.362Z" transform="translate(-456.902 -241.209)" fill="#fff"/>
      <path id="Path_15" data-name="Path 15" d="M720.093,341.44a4.226,4.226,0,0,0,3.154,2.02l16.766,1.857,29.86,3.308.007,0,.955.106,4.817-3.762a4.185,4.185,0,0,0,0-.86,4.237,4.237,0,0,0-3.74-3.764l-4.148-.461-16.454-1.821-11.839-1.313-15.293-1.695a4.227,4.227,0,0,0-4.084,6.386Z" transform="translate(-455.945 -249.853)" fill="#fff"/>
      <path id="Path_16" data-name="Path 16" d="M754.8,265.358l8.767.971,3.872.43,5.85.647a4.229,4.229,0,0,0,.93-8.406l-18.485-2.046a4.228,4.228,0,0,0-.934,8.4Z" transform="translate(-467.104 -222.233)" fill="#fff"/>
      <path id="Path_17" data-name="Path 17" d="M645.9,293.7l10.689,44.155,17.84,3.392,16.5,3.142,17.706,3.369,5.658,1.077a2.374,2.374,0,0,0,1.9-.46l4.539-3.545,2.874-2.244L744,326.66l-12.967-53.566a2.846,2.846,0,0,0-.8-1.4,2.875,2.875,0,0,0-2.666-.722l-79.547,19.257A2.876,2.876,0,0,0,645.9,293.7Z" transform="translate(-429.893 -227.173)" fill="#2e91fc"/>
      <path id="Path_18" data-name="Path 18" d="M683.8,351.488a4.231,4.231,0,0,0,5.1,3.114l46.676-11.3a4.233,4.233,0,0,0,3.114-5.1,1.344,1.344,0,0,0-.046-.159,4.226,4.226,0,0,0-5.058-2.955l-46.676,11.3A4.231,4.231,0,0,0,683.8,351.488Z" transform="translate(-443.282 -249.831)" fill="#fff"/>
      <path id="Path_19" data-name="Path 19" d="M690.082,372.271l16.5,3.142,34.958-8.463a4.227,4.227,0,0,0-1.989-8.218l-46.676,11.3a4.2,4.2,0,0,0-2.422,1.623A4.252,4.252,0,0,0,690.082,372.271Z" transform="translate(-445.546 -258.194)" fill="#fff"/>
      <path id="Path_20" data-name="Path 20" d="M743.008,388.215l5.658,1.077a2.374,2.374,0,0,0,1.9-.46l4.539-3.545Z" transform="translate(-464.263 -267.627)" fill="#fff"/>
      <path id="Path_21" data-name="Path 21" d="M698.35,318.646a4.231,4.231,0,0,0,5.1,3.114l18.079-4.376a4.233,4.233,0,0,0,3.114-5.1,4.18,4.18,0,0,0-.779-1.607,4.231,4.231,0,0,0-4.325-1.507l-18.079,4.376A4.228,4.228,0,0,0,698.35,318.646Z" transform="translate(-448.428 -240.665)" fill="#fff"/>
      <path id="Path_22" data-name="Path 22" d="M684.008,359.326l17.709,3.37,5.656,1.077a2.384,2.384,0,0,0,1.9-.46l4.542-3.546-1.594.386-3.365,2.625a1.7,1.7,0,0,1-1.357.328l-4.188-.8-17.709-3.37Zm52.9-18.446.172.712.785-.611Zm-52.9,18.446,17.709,3.37,5.656,1.077a2.384,2.384,0,0,0,1.9-.46l4.542-3.546-1.594.386-3.365,2.625a1.7,1.7,0,0,1-1.357.328l-4.188-.8-17.709-3.37Zm0,0,17.709,3.37,5.656,1.077a2.384,2.384,0,0,0,1.9-.46l4.542-3.546-1.594.386-3.365,2.625a1.7,1.7,0,0,1-1.357.328l-4.188-.8-17.709-3.37Zm-57.7-8.265L646.3,433.607a2.37,2.37,0,0,0,2.858,1.744L793.782,400.34a2.37,2.37,0,0,0,1.744-2.858l-19.983-82.546a2.352,2.352,0,0,0-1.524-1.677,2.323,2.323,0,0,0-.862-.13,2.236,2.236,0,0,0-.979.257,2.058,2.058,0,0,0-.392.244l-11.87,9.269-17.238,13.466-5.775,4.511v0h0l-21.178,16.532-3.5,2.74-3.365,2.625a1.7,1.7,0,0,1-1.357.328l-4.188-.8-17.709-3.37-17.724-3.371-38.821-7.388a2.321,2.321,0,0,0-1,.022,2.372,2.372,0,0,0-1.156.67,2.664,2.664,0,0,0-.319.421,2.354,2.354,0,0,0-.27,1.768Zm57.7,8.265,17.709,3.37,5.656,1.077a2.384,2.384,0,0,0,1.9-.46l4.542-3.546-1.594.386-3.365,2.625a1.7,1.7,0,0,1-1.357.328l-4.188-.8-17.709-3.37Zm0,0,17.709,3.37,5.656,1.077a2.384,2.384,0,0,0,1.9-.46l4.542-3.546-1.594.386-3.365,2.625a1.7,1.7,0,0,1-1.357.328l-4.188-.8-17.709-3.37Zm0,0,17.709,3.37,5.656,1.077a2.384,2.384,0,0,0,1.9-.46l4.542-3.546-1.594.386-3.365,2.625a1.7,1.7,0,0,1-1.357.328l-4.188-.8-17.709-3.37Z" transform="translate(-422.971 -242.108)" fill="#fff"/>
      <path id="Path_23" data-name="Path 23" d="M684.008,359.327l17.709,3.37,5.656,1.077a2.384,2.384,0,0,0,1.9-.46l4.542-3.546-1.594.386-3.365,2.625a1.7,1.7,0,0,1-1.357.328l-4.188-.8-17.709-3.37Zm52.9-18.446.172.712.785-.611Zm-52.9,18.446,17.709,3.37,5.656,1.077a2.384,2.384,0,0,0,1.9-.46l4.542-3.546-1.594.386-3.365,2.625a1.7,1.7,0,0,1-1.357.328l-4.188-.8-17.709-3.37Zm0,0,17.709,3.37,5.656,1.077a2.384,2.384,0,0,0,1.9-.46l4.542-3.546-1.594.386-3.365,2.625a1.7,1.7,0,0,1-1.357.328l-4.188-.8-17.709-3.37Zm-56.767-9.982.088.066c.015-.024.04-.046.06-.071a1.708,1.708,0,0,1,1.542-.5l38.578,7.339,16.5,3.144,17.709,3.37,5.656,1.077a2.384,2.384,0,0,0,1.9-.46l4.542-3.546-1.594.386-3.365,2.625a1.7,1.7,0,0,1-1.357.328l-4.188-.8-17.709-3.37-17.724-3.371-38.821-7.388a2.32,2.32,0,0,0-1,.022Zm-.928,1.717L646.3,433.608a2.37,2.37,0,0,0,2.858,1.744L793.782,400.34a2.37,2.37,0,0,0,1.744-2.858l-19.983-82.546a2.352,2.352,0,0,0-1.524-1.677,2.322,2.322,0,0,0-.862-.13,2.236,2.236,0,0,0-.979.257,2.053,2.053,0,0,0-.392.244l-11.87,9.269-17.239,13.466-5.775,4.511v0H736.9l-21.178,16.532-3.5,2.74-3.365,2.625a1.7,1.7,0,0,1-1.357.328l-4.188-.8-17.709-3.37-17.725-3.371-38.821-7.388a2.32,2.32,0,0,0-1,.022,2.373,2.373,0,0,0-1.156.67,2.664,2.664,0,0,0-.319.421,2.354,2.354,0,0,0-.27,1.768Zm.659-.16a1.679,1.679,0,0,1,.3-1.416.219.219,0,0,1,.059-.076c.015-.024.04-.046.06-.071a1.708,1.708,0,0,1,1.542-.5l38.578,7.339,16.5,3.144,17.709,3.37,5.656,1.077a2.384,2.384,0,0,0,1.9-.46l4.542-3.546,2.872-2.244,20.39-15.931.786-.611,4.813-3.76,17.14-13.386,12.391-9.677a1.683,1.683,0,0,1,.638-.308,1.3,1.3,0,0,1,.2-.032,1.038,1.038,0,0,1,.175-.017,1.732,1.732,0,0,1,.582.095,1.7,1.7,0,0,1,1.09,1.2l19.983,82.546a1.693,1.693,0,0,1-1.248,2.046L649,434.7a1.692,1.692,0,0,1-2.041-1.25Zm57.036,8.424,17.709,3.37,5.656,1.077a2.384,2.384,0,0,0,1.9-.46l4.542-3.546-1.594.386-3.365,2.625a1.7,1.7,0,0,1-1.357.328l-4.188-.8-17.709-3.37Zm0,0,17.709,3.37,5.656,1.077a2.384,2.384,0,0,0,1.9-.46l4.542-3.546-1.594.386-3.365,2.625a1.7,1.7,0,0,1-1.357.328l-4.188-.8-17.709-3.37Zm0,0,17.709,3.37,5.656,1.077a2.384,2.384,0,0,0,1.9-.46l4.542-3.546-1.594.386-3.365,2.625a1.7,1.7,0,0,1-1.357.328l-4.188-.8-17.709-3.37Z" transform="translate(-422.971 -242.108)" fill="#3f3d56"/>
      <path id="Path_24" data-name="Path 24" d="M827.049,417a5.254,5.254,0,0,1,3.866-6.335l18.254-4.419a5.248,5.248,0,0,1,2.469,10.2l-18.254,4.419A5.254,5.254,0,0,1,827.049,417Z" transform="translate(-493.932 -274.987)" fill="#6c63ff"/>
      <circle id="Ellipse_2" data-name="Ellipse 2" cx="4.524" cy="4.524" r="4.524" transform="translate(126.864 117.636)" fill="#fff"/>
    </g>
    <line id="Line_9" data-name="Line 9" x2="509" transform="translate(700.5 557.5)" fill="none" stroke="#3f3d56" stroke-width="1"/>
  </g>
</svg>
