<svg width="100" height="149" viewBox="0 0 100 149" fill="none" xmlns="http://www.w3.org/2000/svg">
<path d="M25 148.998C38.8 148.998 50 137.873 50 124.165V99.332H25C11.2 99.332 0 110.457 0 124.165C0 137.873 11.2 148.998 25 148.998Z" fill="#0ACF83"/>
<path d="M0 74.4992C0 60.7913 11.2 49.666 25 49.666H50V99.3324H25C11.2 99.3324 0 88.2072 0 74.4992Z" fill="#A259FF"/>
<path d="M0 24.8332C0 11.1253 11.2 0 25 0H50V49.6664H25C11.2 49.6664 0 38.5411 0 24.8332Z" fill="#F24E1E"/>
<path d="M50 0H75C88.8 0 100 11.1253 100 24.8332C100 38.5411 88.8 49.6664 75 49.6664H50V0Z" fill="#FF7262"/>
<path d="M100 74.4992C100 88.2072 88.8 99.3324 75 99.3324C61.2 99.3324 50 88.2072 50 74.4992C50 60.7913 61.2 49.666 75 49.666C88.8 49.666 100 60.7913 100 74.4992Z" fill="#1ABCFE"/>
</svg>
