<?xml version="1.0" encoding="utf-8"?>
<!-- Generator: Adobe Illustrator 21.0.2, SVG Export Plug-In . SVG Version: 6.00 Build 0)  -->
<svg version="1.1" xmlns="http://www.w3.org/2000/svg" xmlns:xlink="http://www.w3.org/1999/xlink" x="0px" y="0px"
	 viewBox="0 0 500 500" style="enable-background:new 0 0 500 500;" xml:space="preserve">
<style type="text/css">
	.st0{display:none;}
	.st1{display:inline;fill:#89C3C9;}
	.st2{fill:#3D1F1E;}
	.st3{fill:#F4ACA8;}
	.st4{opacity:0.6;fill:#99665E;}
	.st5{fill:#572E2B;}
	.st6{opacity:0.1;}
	.st7{fill:#05111B;}
	.st8{fill:#99665E;}
	.st9{fill:#FFFFFF;}
	.st10{fill:#EB7C8D;}
	.st11{fill:#331818;}
	.st12{display:inline;}
</style>
<g id="background" class="st0">
	<rect class="st1" width="500" height="500"/>
</g>
<g id="Layer_4" class="st0">
	
		<image style="display:inline;overflow:visible;" width="637" height="615" xlink:href="girl.png"  transform="matrix(0.7988 0 0 0.7988 -2.3841 -0.2449)">
	</image>
</g>
<g id="objects">
	<g>
		<g>
			<polygon class="st2" points="317.8,225.2 276.5,234.6 280.4,171.4 320.3,166.6 			"/>
			<path class="st3" d="M286.2,160.6l0.2,76.5l53.9,11.5c0,0-42.9,38.8-99.2,40.3C184.9,290.5,197,261,197,261l37.6-20.8l2.8-34.7
				L286.2,160.6z"/>
			<path class="st4" d="M234.6,240.1l2.8-34.6l48.9-44.9l0.2,66.4C279.3,227.4,244.7,237,234.6,240.1z"/>
			<path class="st5" d="M174.9,48.3c29.9-37.1,58.6-20.8,58.6-20.8l4,218c-22.2,5.5-34.6,3.8-46.6,1.1c-3.3-8.6-10.9-28.4-14.7-54.6
				c0,0,3,34.3,9.4,52.6c-12-3.3-21.2-8.1-21.2-8.1C144.8,172.7,150.5,78.5,174.9,48.3z"/>
			<path class="st3" d="M244.5,45.2c0,0-57.9,7.2-66.2,49.8c-8.3,42.7-11.2,97.2,25.5,120.6c36.7,23.4,87.3,1.9,108.4-35
				C333.4,143.7,338.1,55.4,244.5,45.2z"/>
			<path class="st6" d="M244.5,45.2c0,0-7,0.9-16.5,3.8c70.8,6.1,79.6,79.9,67.6,115c-12.7,37.2-53.9,65.4-91.3,52
				c36.7,22.8,86.8,1.4,107.9-35.3C333.4,143.7,338.1,55.4,244.5,45.2z"/>
			<path class="st5" d="M218.5,53.3c0,0,3.9,69,87.4,82c0,0,12,69.1-1,102.2c0,0,12.7-2.4,32.6-13.3c0,0,2.2-36.1,0.2-56.2
				c0,0,5.5,39.6,4.4,53.6c0,0,14.1-3,21.7-12.3c7.7-9.3-7.4-111.7-20.4-137.2s-37.2-49.1-59.7-55.7
				C258.3,8.9,217.3,14.5,218.5,53.3z"/>
			<path class="st6" d="M343.4,72c-7-13.8-17.3-27-28.9-37.3c-0.9,33-27,66.5-56.2,83.1c11.9,7.9,27.4,14.3,47.6,17.4
				c0,0,12,69.1-1,102.2c0,0,12.7-2.4,32.6-13.3c0,0,2.2-36.1,0.2-56.2c0,0,5.5,39.6,4.4,53.6c0,0,14.1-3,21.7-12.3
				C371.5,200,356.4,97.5,343.4,72z"/>
			<g>
				<path class="st7" d="M193,138.3c1.3-2.7,3.1-5.2,5.3-7.3c2.2-2.1,4.7-4.1,8.1-4.7c1.7-0.3,3.6,0,5.1,0.9
					c1.5,0.9,2.6,2.2,3.4,3.5c1.6,2.7,2.3,5.7,2.6,8.7c-1.3-2.7-2.5-5.4-4.2-7.6c-1.7-2.2-4-3.5-6.4-3c-1.2,0.2-2.5,0.7-3.7,1.4
					c-1.2,0.6-2.4,1.5-3.5,2.3C197.3,134.2,195.2,136.2,193,138.3z"/>
			</g>
			<g>
				<path class="st7" d="M253.5,139.2c1.3-2.7,3.1-5.2,5.3-7.3c2.2-2.1,4.7-4.1,8.1-4.7c1.7-0.3,3.6,0,5.1,0.9
					c1.5,0.9,2.6,2.2,3.4,3.5c1.6,2.7,2.3,5.7,2.6,8.7c-1.3-2.7-2.5-5.4-4.2-7.6c-1.7-2.2-4-3.5-6.4-3c-1.2,0.2-2.5,0.7-3.7,1.4
					c-1.2,0.6-2.4,1.5-3.5,2.3C257.8,135.2,255.6,137.2,253.5,139.2z"/>
			</g>
			<g>
				<path class="st8" d="M225,139.7c-0.4,2-1.2,3.9-2,5.8c-0.8,1.9-1.8,3.7-2.9,5.4c-1.1,1.7-2.2,3.4-3.4,5.1
					c-1.2,1.7-2.5,3.2-3.8,4.8l-0.2-1.7l2.8,2.4l2.7,2.5c1.8,1.7,3.6,3.4,5.2,5.3c-2.2-1.2-4.3-2.6-6.3-3.9l-3-2.1l-3-2.2l-1-0.7
					l0.8-1l1.9-2.3c0.6-0.8,1.2-1.6,1.8-2.4c0.6-0.8,1.2-1.6,1.8-2.4c0.6-0.8,1.2-1.6,1.8-2.4c1.2-1.6,2.3-3.2,3.5-4.9
					C222.8,143.1,224,141.4,225,139.7z"/>
			</g>
			<path class="st9" d="M268.4,176.9l-56.4,3.4C212,180.3,237.2,205.7,268.4,176.9z"/>
			<path class="st3" d="M355,309.7c-1.5-21.5-6.1-37.9-15.9-42.6c-36.8-17.5-170.6-8.2-167.9,40.6c0.2,3.5,0.5,7.4,1,11.6L355,309.7
				z"/>
			<path class="st10" d="M393.5,320.7c-6.2-26.2-16.3-60.6-31.9-71.2c0,0-9.4-8-50.7-10c0,0-23.3,48-97.9,11.2
				c0,0-53.1,5.6-67.4,42.9c-2.2,5.7-3.3,15.2-3.7,27.2L393.5,320.7z"/>
			<g>
				<path class="st11" d="M182.8,109.7c1.7-3.3,4.3-6.1,7.4-8.4c3.1-2.2,6.7-3.9,10.6-4.4c2-0.3,4-0.3,5.9,0c2,0.3,3.8,0.9,5.6,1.7
					c3.5,1.7,6.5,4.1,8.6,7.1c-3.3-1.7-6.5-3.3-9.8-4.2c-1.6-0.4-3.3-0.8-4.9-0.9c-1.6-0.1-3.3-0.1-4.9,0.2
					c-3.3,0.4-6.5,1.6-9.5,3.1C188.7,105.6,185.8,107.5,182.8,109.7z"/>
			</g>
			<g>
				<path class="st11" d="M249.2,107.6c2-3.1,4.9-5.7,8.1-7.6c3.3-1.9,7.1-3.2,11-3.4c2-0.1,4,0.1,5.9,0.6c1.9,0.5,3.7,1.3,5.4,2.2
					c3.3,2,6,4.7,7.9,7.9c-3.1-2-6.1-3.9-9.3-5.1c-1.6-0.6-3.2-1.1-4.8-1.3c-1.6-0.3-3.3-0.4-4.9-0.3c-3.3,0.1-6.6,1-9.8,2.2
					C255.5,104,252.3,105.7,249.2,107.6z"/>
			</g>
		</g>
	</g>
	<path class="st3" d="M466.7,315.1c-8.7,0.3-26.9-2.9-31.4,3.9c-4.5,6.7-18.9,61.5,1.5,21.6c0,0-6.7,38.6,11.3-1.6
		c0,0-6.5,43.6,10.5-2.1c0,0-3,35.6,13-7.8C471.7,329.1,475.4,314.8,466.7,315.1z"/>
	<path class="st3" d="M39.5,470.8c0,0-13.9-9.6-14.3-18.3c-0.4-8.7-2.2-34.8,4.2-39.8c6.4-5,59.8-23.6,21.6-0.2
		c0,0,37.9-9.7-0.7,11.4c0,0,43-9.8-1.3,10.6c0,0,35.3-5.8-6.7,13.6L39.5,470.8z"/>
</g>
<g id="designed_by_freepik" class="st0">
	<g class="st12">
		<g id="XMLID_319_">
			<g id="XMLID_338_">
				<path id="XMLID_346_" class="st9" d="M261,31.8c-0.4,0.4-0.8,0.9-1.1,1.5l-0.5-0.2c-0.1-0.3-0.3-0.5-0.7-0.5
					c-0.3,0-0.6,0.3-0.5,0.7c0,0.3,0.3,0.6,0.7,0.5c0.1,0,0.1,0,0.2-0.1l0.5,0.2c-0.3,0.6-0.4,1.1-0.5,1.7l0.7,0.1
					c0.2-1.3,0.8-2.5,1.8-3.5L261,31.8z"/>
				<path id="XMLID_345_" class="st9" d="M266.5,29.5c-0.2,0-0.3,0-0.5,0l-0.1-0.6c0.2-0.1,0.3-0.4,0.3-0.6c0-0.4-0.4-0.7-0.8-0.6
					s-0.7,0.4-0.6,0.8c0,0.3,0.2,0.5,0.4,0.6l0.1,0.6c-0.7,0.1-1.4,0.3-2.1,0.6l0.3,0.7c0.9-0.4,1.9-0.7,3-0.7c0.5,0,1,0.1,1.5,0.2
					l0.2-0.7C267.6,29.5,267,29.5,266.5,29.5z"/>
				<path id="XMLID_344_" class="st9" d="M273.1,32c0.3,0,0.6-0.3,0.5-0.7c0-0.3-0.3-0.6-0.7-0.5c-0.3,0-0.5,0.3-0.5,0.6l-0.4,0.4
					c-0.4-0.4-0.9-0.8-1.4-1.1l-0.4,0.6c1.1,0.7,2,1.7,2.6,2.9l0.7-0.3c-0.3-0.6-0.6-1.1-0.9-1.5l0.4-0.4C272.9,32,273,32,273.1,32z
					"/>
				<path id="XMLID_343_" class="st9" d="M265.9,39.7c-0.4,0-0.8,0-1.2,0c-0.9,0-1.7-0.1-2.5-0.2c-0.4-0.1-0.8-0.2-1.3-0.3
					c1,1.9,3.1,3.1,5.4,3.1c2.9,0,5.3-1.9,5.9-4.5c-0.7,0.4-1.5,0.8-2.5,1.1C268.7,39.3,267.3,39.6,265.9,39.7z"/>
				<path id="XMLID_339_" class="st9" d="M266.5,31c-3.4,0-6.1,2.7-6.1,5.9c0,0.4,0,0.8,0.1,1.3c0.7,0.5,2.7,0.9,5.3,0.7
					c2.9-0.2,5.3-1,6.7-2.2c0-0.2,0-0.4,0-0.6C272.1,33.2,269.5,31,266.5,31z M264.3,37.5c-1,0-1.8-0.8-1.8-1.8c0-1,0.8-1.8,1.8-1.8
					c1,0,1.8,0.8,1.8,1.8C266.2,36.7,265.3,37.5,264.3,37.5z M269,36.6c-0.8,0-1.4-0.6-1.4-1.4c0-0.8,0.6-1.4,1.4-1.4
					c0.8,0,1.4,0.6,1.4,1.4C270.4,36,269.8,36.6,269,36.6z"/>
			</g>
			<path id="XMLID_336_" class="st9" d="M282.5,32.8c-0.3-0.1-0.8-0.3-1.4-0.2c-0.6,0.1-0.8,0.3-0.8,1v0.9h2.2v1.7h-2.2v5.5h-1.9
				v-5.5H277v-1.7h1.3v-0.9c0-1.7,0.9-2.8,2.6-2.8c0.6,0,1.2,0.1,1.6,0.3L282.5,32.8z"/>
			<path id="XMLID_334_" class="st9" d="M287.2,36.2c-0.2,0-0.4,0-0.5,0c-0.9,0-1.5,0.5-1.5,1.6v3.9h-1.9v-7.2h1.9v0.8
				c0.5-0.7,1.1-1,2-1c0.4,0,0.8,0.1,1.1,0.3L287.2,36.2z"/>
			<path id="XMLID_331_" class="st9" d="M294.8,38.1c0,0.2,0,0.5,0,0.7h-5.1c0.2,1,0.9,1.5,1.8,1.5c0.6,0,1.3-0.3,1.8-0.7l1.1,1.2
				c-0.8,0.7-1.9,1.1-3.1,1.1c-2.2,0-3.7-1.5-3.7-3.8c0-2.3,1.5-3.8,3.6-3.8C293.4,34.3,294.8,35.8,294.8,38.1z M289.7,37.4h3.2
				c-0.2-0.9-0.7-1.4-1.6-1.4C290.4,36,289.9,36.5,289.7,37.4z"/>
			<path id="XMLID_328_" class="st9" d="M302.5,38.1c0,0.2,0,0.5,0,0.7h-5.1c0.2,1,0.9,1.5,1.8,1.5c0.6,0,1.3-0.3,1.8-0.7l1.1,1.2
				c-0.8,0.7-1.9,1.1-3.1,1.1c-2.2,0-3.7-1.5-3.7-3.8c0-2.3,1.5-3.8,3.6-3.8C301.1,34.3,302.5,35.8,302.5,38.1z M297.4,37.4h3.2
				c-0.2-0.9-0.7-1.4-1.6-1.4C298.1,36,297.6,36.5,297.4,37.4z"/>
			<path id="XMLID_325_" class="st9" d="M310.8,38.1c0,2.2-1.5,3.8-3.5,3.8c-1,0-1.6-0.4-2.1-0.9v3.7h-1.9V34.5h1.9v0.8
				c0.5-0.6,1.2-1,2.1-1C309.3,34.3,310.8,35.9,310.8,38.1z M305.2,38.1c0,1.1,0.7,2,1.8,2c1.1,0,1.9-0.9,1.9-2c0-1.1-0.7-2-1.9-2
				C305.9,36.1,305.2,36.9,305.2,38.1z"/>
			<path id="XMLID_322_" class="st9" d="M313.9,32.1c0,0.7-0.5,1.2-1.2,1.2c-0.7,0-1.2-0.5-1.2-1.2c0-0.7,0.5-1.2,1.2-1.2
				C313.4,30.9,313.9,31.4,313.9,32.1z M313.7,41.7h-1.9v-7.2h1.9V41.7z"/>
			<path id="XMLID_320_" class="st9" d="M316.9,37l2.7-2.6h2.4l-3.5,3.4l3.5,3.8h-2.4l-2.7-2.9v2.9H315V31h1.9V37z"/>
		</g>
		<g>
			<path class="st9" d="M185.3,41.6v-1.1c-0.5,0.7-1.4,1.2-2.4,1.2c-1.8,0-3.1-1.4-3.1-3.7c0-2.3,1.3-3.7,3.1-3.7
				c1,0,1.8,0.5,2.4,1.2v-3.8h1.1v9.8H185.3z M185.3,39.7v-3.2c-0.4-0.6-1.2-1.1-2.1-1.1c-1.4,0-2.3,1.2-2.3,2.7
				c0,1.6,0.8,2.7,2.3,2.7C184,40.8,184.9,40.3,185.3,39.7z"/>
			<path class="st9" d="M187.8,38c0-2.1,1.5-3.7,3.5-3.7c2.1,0,3.4,1.7,3.4,3.8v0.3H189c0.1,1.3,1,2.4,2.5,2.4
				c0.8,0,1.6-0.3,2.2-0.9l0.5,0.7c-0.7,0.7-1.7,1.1-2.8,1.1C189.3,41.8,187.8,40.3,187.8,38z M191.3,35.2c-1.5,0-2.3,1.3-2.3,2.4
				h4.6C193.6,36.6,192.9,35.2,191.3,35.2z"/>
			<path class="st9" d="M195.5,40.7l0.6-0.8c0.5,0.5,1.4,1,2.3,1c1.1,0,1.7-0.5,1.7-1.2c0-1.7-4.4-0.7-4.4-3.3c0-1.1,1-2,2.6-2
				c1.2,0,2.1,0.5,2.6,1l-0.5,0.8c-0.4-0.5-1.2-0.9-2.1-0.9c-1,0-1.6,0.5-1.6,1.1c0,1.6,4.4,0.5,4.4,3.3c0,1.2-1,2.1-2.8,2.1
				C197.2,41.8,196.2,41.4,195.5,40.7z"/>
			<path class="st9" d="M202.4,32.8c0-0.4,0.3-0.7,0.7-0.7c0.4,0,0.7,0.3,0.7,0.7c0,0.4-0.3,0.7-0.7,0.7
				C202.7,33.5,202.4,33.2,202.4,32.8z M202.5,41.6v-7.1h1.1v7.1H202.5z"/>
			<path class="st9" d="M205.5,43.4l0.6-0.8c0.6,0.7,1.3,1,2.3,1c1.2,0,2.3-0.6,2.3-2.1v-1c-0.5,0.7-1.4,1.3-2.4,1.3
				c-1.8,0-3.1-1.4-3.1-3.7c0-2.3,1.3-3.7,3.1-3.7c1,0,1.8,0.5,2.4,1.2v-1.1h1.1v6.9c0,2.3-1.6,3.1-3.4,3.1
				C207.1,44.5,206.3,44.2,205.5,43.4z M210.6,39.6v-3.1c-0.4-0.6-1.2-1.1-2.1-1.1c-1.4,0-2.3,1.1-2.3,2.7c0,1.6,0.8,2.7,2.3,2.7
				C209.4,40.7,210.2,40.2,210.6,39.6z"/>
			<path class="st9" d="M218.3,41.6V37c0-1.2-0.6-1.6-1.6-1.6c-0.9,0-1.7,0.5-2.1,1.1v5.2h-1.1v-7.1h1.1v1c0.5-0.6,1.5-1.2,2.5-1.2
				c1.5,0,2.3,0.7,2.3,2.3v5H218.3z"/>
			<path class="st9" d="M220.8,38c0-2.1,1.5-3.7,3.5-3.7c2.1,0,3.4,1.7,3.4,3.8v0.3H222c0.1,1.3,1,2.4,2.5,2.4
				c0.8,0,1.6-0.3,2.2-0.9l0.5,0.7c-0.7,0.7-1.7,1.1-2.8,1.1C222.3,41.8,220.8,40.3,220.8,38z M224.3,35.2c-1.5,0-2.3,1.3-2.3,2.4
				h4.6C226.6,36.6,225.9,35.2,224.3,35.2z"/>
			<path class="st9" d="M234.2,41.6v-1.1c-0.5,0.7-1.4,1.2-2.4,1.2c-1.8,0-3.1-1.4-3.1-3.7c0-2.3,1.3-3.7,3.1-3.7
				c1,0,1.8,0.5,2.4,1.2v-3.8h1.1v9.8H234.2z M234.2,39.7v-3.2c-0.4-0.6-1.2-1.1-2.1-1.1c-1.4,0-2.3,1.2-2.3,2.7
				c0,1.6,0.8,2.7,2.3,2.7C233,40.8,233.8,40.3,234.2,39.7z"/>
			<path class="st9" d="M240.6,41.6v-9.8h1.1v3.8c0.6-0.8,1.4-1.2,2.4-1.2c1.8,0,3.1,1.5,3.1,3.7c0,2.3-1.3,3.7-3.1,3.7
				c-1,0-1.9-0.5-2.4-1.2v1.1H240.6z M243.8,40.8c1.4,0,2.3-1.2,2.3-2.7c0-1.6-0.8-2.7-2.3-2.7c-0.9,0-1.7,0.5-2.1,1.1v3.2
				C242,40.3,242.9,40.8,243.8,40.8z"/>
			<path class="st9" d="M248.4,43.4c0.2,0.1,0.4,0.1,0.6,0.1c0.5,0,0.8-0.2,1.1-0.7l0.5-1.1l-3-7.1h1.2l2.4,5.8l2.3-5.8h1.2
				l-3.5,8.5c-0.4,1-1.1,1.4-2.1,1.4c-0.2,0-0.6,0-0.8-0.1L248.4,43.4z"/>
		</g>
	</g>
</g>
</svg>
