<svg width="142" height="42" viewBox="0 0 142 42" fill="none" xmlns="http://www.w3.org/2000/svg">
<path d="M7.02295 15.6295V35.9495" stroke="black" stroke-width="2" stroke-miterlimit="10"/>
<path d="M6.65747 20.3199H31.8415C32.493 20.3199 33.1126 20.1153 33.6529 19.7533C35.5754 18.5099 39.3252 14.811 34.3361 7.72815" stroke="black" stroke-width="2" stroke-miterlimit="10"/>
<path d="M13.8393 14.6537C15.9278 14.6537 17.6209 12.9766 17.6209 10.9077C17.6209 8.83879 15.9278 7.16162 13.8393 7.16162C11.7508 7.16162 10.0577 8.83879 10.0577 10.9077C10.0577 12.9766 11.7508 14.6537 13.8393 14.6537Z" stroke="#1F5BDD" stroke-width="2" stroke-miterlimit="10"/>
<path d="M25.4065 14.6537C27.495 14.6537 29.1881 12.9766 29.1881 10.9077C29.1881 8.83879 27.495 7.16162 25.4065 7.16162C23.318 7.16162 21.6249 8.83879 21.6249 10.9077C21.6249 12.9766 23.318 14.6537 25.4065 14.6537Z" stroke="#1F5BDD" stroke-width="2" stroke-miterlimit="10"/>
<path d="M10.0577 9.14478H8.30994V10.8132H10.0577V9.14478Z" fill="#1F5BDD"/>
<path d="M13.8393 12.1511C14.5852 12.1511 15.1899 11.5521 15.1899 10.8132C15.1899 10.0743 14.5852 9.47534 13.8393 9.47534C13.0934 9.47534 12.4888 10.0743 12.4888 10.8132C12.4888 11.5521 13.0934 12.1511 13.8393 12.1511Z" fill="black"/>
<path d="M25.4224 12.4659C26.1683 12.4659 26.773 11.8669 26.773 11.128C26.773 10.3891 26.1683 9.79016 25.4224 9.79016C24.6765 9.79016 24.0718 10.3891 24.0718 11.128C24.0718 11.8669 24.6765 12.4659 25.4224 12.4659Z" fill="black"/>
<path d="M16.3498 8.75128C16.3498 8.75128 19.8772 8.21613 22.7531 8.97164" stroke="#1F5BDD" stroke-width="2" stroke-miterlimit="10"/>
<path d="M47.3333 6.13854C48.239 5.99688 49.4148 5.85522 50.9242 5.85522C52.7674 5.85522 54.1179 6.2802 54.9918 7.05144C55.7863 7.72825 56.2629 8.78281 56.2629 10.0577C56.2629 11.3484 55.8816 12.3715 55.1507 13.127C54.1656 14.1658 52.5449 14.7009 50.7177 14.7009C50.1616 14.7009 49.6372 14.6852 49.2082 14.575V20.32H47.3333V6.13854ZM49.2082 13.064C49.6213 13.1742 50.1298 13.2057 50.7494 13.2057C53.0057 13.2057 54.388 12.1196 54.388 10.1364C54.388 8.24766 53.0375 7.33476 50.9719 7.33476C50.1616 7.33476 49.526 7.39772 49.2082 7.47642V13.064Z" fill="black"/>
<path d="M59.2183 15.5037C59.266 18.0378 60.8866 19.0766 62.7774 19.0766C64.128 19.0766 64.9542 18.8405 65.6533 18.5414L65.9711 19.8793C65.3038 20.1784 64.1598 20.5246 62.5073 20.5246C59.3136 20.5246 57.3911 18.4313 57.3911 15.3305C57.3911 12.2298 59.2342 9.77441 62.269 9.77441C65.6692 9.77441 66.559 12.7335 66.559 14.6223C66.559 15 66.5113 15.2991 66.4954 15.4879H59.2183V15.5037ZM64.7635 14.1658C64.7794 12.9696 64.271 11.128 62.1419 11.128C60.2352 11.128 59.3931 12.8751 59.2342 14.1658H64.7635Z" fill="black"/>
<path d="M68.9265 13.2214C68.9265 12.0095 68.9106 10.9706 68.847 10.0105H70.4995L70.5631 12.0252H70.6425C71.1192 10.6401 72.2473 9.77441 73.5184 9.77441C73.7409 9.77441 73.8839 9.79015 74.0586 9.83737V11.6002C73.868 11.553 73.6773 11.5373 73.4072 11.5373C72.0725 11.5373 71.1351 12.5446 70.865 13.9454C70.8173 14.1973 70.7855 14.4963 70.7855 14.8111V20.3043H68.9106V13.2214H68.9265Z" fill="black"/>
<path d="M76.7916 20.32V11.4428H75.3298V10.0105H76.7916V9.52253C76.7916 8.07447 77.1093 6.75234 77.9991 5.91813C78.7141 5.24132 79.6516 4.95801 80.5414 4.95801C81.2087 4.95801 81.7807 5.09967 82.1462 5.25706L81.8919 6.70512C81.6059 6.5792 81.2246 6.46902 80.6844 6.46902C79.0796 6.46902 78.6665 7.86986 78.6665 9.44383V9.99472H81.1769V11.427H78.6665V20.3042H76.7916V20.32Z" fill="black"/>
<path d="M83.6556 15.5037C83.7033 18.0378 85.324 19.0766 87.2147 19.0766C88.5653 19.0766 89.3915 18.8405 90.0906 18.5414L90.4084 19.8793C89.7411 20.1784 88.5971 20.5246 86.9446 20.5246C83.7509 20.5246 81.8284 18.4313 81.8284 15.3305C81.8284 12.2298 83.6715 9.77441 86.7063 9.77441C90.1065 9.77441 90.9963 12.7335 90.9963 14.6223C90.9963 15 90.9487 15.2991 90.9328 15.4879H83.6556V15.5037ZM89.185 14.1658C89.2009 12.9696 88.6924 11.128 86.5633 11.128C84.6566 11.128 83.8145 12.8751 83.6556 14.1658H89.185Z" fill="black"/>
<path d="M100.768 19.9265C100.275 20.1784 99.1791 20.5246 97.7809 20.5246C94.6508 20.5246 92.6011 18.4155 92.6011 15.2676C92.6011 12.1039 94.7938 9.79016 98.194 9.79016C99.3062 9.79016 100.307 10.0735 100.816 10.3253L100.387 11.7734C99.9418 11.5215 99.2268 11.2854 98.194 11.2854C95.8107 11.2854 94.5236 13.0325 94.5236 15.1731C94.5236 17.5498 96.0649 19.0294 98.1304 19.0294C99.2109 19.0294 99.91 18.7461 100.45 18.5257L100.768 19.9265Z" fill="black"/>
<path d="M105.535 7.05139V10.0105H108.236V11.4428H105.535V16.9989C105.535 18.2738 105.9 18.9978 106.949 18.9978C107.441 18.9978 107.807 18.9349 108.045 18.8719L108.125 20.2728C107.759 20.4144 107.187 20.5246 106.456 20.5246C105.582 20.5246 104.867 20.2413 104.423 19.7376C103.882 19.1867 103.692 18.2738 103.692 17.0619V11.4428H102.087V10.0105H103.692V7.53932L105.535 7.05139Z" fill="black"/>
<path d="M112.478 7.11432C112.494 7.75965 112.033 8.26332 111.271 8.26332C110.603 8.26332 110.127 7.75965 110.127 7.11432C110.127 6.45326 110.619 5.94958 111.302 5.94958C112.033 5.94958 112.478 6.45326 112.478 7.11432ZM110.381 20.32V10.0104H112.272V20.3042H110.381V20.32Z" fill="black"/>
<path d="M124.808 15.0787C124.808 18.8877 122.139 20.5561 119.628 20.5561C116.816 20.5561 114.639 18.51 114.639 15.2518C114.639 11.8048 116.911 9.77441 119.803 9.77441C122.79 9.77441 124.808 11.9308 124.808 15.0787ZM116.562 15.1889C116.562 17.4397 117.865 19.1553 119.724 19.1553C121.535 19.1553 122.886 17.4711 122.886 15.1574C122.886 13.4103 122.012 11.191 119.771 11.191C117.531 11.191 116.562 13.2214 116.562 15.1889Z" fill="black"/>
<path d="M127.191 12.7964C127.191 11.7261 127.176 10.8605 127.112 10.0105H128.78L128.892 11.7104H128.939C129.448 10.7345 130.655 9.77441 132.371 9.77441C133.817 9.77441 136.042 10.6244 136.042 14.1658V20.32H134.151V14.3704C134.151 12.7177 133.531 11.3326 131.752 11.3326C130.512 11.3326 129.543 12.1983 129.209 13.2529C129.13 13.489 129.082 13.8038 129.082 14.1186V20.3043H127.191V12.7964Z" fill="black"/>
<path d="M57.9313 34.8792C57.2481 35.1625 56.0087 35.4931 54.6264 35.4931C52.9739 35.4931 51.6869 35.0209 50.7971 34.045C49.9073 33.0691 49.6213 31.81 49.6213 30.661C49.6213 28.7407 50.3999 26.726 51.9094 25.3724C53.1646 24.2864 54.8488 23.6568 56.7237 23.6568C58.1696 23.6568 59.1389 23.9873 59.4884 24.1919L59.0117 25.4039C58.408 25.1049 57.5976 24.9002 56.5489 24.9002C55.1666 24.9002 53.8955 25.4039 52.9104 26.3168C51.814 27.3399 51.1626 28.9926 51.1626 30.5665C51.1626 32.8016 52.2907 34.2811 54.8965 34.2811C55.5956 34.2811 56.2471 34.1395 56.6919 33.9506L57.3593 30.4878H54.9759L55.1984 29.3231H58.98L57.9313 34.8792Z" fill="#1F5BDD"/>
<path d="M75.87 34.895C75.2503 35.257 74.2175 35.5561 73.0894 35.5561C70.8649 35.5561 69.8957 34.0608 69.8957 32.2192C69.8957 29.7009 71.7706 26.8677 74.4876 26.8677C76.0924 26.8677 76.9504 27.8121 76.9504 29.0083C76.9504 31.1962 74.4717 31.7785 71.3575 31.7313C71.2939 32.0933 71.3416 32.8646 71.5323 33.321C71.8659 34.0608 72.5333 34.4385 73.4072 34.4385C74.3923 34.4385 75.1391 34.1238 75.6634 33.8562L75.87 34.895ZM74.2811 27.9695C72.9146 27.9695 71.8818 29.2917 71.5323 30.5981C73.7885 30.6138 75.5681 30.3305 75.5681 29.0241C75.5681 28.363 75.0437 27.9695 74.2811 27.9695Z" fill="#1F5BDD"/>
<path d="M93.4273 34.895C92.8077 35.257 91.7749 35.5561 90.6467 35.5561C88.4223 35.5561 87.4531 34.0608 87.4531 32.2192C87.4531 29.7009 89.328 26.8677 92.045 26.8677C93.6498 26.8677 94.5078 27.8121 94.5078 29.0083C94.5078 31.1962 92.0291 31.7785 88.9148 31.7313C88.8513 32.0933 88.899 32.8646 89.0896 33.321C89.4233 34.0608 90.0906 34.4385 90.9645 34.4385C91.9496 34.4385 92.6964 34.1238 93.2208 33.8562L93.4273 34.895ZM91.8225 27.9695C90.4561 27.9695 89.4233 29.2917 89.0737 30.5981C91.33 30.6138 93.1095 30.3305 93.1095 29.0241C93.1095 28.363 92.5852 27.9695 91.8225 27.9695Z" fill="#1F5BDD"/>
<path d="M104.931 35.3829L107.267 23.1689H108.713L107.235 30.8341H107.267C107.521 30.5351 107.839 30.236 108.045 29.9842L111.016 27.0566H112.796L109.126 30.4879L111.652 35.3986H110.047L108.029 31.2906L106.965 32.235L106.361 35.3986H104.931V35.3829Z" fill="#1F5BDD"/>
<path d="M122.584 33.9349C122.981 34.171 123.712 34.4543 124.395 34.4543C125.364 34.4543 126 33.8404 126 33.1007C126 32.4396 125.698 32.0461 124.84 31.5739C123.871 31.0388 123.33 30.299 123.33 29.4491C123.33 27.9853 124.602 26.8677 126.365 26.8677C127.128 26.8677 127.811 27.0724 128.113 27.277L127.716 28.363C127.414 28.1899 126.89 27.9853 126.254 27.9853C125.38 27.9853 124.76 28.5204 124.76 29.2444C124.76 29.8425 125.158 30.2203 125.904 30.6453C126.842 31.1804 127.493 31.9044 127.493 32.8331C127.493 34.5959 126.047 35.5718 124.284 35.5718C123.378 35.5718 122.584 35.2885 122.202 35.0052L122.584 33.9349Z" fill="#1F5BDD"/>
<path d="M31.0312 9.14478H29.2834V10.8132H31.0312V9.14478Z" fill="#1F5BDD"/>
</svg>
