<?xml version="1.0" encoding="utf-8"?>
<!-- Generator: Adobe Illustrator 21.0.2, SVG Export Plug-In . SVG Version: 6.00 Build 0)  -->
<svg version="1.1" id="Layer_1" xmlns="http://www.w3.org/2000/svg" xmlns:xlink="http://www.w3.org/1999/xlink" x="0px" y="0px"
	 viewBox="0 0 800 665.5" style="enable-background:new 0 0 800 665.5;" xml:space="preserve">
<style type="text/css">
	.st0{opacity:0.29;}
	.st1{fill:#C9C8C3;}
	.st2{fill:none;stroke:#C9C8C3;stroke-width:2.075;stroke-miterlimit:10;}
	.st3{fill:#FFFFFF;}
	.st4{opacity:0.22;fill:#9F9F9F;enable-background:new    ;}
	.st5{fill:#ED2681;}
	.st6{fill:#00A0C0;}
	.st7{fill:#122832;}
	.st8{fill:#FDB714;}
	.st9{fill:none;stroke:#9F9F9F;stroke-width:0.771;stroke-miterlimit:10;}
	.st10{fill:none;stroke:#9F9F9F;stroke-width:0.771;stroke-miterlimit:10;stroke-dasharray:5.2448,5.2448;}
	.st11{fill:none;stroke:#9F9F9F;stroke-width:0.771;stroke-miterlimit:10;stroke-dasharray:4.9991,4.9991;}
	.st12{fill:#FFFFFF;stroke:#232221;stroke-width:1.744;stroke-miterlimit:10;}
	.st13{fill:none;stroke:#9F9F9F;stroke-width:0.771;stroke-miterlimit:10;stroke-dasharray:5.2314;}
	.st14{opacity:0.4;fill:#3B3A5B;}
	.st15{fill:#FBCCC0;}
	.st16{fill:#EE3052;}
	.st17{fill:#EA8C95;}
	.st18{fill:#F8D9D1;}
	.st19{fill:#2D2D2C;}
	.st20{fill:#7A97CE;}
	.st21{fill:#8CB1DE;}
	.st22{fill:#EDF1FA;}
	.st23{fill:#EF364D;}
	.st24{fill:#FFD187;}
	.st25{fill:#FCBA65;}
	.st26{fill:#3B3A5B;}
	.st27{fill:none;stroke:#EDF1FA;stroke-miterlimit:10;}
</style>
<g class="st0">
	<path class="st1" d="M194.7,126.1h126V28.7H217.6l-22.8,22.8L194.7,126.1L194.7,126.1z"/>
	<path class="st2" d="M323.5,29.9h22.1 M320,25.8V3.7"/>
	<path class="st3" d="M219.6,30.6v22.8h-22.8"/>
</g>
<path class="st4" d="M189.9,306.1l-44,0.5c-1.6,0-3,0.9-3.6,2.3l-4,8.7c-0.2,0.5-0.9,0.3-0.9-0.2l-0.4-10.7l-0.4-42.9
	c0-4.2,3.3-7.6,7.5-7.7l45.5-0.5c4.2,0,7.6,3.3,7.7,7.5l0.4,35.3C197.4,302.6,194.1,306,189.9,306.1L189.9,306.1z"/>
<path class="st5" d="M167.9,296.2l8.2-0.1c0.3,0,0.6-0.3,0.5-0.6l-0.1-14.3c0-0.3-0.3-0.6-0.6-0.5l-8.2,0.1c-0.3,0-0.6,0.3-0.5,0.6
	l0.1,14.3C167.3,295.9,167.5,296.2,167.9,296.2z"/>
<path class="st6" d="M157.5,296.3l8.2-0.1c0.3,0,0.6-0.3,0.5-0.6L166,273c0-0.3-0.3-0.6-0.6-0.5l-8.2,0.1c-0.3,0-0.6,0.3-0.5,0.6
	l0.2,22.6C157,296,157.2,296.3,157.5,296.3z"/>
<path class="st7" d="M148.5,296.4l6.6-0.1c0.5,0,0.9-0.4,0.9-0.9l-0.3-28.8c0-0.5-0.4-0.9-0.9-0.9l-6.6,0.1c-0.5,0-0.9,0.4-0.9,0.9
	l0.3,28.8C147.6,296,148,296.4,148.5,296.4L148.5,296.4z"/>
<circle class="st5" cx="577.5" cy="246.3" r="22"/>
<circle class="st6" cx="608.8" cy="247.2" r="22"/>
<circle class="st8" cx="592.5" cy="274" r="22"/>
<g>
	<path class="st9" d="M525.5,303.1v2.6h2.6"/>
	<path class="st10" d="M533.4,305.7h123.2"/>
	<path class="st9" d="M659.3,305.7h2.6v-2.6"/>
	<path class="st11" d="M661.9,298.1v-77.5"/>
	<path class="st9" d="M661.9,218.1v-2.6h-2.6"/>
	<path class="st10" d="M654,215.5H530.8"/>
	<path class="st9" d="M528.1,215.5h-2.6v2.6"/>
	<path class="st11" d="M525.5,223.1v77.5"/>
</g>
<path class="st12" d="M674.8,227.3h-6.4v-6.4h6.4V227.3z M540.3,227.3h-6.4v-6.4h6.4V227.3z M674.8,314.6h-6.4v-6.4h6.4V314.6z
	 M540.3,314.6h-6.4v-6.4h6.4V314.6z"/>
<path class="st7" d="M560,311.7l4.3,12.3c0.4,1.2,2.1,1.2,2.5,0l8.4-27.2c0.3-1-0.7-2-1.7-1.6l-27.2,9.2c-1.2,0.4-1.2,2.1,0,2.5
	l12.9,4.1C559.5,311,559.8,311.3,560,311.7z"/>
<ellipse transform="matrix(1 -1.117999e-03 1.117999e-03 1 -8.980987e-02 0.5386)" class="st6" cx="481.7" cy="80.6" rx="8.1" ry="8.1"/>
<path class="st13" d="M481.7,81.2l-34.3,0l0-19.8l34.3,0L481.7,81.2z"/>
<g>
	<ellipse class="st14" cx="593.6" cy="619.6" rx="178.8" ry="21.2"/>
	<ellipse class="st14" cx="227.9" cy="568.9" rx="178.8" ry="21.2"/>
	<path class="st15" d="M441.1,299.2c0,0-29.8,59.7-60.1,100.9c-12.1,16.4-24.2,29.9-34.5,35.5c-10.1,5.5-18.7,14-25.8,23.5
		c-18.4,24.5-26.9,55.2-26.9,55.2l-77.5-117.2c0,0,2.6-114.6,11.9-133.7c13.6-27.9,20.1-84.4,25.3-95.6c3.9-8.3,14.9-51.4,16-54.6
		c0.5-1.4,4.1-3.5,8.9-3.4c3.8,0,10.3,3.7,12,11.3c8.3,38.4-1.7,63.8-1.6,64.9c2.9,29.5-5.9,51.4,0.3,57.2c0.2,0.2,0.7,0.1,1.3-0.3
		c10.7-6.9,77-103.5,85.1-105.6C384.1,134.9,441.1,299.2,441.1,299.2z"/>
	<path class="st16" d="M317.1,478.7c0,0-1.1,40.1-4.1,94H117.6c44.7-73.3,83.5-134.9,83.5-134.9S312.4,440.4,317.1,478.7z"/>
	<path class="st15" d="M508.9,97.2l-24,35.2l-23.5,34.5c-1.4,1.7-3.1,2.3-4.9,2.2c-5.6-0.5-12.6-8.7-18.1-13.2l-0.6-0.5
		c-7.2-5.9-8.2-16.7-2.3-23.9l36-43.5v0l10.7-12.9c5.9-7.2,16.7-8.2,23.9-2.3l0.6,0.5C513.8,79.3,514.8,90,508.9,97.2z"/>
	<path class="st17" d="M484.9,132.4l-23.5,34.5c-1.4,1.7-3.1,2.3-4.9,2.2l15.1-81C471.6,88.5,474.1,124.8,484.9,132.4z"/>
	<path class="st17" d="M381,400c-12.1,16.4-24.2,29.9-34.5,35.5c-10.1,5.5-18.7,14-25.8,23.5c-8.2-3.8-17.5-8.3-26.6-12.7
		c-11.1-5.4-11.5-21.1-0.7-26.9c0.1-0.1,0.2-0.1,0.3-0.2c10.2-5.8,20.6-26.4,20.6-26.4L381,400z"/>
	<path class="st18" d="M269,114.8l-6.3,25.3c0,0,5.5,2.2,9,0.5C275.2,138.9,278.1,116.2,269,114.8z"/>
	<g>
		<path class="st19" d="M427.3,412h-90.6c-25.5,0-46.3-20.8-46.3-46.3V113.3c0-25.5,20.8-46.3,46.3-46.3h90.6
			c25.5,0,46.3,20.8,46.3,46.3v252.4C473.6,391.2,452.8,412,427.3,412z"/>
		<g>
			<path class="st20" d="M464.6,93.4v289.8c0,9.8-8,17.9-17.7,17.9H317.2c-9.8,0-17.7-8-17.7-17.9V93.4c0-9.8,8-17.9,17.7-17.9
				h129.6C456.6,75.5,464.6,83.6,464.6,93.4z"/>
			<path class="st21" d="M446.8,75.5l-128,325.6h-1.6c-9.8,0-17.7-8-17.7-17.9V93.4c0-9.8,8-17.9,17.7-17.9H446.8z"/>
		</g>
		<path class="st19" d="M408.5,86.3h-52.9c-4.8,0-8.7-3.9-8.7-8.7l0,0c0-4.8,3.9-8.7,8.7-8.7h52.9c4.8,0,8.7,3.9,8.7,8.7v0
			C417.1,82.4,413.2,86.3,408.5,86.3z"/>
	</g>
	<g>
		<path class="st15" d="M496.9,230l-3.6,1.4l-24.1,9.1c-0.6,0.2-1.1,0.4-1.7,0.5c-8,2.1-16.4-2.2-19.4-10l-0.4-0.9
			c-3.2-8.4,1.1-17.9,9.5-21.1l22.4-8.5l1.6-0.6l3.6-1.4c8.4-3.2,17.9,1.1,21.1,9.5l0.4,0.9C509.6,217.3,505.3,226.8,496.9,230z"/>
		<path class="st22" d="M477.4,230.6c-4,1.5-11.3,4.2-15.2,4.8c-1.1,0.2-3.1-0.4-5-2.5c-1.1-1.2-2.2-3-3-5.5
			c-0.4-1.2-0.7-2.3-0.8-3.5c-0.1-1.4-0.1-2.8,0.1-4.1c0.2-1.2,1.1-2.4,2.3-3c0,0,0,0,0,0c4.1-2,9.7-4.4,14.6-5.7
			c3.4-0.9,6.8,0.6,7.9,3.5l0.5,1.4l2.6,7.1C482.4,226,480.7,229.3,477.4,230.6z"/>
		<path class="st18" d="M477.4,230.6c-4,1.5-11.3,4.2-15.2,4.8c-1.1,0.2-3.1-0.4-5-2.5c-0.2-0.5-0.4-1-0.6-1.5
			c-0.4-1.2-0.7-2.3-0.8-3.5c-0.1-1.4-0.1-2.8,0.1-4.1c0.2-1.2,1.1-2.4,2.3-3c0,0,0,0,0,0c4.1-2,9.7-4.4,14.6-5.7
			c2.2-0.6,4.3-0.2,5.9,0.9l2.6,7.1C482.4,226,480.7,229.3,477.4,230.6z"/>
	</g>
	<g>
		<path class="st15" d="M486,263.9l-18.6,5.1c-5.6,1.5-11.5-1.8-13-7.5l-0.6-2.1c-1.5-5.6,1.8-11.5,7.5-13l18.6-5.1
			c5.6-1.5,11.5,1.8,13,7.5l0.6,2.1C495,256.5,491.6,262.3,486,263.9z"/>
		<path class="st22" d="M476,262.9c-3.4,0.9-9.6,2.5-12.8,2.7c-1.2,0.1-3.5-0.9-5.1-4c-0.4-0.7-0.7-1.6-0.9-2.6
			c-0.2-0.9-0.4-1.8-0.4-2.7c0-1.1,0.1-2.1,0.4-3.2c0.3-0.9,1-1.7,2.1-2.1c0,0,0,0,0,0c3.5-1.2,8.3-2.7,12.4-3.5
			c2.8-0.5,5.5,0.9,6.2,3.2l0.5,1.7l1.4,5C480.4,259.7,478.8,262.2,476,262.9z"/>
		<path class="st18" d="M476,262.9c-3.4,0.9-9.6,2.5-12.8,2.7c-1.2,0.1-3.5-0.9-5.1-4c-0.2-0.8-0.4-1.7-0.4-2.6
			c0-1.1,0.1-2.1,0.4-3.2c0.3-0.9,1-1.7,2.1-2.1c0,0,0,0,0,0c3.5-1.2,8.3-2.7,12.4-3.5c2.3-0.4,4.6,0.5,5.7,2.1l1.4,5
			C480.4,259.7,478.8,262.2,476,262.9z"/>
	</g>
	<path class="st23" d="M182,477.3c0,0,38.2,36.6,63.9,50.7l19.5-13.8v20.4c0,0,38.3,6.8,50.4,0v-55.6l-107.7-54L182,477.3z"/>
	<path class="st24" d="M324,530.1c-14.8,3-46.8-8.6-46.8-8.6l5.2-49.8l-36.1,41.4c-18.4-6.8-47.1-24.7-64.2-35.8
		c-8.5-5.5-14.1-9.4-14.1-9.4c24.1-38.8,48.4-75.1,48.4-75.1c7.1,14.2,24,26.6,42.2,36.5c30.3,16.4,64.6,26,64.6,26
		C323.1,484.9,324,530.1,324,530.1z"/>
	<g>
		<path class="st15" d="M496.3,194.5c-0.1,0-0.3,0.1-0.4,0.1l-24.3,6.2c-10.7,2.7-21.8-3-24.6-12.9l-1.4-5
			c-2.7-9.4,3.1-19.3,13.1-22.5l8-2.1l16.3-4.2c10.7-2.7,21.8,3,24.6,12.9l1.4,5C511.7,181.4,506,191.1,496.3,194.5z"/>
		<path class="st22" d="M485.2,187.7l-11.8,5.3c0,0,0,0-0.1,0c-0.5,0.1-1,0.2-1.4,0.3c-0.2,0-0.4,0.1-0.6,0.1c-0.1,0-0.2,0-0.3,0
			c-1.3,0-2.2-1.4-1.6-2.7c1.1-2.4,1.4-5.2,0.7-8l-0.3-1c0,0,0,0,0,0l-0.9-3.4c-0.7-2.7-2.3-4.9-4.3-6.5c-0.2-0.2-0.5-0.4-0.7-0.6
			c-2.3-1.6-1.7-5.3,1-6c0,0,0,0,0.1,0l13-2c3.2-0.9,6.3,1.6,7.2,4.8l1,3.8l2.2,8.1C489.2,183.2,488.4,186.8,485.2,187.7z"/>
		<path class="st18" d="M485.2,187.7l-11.8,5.3c0,0,0,0-0.1,0c-0.3,0.1-1.1,0.2-2.3,0.4c-1.3,0-2.2-1.4-1.6-2.7
			c1.1-2.4,1.4-5.2,0.7-8l-0.3-1c0,0,0,0,0,0l-0.9-3.4c-0.7-2.7-2.3-4.9-4.3-6.5c0.4-0.6,1-1.1,1.9-1.3c0,0,0,0,0.1,0l13-2
			c2.7-0.7,5.3,0.9,6.6,3.3l2.2,8.1C489.2,183.2,488.4,186.8,485.2,187.7z"/>
	</g>
	<path class="st17" d="M290.4,321c0,0-5.3-46.3-10.2-55.4c-4.9-9-9-27.1-1.5-40.6c7.5-13.4,10.1-39.3,10.1-39.3
		c2.9,29.5-5.9,51.4,0.3,57.2c0.2,0.2,0.7,0.1,1.3-0.3L290.4,321z"/>
	<path class="st15" d="M661.5,613.2H518.1c-6.9-4.6-42.6-29-57.3-47.1c-3.1-3.8-14.6-37-23.4-63.9c-5.5-16.8-10-31.2-10.7-34.5
		c-0.3-1.1-0.4-3.4-0.5-6.5v0c-0.4-11,0.1-32.2,0.7-49.1l0-0.1l0-0.2c0-0.7,0-1.5,0.1-2.2v0c0-0.1,0-0.1,0-0.2
		c0.1-2.9,0.2-5.7,0.3-8.2c0.2-6.3,0.4-11,0.5-12.8l0-0.9c0,0,0,0,0,0c0.2-0.1,7.1-3.8,16.3,2.8c2.2,1.6,4.3,5.5,6.2,10.5
		c1.2,3.2,2.3,6.9,3.4,10.8c4,15,6.9,33,8.5,37.8c2.5,7.8,31.8,42,33.6,44.1c0,0,0.1,0.1,0.1,0.1v-54l-22.1-59.2l-9.1-24.3
		l-4.6-12.2c0,0-7-11.5-12.9-25.3c-2.6-6.1-4.9-12.5-6.4-18.7c-0.3-1.5-0.6-2.9-0.9-4.3c0,0,0,0,0,0c-0.9-5.2-0.9-10.1,0.3-14
		c2.1-7,7-8.3,10.7-8.2c0.4,0,0.8,0,1.1,0.1c0.4,0,0.7,0.1,1.1,0.2c0.7,0.2,1.3,0.4,1.8,0.8c0,0,0,0,0,0c1,0.6,1.8,1.3,2.4,2.2
		c0,0,3.1,4.1,7.3,9.6c2.8,3.6,6,7.8,9.1,11.9c5.5,7.2,10.6,14,12,16c7.6,10.7,28.1,45.6,28.1,45.6l24,1c3.8,0.2,7.4,1.7,10.2,4.3
		c8.5,8,26.9,25.2,29.2,27.8c0,0.8,14.3,7.7,25.3,13.8c7.9,3.3,22.9,15.2,22.9,15.2c3.1,2.7,5.5,5.5,6.7,8.1
		c5.1,11.2,19.1,108.5,25.8,156.7C660,602,661.4,612.4,661.5,613.2z"/>
	<path class="st17" d="M513.8,359.8c0,0,22.2,36.3,25.2,37.9c2.9,1.6,14.4,3.9,15.7,0C556,393.8,513.8,359.8,513.8,359.8z"/>
	<path class="st17" d="M625.5,421.9c0,0-0.1-0.1-0.1-0.1c0,0-15-11.8-22.9-15.2c-10.1-5.6-23-11.9-25.1-13.5
		c2.4,2.7,18.9,21.4,25.3,22.8C608.3,417.2,621,420.7,625.5,421.9z"/>
	<path class="st17" d="M495.8,493.6v-54c0,0,12.8,21.5,13.8,33.2C510.6,484.6,504.2,503.7,495.8,493.6z"/>
	<path class="st22" d="M449.2,295.5c-1.9-3.2-5.2-9-6.4-12.3c-0.3-0.9-0.3-2.8,0.8-4.7c0.7-1.2,1.7-2.4,3.4-3.5
		c0.8-0.5,1.5-1,2.4-1.3c1-0.4,2-0.5,3-0.6c0.9,0,1.9,0.5,2.6,1.5c0,0,0,0,0,0c2.2,3.2,5,7.7,7,11.7c1.3,2.8,0.9,5.9-1,7.3l-0.9,0.7
		l-4.6,3.4C453.5,299.1,450.8,298.2,449.2,295.5z"/>
	<path class="st18" d="M449.2,295.5c-1.9-3.2-5.2-9-6.4-12.3c-0.3-0.9-0.3-2.8,0.8-4.7c0.3-0.3,0.6-0.5,1-0.7c0.8-0.5,1.5-1,2.4-1.3
		c1-0.4,2-0.5,3-0.6c0.9,0,1.9,0.5,2.6,1.5c0,0,0,0,0,0c2.2,3.2,5,7.7,7,11.7c0.9,1.8,1,3.7,0.5,5.2l-4.6,3.4
		C453.5,299.1,450.8,298.2,449.2,295.5z"/>
	<g>
	</g>
	<g>
		<path class="st22" d="M324.4,93.7l-1.8,1.3l-1.9-1.3c0.4-0.6,1.1-1,1.9-1C323.4,92.7,324,93.1,324.4,93.7z"/>
		<g>
			<path class="st22" d="M322.6,89.5c-1.9,0-3.5,0.9-4.5,2.3l1.2,0.8c0.7-1,2-1.7,3.3-1.7c1.4,0,2.6,0.7,3.3,1.7l1.2-0.8
				C326.1,90.4,324.4,89.5,322.6,89.5z"/>
		</g>
		<g>
			<path class="st22" d="M322.6,83.4c-3.9,0-7.4,2-9.5,4.9l1.2,0.8c1.8-2.6,4.9-4.3,8.3-4.3c3.4,0,6.4,1.7,8.3,4.3l1.2-0.8
				C329.9,85.3,326.5,83.4,322.6,83.4z"/>
		</g>
		<g>
			<path class="st22" d="M322.6,86.7c-2.8,0-5.3,1.4-6.8,3.5L317,91c1.2-1.7,3.3-2.9,5.6-2.9c2.3,0,4.3,1.1,5.6,2.8l1.2-0.8
				C327.8,88.1,325.4,86.7,322.6,86.7z"/>
		</g>
	</g>
	<path class="st17" d="M589.5,591.1l-42.8,22.2h-28.5c-6.9-4.6-42.6-29-57.3-47.1c-3.1-3.8-14.6-37-23.4-63.9v0
		c1.2,3.6,25.7,55.9,32.7,61.8c7,5.9,43.7,40.6,53.8,40.2c9.8-0.3,62.1-12.4,65.3-13.1C589.4,591.1,589.4,591.1,589.5,591.1z"/>
	<path class="st25" d="M675.6,613.2H521.3c7.7-3,37.4-14.4,68.1-22.1c0,0,0.1,0,0.1,0c26.4-6.7,53.5-10.7,68.3-4.6l0.1,0.2
		L675.6,613.2z"/>
	<path class="st17" d="M426.9,409.3C426.9,409.3,426.9,409.3,426.9,409.3c2.6-1,6.3-1.6,8,1.4c2.8,4.6-7.5,45.4-8.8,50.5
		L426.9,409.3z"/>
	<path class="st18" d="M427.7,387.4l-0.9,24.6c0,0,5.2,0.8,8.1-1.4C437.9,408.5,436.4,387.1,427.7,387.4z"/>
	<path class="st25" d="M324,530.1c-14.8,3-46.8-8.6-46.8-8.6l5.2-49.8l-36.1,41.4c-18.4-6.8-47.1-24.7-64.2-35.8
		c43.8-4.8,76.5-48,76.5-48c30.3,16.4,64.6,26,64.6,26C323.1,484.9,324,530.1,324,530.1z"/>
	
		<ellipse transform="matrix(9.229614e-03 -1 1 9.229614e-03 -258.7662 708.7199)" class="st23" cx="228.3" cy="484.9" rx="6" ry="6"/>
</g>
<g>
	<path class="st22" d="M407.3,143.4c0,5.8-1.9,11.1-5.2,15.3c-1.1,1.4-2.3,2.7-3.7,3.8c-4.4,3.7-10.1,6-16.3,6c-5.6,0-10.8-1.8-15-5
		c-1.8-1.4-3.5-3-4.9-4.8c-3.3-4.2-5.2-9.6-5.2-15.3c0-13.9,11.3-25.1,25.1-25.1C396,118.2,407.3,129.5,407.3,143.4z"/>
	<path class="st26" d="M392.2,155.2c-0.1-0.1-0.1-0.1-0.2-0.2c-0.3-0.2-0.6-0.4-1.7-0.6c-0.6-0.1-1.4-0.2-2.6-0.4c0,0-0.3,0-0.4,0
		c-0.1,0-0.2,0-0.3,0c-0.3-0.2-0.4-1.6-0.4-3c0-0.1,0-0.2,0-0.3c0-0.6,0-1.1,0-1.6c0,0,0-0.1,0-0.1c0.7,0.1,1.2,0.1,1.2,0.1
		c1.3-0.1,2.2-3.7,2.5-6.6c0,0,0.7-1.6,0.7-3.3c0-1-0.2-2-0.9-2.8c-0.3-0.4-0.7-0.7-0.9-0.8c-0.1-0.1-0.2-0.2-0.3-0.2
		c-1.2-1.4-6.3-6.6-9.6-3.6c-0.1-0.3-1.2-3.7-6.4-2.6c0.3,0,2.7-0.3,3.3,0.7c-0.1,0-2.1-0.9-3.4-0.2c-0.6,0.4-1,1.1-1.2,1.9
		c0,0,0,0,0,0c0,0,0,0,0,0v0c0,0,0,0,0,0c0,0.1,0,0.2-0.1,0.3c0,0,0,0,0,0c0,0,0,0,0,0c0,0,0,0,0,0c-0.2,0.8-0.2,1.6-0.1,2
		c0.2,0.8,1.6,3.3,2.6,3.3c0.4,0,0.8-0.1,1.1-0.3c-0.1,0.4-0.3,0.9-0.4,1.4c-1,4.8,2.2,8.4,3.8,7.5c1.1-0.6,1.9,1.3,1.9,1.3l0,0
		c-0.2,3.5-1.1,5.8-1.8,6.4c-0.3,0-0.8,0.1-1.5,0.2v0c0,0-2.4,0.3-4.3,1.1c0,0,0,0,0,0c-0.4,0.2-0.8,0.4-1.1,0.6c0,0,0,0,0,0v0
		c-0.1,0.1-0.3,0.2-0.3,0.4c0,0.1-0.1,0.1-0.1,0.2c-0.6,1.2-1.2,2.9-1.8,5c3.6,2.7,8,4.2,12.7,4.2c5.3,0,10.1-1.9,13.8-5.1
		C394.7,157.4,393.1,155.9,392.2,155.2z"/>
</g>
<g>
	<path class="st22" d="M326.6,211.1c0,3.6,1.2,6.9,3.3,9.6c0.7,0.9,1.4,1.7,2.3,2.4c2.7,2.3,6.3,3.7,10.2,3.7c3.5,0,6.8-1.2,9.4-3.1
		c1.2-0.9,2.2-1.9,3.1-3c2-2.7,3.3-6,3.3-9.6c0-8.7-7-15.7-15.7-15.7S326.6,202.4,326.6,211.1z"/>
	<path class="st5" d="M350.3,220c0,0,0-0.1-0.1-0.1c-0.1-0.1-0.1-0.2-0.3-0.3l0,0c-0.2-0.2-0.5-0.3-0.8-0.4c0,0,0,0,0,0
		c-1.4-0.6-3.2-0.8-3.2-0.8v0c-0.5-0.1-0.9-0.1-1.1-0.2c-0.1-0.1-0.3-0.3-0.4-0.5v0c-0.4-0.8-0.9-2.2-1-4.2l0,0c0,0,0.6-1.4,1.4-0.9
		c1.2,0.7,3.6-2,2.8-5.5c-0.1-0.4-0.2-0.7-0.3-1.1c0.3,0.1,0.5,0.2,0.8,0.2c0.7,0,1.8-1.8,1.9-2.4c0.1-0.6,0-2.6-1-3.2
		c-0.9-0.6-2.4,0.1-2.5,0.1c0.5-0.7,2.1-0.5,2.4-0.5c-3.8-0.8-4.6,1.7-4.7,1.9c-2.4-2.2-6.2,1.6-7.1,2.6c-0.1,0.1-0.1,0.1-0.2,0.2
		c-0.2,0.1-0.4,0.3-0.7,0.6c-0.5,0.6-0.6,1.3-0.6,2c0,1.3,0.5,2.4,0.5,2.4c0.2,2.1,0.8,4.8,1.8,4.9c0,0,0.4,0,0.9,0c0,0,0,0,0,0.1
		c0,0.4,0,0.8,0,1.2v0.2c0,1.1-0.1,2.1-0.3,2.2c-0.1,0-0.2,0-0.2,0c-0.1,0-0.3,0-0.3,0c-0.9,0.1-1.5,0.2-1.9,0.3
		c-0.9,0.1-1.1,0.2-1.3,0.4c0,0-0.1,0.1-0.1,0.2c-0.6,0.5-1.8,1.6-2.8,3.7c0.1,0.1,0.3,0.3,0.5,0.4c0,0,0.1,0,0.1,0.1
		c0.1,0.1,0.2,0.2,0.4,0.3c0.1,0.1,0.2,0.1,0.3,0.2c0.1,0.1,0.2,0.1,0.3,0.2c0.1,0.1,0.3,0.2,0.4,0.3c0.1,0.1,0.2,0.1,0.3,0.2
		c0.1,0.1,0.2,0.1,0.3,0.2c0.1,0.1,0.2,0.1,0.4,0.2c0,0,0,0,0,0c0,0,0,0,0,0h0c0,0,0,0,0.1,0c0.1,0.1,0.2,0.1,0.3,0.2c0,0,0,0,0,0
		c0,0,0.1,0,0.1,0c0.1,0,0.1,0.1,0.2,0.1c0.1,0,0.1,0,0.2,0.1c0.1,0.1,0.3,0.1,0.4,0.2c0.1,0.1,0.3,0.1,0.4,0.2c0.1,0,0.1,0,0.2,0.1
		c0.1,0,0.1,0,0.2,0.1c0.1,0,0.2,0.1,0.4,0.1c0.1,0,0.3,0.1,0.4,0.1c0.1,0,0.2,0.1,0.3,0.1c0,0,0,0,0,0c0.1,0,0.1,0,0.2,0.1
		c0.4,0.1,0.8,0.2,1.1,0.3c0.2,0,0.3,0.1,0.5,0.1c0,0,0.1,0,0.1,0c0,0,0,0,0,0c0,0,0,0,0,0c0.1,0,0.2,0,0.3,0c0,0,0,0,0.1,0
		c0,0,0,0,0,0c0.1,0,0.2,0,0.3,0c0,0,0,0,0.1,0c0,0,0.1,0,0.1,0c0.2,0,0.4,0,0.6,0h0c0.1,0,0.1,0,0.2,0c0,0,0.1,0,0.1,0
		c0.2,0,0.4,0,0.5,0c3.5,0,6.8-1.2,9.4-3.1C351.2,222.1,350.8,220.8,350.3,220z"/>
</g>
<g>
	<path class="st22" d="M398.8,210.1c0,3.7,1.3,7.2,3.4,9.9c0.7,0.9,1.5,1.7,2.4,2.5c0.9,0.7,1.8,1.4,2.8,1.9
		c2.3,1.2,4.9,1.9,7.7,1.9c3.5,0,6.7-1.1,9.3-2.9c0.1-0.1,0.3-0.2,0.4-0.3c1.2-0.9,2.3-1.9,3.2-3.1c2.1-2.7,3.4-6.2,3.4-9.9
		c0-9-7.3-16.2-16.2-16.2C406.1,193.9,398.8,201.1,398.8,210.1z"/>
	<path class="st8" d="M419.1,220.5l-1.5-1.3c-0.1,0-0.2,0-0.4,0.1c-0.3-0.2-0.6-0.4-0.9-0.5c0.1-0.6,0.2-1.2,0.2-1.7
		c0.2-1.7,0.3-2.8,0.3-2.9c0.8,0,1.3-0.1,1.3-0.1c1.5-0.3,1.6-5.5,1.2-8.1c0.3,0,0.6,0,0.8-0.2c1.1-0.5,1.2-2.2,1.2-2.2
		s-0.3,0.6-0.8,0.8c0,0,1.9-2.6-0.3-4.4c-2.2-1.8-4.4-0.6-5.7-0.5c-2.8,0.2-4.6,0.3-5.5,2.2c-0.9,1.8-0.5,6.8,1.2,8.6
		c0,0.2,0.1,0.3,0.1,0.5c0.1,0.7,0.3,1.2,0.7,1.6c-0.4,2.1-1.3,3.8-2.1,4.8c-0.5,0.4-1,1-1.5,1.6c0,0,0,0,0,0s0,0,0,0
		c-0.8,1.2-1.5,2.8-2.1,4.6c0,0,0,0,0,0c0.9,0.6,1.9,1.2,3,1.6c0.1,0,0.1,0.1,0.2,0.1c0,0,0,0,0,0c0.1,0,0.2,0.1,0.3,0.1
		c0.3,0.1,0.5,0.2,0.8,0.3c0.3,0.1,0.6,0.2,0.9,0.3c0.1,0,0.3,0.1,0.4,0.1c0.1,0,0.2,0.1,0.4,0.1c0,0,0,0,0.1,0c0.1,0,0.2,0,0.2,0
		c0.2,0,0.4,0.1,0.6,0.1c0,0,0.1,0,0.1,0c0.1,0,0.2,0,0.3,0c0.1,0,0.3,0,0.4,0.1c0.2,0,0.3,0,0.5,0c0.2,0,0.3,0,0.5,0
		c0.2,0,0.3,0,0.5,0c0.2,0,0.4,0,0.5,0c0,0,0,0,0,0c0,0,0.1,0,0.1,0c0.1,0,0.2,0,0.3,0c0,0,0,0,0,0c0.2,0,0.3,0,0.5,0
		c2.2-0.2,4.3-0.9,6.1-1.8C421.4,222.8,420.2,221.5,419.1,220.5z"/>
</g>
<g>
	<polyline class="st27" points="382.4,166.8 382.4,183.3 343.3,183.3 343.3,196.1 	"/>
	<polyline class="st27" points="415.1,196.1 415.1,183.3 382,183.3 	"/>
</g>
<g>
	<polyline class="st27" points="341.1,227.2 341.1,238.2 315.1,238.2 315.1,246.7 	"/>
	<polyline class="st27" points="362.8,246.7 362.8,238.2 340.8,238.2 	"/>
</g>
<g>
	<polyline class="st27" points="414.8,227 414.8,238 388.9,238 388.9,246.5 	"/>
	<polyline class="st27" points="436.6,246.5 436.6,238 414.6,238 	"/>
</g>
</svg>
