<?xml version="1.0" encoding="utf-8"?>
<!-- Generator: Adobe Illustrator 21.0.2, SVG Export Plug-In . SVG Version: 6.00 Build 0)  -->
<svg version="1.1" id="Layer_1" xmlns="http://www.w3.org/2000/svg" xmlns:xlink="http://www.w3.org/1999/xlink" x="0px" y="0px"
	 viewBox="0 0 24 24" style="enable-background:new 0 0 24 24;" xml:space="preserve">
<style type="text/css">
	.st0{fill:#4233D3;}
	.st1{fill:none;stroke:#4233D3;stroke-miterlimit:10;}
</style>
<g id="main">
	<path class="st0" d="M14,18.7h-3.2c-0.2,0-0.4,0.2-0.4,0.4s0.2,0.4,0.4,0.4H14c0.2,0,0.4-0.2,0.4-0.4S14.2,18.7,14,18.7z"/>
	<path class="st0" d="M11.6,22.5c0.1,0.1,0.3,0.2,0.5,0.2h0.7c0.2,0,0.4-0.1,0.5-0.2l0.9-0.6h-3.6L11.6,22.5z"/>
	<path class="st0" d="M12.4,6.4C10,6.4,7.7,8,7.7,11c0,2.8,2.5,4.7,2.5,7h1.6c0-1.5-0.7-2.7-1.4-3.9c-0.6-1-1.2-2-1.2-3.1
		c0-2.1,1.6-3,3.2-3c1.5,0,3.2,0.9,3.2,3c0,1.1-0.6,2.1-1.2,3.1c-0.7,1.2-1.4,2.4-1.4,3.9h1.6c0-2.2,2.5-4.1,2.5-7
		C17.2,8,14.8,6.4,12.4,6.4z"/>
	<path class="st0" d="M14,20.3h-3.2c-0.2,0-0.4,0.2-0.4,0.4s0.2,0.4,0.4,0.4H14c0.2,0,0.4-0.2,0.4-0.4S14.2,20.3,14,20.3z"/>
</g>
<line id="one" class="st1" x1="6.5" y1="11" x2="4.5" y2="11"/>
<line id="two" class="st1" x1="8" y1="6.9" x2="6.7" y2="5.5"/>
<line id="three" class="st1" x1="12.5" y1="5.2" x2="12.5" y2="3.7"/>
<line id="four" class="st1" x1="16.6" y1="6.8" x2="18.1" y2="5.3"/>
<line id="five" class="st1" x1="18.4" y1="11.1" x2="20.3" y2="11.1"/>
</svg>
