<svg id="Layer_1" data-name="Layer 1" xmlns="http://www.w3.org/2000/svg" viewBox="0 0 15.8 18.9"><defs><style>.cls-1{fill:#4233d3;}.cls-2{fill:none;stroke:#4233d3;stroke-miterlimit:10;}</style></defs><title>new-homepage -three</title><path class="cls-1" d="M14,18.7H10.8a.4.4,0,0,0,0,.8H14a.4.4,0,0,0,0-.8Z" transform="translate(-4.5 -3.7)"/><path class="cls-1" d="M11.6,22.5l.5.2h.7l.5-.2.9-.6H10.6Z" transform="translate(-4.5 -3.7)"/><path class="cls-1" d="M12.4,6.4A4.5,4.5,0,0,0,7.7,11c0,2.8,2.5,4.7,2.5,7h1.6a7.7,7.7,0,0,0-1.4-3.9A6.5,6.5,0,0,1,9.3,11a3,3,0,0,1,3.2-3,3,3,0,0,1,3.2,3,6.5,6.5,0,0,1-1.2,3.1A7.7,7.7,0,0,0,13,17.9h1.6c0-2.2,2.5-4.1,2.5-7A4.5,4.5,0,0,0,12.4,6.4Z" transform="translate(-4.5 -3.7)"/><path class="cls-1" d="M14,20.3H10.8a.4.4,0,1,0,0,.8H14a.4.4,0,0,0,0-.8Z" transform="translate(-4.5 -3.7)"/><line class="cls-2" x1="1.9" y1="7.2" y2="7.2"/><line class="cls-2" x1="3.5" y1="3.1" x2="2.2" y2="1.8"/><line class="cls-2" x1="7.9" y1="1.5" x2="7.9"/><line class="cls-2" x1="12" y1="3.1" x2="13.6" y2="1.5"/><line class="cls-2" x1="13.9" y1="7.3" x2="15.8" y2="7.3"/></svg>