<svg width="331" height="220" viewBox="0 0 331 220" fill="none" xmlns="http://www.w3.org/2000/svg">
<path d="M141.66 61.1816V0.000565761H0V132.665H35.0676C31.8967 148.833 20.2082 161.406 0 170.389V220C28.9252 214.717 55.2096 204.995 78.8539 190.836C101.176 176.675 117.291 159.558 127.198 139.48C136.838 118.77 141.661 92.6711 141.661 61.1811L141.66 61.1816ZM330.475 61.1811V0H188.815V132.665H223.686C221.177 148.833 209.554 161.406 188.815 170.388V219.999C217.609 214.717 243.828 204.994 267.471 190.835C290.848 176.675 307.03 159.558 316.012 139.48C325.652 118.769 330.473 92.6705 330.473 61.1805L330.475 61.1811Z" fill="#1F5BDD"/>
</svg>
