<svg id="Capa_1" data-name="Capa 1" xmlns="http://www.w3.org/2000/svg" width="256" height="480" viewBox="0 0 256 480"><defs><style>.cls-1{fill:#fff;}.cls-2{fill:#ff1717;}</style></defs><title>remote</title><path class="cls-1" d="M220.1,294l-.4-.3-.3-.5-1.1-.7-1.2-.8-1.9-.5-1-.3H214a7.8,7.8,0,0,0-2.5.4h-.6a7.9,7.9,0,0,0-2.8,1.8L191,310.4a8,8,0,0,0-1.7,2.5l-.3,1a5.8,5.8,0,0,0-.3,3,8.3,8.3,0,0,0,.3,1.7l.5,1.1.4.9a55.7,55.7,0,0,1-2.1,65.8l-.6,1.1-.6,1.2a7.2,7.2,0,0,0-.3,1.7,7.6,7.6,0,0,0-.1,1.2,8.2,8.2,0,0,0,.4,1.8,7.4,7.4,0,0,0,.3,1,7.8,7.8,0,0,0,1.7,2.5l17,17a8,8,0,0,0,2.6,1.7,7.9,7.9,0,0,0,3,.6h.4l1-.3,1.9-.5,1.2-.8,1.2-.8.2-.3.3-.2A96.3,96.3,0,0,0,220.1,294Zm-9.7,102.1-5.8-5.8a71.6,71.6,0,0,0,2.1-73.1l5.8-5.8A80.4,80.4,0,0,1,210.4,396.1Z" transform="translate(-15.7)"/><path class="cls-1" d="M201.5,424.9a7.6,7.6,0,0,0-.3-2.3,6.8,6.8,0,0,0-.2-.9,7.8,7.8,0,0,0-1.8-2.8l-17.4-17.4a6.5,6.5,0,0,0-3.4-1.9,6.7,6.7,0,0,0-2.9-.3l-1.7.3-1.1.4-.6.2a56.3,56.3,0,0,1-59.9-1.9l-.9-.4-1.1-.5-1.7-.3h-1.1l-1.8.4-1,.3a7.9,7.9,0,0,0-2.5,1.6L84.9,416.4a7.9,7.9,0,0,0-1.8,2.8,6.2,6.2,0,0,0-.2.9,8.2,8.2,0,0,0-.3,2.3v.3l.3.9a8.2,8.2,0,0,0,.6,1.9l.8,1.2.7,1.1.5.3.3.4a95.4,95.4,0,0,0,112.4,2.7l.5-.5.6-.4.6-1,.8-1.2a7.5,7.5,0,0,0,.6-1.9l.3-.9C201.6,425.1,201.5,425,201.5,424.9Zm-98.5-4,5.8-5.8a72.4,72.4,0,0,0,65.8,1.9l6,6A79.4,79.4,0,0,1,103.1,420.9Z" transform="translate(-15.7)"/><path class="cls-1" d="M204.4,280.4a7.5,7.5,0,0,0-.5-1.9l-.8-1.2-.7-1.1-.5-.3-.3-.4a96.3,96.3,0,0,0-119.4,2.7l-.2.3-.3.2-.8,1.2-.8,1.2a7.8,7.8,0,0,0-.5,1.9l-.2,1v.2a8,8,0,0,0,.5,2.4c.1.2.1.5.2.8a7.9,7.9,0,0,0,1.8,2.7l17,17a7.8,7.8,0,0,0,8.4,1.8l.8-.4,1.3-.7a55.7,55.7,0,0,1,65.8-2.1l.9.4,1.1.5,1.8.3h1l2-.4.8-.2a8,8,0,0,0,2.5-1.7l17.1-17.1a7.8,7.8,0,0,0,1.8-2.8c.1-.3.1-.6.2-.8a8.3,8.3,0,0,0,.3-2.3v-.3Zm-26,8.5a71.6,71.6,0,0,0-73.1,2.1l-5.8-5.8a80.4,80.4,0,0,1,84.7-2.2Z" transform="translate(-15.7)"/><path class="cls-1" d="M98.6,387.2a7.7,7.7,0,0,0-.3-1.7l-.5-1.1-.4-.9a56.2,56.2,0,0,1-1.9-59.9l.2-.6.4-1.1a8,8,0,0,0,.3-1.7,8.2,8.2,0,0,0,0-1.1,8.1,8.1,0,0,0-.4-1.8l-.3-.9a7.8,7.8,0,0,0-1.6-2.4L76.9,296.5a7.9,7.9,0,0,0-2.7-1.8l-1.1-.2a7.7,7.7,0,0,0-2.2-.3h-.3l-.9.3-1.9.6-1.2.8-1,.6-.4.6-.5.4a94,94,0,0,0-15.6,38A96.8,96.8,0,0,0,67.1,410l.4.4.3.5,2.3,1.5,1.9.6,1,.3h.6a8,8,0,0,0,5.7-2.3l17.2-17.2a8,8,0,0,0,1.7-2.5l.3-1a7.8,7.8,0,0,0,.4-1.9A6.8,6.8,0,0,0,98.6,387.2Zm-23.8,5.4a80.8,80.8,0,0,1-9.9-54.3h0A78.7,78.7,0,0,1,72.7,315l6,6a72.4,72.4,0,0,0,1.9,65.8Z" transform="translate(-15.7)"/><path class="cls-1" d="M143.7,312a40,40,0,1,0,40,40A40,40,0,0,0,143.7,312Zm0,64a24,24,0,1,1,24-24A24,24,0,0,1,143.7,376Z" transform="translate(-15.7)"/><path class="cls-1" d="M231.7,0H55.7a40,40,0,0,0-40,40V440a40,40,0,0,0,40,40h176a40,40,0,0,0,40-40V40A40,40,0,0,0,231.7,0Zm24,440a24,24,0,0,1-24,24H55.7a24,24,0,0,1-24-24V40a24,24,0,0,1,24-24h176a24,24,0,0,1,24,24Z" transform="translate(-15.7)"/><path class="cls-1" d="M151.7,192h-16a24,24,0,0,0,0,48h16a24,24,0,0,0,0-48Zm0,32h-16a8,8,0,0,1,0-16h16a8,8,0,0,1,0,16Z" transform="translate(-15.7)"/><path class="cls-1" d="M79.7,192h-16a24,24,0,1,0,0,48h16a24,24,0,1,0,0-48Zm0,32h-16a8,8,0,1,1,0-16h16a8,8,0,0,1,0,16Z" transform="translate(-15.7)"/><path class="cls-1" d="M223.7,192h-16a24,24,0,0,0,0,48h16a24,24,0,0,0,0-48Zm0,32h-16a8,8,0,0,1,0-16h16a8,8,0,0,1,0,16Z" transform="translate(-15.7)"/><path class="cls-1" d="M151.7,136h-16a24,24,0,0,0,0,48h16a24,24,0,0,0,0-48Zm0,32h-16a8,8,0,0,1,0-16h16a8,8,0,0,1,0,16Z" transform="translate(-15.7)"/><path class="cls-1" d="M79.7,136h-16a24,24,0,0,0,0,48h16a24,24,0,1,0,0-48Zm0,32h-16a8,8,0,1,1,0-16h16a8,8,0,0,1,0,16Z" transform="translate(-15.7)"/><path class="cls-1" d="M223.7,136h-16a24,24,0,0,0,0,48h16a24,24,0,0,0,0-48Zm0,32h-16a8,8,0,0,1,0-16h16a8,8,0,0,1,0,16Z" transform="translate(-15.7)"/><path class="cls-1" d="M151.7,80h-16a24,24,0,0,0,0,48h16a24,24,0,0,0,0-48Zm0,32h-16a8,8,0,0,1,0-16h16a8,8,0,0,1,0,16Z" transform="translate(-15.7)"/><path class="cls-1" d="M223.7,80h-16a24,24,0,0,0,0,48h16a24,24,0,0,0,0-48Zm0,32h-16a8,8,0,0,1,0-16h16a8,8,0,0,1,0,16Z" transform="translate(-15.7)"/><path class="cls-1" d="M223.7,32h-32a8,8,0,0,0,0,16h32a8,8,0,0,0,0-16Z" transform="translate(-15.7)"/><path class="cls-1" d="M87.7,32h-32a8,8,0,0,0,0,16h32a8,8,0,0,0,0-16Z" transform="translate(-15.7)"/><rect class="cls-2" x="21.9" y="79.3" width="63.3" height="48" rx="24" ry="24"/></svg>