<svg xmlns="http://www.w3.org/2000/svg" xmlns:xlink="http://www.w3.org/1999/xlink" viewBox="0 0 100 100" xmlns:v="https://vecta.io/nano"><style><![CDATA[.I{fill:#fff}.J{fill:#db1b1b}.K{fill:#dbdbdb}.L{fill:#c11a1a}]]></style><circle cx="50" cy="50" r="49" fill="#fc4581"/><path d="M76.1 8.5H23.9c.9-.6 1.9-1.1 2.9-1.7C33.6 3.1 41.3 1.1 49.2 1h1.7c.9 0 1.9.1 2.8.1 7.9.6 15.7 3.2 22.4 7.4h0z" class="J"/><path d="M85.4 16.1H14.6l.1-.1 2.8-2.6 2.8-2.3c1.1-.9 2.3-1.7 3.5-2.4h52.3c3.4 2 6.5 4.5 9.3 7.4z" class="I"/><path d="M91.3 23.6H8.7l2.2-3.2 3.7-4.4h70.7c2.3 2.4 4.3 4.9 6 7.6h0z" class="J"/><path d="M95.2 31.2H4.8c.2-.6.4-1.2.7-1.7.8-1.8 1.8-3.6 2.8-5.2.1-.2.3-.4.4-.6h82.6c1.5 2.3 2.9 4.8 3.9 7.5z" class="I"/><path d="M97.7 38.7H2.3l1-3.4c.4-1.4.9-2.8 1.5-4.1h90.5c1 2.4 1.8 4.9 2.4 7.5z" class="J"/><path d="M98.9 46.2H1.1c.2-2.5.6-5.1 1.2-7.5h95.4a48.76 48.76 0 0 1 1.2 7.5h0z" class="I"/><path d="M99 50l-.1 3.8H1.1C1 52.5 1 51.3 1 50v-2.4c0 .1 0 .1.1.2v-.4c0-.4 0-.7.1-1.1h97.7c.1 1.2.1 2.4.1 3.7z" class="J"/><path d="M98.9,53.8c-0.2,2.5-0.6,5.1-1.2,7.5H2.3c-0.6-2.5-1-5-1.2-7.5H98.9z" class="I"/><path d="M97.7 61.3c-.6 2.6-1.4 5.1-2.4 7.5H4.8c-1-2.4-1.8-5-2.4-7.5h95.3z" class="J"/><path d="M95.2,68.8c-1.1,2.6-2.4,5.1-3.9,7.5H8.7c-1.5-2.4-2.9-4.9-3.9-7.5H95.2z" class="I"/><path d="M91.3,76.4c-1.7,2.7-3.7,5.2-5.9,7.5H14.6c-2.2-2.3-4.2-4.8-5.9-7.5H91.3z" class="J"/><path d="M85.4,83.9c-2.8,2.9-5.9,5.4-9.2,7.5H23.9c-3.4-2.1-6.5-4.7-9.2-7.5H85.4z" class="I"/><path d="M76.1 91.5C68.6 96.2 59.9 98.8 51 99h-2c-8.9-.2-17.6-2.8-25.2-7.5h52.3z" class="J"/><path d="M53.6 1.1v52.6H1.1C1 52.5 1 51.3 1 50v-2.4c0 .1 0 .1.1.2v-.4c0-.4 0-.7.1-1.1.2-2.5.6-5.1 1.2-7.5l1-3.4c.4-1.4.9-2.8 1.5-4.1.1-.7.3-1.3.6-1.8.8-1.8 1.8-3.6 2.8-5.2.1-.2.3-.4.4-.6l2.2-3.2c1.1-1.5 2.4-3 3.7-4.4l.1-.1 2.8-2.6 2.8-2.3c1.1-.9 2.3-1.7 3.5-2.4.9-.6 1.9-1.1 2.9-1.7 6.9-3.9 14.6-5.9 22.5-6h1.7c.9 0 1.8.1 2.7.1h0z" fill="#3e436d"/><g class="I"><path d="M48 4.1l.7 2.1c0 .1.2.2.3.2h2.2c.2 0 .3.2.3.4 0 .1-.1.2-.1.3l-1.8 1.3c-.1.1-.2.2-.1.4l.7 2.1c.1.2-.1.4-.2.4s-.2 0-.3-.1l-1.8-1.3c-.1-.1-.3-.1-.4 0l-1.8 1.3c-.2.1-.4.1-.5-.1-.1-.1-.1-.2-.1-.3l.7-2.1c0-.1 0-.3-.1-.4L43.9 7c-.2-.1-.2-.3-.1-.5.1-.1.2-.1.3-.1h2.2c.2 0 .3-.1.3-.2l.7-2.1c.1-.2.2-.3.4-.2.1 0 .2.1.3.2h0z"/><use xlink:href="#B"/><path d="M48 20.2l.7 2.1c0 .1.2.2.3.2h2.2c.2 0 .3.2.3.3s-.1.2-.1.3l-1.8 1.3c-.1.1-.2.2-.1.4l.7 2.1c.1.2-.1.4-.2.4s-.2 0-.3-.1l-1.8-1.3c-.1-.1-.3-.1-.4 0l-1.8 1.3c-.2.1-.4.1-.5-.1-.1-.1-.1-.2-.1-.3l.7-2.1c0-.1 0-.3-.1-.4L43.9 23c-.2-.1-.2-.3-.1-.5.1-.1.2-.1.3-.1h2.2c.2 0 .3-.1.3-.2l.7-2.1c.1-.2.3-.3.4-.2.2.1.2.2.3.3h0zm-12.4 0l.7 2.1c0 .1.2.2.3.2h2.2c.2 0 .3.2.3.3s-.1.2-.1.3l-1.8 1.3c-.1.1-.2.2-.1.4l.7 2.1c.1.2 0 .4-.2.4-.1 0-.2 0-.3-.1l-1.8-1.3c-.1-.1-.3-.1-.4 0l-1.7 1.3c-.2.1-.4.1-.5-.1-.1-.1-.1-.2-.1-.3l.7-2.1c0-.1 0-.3-.1-.4L31.6 23c-.2-.1-.2-.3-.1-.5.1-.1.2-.1.3-.1H34c.2 0 .3-.1.3-.2l.7-2.1c.1-.2.2-.3.4-.2.1.1.2.2.2.3h0z"/><use xlink:href="#C"/><path d="M48 36.5l.7 2.1c0 .1.2.2.3.2h2.2c.2 0 .3.2.3.3s-.1.2-.1.3l-1.8 1.3c-.1.1-.2.2-.1.4l.7 2.1c.1.2-.1.4-.2.4s-.2 0-.3-.1l-1.8-1.3c-.1-.1-.3-.1-.4 0l-1.8 1.3c-.2.1-.4.1-.5-.1-.1-.1-.1-.2-.1-.3l.7-2.1c0-.1 0-.3-.1-.4l-1.8-1.3c-.2-.1-.2-.3-.1-.5.1-.1.2-.1.3-.1h2.2c.2 0 .3-.1.3-.2l.7-2.1c.1-.2.3-.3.4-.2l.3.3h0zm-12.4 0l.7 2.1c0 .1.2.2.3.2h2.2c.2 0 .3.2.3.3s-.1.2-.1.3l-1.8 1.3c-.1.1-.2.2-.1.4l.7 2.1c.1.2 0 .4-.2.4-.1 0-.2 0-.3-.1l-1.8-1.3c-.1-.1-.3-.1-.4 0l-1.8 1.3c-.2.1-.4.1-.5-.1-.1-.1-.1-.2-.1-.3l.7-2.1c0-.1 0-.3-.1-.4l-1.8-1.3c-.2-.1-.2-.3-.1-.5.1-.1.2-.1.3-.1h2.2c.2 0 .3-.1.3-.2l.7-2.1c.1-.2.2-.3.4-.2s.3.2.3.3h0zm-12.4 0l.7 2.1c0 .1.2.2.3.2h2.2c.2 0 .3.2.3.3s-.1.2-.1.3l-1.8 1.3c-.1.1-.2.2-.1.4l.7 2.1c.1.2-.1.4-.2.4s-.2 0-.3-.1l-1.8-1.3c-.1-.1-.3-.1-.4 0l-1.8 1.3c-.2.1-.4.1-.5-.1-.1-.1-.1-.2-.1-.3L21 41c0-.1 0-.3-.1-.4l-1.7-1.3c-.2 0-.2-.2-.1-.3s.2-.1.3-.1h2.2c.2 0 .3-.1.3-.2l.7-2.1c.1-.2.2-.3.4-.2.1-.1.2 0 .2.1zm-12.4 0l.7 2.1c0 .1.2.2.3.2H14c.2 0 .3.2.3.4 0 .1-.1.2-.1.3l-1.8 1.3c-.1.1-.2.2-.1.4l.7 2.1c.1.2-.1.4-.2.4s-.2 0-.3-.1l-1.8-1.3c-.1-.1-.3-.1-.4 0l-1.8 1.3c-.2.1-.4.1-.5-.1v-.3l.7-2.1c0-.1 0-.3-.1-.4l-1.8-1.3c-.2-.1-.2-.3-.1-.5.1-.1.2-.1.3-.1h2.2c.2 0 .3-.1.3-.2l.7-2.1c.1-.2.3-.3.4-.2.1 0 .2.1.2.2zm31-24.8l.7 2.1c0 .1.2.2.3.2H45c.2 0 .3.2.3.3s-.1.2-.1.3l-1.8 1.3c-.1.1-.2.2-.1.4l.7 2.1c.1.2-.1.4-.2.4s-.2 0-.3-.1l-1.8-1.3c-.1-.1-.3-.1-.4 0l-1.8 1.3c-.2.1-.4.1-.5-.1-.1-.1-.1-.2-.1-.3l.7-2.1c0-.1 0-.3-.1-.4l-1.7-1.3c-.2-.1-.2-.3-.1-.5.1-.1.2-.1.3-.1h2.2c.2 0 .3-.1.3-.2l.7-2.1c.1-.2.2-.3.4-.2.1.1.1.2.2.3h0z"/><use xlink:href="#D"/><use xlink:href="#E"/><use xlink:href="#F"/><path d="M29.4 28.5l.7 2.1c0 .1.2.2.3.2h2.2c.2 0 .3.2.3.3s-.1.2-.1.3L31 32.7c-.1.1-.2.2-.1.4l.7 2.1c.1.2-.1.4-.2.4s-.2 0-.3-.1l-1.8-1.3c-.1-.1-.3-.1-.4 0l-1.8 1.3c-.2.1-.4.1-.5-.1-.1-.1-.1-.2-.1-.3l.7-2.1c0-.1 0-.3-.1-.4l-1.8-1.3c-.2-.1-.2-.3-.1-.5.1-.1.2-.1.3-.1h2.2c.2 0 .3-.1.3-.2l.7-2.1c.1-.2.3-.3.4-.2.2.1.3.2.3.3h0z"/><use xlink:href="#G"/><use xlink:href="#F" y="16.4"/><path d="M29.4 44.9l.7 2.1c0 .1.2.2.3.2h2.2c.2 0 .3.2.3.4 0 .1-.1.2-.1.3L31 49.1c-.1.1-.2.2-.1.4l.7 2.1c.1.2-.1.4-.2.4s-.2 0-.3-.1l-1.8-1.3c-.1-.1-.3-.1-.4 0l-1.8 1.3c-.2.1-.4.1-.5-.1-.1-.1-.1-.2-.1-.3l.7-2.1c0-.1 0-.3-.1-.4l-1.8-1.3c-.2-.1-.2-.3-.1-.5.1-.1.2-.1.3-.1h2.2c.2 0 .3-.1.3-.2l.7-2.1c.1-.2.2-.3.4-.2s.3.2.3.3h0zm-12.4 0l.7 2.1c0 .1.2.2.3.2h2.2c.2 0 .3.2.3.3s-.1.2-.1.3l-1.8 1.3c-.1.1-.2.2-.1.4l.7 2.1c.1.2 0 .4-.2.4-.1 0-.2 0-.3-.1l-1.8-1.3c-.1-.1-.3-.1-.4 0l-1.8 1.3c-.2.1-.4.1-.5-.1-.1-.1-.1-.2-.1-.3l.7-2.1c0-.1 0-.3-.1-.4L13 47.8c-.2-.1-.2-.3-.1-.5.1-.1.2-.1.3-.1h2.2c.2 0 .3-.1.3-.2l.7-2.1c.1-.2.2-.3.4-.2.1 0 .2.1.2.2h0z"/></g><path d="M55.9 1.4l-2.3.3c-5.1.9-10 2.5-14.6 4.9-.2.1-.3.2-.5.3-1 .5-1.9 1.1-2.9 1.7H23.9c.9-.6 1.9-1.1 2.9-1.7C33.6 3.1 41.3 1.1 49.2 1h1.7c.9 0 1.9.1 2.8.1l2.2.3z" class="J"/><path d="M35.7 8.5c-1 .6-1.9 1.3-2.8 1.9-.2.2-.4.3-.6.5-.8.6-1.6 1.3-2.4 2-.1.1-.3.2-.4.4L27 15.7l.3.2c.1 0 .1.1.1.2H14.6l.1-.1 2.8-2.6 2.8-2.3c1.1-.9 2.3-1.7 3.5-2.4l11.9-.2z" class="I"/><path d="M26.5 16.1c-1.2 1.2-2.3 2.6-3.4 3.9l-.3.4a3.04 3.04 0 0 0-.5.7l-.4 1.1c0 .1-.2.2-.3.2h-.3c-.3.4-.5.8-.8 1.1H8.7l2.2-3.2 3.7-4.4h11.9z" class="J"/><path d="M20.5 23.6l-.2.4-.2.3-2.8 5.2a12.2 12.2 0 0 0-.7 1.7H4.8c.2-.6.4-1.2.7-1.7.8-1.8 1.8-3.6 2.8-5.2.1-.2.3-.4.4-.6l11.8-.1z" class="I"/><path d="M16.6 31.2c-.6 1.3-1.1 2.7-1.5 4.1-.4 1.1-.7 2.3-1 3.4H2.3l1-3.4c.4-1.4.9-2.8 1.5-4.1h11.8z" class="J"/><path d="M14.2 39.5l-.3.2c-.5 2.2-.8 4.4-1 6.6H1.1c.2-2.5.6-5.1 1.2-7.5h11.8v.2c.2.1.3.3.2.4 0 0 0 0-.1.1z" class="I"/><path d="M12.8 50l.1 3.8H1.1C1 52.5 1 51.3 1 50v-2.4c0 .1 0 .1.1.2v-.4c0-.4 0-.7.1-1.1H13c0 .4-.1.7-.1 1.1v.4-.1l-.1 2.3z" class="J"/><path d="M14.2,61.3H2.3c-0.6-2.5-1-5-1.2-7.5H13C13.2,56.3,13.6,58.8,14.2,61.3z" class="K"/><path d="M16.6 68.8H4.8c-1-2.4-1.8-5-2.4-7.5h11.8c.6 2.6 1.4 5.1 2.4 7.5z" class="L"/><path d="M20.5 76.4H8.7c-1.5-2.4-2.9-4.9-3.9-7.5h11.8c1.1 2.6 2.4 5.1 3.9 7.5z" class="K"/><path d="M26.5 83.9H14.6c-2.2-2.3-4.2-4.8-5.9-7.5h11.8c1.8 2.7 3.8 5.2 6 7.5z" class="L"/><path d="M35.7 91.5H23.9c-3.4-2.1-6.5-4.7-9.2-7.5h11.8c2.7 2.8 5.8 5.3 9.2 7.5z" class="K"/><path d="M55.9 98.6l-5 .4H49c-8.9-.2-17.6-2.8-25.2-7.5h11.8c6.2 3.8 13.1 6.3 20.3 7.1z" class="L"/><path d="M53.6 1.1v.6c-5.1.9-10 2.5-14.6 4.9-.2.1-.3.2-.5.3-1 .5-1.9 1.1-2.9 1.7s-1.9 1.3-2.8 1.9c-.2.2-.4.3-.6.5-.8.6-1.6 1.3-2.4 2-.1.1-.3.2-.4.4-.9.8-1.7 1.6-2.5 2.4l.3.2c.1 0 .1.1.1.2h-.8c-1.2 1.2-2.3 2.6-3.4 3.9l-.3.4a3.04 3.04 0 0 0-.5.7l-.4 1.1c0 .1-.2.2-.3.2h-.3c-.3.4-.5.8-.8 1.1l-.2.4-.2.3c-1 1.7-2 3.4-2.8 5.2a12.2 12.2 0 0 0-.7 1.7c-.6 1.3-1 2.7-1.5 4.1-.4 1.1-.7 2.3-1 3.4v.2c.2.1.3.3.2.4 0 .1-.1.1-.1.2l-.3.2c-.5 2.2-.8 4.4-1 6.6 0 .4-.1.7-.1 1.1v.4-.1V50c0 1.3 0 2.5.1 3.8H1.1C1 52.5 1 51.3 1 50v-2.4c0 .1 0 .1.1.2v-.4c0-.4 0-.7.1-1.1.2-2.5.6-5.1 1.2-7.5.3-1.2.6-2.3 1-3.4.4-1.4.9-2.8 1.5-4.1.1-.7.3-1.3.6-1.8.8-1.8 1.8-3.6 2.8-5.2.1-.2.3-.4.4-.6.7-1.1 1.4-2.2 2.2-3.2 1.1-1.5 2.4-3 3.7-4.4l.1-.1c.9-.9 1.8-1.8 2.8-2.6.9-.8 1.9-1.6 2.8-2.3 1.1-.9 2.3-1.7 3.5-2.4.9-.6 1.9-1.1 2.9-1.7 6.9-3.9 14.6-5.9 22.5-6h1.7c.9 0 1.8.1 2.7.1h0z" fill="#32314b"/><g class="K"><use xlink:href="#B"/><path d="M23.1 20l-.3.4a3.04 3.04 0 0 0-.5.7l.3-1c.1-.2.2-.3.4-.2 0 .1.1.1.1.1z"/><use xlink:href="#C"/><path d="M14.2 39.5l-.3.2-1.5 1.1c-.1.1-.2.2-.1.4l.7 2.1c.1.2-.1.4-.2.4s-.2 0-.3-.1l-1.8-1.3c-.1-.1-.3-.1-.4 0l-1.8 1.3c-.2.1-.4.1-.5-.1v-.3l.7-2.1c0-.1 0-.3-.1-.4l-1.8-1.3c-.2-.1-.2-.3-.1-.5.1-.1.2-.1.3-.1h2.2c.1 0 .2-.1.3-.1 0 0 0-.1.1-.1l.7-2.1c.1-.2.3-.3.4-.2.1 0 .2.1.2.2l.7 2.1s0 .1.1.1c.1.1.2.1.3.1h2 .1c.2.1.3.3.2.4 0 .2 0 .2-.1.3h0z"/><use xlink:href="#D"/><use xlink:href="#E"/><use xlink:href="#G"/></g><path d="M12.8 47.6c0-.1 0-.2.1-.2v.4c0-.1 0-.1-.1-.2h0zM17 28.5l.7 2.1c0 .1.2.2.3.2h2.2c.2 0 .3.2.3.3s-.1.2-.1.3l-1.8 1.3c-.1.1-.2.2-.1.4l.7 2.1c.1.2 0 .4-.2.4-.1 0-.2 0-.3-.1l-1.8-1.3c-.1-.1-.3-.1-.4 0l-1.8 1.3c-.2.1-.4.1-.5-.1-.1-.1-.1-.2-.1-.3l.7-2.1c0-.1 0-.3-.1-.4L13 31.4c-.2-.1-.2-.3-.1-.5.1-.1.2-.1.3-.1h2.2c.2 0 .3-.1.3-.2l.7-2.1c.1-.2.2-.3.4-.2.1 0 .2.1.2.2z" class="I"/><path d="M17.3 29.5a12.2 12.2 0 0 0-.7 1.7c-.6 1.3-1.1 2.7-1.5 4.1l-.4.3c-.2.1-.4.1-.5-.1-.1-.1-.1-.2-.1-.3l.7-2.1c0-.1 0-.3-.1-.4L13 31.4c-.1-.1-.1-.1-.1-.2 0-.2.1-.4.3-.4h2.2c.2 0 .3-.1.3-.2l.7-2.1c.1-.2.3-.3.4-.2.1 0 .2.1.2.2l.3 1z" class="K"/><path d="M23.2 20.2l.7 2.1c0 .1.2.2.3.2h2.2c.2 0 .3.2.3.3s-.1.2-.1.3l-1.8 1.3c-.1.1-.2.2-.1.4l.7 2.1c.1.2-.1.4-.2.4s-.2 0-.3-.1l-1.8-1.3c-.1-.1-.3-.1-.4 0l-1.8 1.3c-.2.1-.4.1-.5-.1-.1-.1-.1-.2-.1-.3l.7-2.1c0-.1 0-.3-.1-.4L19.2 23c-.2 0-.2-.2-.1-.4.1-.1.2-.1.3-.1h2.2c.2 0 .3-.1.3-.2l.7-2.1c.1-.2.3-.3.4-.2.1 0 .2.1.2.2z" class="I"/><path d="M19.4 22.5h1.9c-.3.4-.5.8-.8 1.1l-.2.4-.5-.3-.7-.5c-.1-.2-.1-.4 0-.6.1-.1.2-.1.3-.1z" class="K"/><path d="M29.4 11.7l.7 2.1c0 .1.2.2.3.2h2.2c.2 0 .3.2.3.4 0 .1-.1.2-.1.3L31 15.9c-.1.1-.2.2-.1.4l.7 2.1c.1.2-.1.4-.2.4s-.2 0-.3-.1l-1.8-1.3c-.1-.1-.3-.1-.4 0l-1.8 1.3c-.2.1-.4.1-.5-.1-.1-.1-.1-.2-.1-.3l.7-2.1c0-.1 0-.3-.1-.4l-1.8-1.3c-.2-.1-.2-.3-.1-.5.1-.1.2-.1.3-.1h2.2c.2 0 .3-.1.3-.2l.7-2.1c.1-.2.2-.3.4-.2s.3.2.3.3h0z" class="I"/><path d="M29.8 12.9c-.1.1-.3.2-.4.4l-2.5 2.4-1.5-1.1c-.2-.1-.2-.3-.1-.5.1-.1.2-.1.3-.1h2.2c.2 0 .3-.1.3-.2l.7-2.1c.1-.2.3-.3.4-.2.1 0 .2.1.2.2l.4 1.2z" class="K"/><path d="M35.6 4.1l.7 2.1c0 .1.2.2.3.2h2.2c.2 0 .3.2.3.3s-.1.2-.1.3l-1.8 1.3c-.1.1-.2.2-.1.4l.7 2.1c.1.2 0 .4-.2.4-.1 0-.2 0-.3-.1l-1.8-1.3c-.1-.1-.3-.1-.4 0l-1.8 1.3c-.2.1-.4.1-.5-.1-.1-.1-.1-.2-.1-.3l.7-2.1c0-.1 0-.3-.1-.4l-1.8-1.3c-.2-.1-.2-.3-.1-.5.1-.1.2-.1.3-.1h2.2c.2 0 .3-.1.3-.2l.7-2.1c.1 0 .3-.1.5-.1.1 0 .2.1.2.2h0z" class="I"/><path d="M39.1 6.6c-.2.1-.3.2-.5.3-1 .5-1.9 1.1-2.9 1.7s-1.9 1.3-2.8 1.9l.6-1.7v-.2c0-.1-.1-.2-.1-.2l-1.8-1.3c-.2-.1-.2-.3-.1-.5.1-.1.2-.1.3-.1H34c.2 0 .3-.1.3-.2l.7-2.1c0-.2.2-.3.4-.3.1 0 .2.1.2.2l.7 2.1c0 .1.2.2.3.2h2.2c.1 0 .2.1.3.2h0z" class="K"/><g fill="#e54141"><circle cx="93.1" cy="50" r="3.1"/><circle cx="86.6" cy="50" r="2.2"/></g><defs ><path id="B" d="M24.7 8.5v.2l.7 2.1c.1.2-.1.4-.2.4s-.2 0-.3-.1l-1.8-1.3c-.1-.1-.3-.1-.4 0l-1.8 1.3c-.2.1-.4.1-.5-.1l-.1-.1c1.1-.9 2.3-1.7 3.5-2.4.9-.6 1.9-1.1 2.9-1.7 0 .1-.1.1-.1.2l-1.8 1.3c0 .1-.1.2-.1.2z"/><path id="C" d="M14.2 23.1l-.7.5-1.1.8c-.1.1-.2.2-.1.4l.7 2.1c.1.2-.1.4-.2.4h-.3L10.7 26c-.1-.1-.3-.1-.4 0l-1.8 1.3c-.2.1-.4.1-.5-.1v-.4l.7-2.1c0-.1 0-.3-.1-.4l-.2-.2c.1-.2.3-.4.4-.6l2.2-3.2.6 1.8c0 .1.2.2.3.2H14c.2 0 .3.2.3.4 0 .3 0 .4-.1.4z"/><path id="D" d="M18.5 16.1v.2l.7 2.1c.1.2-.1.4-.2.4h-.3l-1.8-1.3c-.1-.1-.3-.1-.4 0l-1.8 1.3c-.2.1-.4.1-.5-.1-.1-.1-.1-.2 0-.3l.7-2.1v-.2c0-.1 0-.1-.1-.2l2.8-2.6.2.5c0 .1.2.2.3.2h2.2c.2 0 .3.2.3.4 0 .1-.1.2-.1.3L18.7 16c-.1 0-.2 0-.2.1z"/><path id="E" d="M8.7 31.2c0 .1-.1.2-.1.2l-1.8 1.3c-.1.1-.2.2-.1.4l.7 2.1c.1.2 0 .4-.2.4-.1 0-.2 0-.3-.1l-1.8-1.3c-.1-.1-.3-.1-.4 0l-1.4 1c.4-1.4.9-2.8 1.5-4.1l.7-1.7.3 1.1c0 .1.2.2.3.2h2.2c.2.1.4.2.4.5 0-.1 0-.1 0 0z"/><path id="F" d="M41.8 28.5l.7 2.1c0 .1.2.2.3.2H45c.2 0 .3.2.3.3s-.1.2-.1.3l-1.8 1.3c-.1.1-.2.2-.1.4l.7 2.1c.1.2-.1.4-.2.4s-.2 0-.3-.1l-1.8-1.3c-.1-.1-.3-.1-.4 0l-1.8 1.3c-.2.1-.4.1-.5-.1-.1-.1-.1-.2-.1-.3l.7-2.1c0-.1 0-.3-.1-.4l-1.7-1.3c-.2-.1-.2-.3-.1-.5.1-.1.2-.1.3-.1h2.2c.2 0 .3-.1.3-.2l.7-2.1c.1-.2.3-.3.4-.2s.1.2.2.3h0z"/><path id="G" d="M6.8 49.1c-.1.1-.2.2-.1.4l.7 2.1c.1.2 0 .4-.2.4-.1 0-.2 0-.3-.1l-1.8-1.3c-.1-.1-.3-.1-.4 0L2.9 52c-.2.1-.4.1-.5-.1-.1-.1-.1-.2-.1-.3l.7-2.1c0-.1 0-.3-.1-.4l-1.8-1.3-.1-.1v-.4c.1-.1.2-.1.3-.1h2.2c.2 0 .3-.1.3-.2l.2-.7.4-1.3c.1-.2.3-.3.4-.2.1 0 .2.1.2.2l.4 1.3.5.7c0 .1.2.2.3.2h2.2c.2 0 .3.2.3.3s-.1.2-.1.3l-1.8 1.3z"/></defs></svg>