<?xml version="1.0" encoding="utf-8"?>
<!-- Generator: Adobe Illustrator 21.0.2, SVG Export Plug-In . SVG Version: 6.00 Build 0)  -->
<svg version="1.1" id="Layer_1" xmlns:v="https://vecta.io/nano"
	 xmlns="http://www.w3.org/2000/svg" xmlns:xlink="http://www.w3.org/1999/xlink" x="0px" y="0px" viewBox="0 0 34 32.8"
	 style="enable-background:new 0 0 34 32.8;" xml:space="preserve">
<style type="text/css">
	.st0{fill:#0BA84D;}
	.st1{fill:#FFFFFF;}
	.st2{fill:#FF0000;}
</style>
<circle class="st0" cx="17" cy="16.4" r="15.8"/>
<path class="st1" d="M23.2,10.3c-1.5-1.5-3.6-2.4-5.7-2.4s-4.2,0.8-5.7,2.4S9.3,13.9,9.3,16l0,0c0,1.3,0.3,2.6,1,3.8l-1,4.4l4.5-1
	c1.1,0.6,2.4,0.9,3.7,0.9l0,0c2.2,0,4.2-0.8,5.7-2.4c1.5-1.5,2.4-3.6,2.4-5.7C25.6,13.9,24.7,11.8,23.2,10.3L23.2,10.3z M17.4,22.9
	L17.4,22.9c-1.1,0-2.3-0.3-3.3-0.8l-0.2-0.1l-3,0.7l0.6-2.9l-0.1-0.2c-0.6-1.1-0.9-2.2-0.9-3.4c0-3.8,3.1-6.8,6.9-6.8
	c1.8,0,3.6,0.7,4.8,2c1.3,1.3,2,3,2,4.8C24.3,19.8,21.2,22.9,17.4,22.9L17.4,22.9z M15.2,12.5h-0.4c-0.1,0-0.3,0-0.5,0.2
	c-0.2,0.2-0.6,0.6-0.6,1.6s0.7,1.8,0.7,1.9c0.1,0.1,1.3,2.1,3.2,2.8c1.6,0.6,1.9,0.5,2.2,0.5c0.3,0,1.1-0.5,1.3-0.9
	c0.2-0.4,0.2-0.8,0.1-0.9c0-0.1-0.2-0.1-0.4-0.2l-1.3-0.6c-0.2-0.1-0.3-0.1-0.4,0.1c-0.1,0.2-0.5,0.6-0.6,0.7
	c-0.1,0.1-0.2,0.1-0.4,0c-0.2-0.1-0.8-0.3-1.5-0.9c-0.6-0.5-0.9-1.1-1-1.3c-0.1-0.2,0-0.3,0.1-0.4l0.3-0.3c0.1-0.1,0.1-0.2,0.2-0.3
	c0.1-0.1,0-0.2,0-0.3l-0.6-1.4C15.5,12.5,15.3,12.5,15.2,12.5z"/>
<circle class="st2" cx="27.7" cy="5.2" r="2.3"/>
</svg>
