<svg xmlns="http://www.w3.org/2000/svg" width="103" height="32.161" viewBox="0 0 103 32.161">
  <g id="logo" transform="translate(0 1.044)">
    <path id="Path_158" data-name="Path 158" d="M492.621,414.474H487.98V396.43h4.641v7.089h2.319l4.021-7.089h4.9l-5.051,8.893,5.026,9.151h-4.9l-3.995-7.347h-2.319Z" transform="translate(-487.98 -384.512)" fill="red"/>
    <path id="Path_159" data-name="Path 159" d="M638.294,414.474a22.34,22.34,0,0,1-3.281.258,3.551,3.551,0,0,1-2.616-1.057,3.791,3.791,0,0,1-1.057-2.809V396.43h4.511v13.79a.88.88,0,0,0,.9.9H638.3Z" transform="translate(-614.168 -384.512)" fill="red"/>
    <path id="Path_160" data-name="Path 160" d="M869.612,446.405a81.16,81.16,0,0,1-8.505.515,3.634,3.634,0,0,1-3.867-3.866v-5.93A3.8,3.8,0,0,1,861.364,433h8.249v3.474h-6.828a.912.912,0,0,0-1.031,1.031v5.031a.88.88,0,0,0,.9.9q2.32,0,6.96-.387Z" transform="translate(-813.008 -416.702)" fill="red"/>
    <path id="Path_161" data-name="Path 161" d="M982.25,409.06v5.413h-4.51V396.43h4.51v9.151h2.063l2.835-4.769h4.768l-3.866,6.573,3.866,7.089h-4.768l-2.965-5.413Z" transform="translate(-919.073 -384.512)" fill="red"/>
    <path id="Path_162" data-name="Path 162" d="M1115.437,444.522a88.28,88.28,0,0,1-9.021.515,3.634,3.634,0,0,1-3.866-3.866v-6.187a3.8,3.8,0,0,1,4.125-4.124h5.151a3.8,3.8,0,0,1,4.124,4.124v4.769h-8.891v1.031a.88.88,0,0,0,.9.9q2.551,0,7.475-.387Zm-7.347-10.44a.912.912,0,0,0-1.031,1.031v1.417h4.382v-1.417a.912.912,0,0,0-1.031-1.031Z" transform="translate(-1028.933 -414.818)" fill="#fff"/>
    <path id="Path_163" data-name="Path 163" d="M1241.547,414.474l-.258-1.289a9.224,9.224,0,0,1-2.488,1.173,7.916,7.916,0,0,1-2.156.374h-1.159a3.634,3.634,0,0,1-3.866-3.866v-5.929a3.8,3.8,0,0,1,4.125-4.124h5.284V396.43h4.511v18.044Zm-3.608-3.481a10.96,10.96,0,0,0,3.093-.515v-6.186h-3.867a.912.912,0,0,0-1.031,1.031v4.769a.88.88,0,0,0,.9.9Z" transform="translate(-1142.541 -384.512)" fill="#fff"/>
    <path id="Path_164" data-name="Path 164" d="M685.44,311.425l-6.788-5.623-.016-.016a5.182,5.182,0,0,1,3.664-8.846,5.6,5.6,0,0,1,3.122,1.405,5.036,5.036,0,0,1,6.786,7.441l-1.743,1.742-3.618,3.172-.631-.719,3.616-3.171,1.7-1.7a4.095,4.095,0,1,0-5.789-5.787l-.319.283-.319-.283a4.638,4.638,0,0,0-2.8-1.424,4.224,4.224,0,0,0-3,7.192l6.754,5.594Z" transform="translate(-654.462 -296.94)" fill="#fff" stroke="#fff" stroke-miterlimit="10" stroke-width="2"/>
    <path id="Path_165" data-name="Path 165" d="M713.558,394.412c-.171,4.123-1.982,6.895-6.489,7.421a3.617,3.617,0,0,1-4.478-2.635c-.813-2.175-2.766-3.867-4.149-5.8-1.437-2.2-.371-3.341,1.041-3.283.428-.1,1.869,1.251,2.809,1.89v-9.832c0-1.691,2.78-1.834,2.78,0V387.9a1.392,1.392,0,0,1,2.78,0v.853c.513-1.8,3.137-1.122,2.966,1.095.742-1.72,2.867-1,2.738.782Z" transform="translate(-672.631 -370.798)" fill="#fff"/>
  </g>
</svg>
