<?xml version="1.0" encoding="utf-8"?>
<!-- Generator: Adobe Illustrator 21.0.2, SVG Export Plug-In . SVG Version: 6.00 Build 0)  -->
<svg version="1.1" id="Layer_1" xmlns="http://www.w3.org/2000/svg" xmlns:xlink="http://www.w3.org/1999/xlink" x="0px" y="0px"
	 viewBox="0 0 716 715" style="enable-background:new 0 0 716 715;" xml:space="preserve">
<style type="text/css">
	.st0{fill:none;stroke:#8A877E;}
	.st1{fill:none;stroke:#000000;}
	.st2{fill:#F2F2F2;}
	.st3{fill:#FFFFFF;}
</style>
<g>
	<path class="st0" d="M521.4,459.3c-21.6,34.6-53.5,61.6-91.3,76.9c-37.8,15.4-79.4,18.4-118.9,8.6"/>
	<path class="st0" d="M230.5,501.9c-30.6-27-51.9-63-60.8-102.7s-5-81.3,11.1-118.7"/>
	<path class="st0" d="M397,168.8c40,8.3,76.3,28.9,103.8,59c27.5,30.1,44.7,68.1,49.2,108.5"/>
	<path class="st0" d="M506,536.9c-28.4,23.4-62,39.8-97.9,47.9c-35.9,8-73.2,7.4-108.8-1.7s-68.5-26.6-96-50.9
		c-27.5-24.3-48.9-54.8-62.3-89"/>
	<path class="st0" d="M506,536.9c-28.4,23.4-62,39.8-97.9,47.9c-35.9,8-73.2,7.4-108.8-1.7s-68.5-26.6-96-50.9
		c-27.5-24.3-48.9-54.8-62.3-89"/>
	<path class="st0" d="M140,275.9c12.9-34.5,33.8-65.5,60.9-90.4s59.7-43,95.1-52.9c35.4-9.9,72.6-11.2,108.6-3.9
		c36,7.3,69.7,23.1,98.4,46"/>
	<path class="st0" d="M457.5,614c-54.3,21.1-113.9,24.5-170.3,9.7c-56.3-14.8-106.5-47-143.2-92c-36.8-45-58.3-100.5-61.5-158.5
		s12.1-115.6,43.7-164.5"/>
	<path class="st0" d="M313.8,85.9c57.5-9.4,116.5-0.3,168.6,25.8c52,26.1,94.4,68,121.1,119.7c26.6,51.7,36.2,110.4,27.3,167.8
		c-8.9,57.4-35.8,110.6-76.9,151.9"/>
	<line class="st1" x1="358.3" y1="359.9" x2="476.5" y2="369.7"/>
	<circle class="st2" cx="358" cy="357.2" r="159.7"/>
	<circle class="st3" cx="358" cy="357.2" r="121.2"/>
	<circle class="st2" cx="358" cy="357.2" r="81.1"/>
</g>
</svg>
