<svg width="21" height="22" viewBox="0 0 21 22" fill="none" xmlns="http://www.w3.org/2000/svg">
<path d="M10.5 0.900391C4.69985 0.900391 0 5.60024 0 11.4004C0 17.2005 4.69985 21.9004 10.5 21.9004C16.3002 21.9004 21 17.2005 21 11.4004C21 5.60024 16.3002 0.900391 10.5 0.900391ZM6.51706 15.8879C6.38076 16.1201 6.13846 16.2463 5.88605 16.2463C5.75984 16.2463 5.63364 16.2161 5.51754 16.1454C5.16922 15.9435 5.05314 15.4992 5.25504 15.1509L5.97185 13.9596C6.04757 13.8334 6.17882 13.7577 6.32521 13.7577H6.43122C6.95119 13.7577 7.31465 14.0706 7.42067 14.3735L6.51706 15.8879ZM12.5849 13.5456L7.89014 13.5507H4.77042C4.35647 13.5507 4.02328 13.2074 4.04349 12.7935C4.05864 12.3997 4.40191 12.1019 4.79566 12.1019H7.0572L9.73772 7.53844L8.86948 6.05935C8.6726 5.72113 8.75842 5.2769 9.09159 5.06487C9.44496 4.83771 9.90939 4.95381 10.1163 5.30718L10.5807 6.09973H10.5858L11.0502 5.30718C11.2572 4.95381 11.7266 4.8377 12.0749 5.06487C12.4081 5.27689 12.4939 5.72113 12.2971 6.05935L8.75332 12.1019V12.1069H11.4541C11.7923 12.1069 12.2163 12.2887 12.3879 12.5815L12.4031 12.6117C12.5545 12.8692 12.6403 13.0459 12.6403 13.3033C12.6353 13.4447 12.5849 13.5456 12.5849 13.5456ZM16.2296 13.5507H14.9575V13.5557L15.8864 15.1357C16.0883 15.479 15.9924 15.9333 15.6441 16.1454C15.528 16.216 15.3967 16.2514 15.2655 16.2514C15.0131 16.2514 14.7707 16.1201 14.6345 15.893L12.4083 12.1018L11.3078 10.2189C10.9847 9.66866 10.9696 8.98212 11.2775 8.43695C11.4946 8.05329 11.6611 7.95233 11.6611 7.95233L14.1095 12.0968H16.2145C16.6082 12.0968 16.9465 12.3997 16.9667 12.7884C16.9818 13.2074 16.6486 13.5507 16.2296 13.5507Z" fill="white"/>
</svg>
