<svg width="264" height="85" viewBox="0 0 264 85" fill="none" xmlns="http://www.w3.org/2000/svg">
<path d="M262.721 44.4658C262.987 44.539 263.144 44.8142 263.07 45.0805L261.877 49.4193C261.804 49.6856 261.528 49.8421 261.262 49.7688C260.996 49.6956 260.839 49.4204 260.913 49.1541L261.974 45.2974L258.117 44.2365C257.851 44.1633 257.694 43.8881 257.767 43.6218C257.841 43.3555 258.116 43.1991 258.382 43.2723L262.721 44.4658ZM262.835 45.3825C213.483 73.4415 159.232 88.8731 111.648 84.0534C64.0315 79.2304 23.1166 54.1254 0.540065 1.19616L1.45991 0.803831C23.8834 53.3746 64.4685 78.2696 111.749 83.0585C159.062 87.8508 213.105 72.5064 262.341 44.5132L262.835 45.3825Z" fill="#1F5BDD"/>
</svg>
