<svg width="21" height="21" viewBox="0 0 21 21" fill="none" xmlns="http://www.w3.org/2000/svg">
<path fill-rule="evenodd" clip-rule="evenodd" d="M21 10.5C21 16.299 16.299 21 10.5 21C4.70101 21 0 16.299 0 10.5C0 4.70101 4.70101 0 10.5 0C16.299 0 21 4.70101 21 10.5ZM7.36444 3.89555L11.6417 9.52612L13.0675 7.64916L7.36444 3.89555ZM6.0001 3.79883L10.9963 10.3755L6 16.9529L6.0001 3.79883ZM13.9277 8.21548L12.2867 10.3755L13.9278 12.5359L17.21 10.3758L13.9277 8.21548ZM7.36444 16.8554L11.6417 11.2248L13.0676 13.102L7.36444 16.8554Z" fill="white"/>
</svg>
