<svg xmlns="http://www.w3.org/2000/svg" xmlns:xlink="http://www.w3.org/1999/xlink" width="100" height="100" viewBox="0 0 100 100">
  <defs>
    <clipPath id="clip-ai">
      <rect width="100" height="100"/>
    </clipPath>
  </defs>
  <g id="ai" clip-path="url(#clip-ai)">
    <g id="noun_Robotics_3549920" transform="translate(-1.983 -1)">
      <path id="Path_2269" data-name="Path 2269" d="M84.056,76.649h-11.8A20.284,20.284,0,0,0,55.936,57.817l-9.79-20.668H64.124A14.946,14.946,0,0,0,78.718,48.892h5.338V42.487H78.718a8.541,8.541,0,1,1,0-17.081h5.338V19H78.718A14.946,14.946,0,0,0,64.124,30.743H45.207A12.811,12.811,0,1,0,26.182,44.889L35.919,65.44A20.145,20.145,0,0,0,31.8,76.649H20v6.405H84.056ZM40.819,60.828,34.125,46.693a12.811,12.811,0,0,0,7.719-3.662L48.826,57.71A20.156,20.156,0,0,0,40.819,60.828ZM32.812,27.541a6.405,6.405,0,1,1-6.405,6.405A6.405,6.405,0,0,1,32.812,27.541Zm19.216,36.3A13.879,13.879,0,0,1,65.854,76.649H38.2A13.879,13.879,0,0,1,52.029,63.838Z" transform="translate(0 0)"/>
    </g>
  </g>
</svg>
