<svg xmlns="http://www.w3.org/2000/svg" xmlns:xlink="http://www.w3.org/1999/xlink" width="100" height="100" viewBox="0 0 100 100">
  <defs>
    <clipPath id="clip-app">
      <rect width="100" height="100"/>
    </clipPath>
  </defs>
  <g id="app" clip-path="url(#clip-app)">
    <g id="noun_Mobile_1562148">
      <g id="Group_16640" data-name="Group 16640" transform="translate(0 -952.362)">
        <path id="Path_2271" data-name="Path 2271" d="M30,957.362a7.029,7.029,0,0,0-7,7v76a7.029,7.029,0,0,0,7,7H70a7.029,7.029,0,0,0,7-7v-76a7.029,7.029,0,0,0-7-7Zm0,4H70a2.951,2.951,0,0,1,3,3v3H27v-3A2.951,2.951,0,0,1,30,961.362Zm-3,10H73v58H27Zm0,62H73v7a2.951,2.951,0,0,1-3,3H30a2.951,2.951,0,0,1-3-3Zm16,3a2,2,0,0,0,0,4H57a2,2,0,0,0,0-4Z"/>
      </g>
    </g>
  </g>
</svg>
