<svg xmlns="http://www.w3.org/2000/svg" xmlns:xlink="http://www.w3.org/1999/xlink" width="100" height="100" viewBox="0 0 100 100">
  <defs>
    <clipPath id="clip-blockchain">
      <rect width="100" height="100"/>
    </clipPath>
  </defs>
  <g id="blockchain" clip-path="url(#clip-blockchain)">
    <g id="noun_Blockchain_3498943_1_" data-name="noun_Blockchain_3498943(1)" transform="translate(4.565 4.971)">
      <path id="Path_2268" data-name="Path 2268" d="M88.947,20.8c-.006-.038,0-.078-.015-.115a1.227,1.227,0,0,0-.12-.292.956.956,0,0,0-.065-.086,1.218,1.218,0,0,0-.128-.167c-.029-.029-.065-.05-.1-.076a1.207,1.207,0,0,0-.15-.118l-.009,0-.008-.006-10.25-5.873a1.228,1.228,0,0,0-1.22,0L66.63,19.936l-.008.006-.009,0a1.209,1.209,0,0,0-.151.118.879.879,0,0,0-.1.076,1.218,1.218,0,0,0-.129.169c-.02.029-.046.054-.064.085a1.229,1.229,0,0,0-.12.292c-.01.036-.008.074-.015.111a1.206,1.206,0,0,0-.027.2v2.5L56.89,17.787a1.2,1.2,0,0,0,.025-.186V7.347a1.206,1.206,0,0,0-.027-.2c-.006-.038,0-.078-.015-.115a1.226,1.226,0,0,0-.12-.292,1.241,1.241,0,0,0-.079-.105,1.214,1.214,0,0,0-.113-.148,1.254,1.254,0,0,0-.116-.091,1.206,1.206,0,0,0-.132-.1h-.007l0-.011L46.046.41a1.228,1.228,0,0,0-1.22,0L34.569,6.282l-.008.006h-.007a1.2,1.2,0,0,0-.132.1,1.25,1.25,0,0,0-.116.09,1.217,1.217,0,0,0-.114.15,1.246,1.246,0,0,0-.078.1,1.226,1.226,0,0,0-.12.292c-.01.036-.008.074-.015.111a1.206,1.206,0,0,0-.027.2V17.6a1.2,1.2,0,0,0,.025.187L24.858,23.5V21a1.2,1.2,0,0,0-.027-.2c-.006-.038,0-.078-.015-.115a1.226,1.226,0,0,0-.12-.292.96.96,0,0,0-.065-.086,1.218,1.218,0,0,0-.128-.167c-.029-.029-.065-.05-.1-.076a1.206,1.206,0,0,0-.15-.118l-.009,0-.008-.006L13.988,14.064a1.228,1.228,0,0,0-1.22,0L2.515,19.936l-.008.006-.009,0a1.209,1.209,0,0,0-.151.118.879.879,0,0,0-.1.076,1.217,1.217,0,0,0-.129.169c-.02.029-.046.054-.064.085a1.229,1.229,0,0,0-.12.292c-.01.036-.008.074-.015.111A1.205,1.205,0,0,0,1.9,21V31.254a1.227,1.227,0,0,0,.639,1.077l9.615,5.25V51.629L2.515,57.148l-.008.006-.009,0a1.209,1.209,0,0,0-.151.118.88.88,0,0,0-.1.076,1.217,1.217,0,0,0-.129.169c-.02.029-.046.054-.064.085a1.229,1.229,0,0,0-.12.292c-.01.036-.008.074-.015.111a1.205,1.205,0,0,0-.027.2V68.466a1.227,1.227,0,0,0,.64,1.077l10.253,5.6a1.208,1.208,0,0,0,.179.07,1.036,1.036,0,0,0,.1.038,1.186,1.186,0,0,0,.623,0c.034-.009.064-.027.1-.038a1.208,1.208,0,0,0,.179-.07l8.706-4.753L33.959,77.9v5.085a1.227,1.227,0,0,0,.639,1.077l10.253,5.6a1.21,1.21,0,0,0,.179.07,1.043,1.043,0,0,0,.1.038,1.186,1.186,0,0,0,.623,0c.034-.009.064-.027.1-.038a1.209,1.209,0,0,0,.179-.07l10.25-5.6a1.227,1.227,0,0,0,.639-1.077V77.9L68.2,70.386l8.706,4.753a1.21,1.21,0,0,0,.179.07,1.043,1.043,0,0,0,.1.038,1.186,1.186,0,0,0,.623,0c.034-.009.064-.027.1-.038a1.209,1.209,0,0,0,.179-.07l10.25-5.6a1.227,1.227,0,0,0,.639-1.077V58.213a1.205,1.205,0,0,0-.027-.2c-.006-.038,0-.078-.015-.115a1.226,1.226,0,0,0-.12-.292.96.96,0,0,0-.065-.086,1.219,1.219,0,0,0-.128-.167c-.029-.029-.065-.05-.1-.076a1.207,1.207,0,0,0-.15-.118l-.009,0-.008-.006L78.719,51.63V37.581l9.614-5.248a1.227,1.227,0,0,0,.639-1.077V21a1.206,1.206,0,0,0-.025-.2ZM52.861,72.88l-7.426,4.054L38.01,72.88l-.314-.172,7.74-4.432,7.74,4.429ZM22.4,30.526l-7.8,4.257V27.326l7.8-4.257ZM13.378,53.754l7.74,4.432-.314.172-7.426,4.054L5.952,58.358l-.314-.172Zm10.15,2.985L14.6,51.629V37.581l8.128-4.437,11.223,7.3V49.4ZM36.409,16.872V9.415l7.8,4.26V21.13Zm18.053,0-7.8,4.258V13.675l7.8-4.258Zm-9.026,18.45,7.74,4.432-.314.172L45.436,43.98,38.01,39.926l-.314-.172Zm-9.026,6.526,7.8,4.258v7.459l-7.8-4.259Zm10.253,4.258,7.8-4.258v7.458l-7.8,4.259Zm10.253-5.66,11.223-7.3,8.128,4.439V51.629L67.343,56.74,56.916,49.4Zm19.35-13.121v7.457l-7.8-4.257V23.069Zm-7.8,40.413V60.281l7.8,4.258V72Zm16.452-9.38-7.426,4.054-7.426-4.054-.314-.172,7.74-4.432,7.74,4.432ZM77.494,16.542l7.74,4.432-.314.172L77.494,25.2l-7.426-4.054-.314-.172ZM66.056,31.569,55.648,38.343,46.663,33.2V23.926l8.231-4.494L66.013,26.4v4.858a1.224,1.224,0,0,0,.043.315ZM45.436,2.889l7.739,4.433-7.4,4.04-.339.185-.339-.185-7.4-4.04ZM35.978,19.434l8.231,4.494V33.2l-8.986,5.146L24.815,31.569a1.224,1.224,0,0,0,.043-.315V26.4Zm-22.6-2.892,7.74,4.432-.314.172L13.378,25.2,5.952,21.146l-.314-.172ZM4.353,23.069l7.8,4.258v7.457l-7.8-4.257Zm0,37.212,7.8,4.258V72l-7.8-4.258Zm10.253,4.258,7.8-4.258v7.457L14.606,72Zm10.184,4.31a1.215,1.215,0,0,0,.07-.383V58.8l10.4-7.328,8.944,4.882v9.791l-9.64,5.519-.008.006-.009,0a1.208,1.208,0,0,0-.151.118.879.879,0,0,0-.1.076,1.217,1.217,0,0,0-.129.169c-.02.029-.046.054-.064.085a1.229,1.229,0,0,0-.12.292c-.01.036-.008.074-.015.111a1.205,1.205,0,0,0-.027.2v2.22Zm11.62,8.39V74.8l7.8,4.258v7.457l-7.8-4.257Zm10.253,9.277V79.06l7.8-4.258V82.26ZM56.916,72.734a1.206,1.206,0,0,0-.027-.2c-.006-.038,0-.078-.015-.115a1.227,1.227,0,0,0-.12-.292.958.958,0,0,0-.065-.086,1.217,1.217,0,0,0-.128-.167c-.029-.029-.065-.05-.1-.076a1.206,1.206,0,0,0-.15-.118l-.009,0L56.3,71.67l-9.636-5.519V56.36l8.944-4.882L66.013,58.8v9.661a1.215,1.215,0,0,0,.07.383l-9.166,6.1Zm21.8-.739V64.538l7.8-4.258v7.458Zm0-37.212V27.326l7.8-4.257v7.457Z" transform="translate(0 0)" stroke="#000" stroke-width="1"/>
    </g>
  </g>
</svg>
