<svg xmlns="http://www.w3.org/2000/svg" xmlns:xlink="http://www.w3.org/1999/xlink" width="100" height="100" viewBox="0 0 100 100">
  <defs>
    <clipPath id="clip-blockchain_app">
      <rect width="100" height="100"/>
    </clipPath>
  </defs>
  <g id="blockchain_app" data-name="blockchain app" clip-path="url(#clip-blockchain_app)">
    <g id="noun_Mobile_1562148">
      <g id="Group_16640" data-name="Group 16640" transform="translate(0 -952.362)">
        <path id="Path_2271" data-name="Path 2271" d="M30,957.362a7.029,7.029,0,0,0-7,7v76a7.029,7.029,0,0,0,7,7H70a7.029,7.029,0,0,0,7-7v-76a7.029,7.029,0,0,0-7-7Zm0,4H70a2.951,2.951,0,0,1,3,3v3H27v-3A2.951,2.951,0,0,1,30,961.362Zm-3,10H73v58H27Zm0,62H73v7a2.951,2.951,0,0,1-3,3H30a2.951,2.951,0,0,1-3-3Zm16,3a2,2,0,0,0,0,4H57a2,2,0,0,0,0-4Z"/>
      </g>
    </g>
    <g id="noun_Blockchain_3498943_1_" data-name="noun_Blockchain_3498943(1)" transform="translate(32.615 29.823)">
      <path id="Path_2268" data-name="Path 2268" d="M32.863,7.559c0-.013,0-.028-.005-.041a.437.437,0,0,0-.043-.1.34.34,0,0,0-.023-.031.433.433,0,0,0-.045-.059c-.01-.01-.023-.018-.034-.027a.429.429,0,0,0-.053-.042h0l0,0L29.006,5.162a.437.437,0,0,0-.434,0L24.924,7.251l0,0h0a.43.43,0,0,0-.054.042.313.313,0,0,0-.034.027.433.433,0,0,0-.046.06c-.007.01-.016.019-.023.03a.437.437,0,0,0-.043.1c0,.013,0,.026-.005.039a.429.429,0,0,0-.009.073v.889L21.459,6.487a.427.427,0,0,0,.009-.066V2.773a.429.429,0,0,0-.009-.071c0-.013,0-.028-.005-.041a.436.436,0,0,0-.043-.1.441.441,0,0,0-.028-.037.432.432,0,0,0-.04-.053.446.446,0,0,0-.041-.032.429.429,0,0,0-.047-.037h0l0,0L17.6.305a.437.437,0,0,0-.434,0L13.519,2.394l0,0h0a.429.429,0,0,0-.047.037.445.445,0,0,0-.041.032.433.433,0,0,0-.041.053.444.444,0,0,0-.028.037.436.436,0,0,0-.043.1c0,.013,0,.026-.005.039a.429.429,0,0,0-.009.073V6.421a.427.427,0,0,0,.009.067L10.065,8.519V7.63a.429.429,0,0,0-.009-.071c0-.013,0-.028-.005-.041a.436.436,0,0,0-.043-.1.341.341,0,0,0-.023-.031.433.433,0,0,0-.045-.059c-.01-.01-.023-.018-.034-.027a.429.429,0,0,0-.053-.042h0l0,0L6.2,5.162a.437.437,0,0,0-.434,0L2.117,7.251l0,0h0a.43.43,0,0,0-.054.042.313.313,0,0,0-.034.027.433.433,0,0,0-.046.06c-.007.01-.016.019-.023.03a.437.437,0,0,0-.043.1c0,.013,0,.026-.005.039A.429.429,0,0,0,1.9,7.63v3.648a.436.436,0,0,0,.227.383l3.42,1.868v5L2.117,20.488l0,0h0a.43.43,0,0,0-.054.042.313.313,0,0,0-.034.027.433.433,0,0,0-.046.06c-.007.01-.016.019-.023.03a.437.437,0,0,0-.043.1c0,.013,0,.026-.005.039a.429.429,0,0,0-.009.073v3.648a.436.436,0,0,0,.228.383l3.647,1.991a.43.43,0,0,0,.064.025.369.369,0,0,0,.035.013.422.422,0,0,0,.222,0c.012,0,.023-.009.035-.013a.43.43,0,0,0,.064-.025l3.1-1.691L13.3,27.871V29.68a.436.436,0,0,0,.227.383l3.647,1.991a.431.431,0,0,0,.064.025.372.372,0,0,0,.035.013.422.422,0,0,0,.222,0c.012,0,.023-.009.035-.013a.43.43,0,0,0,.064-.025l3.646-1.991a.436.436,0,0,0,.227-.383V27.87L25.483,25.2l3.1,1.691a.431.431,0,0,0,.064.025.371.371,0,0,0,.035.013.422.422,0,0,0,.222,0c.012,0,.023-.009.035-.013A.43.43,0,0,0,29,26.888l3.646-1.99a.436.436,0,0,0,.227-.383V20.867a.429.429,0,0,0-.009-.071c0-.013,0-.028-.005-.041a.436.436,0,0,0-.043-.1.341.341,0,0,0-.023-.031.433.433,0,0,0-.045-.059c-.01-.01-.023-.018-.034-.027a.429.429,0,0,0-.053-.042h0l0,0-3.428-1.963v-5l3.42-1.867a.436.436,0,0,0,.227-.383V7.63a.429.429,0,0,0-.009-.071ZM20.026,26.084l-2.642,1.442-2.642-1.442-.112-.061,2.753-1.577,2.753,1.576ZM9.192,11.018,6.417,12.533V9.88L9.192,8.366ZM5.981,19.281l2.753,1.577-.112.061L5.981,22.361,3.339,20.919l-.112-.061Zm3.611,1.062L6.417,18.525v-5L9.309,11.95l3.992,2.6v3.184ZM14.174,6.161V3.509l2.774,1.515V7.676Zm6.422,0L17.821,7.676V5.024L20.6,3.509Zm-3.211,6.563L20.138,14.3l-.112.061L17.385,15.8l-2.642-1.442-.112-.061Zm-3.211,2.322,2.774,1.515v2.653L14.174,17.7Zm3.647,1.515L20.6,15.046V17.7l-2.774,1.515Zm3.647-2.013,3.992-2.6,2.891,1.579v5l-3.174,1.818-3.709-2.612ZM28.351,9.88v2.653l-2.774-1.514V8.366ZM25.578,24.256V21.6l2.774,1.515V25.77Zm5.852-3.337-2.642,1.442-2.642-1.442-.112-.061,2.753-1.577,2.753,1.577ZM28.788,6.044l2.753,1.577-.112.061L28.788,9.124,26.147,7.682l-.112-.061ZM24.72,11.389l-3.7,2.41-3.2-1.83V8.67l2.928-1.6L24.7,9.549v1.728a.435.435,0,0,0,.015.112Zm-7.335-10.2,2.753,1.577L17.505,4.2l-.121.066L17.264,4.2,14.632,2.764ZM14.02,7.073l2.928,1.6v3.3l-3.2,1.83-3.7-2.41a.435.435,0,0,0,.015-.112V9.549ZM5.981,6.044,8.734,7.621l-.112.061L5.981,9.124,3.339,7.682l-.112-.061ZM2.771,8.366,5.545,9.88v2.652L2.771,11.018Zm0,13.237,2.774,1.515V25.77L2.771,24.256Zm3.647,1.515L9.192,21.6v2.653L6.418,25.77Zm3.623,1.533a.432.432,0,0,0,.025-.136V21.078l3.7-2.607,3.182,1.737v3.483l-3.429,1.963,0,0h0a.43.43,0,0,0-.054.042.313.313,0,0,0-.034.027.433.433,0,0,0-.046.06c-.007.01-.016.019-.023.03a.437.437,0,0,0-.043.1c0,.013,0,.026-.005.039a.429.429,0,0,0-.009.073v.79Zm4.133,2.984v-.867l2.774,1.515v2.653l-2.774-1.514Zm3.647,3.3V28.283L20.6,26.768v2.653Zm3.647-4.9a.429.429,0,0,0-.009-.071c0-.013,0-.028-.005-.041a.436.436,0,0,0-.043-.1.341.341,0,0,0-.023-.031.433.433,0,0,0-.045-.059c-.01-.01-.023-.018-.034-.027a.429.429,0,0,0-.053-.042h0l0,0-3.428-1.963V20.208L21,18.471l3.7,2.607v3.437a.432.432,0,0,0,.025.136l-3.26,2.171Zm7.756-.263V23.117L32,21.6v2.653Zm0-13.237V9.88L32,8.366v2.653Z" transform="translate(0 0)" stroke="#000" stroke-width="1"/>
    </g>
  </g>
</svg>
