<svg xmlns="http://www.w3.org/2000/svg" xmlns:xlink="http://www.w3.org/1999/xlink" width="100" height="100" viewBox="0 0 100 100">
  <defs>
    <clipPath id="clip-blog">
      <rect width="100" height="100"/>
    </clipPath>
  </defs>
  <g id="blog" clip-path="url(#clip-blog)">
    <g id="noun_Paper_1668166" transform="translate(-1.104 -2.867)">
      <path id="Path_2209" data-name="Path 2209" d="M83.788,29.148v0a1.612,1.612,0,0,0-.14-.394c-.015-.032-.032-.062-.049-.093a1.62,1.62,0,0,0-.254-.344L69.661,14.643a1.611,1.611,0,0,0-.343-.253c-.031-.018-.061-.034-.093-.05a1.618,1.618,0,0,0-.393-.14h0a1.618,1.618,0,0,0-.312-.031H27.87a7.715,7.715,0,0,0-7.707,7.706V83.858a7.715,7.715,0,0,0,7.707,7.706H76.114a7.714,7.714,0,0,0,7.706-7.706V29.463a1.617,1.617,0,0,0-.031-.315ZM70.136,19.7l8.15,8.144h-4.3A3.851,3.851,0,0,1,70.136,24Zm5.978,68.624H27.87A4.471,4.471,0,0,1,23.4,83.858V21.876A4.471,4.471,0,0,1,27.87,17.41H66.9V24a7.1,7.1,0,0,0,7.088,7.088h6.6V83.858a4.47,4.47,0,0,1-4.466,4.466ZM74.559,35.251a1.62,1.62,0,0,1-1.62,1.62h-41.9a1.62,1.62,0,1,1,0-3.24h41.9A1.62,1.62,0,0,1,74.559,35.251Zm0,12.711a1.62,1.62,0,0,1-1.62,1.62h-41.9a1.62,1.62,0,1,1,0-3.24h41.9a1.62,1.62,0,0,1,1.62,1.62Zm0,12.712a1.62,1.62,0,0,1-1.62,1.62h-41.9a1.62,1.62,0,1,1,0-3.24h41.9a1.62,1.62,0,0,1,1.62,1.62Zm0,12.712a1.62,1.62,0,0,1-1.62,1.62h-41.9a1.62,1.62,0,1,1,0-3.24h41.9a1.62,1.62,0,0,1,1.62,1.62Z" transform="translate(0 0)" fill="#646464" stroke="#646464" stroke-width="0.7"/>
    </g>
  </g>
</svg>
