<svg xmlns="http://www.w3.org/2000/svg" xmlns:xlink="http://www.w3.org/1999/xlink" width="100" height="100" viewBox="0 0 100 100">
  <defs>
    <clipPath id="clip-contact-white">
      <rect width="100" height="100"/>
    </clipPath>
  </defs>
  <g id="contact-white" clip-path="url(#clip-contact-white)">
    <g id="noun_call_3774690" transform="translate(13.897 13.914)">
      <path id="Path_2249" data-name="Path 2249" d="M31.223,26.007a9.473,9.473,0,0,0,2.626-8.61l-2.11-9.668A8.582,8.582,0,0,0,22.2,1.075L9.422,2.669A9.654,9.654,0,0,0,1.064,13.23,67.749,67.749,0,0,0,20.205,52.11,67.749,67.749,0,0,0,59.08,71.246a9.642,9.642,0,0,0,10.563-8.353l1.6-12.786a8.592,8.592,0,0,0-6.655-9.553l-9.668-2.11a9.492,9.492,0,0,0-8.611,2.626l-1.852,1.852a4.48,4.48,0,0,1-5.835.67,62.123,62.123,0,0,1-9.912-9.909,4.482,4.482,0,0,1,.67-5.837Zm-3.315-3.315-1.852,1.852A9.1,9.1,0,0,0,25.03,36.612,66.528,66.528,0,0,0,35.7,47.279a9.1,9.1,0,0,0,12.066-1.029L49.614,44.4a4.731,4.731,0,0,1,4.3-1.357l9.665,2.11a3.875,3.875,0,0,1,3,4.388L64.986,62.324a4.923,4.923,0,0,1-5.268,4.29A63.094,63.094,0,0,1,23.518,48.8,63.084,63.084,0,0,1,5.7,12.593,4.956,4.956,0,0,1,10,7.335S23.152,5.694,23.333,5.694A3.842,3.842,0,0,1,27.17,8.729l2.11,9.663a4.754,4.754,0,0,1-1.364,4.3Z" transform="translate(0 0)" fill="#fff"/>
    </g>
  </g>
</svg>
