<svg xmlns="http://www.w3.org/2000/svg" xmlns:xlink="http://www.w3.org/1999/xlink" width="100" height="100" viewBox="0 0 100 100">
  <defs>
    <clipPath id="clip-services">
      <rect width="100" height="100"/>
    </clipPath>
  </defs>
  <g id="services" clip-path="url(#clip-services)">
    <g id="noun_service_2450315" transform="translate(-7.092 -6.241)">
      <path id="Path_2254" data-name="Path 2254" d="M44.181,33.894A14.187,14.187,0,1,0,58.369,48.081,14.2,14.2,0,0,0,44.181,33.894Zm0,26.01A11.823,11.823,0,1,1,56,48.081,11.836,11.836,0,0,1,44.181,59.9Z" transform="translate(3.081 3.035)" fill="#646464" stroke="#646464" stroke-width="1"/>
      <path id="Path_2255" data-name="Path 2255" d="M14.14,59.393l6.589.748A27.79,27.79,0,0,0,22.326,64L18.2,69.189a1.181,1.181,0,0,0,.089,1.572l9.626,9.626a1.182,1.182,0,0,0,1.573.089l5.185-4.127a27.9,27.9,0,0,0,3.862,1.6l.749,6.589a1.181,1.181,0,0,0,1.174,1.049H54.07a1.181,1.181,0,0,0,1.174-1.049l.748-6.589a27.9,27.9,0,0,0,3.863-1.6l.314.25v1.876a1.182,1.182,0,0,0,1.05,1.175l3.515.4a16.659,16.659,0,0,0,.712,1.724l-2.2,2.767a1.181,1.181,0,0,0,.089,1.572L68.924,91.7a1.182,1.182,0,0,0,1.573.089l2.766-2.2a16.457,16.457,0,0,0,1.724.712l.4,3.515a1.181,1.181,0,0,0,1.174,1.049h7.909a1.181,1.181,0,0,0,1.174-1.049l.4-3.515a16.586,16.586,0,0,0,1.725-.712l2.766,2.2a1.181,1.181,0,0,0,1.573-.089L97.7,86.113a1.181,1.181,0,0,0,.089-1.572l-2.2-2.767a16.5,16.5,0,0,0,.712-1.724l3.515-.4a1.182,1.182,0,0,0,1.049-1.175V70.567a1.182,1.182,0,0,0-1.049-1.175l-3.515-.4a16.554,16.554,0,0,0-.712-1.724l2.2-2.766A1.182,1.182,0,0,0,97.7,62.93l-5.592-5.592a1.181,1.181,0,0,0-1.573-.089l-2.766,2.2a16.716,16.716,0,0,0-1.725-.713l-.4-3.515a1.181,1.181,0,0,0-1.174-1.049H81.433v-9.57a1.182,1.182,0,0,0-1.048-1.175L73.8,42.683a27.782,27.782,0,0,0-1.6-3.863l4.126-5.185a1.181,1.181,0,0,0-.089-1.572l-9.626-9.626a1.182,1.182,0,0,0-1.573-.089l-5.184,4.128a27.8,27.8,0,0,0-3.863-1.6l-.748-6.589a1.181,1.181,0,0,0-1.174-1.049H40.456a1.181,1.181,0,0,0-1.174,1.049l-.749,6.589a27.725,27.725,0,0,0-3.862,1.6l-5.185-4.128a1.182,1.182,0,0,0-1.573.089l-9.626,9.626a1.181,1.181,0,0,0-.089,1.572l4.128,5.185a27.77,27.77,0,0,0-1.6,3.863l-6.589.748a1.182,1.182,0,0,0-1.048,1.175V58.219A1.182,1.182,0,0,0,14.14,59.393Zm69.64.369a1.18,1.18,0,0,0,.837,1,14.3,14.3,0,0,1,2.728,1.128,1.181,1.181,0,0,0,1.3-.115l2.535-2.019,4.1,4.1-2.018,2.535a1.182,1.182,0,0,0-.114,1.3,14.277,14.277,0,0,1,1.127,2.727,1.182,1.182,0,0,0,1,.838l3.224.366v5.8l-3.224.366a1.182,1.182,0,0,0-1,.838,14.277,14.277,0,0,1-1.127,2.727,1.181,1.181,0,0,0,.114,1.3l2.018,2.537-4.1,4.1-2.535-2.019a1.183,1.183,0,0,0-1.3-.115,14.286,14.286,0,0,1-2.728,1.127,1.182,1.182,0,0,0-.837,1L83.414,92.5h-5.8L77.25,89.28a1.182,1.182,0,0,0-.837-1,14.25,14.25,0,0,1-2.727-1.127,1.184,1.184,0,0,0-1.3.114L69.85,89.286l-4.1-4.1,2.018-2.537a1.181,1.181,0,0,0,.115-1.3,14.29,14.29,0,0,1-1.127-2.728,1.183,1.183,0,0,0-1-.838l-3.222-.366v-5.8l3.222-.366a1.183,1.183,0,0,0,1-.838,14.29,14.29,0,0,1,1.127-2.728,1.181,1.181,0,0,0-.115-1.3L65.75,63.856l4.1-4.1,2.535,2.019a1.182,1.182,0,0,0,1.3.114,14.3,14.3,0,0,1,2.727-1.127,1.18,1.18,0,0,0,.837-1l.366-3.223h5.8Zm-68.324-14.1,6.305-.716a1.184,1.184,0,0,0,1-.838,25.412,25.412,0,0,1,2.008-4.858,1.181,1.181,0,0,0-.114-1.3l-3.949-4.962,8.133-8.133L33.8,28.8a1.182,1.182,0,0,0,1.3.114,25.414,25.414,0,0,1,4.857-2.008,1.18,1.18,0,0,0,.837-1l.717-6.3h11.5l.716,6.3a1.18,1.18,0,0,0,.837,1,25.449,25.449,0,0,1,4.858,2.008,1.182,1.182,0,0,0,1.3-.114l4.96-3.95,8.133,8.133L69.87,37.95a1.182,1.182,0,0,0-.114,1.3,25.293,25.293,0,0,1,2.008,4.858,1.184,1.184,0,0,0,1,.838l6.305.716v8.514H76.561a1.181,1.181,0,0,0-1.174,1.049l-.4,3.515a16.716,16.716,0,0,0-1.724.712l-2.766-2.2a1.182,1.182,0,0,0-1.573.089L63.333,62.93a1.181,1.181,0,0,0-.089,1.572l2.2,2.766a16.655,16.655,0,0,0-.712,1.724l-3.515.4a1.182,1.182,0,0,0-1.05,1.175v3.219a1.181,1.181,0,0,0-.744.119,25.462,25.462,0,0,1-4.858,2.009,1.18,1.18,0,0,0-.837,1l-.716,6.3h-11.5l-.717-6.3a1.18,1.18,0,0,0-.837-1A25.463,25.463,0,0,1,35.1,73.906a1.182,1.182,0,0,0-1.3.114l-4.961,3.949-8.133-8.133,3.949-4.962a1.181,1.181,0,0,0,.114-1.3,25.362,25.362,0,0,1-2.008-4.858,1.183,1.183,0,0,0-1-.838l-6.305-.716v-11.5Z" transform="translate(0 0)" fill="#646464" stroke="#646464" stroke-width="1"/>
      <path id="Path_2256" data-name="Path 2256" d="M62.73,66.892a8.737,8.737,0,1,0,8.737-8.738A8.747,8.747,0,0,0,62.73,66.892Zm8.737-6.373a6.373,6.373,0,1,1-6.372,6.373A6.38,6.38,0,0,1,71.467,60.519Z" transform="translate(9.048 7.458)" fill="#646464" stroke="#646464" stroke-width="1"/>
    </g>
  </g>
</svg>
