<svg xmlns="http://www.w3.org/2000/svg" xmlns:xlink="http://www.w3.org/1999/xlink" width="100" height="100" viewBox="0 0 100 100">
  <defs>
    <clipPath id="clip-softwar">
      <rect width="100" height="100"/>
    </clipPath>
  </defs>
  <g id="softwar" clip-path="url(#clip-softwar)">
    <g id="noun_website_2187643" transform="translate(-10.975 -45.683)">
      <path id="Path_2273" data-name="Path 2273" d="M101.949,69.039A6.927,6.927,0,0,0,95.1,62H26.849A6.927,6.927,0,0,0,20,69.039v53.287a6.927,6.927,0,0,0,6.849,7.039H95.1a6.927,6.927,0,0,0,6.85-7.039V69.039Zm-2.778,53.287a4.148,4.148,0,0,1-4.072,4.261H26.849a4.147,4.147,0,0,1-4.071-4.261V77.973H99.171Zm0-47.131H22.778V69.039a4.147,4.147,0,0,1,4.071-4.261H95.1a4.148,4.148,0,0,1,4.072,4.261Z" transform="translate(0 0)" stroke="#000" stroke-width="1"/>
      <path id="Path_2274" data-name="Path 2274" d="M55.858,84.91A4.191,4.191,0,1,0,59.916,89.1,4.13,4.13,0,0,0,55.858,84.91Zm0,5.6a1.418,1.418,0,1,1,1.28-1.411A1.352,1.352,0,0,1,55.858,90.51Z" transform="translate(-26.279 -18.932)" stroke="#000" stroke-width="1"/>
      <path id="Path_2275" data-name="Path 2275" d="M179.533,263.761A1.389,1.389,0,1,0,181.5,261.8l-5.8-5.8,5.8-5.8a1.389,1.389,0,0,0-1.964-1.964l-6.781,6.781a1.389,1.389,0,0,0,0,1.965Z" transform="translate(-125.895 -153.564)" stroke="#000" stroke-width="1"/>
      <path id="Path_2276" data-name="Path 2276" d="M285,250.2l5.8,5.8-5.8,5.8a1.389,1.389,0,0,0,1.964,1.964l6.781-6.781a1.389,1.389,0,0,0,0-1.965l-6.781-6.781A1.389,1.389,0,0,0,285,250.2Z" transform="translate(-218.658 -153.566)" stroke="#000" stroke-width="1"/>
      <path id="Path_2277" data-name="Path 2277" d="M227.623,247.275a1.388,1.388,0,0,0,1.743-.906l7.307-23.107a1.389,1.389,0,0,0-2.649-.838l-7.307,23.107A1.389,1.389,0,0,0,227.623,247.275Z" transform="translate(-170.773 -131.77)" stroke="#000" stroke-width="1"/>
    </g>
  </g>
</svg>
