<svg xmlns="http://www.w3.org/2000/svg" xmlns:xlink="http://www.w3.org/1999/xlink" width="100" height="100" viewBox="0 0 100 100">
  <defs>
    <clipPath id="clip-technology-white">
      <rect width="100" height="100"/>
    </clipPath>
  </defs>
  <g id="technology-white" clip-path="url(#clip-technology-white)">
    <g id="noun_services_1360625_1_" data-name="noun_services_1360625(1)" transform="translate(265 -1.564)">
      <path id="Path_2250" data-name="Path 2250" d="M92.941,26.7a2.325,2.325,0,0,0-3.627-.5l-9.533,9.475A6.58,6.58,0,0,1,74.6,30.487l9.475-9.475A2.325,2.325,0,0,0,83.5,17.4c-9.033-4.988-19.415-3.3-27.1,4.383a23.252,23.252,0,0,0-5.046,25.379L18.07,80.444A9.7,9.7,0,0,0,31.777,94.127l33.9-33.855A23.252,23.252,0,0,0,92.941,26.7ZM85.966,51.111a18.6,18.6,0,0,1-20,4.243,2.325,2.325,0,0,0-2.5.523L28.591,90.756a5.048,5.048,0,1,1-7.138-7.138L55.8,49.3a2.325,2.325,0,0,0,.43-2.7A19.148,19.148,0,0,1,72.91,19.2a16.916,16.916,0,0,1,5.487.918L70.526,28a2.325,2.325,0,0,0-.674,1.744,11.242,11.242,0,0,0,10.7,10.7,2.325,2.325,0,0,0,1.744-.674l7.894-7.894a18.113,18.113,0,0,1-4.267,19.311Z" transform="translate(-267.619 -4.739)" fill="#fff"/>
    </g>
  </g>
</svg>
