<svg xmlns="http://www.w3.org/2000/svg" xmlns:xlink="http://www.w3.org/1999/xlink" width="100" height="100" viewBox="0 0 100 100">
  <defs>
    <clipPath id="clip-web">
      <rect width="100" height="100"/>
    </clipPath>
  </defs>
  <g id="web" clip-path="url(#clip-web)">
    <g id="noun_website_4321778" transform="translate(4.5 3.92)">
      <g id="Layer_9_copy" data-name="Layer 9 copy" transform="translate(3.5 11.08)">
        <path id="Path_2270" data-name="Path 2270" d="M82.484,11.08H9.005A5.515,5.515,0,0,0,3.5,16.585V76.292A5.515,5.515,0,0,0,9.005,81.8H82.484a5.515,5.515,0,0,0,5.505-5.505V16.585A5.515,5.515,0,0,0,82.484,11.08ZM6.225,16.585a2.78,2.78,0,0,1,2.78-2.78H82.484a2.78,2.78,0,0,1,2.78,2.78V29.25H6.225ZM85.264,76.292a2.78,2.78,0,0,1-2.78,2.78H9.005a2.78,2.78,0,0,1-2.78-2.78V31.975H85.264ZM14.983,16.658a4.87,4.87,0,1,0,4.87,4.87A4.87,4.87,0,0,0,14.983,16.658Zm0,7.014a2.144,2.144,0,1,1,2.144-2.144,2.144,2.144,0,0,1-2.144,2.144ZM27.03,16.658a4.87,4.87,0,1,0,4.87,4.87,4.87,4.87,0,0,0-4.87-4.87Zm0,7.014a2.144,2.144,0,1,1,2.144-2.144,2.144,2.144,0,0,1-2.144,2.144Zm12.047-7.014a4.87,4.87,0,1,0,4.851,4.87,4.87,4.87,0,0,0-4.851-4.87Zm0,7.014A2.144,2.144,0,1,1,41.2,21.528a2.144,2.144,0,0,1-2.126,2.144ZM30.3,67.906a20.287,20.287,0,0,0,14.345,7.2h2.235c16.062-.354,25.093-21.15,14.309-33.115C43.846,21.909,13.575,47.347,30.3,67.906Zm8.785,3.171a17.588,17.588,0,0,1-5.724-3.861,19.987,19.987,0,0,1,3.189-1.381A20.241,20.241,0,0,0,39.167,71.1Zm.073-5.987a30.152,30.152,0,0,1,5.242-.681v7.713c-2.026-.8-3.97-3.289-5.26-7.032Zm5.224-19.614a29.307,29.307,0,0,1-5.242-.681c1.29-3.734,3.234-6.223,5.242-7.023Zm0,2.725v5.387H37.614a32.9,32.9,0,0,1,.79-6.178,32.479,32.479,0,0,0,5.978.79Zm0,8.113v5.378a32.479,32.479,0,0,0-5.978.79,32.9,32.9,0,0,1-.79-6.169Zm2.725,5.378V56.314h6.814a32.9,32.9,0,0,1-.79,6.169,32.478,32.478,0,0,0-6.023-.79Zm5.242,3.4c-1.29,3.743-3.234,6.232-5.242,7.032V64.409a30.152,30.152,0,0,1,5.242.681Zm-5.242-11.5V48.2a32.478,32.478,0,0,0,5.978-.79,32.9,32.9,0,0,1,.79,6.178Zm0-8.113v-7.7c2.008.8,3.952,3.289,5.242,7.023a29.308,29.308,0,0,1-5.242.681Zm9.848,22.84A16.971,16.971,0,0,1,52.341,71.1a20.241,20.241,0,0,0,2.616-5.269,19.987,19.987,0,0,1,3.189,1.381C57.764,67.607,57.365,67.97,56.956,68.315Zm2.962-3.2a21.986,21.986,0,0,0-4.179-1.9,36.158,36.158,0,0,0,.908-6.9h6.532a17.543,17.543,0,0,1-3.262,8.8ZM56.647,53.588a35.967,35.967,0,0,0-.908-6.9,22.313,22.313,0,0,0,4.206-1.908,17.543,17.543,0,0,1,3.225,8.812Zm1.535-10.9A20.232,20.232,0,0,1,55,44.077a20.668,20.668,0,0,0-2.626-5.287,17.516,17.516,0,0,1,5.769,3.888ZM39.149,38.78a20.368,20.368,0,0,0-2.616,5.287,19.986,19.986,0,0,1-3.189-1.39A17.516,17.516,0,0,1,39.149,38.78Zm-7.577,6a22.576,22.576,0,0,0,4.179,1.908,35.967,35.967,0,0,0-.909,6.9h-6.5a17.452,17.452,0,0,1,3.225-8.812Zm3.271,11.538a36.158,36.158,0,0,0,.909,6.9,21.985,21.985,0,0,0-4.206,1.9,17.543,17.543,0,0,1-3.225-8.8ZM79.832,70.45v-19.4a1.363,1.363,0,1,1,2.725,0v19.4a1.363,1.363,0,0,1-2.725,0Zm0-25.565V40.924a1.363,1.363,0,0,1,2.725,0v3.961a1.363,1.363,0,0,1-2.725,0Z" transform="translate(-3.5 -11.08)" stroke="#000" stroke-width="1"/>
      </g>
    </g>
  </g>
</svg>
