<svg xmlns="http://www.w3.org/2000/svg" xmlns:xlink="http://www.w3.org/1999/xlink" width="100" height="100" viewBox="0 0 100 100">
  <defs>
    <clipPath id="clip-ai">
      <rect width="100" height="100"/>
    </clipPath>
  </defs>
  <g id="ai" clip-path="url(#clip-ai)">
    <rect width="100" height="100" fill="#fff"/>
    <g id="noun_Robot_4176824" transform="translate(-8.115 -8.115)">
      <rect id="Rectangle_5" data-name="Rectangle 5" width="116" height="116" transform="translate(0.115 0.115)" fill="none"/>
      <path id="Path_23" data-name="Path 23" d="M81.968,29.075A9.076,9.076,0,0,0,72.893,20H22.075A9.076,9.076,0,0,0,13,29.075V72.633a9.076,9.076,0,0,0,9.075,9.075H72.893a9.076,9.076,0,0,0,9.075-9.075Zm-3.63,0V72.633a5.444,5.444,0,0,1-5.445,5.445H22.075a5.444,5.444,0,0,1-5.445-5.445V29.075a5.444,5.444,0,0,1,5.445-5.445H72.893A5.444,5.444,0,0,1,78.338,29.075Z" transform="translate(10.631 16.335)" fill="#2c39f2" stroke="#2c39f2" stroke-width="1" fill-rule="evenodd"/>
      <path id="Path_24" data-name="Path 24" d="M61.7,39.075A9.076,9.076,0,0,0,52.63,30H50.815A1.816,1.816,0,0,0,49,31.815V57.224a1.816,1.816,0,0,0,1.815,1.815H52.63A9.076,9.076,0,0,0,61.7,49.964ZM52.63,33.63V55.409h0a5.444,5.444,0,0,0,5.445-5.445V39.075A5.444,5.444,0,0,0,52.63,33.63Z" transform="translate(39.969 24.485)" fill="#2c39f2" stroke="#2c39f2" stroke-width="1" fill-rule="evenodd"/>
      <path id="Path_25" data-name="Path 25" d="M8,39.075v10.89a9.076,9.076,0,0,0,9.075,9.075H18.89A1.816,1.816,0,0,0,20.7,57.224V31.815A1.816,1.816,0,0,0,18.89,30H17.075A9.076,9.076,0,0,0,8,39.075Zm9.075-5.445h0a5.444,5.444,0,0,0-5.445,5.445v10.89a5.444,5.444,0,0,0,5.445,5.445h0Z" transform="translate(6.556 24.485)" fill="#2c39f2" stroke="#2c39f2" stroke-width="1" fill-rule="evenodd"/>
      <path id="Path_26" data-name="Path 26" d="M35.26,10a7.26,7.26,0,1,0,7.26,7.26A7.262,7.262,0,0,0,35.26,10Zm0,3.63a3.63,3.63,0,1,1-3.63,3.63A3.631,3.631,0,0,1,35.26,13.63Z" transform="translate(22.855 8.186)" fill="#2c39f2" fill-rule="evenodd"/>
      <path id="Path_27" data-name="Path 27" d="M45.149,45.63V43.815A1.816,1.816,0,0,0,43.334,42H28.815A1.816,1.816,0,0,0,27,43.815V45.63a9.075,9.075,0,0,0,18.149,0Zm-3.63,0H30.63a5.445,5.445,0,0,0,10.89,0Z" transform="translate(22.04 34.264)" fill="#2c39f2" fill-rule="evenodd"/>
      <path id="Path_28" data-name="Path 28" d="M31,17.815v7.26a1.815,1.815,0,1,0,3.63,0v-7.26a1.815,1.815,0,1,0-3.63,0Z" transform="translate(25.3 13.076)" fill="#2c39f2" fill-rule="evenodd"/>
      <path id="Path_29" data-name="Path 29" d="M31.7,37.352a6.352,6.352,0,1,0-12.7,0V42.8a6.352,6.352,0,0,0,12.7,0Zm-3.63,0a2.722,2.722,0,1,0-5.445,0V42.8a2.722,2.722,0,0,0,5.445,0Z" transform="translate(15.52 25.3)" fill="#2c39f2" fill-rule="evenodd"/>
      <path id="Path_30" data-name="Path 30" d="M50.7,37.352a6.352,6.352,0,1,0-12.7,0V42.8a6.352,6.352,0,0,0,12.7,0Zm-3.63,0a2.722,2.722,0,1,0-5.445,0V42.8a2.722,2.722,0,0,0,5.445,0Z" transform="translate(31.004 25.3)" fill="#2c39f2" fill-rule="evenodd"/>
      <path id="Path_31" data-name="Path 31" d="M25.815,38.63H51.224a1.815,1.815,0,0,0,0-3.63H25.815a1.815,1.815,0,1,0,0,3.63Z" transform="translate(19.595 28.56)" fill="#2c39f2" fill-rule="evenodd"/>
    </g>
  </g>
</svg>
