<svg xmlns="http://www.w3.org/2000/svg" xmlns:xlink="http://www.w3.org/1999/xlink" width="100" height="100" viewBox="0 0 100 100">
  <defs>
    <clipPath id="clip-android">
      <rect width="100" height="100"/>
    </clipPath>
  </defs>
  <g id="android" clip-path="url(#clip-android)">
    <rect width="100" height="100" fill="#fff"/>
    <g id="noun_Android_3641060" transform="translate(3.332 -1.612)">
      <g id="Layer_6" data-name="Layer 6" transform="translate(15.92 10.493)">
        <path id="Path_1" data-name="Path 1" d="M58.787,28.842H24.368A2.868,2.868,0,0,0,21.5,31.71v23.6A6.96,6.96,0,0,0,29.665,62V73.128a2.868,2.868,0,0,0,5.737,0V62H47.907V73.128a2.868,2.868,0,0,0,5.737,0V62a6.96,6.96,0,0,0,8.165-6.693V31.71a2.868,2.868,0,0,0-3.021-2.868ZM55.919,55.306a.956.956,0,0,1-.956.956H28.193a.956.956,0,0,1-.956-.956V34.578H56Z" transform="translate(-10.83 6.24)" fill="#2c39f2"/>
        <path id="Path_2" data-name="Path 2" d="M51.692,21.673l4.322-6.75a2.88,2.88,0,1,0-4.857-3.1l-5.067,7.9a30,30,0,0,0-9.064,0l-4.991-7.9a2.868,2.868,0,0,0-4.819,3.1l4.322,6.75A19.122,19.122,0,0,0,21.48,38.443a2.868,2.868,0,0,0,2.868,2.868H58.806a2.868,2.868,0,0,0,2.868-2.868,19.122,19.122,0,0,0-9.982-16.77Zm-24.208,13.9a13.806,13.806,0,0,1,15.3-10.44,13.385,13.385,0,0,1,12.984,10.44Z" transform="translate(-10.848 -10.493)" fill="#2c39f2"/>
        <path id="Path_3" data-name="Path 3" d="M47.948,28.84a2.868,2.868,0,0,0-2.868,2.868V46.814a2.868,2.868,0,0,0,5.737,0V31.708a2.868,2.868,0,0,0-2.868-2.868Z" transform="translate(10.679 6.242)" fill="#2c39f2"/>
        <path id="Path_4" data-name="Path 4" d="M18.788,28.84a2.868,2.868,0,0,0-2.868,2.868V46.814a2.868,2.868,0,1,0,5.737,0V31.708a2.868,2.868,0,0,0-2.868-2.868Z" transform="translate(-15.92 6.242)" fill="#2c39f2"/>
      </g>
    </g>
  </g>
</svg>
