<svg xmlns="http://www.w3.org/2000/svg" xmlns:xlink="http://www.w3.org/1999/xlink" viewBox="0 0 367 298.7" xmlns:v="https://vecta.io/nano"><style><![CDATA[.R{fill:#ecf1f9}.S{fill:#3a3a5b}.T{fill:#ffccbe}.U{fill:#f9dad2}.V{opacity:.4}.W{fill:#ff4d67}.X{fill:#e98c94}.Y{enable-background:new}.Z{fill:#ff2948}]]></style><ellipse cx="269.9" cy="274.8" rx="84.4" ry="10" class="S V Y"/><g class="S V"><path d="M244.1 39.2h3.3c6.8 0 12.2 5.5 12.2 12.2v.8c0 6.8-5.5 12.2-12.2 12.2h-3.3c-6.8 0-12.2-5.5-12.2-12.2v-.8c-.1-6.8 5.4-12.2 12.2-12.2z"/><path d="M238.4 51.6c.8 2 7.4 7.4 7.4 7.4s2.2-1.8 4.1-3.6c1.5-1.4 2.9-2.9 3.2-3.7.8-2-.1-4.9-2.9-5.4-2.9-.5-4.4 2.5-4.4 2.5s-1.6-3-4.4-2.5c-.5.1-.9.2-1.3.5-1.9.9-2.4 3.1-1.7 4.8z"/></g><g class="S V"><path d="M24.7 130.2h42.5c3.4 0 6.1 2.8 6.2 6.2V155c0 3.1-2.5 5.6-5.7 5.7h-1.1l2 8.7-12.9-8.7H24.3c-3.4 0-6.2-2.8-6.2-6.2h0v-17.8c.1-3.6 3-6.5 6.6-6.5z"/><use xlink:href="#B"/><path d="M23.6 148.6h44.3a1.11 1.11 0 0 0 1.1-1.1h0a1.11 1.11 0 0 0-1.1-1.1H23.6a1.11 1.11 0 0 0-1.1 1.1h0c0 .7.4 1.1 1.1 1.1z"/><use xlink:href="#B" y="9.9"/><path d="M47.7 136.1h18.8c.7 0 1.3-.6 1.3-1.3h0 0c0-.7-.6-1.3-1.3-1.3h0-18.8c-.7 0-1.3.6-1.3 1.3h0 0c0 .7.6 1.3 1.3 1.3zm-15.9 0h10.8c.7 0 1.3-.6 1.3-1.3h0 0c0-.7-.6-1.3-1.3-1.3H31.8c-.7 0-1.3.6-1.3 1.3h0 0c0 .7.6 1.3 1.3 1.3z"/></g><ellipse cx="97.2" cy="250.9" rx="84.4" ry="10" class="S V Y"/><path d="M197.9 123.5s-14.1 28.2-28.4 47.6c-5.7 7.7-11.4 14.1-16.3 16.8s-8.8 6.6-12.2 11.1c-8.7 11.6-12.7 26.1-12.7 26.1l-36.6-55.4s1.2-54.1 5.6-63.1c6.4-13.2 9.5-39.8 12-45.1 1.8-3.9 7-24.3 7.5-25.8.2-.7 2-1.7 4.2-1.7 1.8 0 4.9 1.8 5.7 5.3 3.9 18.1-.8 30.1-.7 30.6 1.4 13.9-2.8 24.3.1 27 .1.1.3.1.6-.1 5-3.2 36.3-48.9 40.2-49.9 3.8-.9 31 76.6 31 76.6z" class="T"/><path d="M139.3 208.2s-.5 18.9-1.9 44.4H45.1l39.4-63.7s52.6 1.3 54.8 19.3z" class="W"/><path d="M229.8 28.1l-11.3 16.6L207.4 61c-.5.7-1.4 1.1-2.3 1-2.7-.3-6-4.1-8.6-6.2l-.3-.2a8.07 8.07 0 0 1-1.1-11.3l17-20.5h0l5-6.1a8.07 8.07 0 0 1 11.3-1.1l.3.2c3.5 2.9 3.9 7.9 1.1 11.3z" class="T"/><path d="M218.5 44.7L207.4 61c-.5.7-1.4 1.1-2.3 1l7.1-38.2c0 .2 1.2 17.4 6.3 20.9zm-49 126.4c-5.7 7.7-11.4 14.1-16.3 16.8s-8.8 6.6-12.2 11.1c-3.9-1.8-8.3-3.9-12.5-6-5.2-2.5-5.4-10-.3-12.7l.2-.1c4.8-2.7 9.7-12.5 9.7-12.5l31.4 3.4z" class="X"/><path d="M116.6 36.4l-3 12s2.6 1.1 4.2.2 3.1-11.5-1.2-12.2z" class="U"/><path d="M147.3 13.9h45.4c11.4 0 20.6 9.2 20.6 20.6v121.7c0 11.4-9.2 20.6-20.6 20.6h-45.4c-11.4 0-20.6-9.2-20.6-20.6V34.5c0-11.4 9.2-20.6 20.6-20.6z" fill="#2c2c2c"/><path d="M208.9 26.4v136.8c0 4.6-3.7 8.4-8.4 8.4h-61.2c-4.6 0-8.4-3.8-8.4-8.4V26.4c0-4.6 3.7-8.4 8.4-8.4h61.2c4.7-.1 8.4 3.7 8.4 8.4z" fill="#7398e6"/><path d="M200.5 17.9l-60.4 153.7h-.8c-4.6 0-8.4-3.8-8.4-8.4V26.4c0-4.6 3.7-8.4 8.4-8.4h61.2z" fill="#80b4ff"/><path d="M182.4 23h-25c-2.3 0-4.1-1.8-4.1-4.1h0 0c0-2.3 1.8-4.1 4.1-4.1h0 25c2.3 0 4.1 1.8 4.1 4.1h0 0c0 2.3-1.8 4.1-4.1 4.1h0z" fill="#2c2c2c"/><path d="M224.2 90.8l-1.7.6-11.4 4.3-.8.3c-3.8 1-7.8-1.1-9.2-4.7l-.2-.4c-1.5-4 .5-8.5 4.5-10l10.6-4 .8-.3 1.7-.6c4-1.5 8.5.5 10 4.5l.2.4c1.5 4-.5 8.4-4.5 9.9z" class="T"/><path d="M215 91.1c-1.9.7-5.3 2-7.2 2.3-.5.1-1.5-.2-2.4-1.2-.7-.7-1.1-1.6-1.4-2.6-.2-.5-.3-1.1-.4-1.6-.1-.7-.1-1.3.1-2 .1-.6.5-1.1 1.1-1.4h0c1.9-.9 4.6-2.1 6.9-2.7 1.6-.5 3.2.3 3.7 1.6l.2.7 1.2 3.3c.5 1.4-.3 3-1.8 3.6z" class="R"/><path d="M215 91.1c-1.9.7-5.3 2-7.2 2.3-.5.1-1.5-.2-2.4-1.2-.1-.2-.2-.5-.3-.7-.2-.5-.3-1.1-.4-1.6-.1-.7-.1-1.3.1-2 .1-.6.5-1.1 1.1-1.4h0c1.9-.9 4.6-2.1 6.9-2.7a3.1 3.1 0 0 1 2.8.5l1.2 3.3c.5 1.3-.3 2.9-1.8 3.5z" class="U"/><path d="M219 106.8l-8.8 2.4c-2.7.7-5.4-.9-6.2-3.5l-.3-1c-.7-2.7.9-5.4 3.5-6.2l8.8-2.4c2.7-.7 5.4.9 6.2 3.5l.3 1a4.95 4.95 0 0 1-3.5 6.2z" class="T"/><path d="M214.3 106.4l-6 1.3c-.6 0-1.7-.4-2.4-1.9a5.42 5.42 0 0 1-.6-2.5c0-.5 0-1 .2-1.5.1-.5.5-.9 1-1h0c1.9-.7 3.9-1.2 5.8-1.6 1.3-.2 2.6.4 2.9 1.5l.2.8.7 2.4c.3 1-.5 2.1-1.8 2.5z" class="R"/><path d="M214.3 106.4l-6 1.3c-.6 0-1.7-.4-2.4-1.9-.1-.4-.2-.8-.2-1.2 0-.5 0-1 .2-1.5.1-.5.5-.8 1-1h0c1.9-.7 3.9-1.2 5.8-1.6 1.1-.2 2.2.2 2.7 1l.7 2.4c.3 1-.5 2.1-1.8 2.5z" class="U"/><path d="M75.5 207.6s18 17.3 30.2 23.9l9.2-6.5v9.6s18.1 3.2 23.8 0v-26.2l-50.8-25.5-12.4 24.7z" class="Z"/><path d="M142.6 232.6c-7 1.4-22.1-4.1-22.1-4.1l2.4-23.5-17.1 19.5c-8.7-3.2-22.3-11.7-30.3-16.9l-6.7-4.4c11.4-18.3 22.8-35.4 22.8-35.4 3.4 6.7 11.3 12.6 19.9 17.2 14.3 7.8 30.5 12.3 30.5 12.3l.6 35.3z" fill="#ffd186"/><path d="M223.9 74.1l-.2.1-11.5 3c-5 1.3-10.3-1.4-11.6-6.1l-.7-2.4c-1.3-4.5 1.5-9.1 6.2-10.6l3.8-1 7.7-2c5-1.3 10.3 1.4 11.6 6.1l.7 2.4c1.3 4.3-1.4 8.9-6 10.5z" class="T"/><path d="M218.6 70.9l-5.6 2.5h0l-.7.1h-.3c-.5 0-.9-.4-.9-.9 0-.1 0-.2.1-.3.5-1.2.7-2.5.3-3.8l-.1-.5h0l-.4-1.6c-.3-1.2-1-2.3-2-3.1l-.3-.3c-.7-.5-.9-1.5-.4-2.2.2-.3.5-.5.9-.6h0l6.1-.9c1.5-.4 3 .7 3.4 2.3l.5 1.8 1 3.9c.3 1.4 0 3.1-1.6 3.6z" class="R"/><path d="M218.6 70.9l-5.6 2.5h0l-1.1.2c-.5 0-.9-.4-.9-.9 0-.1 0-.2.1-.3.5-1.2.7-2.5.3-3.8l-.1-.5h0l-.4-1.6c-.3-1.2-1-2.3-2-3.1.2-.3.5-.5.9-.6h0l6.1-.9c1.3-.3 2.5.4 3.1 1.6l1 3.9c.5 1.3.2 3-1.4 3.5z" class="U"/><path d="M126.7 133.8s-2.5-21.9-4.8-26.1-4.3-12.8-.7-19.2c3.6-6.3 4.8-18.6 4.8-18.6 1.4 13.9-2.8 24.3.1 27 .1.1.3.1.6-.1v37z" class="X"/><path d="M92.1 60.4h78.2a9.86 9.86 0 0 1 9.9 9.9v26a9.86 9.86 0 0 1-9.9 9.9H92.1a9.86 9.86 0 0 1-9.9-9.9v-26a9.86 9.86 0 0 1 9.9-9.9z" class="S V Y"/><path d="M100 52.4h78.2a9.86 9.86 0 0 1 9.9 9.9v26a9.86 9.86 0 0 1-9.9 9.9H100a9.86 9.86 0 0 1-9.9-9.9v-26c.1-5.5 4.5-9.9 9.9-9.9z" class="W"/><path d="M180 46.6h-27.6c-4.3 0-7.8-3.5-7.8-7.8h0 0c0-4.3 3.5-7.8 7.8-7.8h0H180c4.3 0 7.8 3.5 7.8 7.8h0 0c0 4.3-3.5 7.8-7.8 7.8h0zM177.6 161h-31c-5.3 0-9.6-4.3-9.6-9.6h0c0-5.3 4.3-9.6 9.6-9.6h31c5.3 0 9.6 4.3 9.6 9.6h0c.1 5.3-4.3 9.6-9.6 9.6z" fill="#5dd782"/><path d="M165.2 106.1h26.5c6.5 0 11.8 5.3 11.8 11.8v3.9c0 6.5-5.3 11.8-11.8 11.8h-26.5c-6.5 0-11.8-5.3-11.8-11.8V118c0-6.6 5.3-11.9 11.8-11.9z" class="W"/><path d="M301.9 271.8h-67.7c-3.2-2.2-20.1-13.7-27.1-22.2-1.5-1.8-6.9-17.5-11-30.2-2.6-7.9-4.7-14.7-5-16.3-.2-1-.3-2-.3-3.1h0c-.2-5.2.1-15.2.3-23.2h0v-1.2h0v-.1c.1-1.4.1-2.7.1-3.9l.2-6.1v-.4h0c.1-.1 3.4-1.8 7.7 1.3 1.1.8 2 2.6 2.9 5 .6 1.5 1.1 3.3 1.6 5.1 1.9 7.1 3.3 15.6 4 17.8 1.2 3.7 15 19.8 15.9 20.8l.1.1v-25.5l-10.4-27.9-4.2-11.5-2.2-5.8c-2.3-3.8-4.3-7.8-6.1-12-1.2-2.9-2.2-5.8-3-8.8-.2-.7-.3-1.4-.4-2h0c-.4-2.5-.4-4.8.1-6.6 1-3.3 3.3-3.9 5-3.9l.5.1.5.1c.3.1.6.2.9.4h0c.5.3.8.6 1.1 1.1l3.5 4.5 4.3 5.6 5.7 7.5c3.6 5 13.3 21.5 13.3 21.5l11.3.5c1.8.1 3.5.8 4.8 2l13.8 13.1c0 .4 6.7 3.6 12 6.5 3.7 1.6 10.8 7.2 10.8 7.2 1.5 1.3 2.6 2.6 3.2 3.8 2.4 5.3 9 51.2 12.2 74l1.6 12.7z" class="T"/><path d="M232.2 152.1s10.5 17.1 11.9 17.9 6.8 1.9 7.4 0-19.3-17.9-19.3-17.9zm52.7 29.3h0c-.1-.1-7.1-5.6-10.9-7.2-4.8-2.7-10.9-5.6-11.8-6.4 1.1 1.3 8.9 10.1 11.9 10.8 3.1.7 8.7 2.3 10.8 2.8zm-61.2 33.9v-25.5s6.1 10.1 6.5 15.7-2.5 14.5-6.5 9.8z" class="X"/><path d="M201.7 121.8c-.9-1.5-2.5-4.3-3-5.8-.2-.4-.1-1.3.4-2.2a4.1 4.1 0 0 1 1.6-1.6c.3-.2.7-.5 1.1-.6.5-.2.9-.3 1.4-.3s1 .3 1.2.7h0l3.3 5.5c.6 1.3.4 2.8-.5 3.5l-.4.3-2.2 1.6c-.9.6-2.2.1-2.9-1.1z" class="R"/><path d="M201.7 121.8c-.9-1.5-2.5-4.3-3-5.8-.2-.4-.1-1.3.4-2.2l.5-.3c.3-.2.7-.5 1.1-.6.5-.2.9-.3 1.4-.3s1 .3 1.2.7h0l3.3 5.5c.4.8.5 1.7.2 2.5l-2.2 1.6c-.9.6-2.2.1-2.9-1.1z" class="U"/><path d="M252.1 31.2h3.3c6.8 0 12.2 5.5 12.2 12.2v.8c0 6.8-5.5 12.2-12.2 12.2h-3.3c-6.8 0-12.2-5.5-12.2-12.2v-.8c-.1-6.7 5.4-12.2 12.2-12.2z" class="R"/><path d="M246.3 43.6c.8 2 7.4 7.4 7.4 7.4s2.2-1.8 4.1-3.6c1.5-1.4 2.9-2.9 3.2-3.7.8-2-.1-4.9-2.9-5.4-2.9-.5-4.4 2.5-4.4 2.5s-1.6-3-4.4-2.5c-.5.1-.9.2-1.3.5-1.9.9-2.3 3.1-1.7 4.8z" class="Z"/><path d="M32.7 122.2h42.5c3.4 0 6.1 2.8 6.2 6.2V147c0 3.1-2.5 5.6-5.7 5.7h-1.1l2 8.7-12.9-8.7H32.3c-3.4 0-6.2-2.8-6.2-6.2h0v-17.8c0-3.6 3-6.5 6.6-6.5z" class="R"/><g class="S"><use xlink:href="#C"/><use xlink:href="#C" y="4.9"/><use xlink:href="#C" y="9.8"/><path d="M55.7 128.1h18.8c.7 0 1.3-.6 1.3-1.3h0 0c0-.7-.6-1.3-1.3-1.3h0-18.8c-.7 0-1.3.6-1.3 1.3h0 0c0 .8.5 1.3 1.3 1.3zm-15.9 0h10.8c.7 0 1.3-.6 1.3-1.3h0 0c0-.7-.6-1.3-1.3-1.3H39.8c-.7 0-1.3.6-1.3 1.3h0 0c0 .8.5 1.3 1.3 1.3z"/></g><path d="M246.2 131.7l26.7 8.7-16-15.6-1.6 3.8-6.9.1z" fill="#66c88a"/><g fill="#81e3a5"><path d="M272.9 140.4l-20.7-15.8-22.2-5z"/><path d="M256.9 124.8l16 15.6-10.6-21.9z"/></g><path d="M88.6 32.1l-25 3.6 16.6-11.3.8 3.6 6.1 1.1z" fill="#66c88a"/><g fill="#81e3a5"><path d="M63.6 35.7l20.8-10.8 20.4-1z"/><path d="M80.2 24.4L63.6 35.7 76.4 18z"/></g><path d="M127.8 73.6c0 7.8-6.4 14.2-14.2 14.2s-14.2-6.4-14.2-14.2 6.4-14.2 14.2-14.2 14.2 6.3 14.2 14.1v.1z" class="R"/><path d="M119.3 80.3l-.1-.1c-.2-.1-.3-.2-1-.3l-1.5-.2h-.4c-.2-.1-.2-.9-.2-1.7v-.2-.9-.1h.7c.7-.1 1.2-2.1 1.4-3.7.2-.6.4-1.2.4-1.9 0-.6-.1-1.1-.5-1.6-.1-.2-.3-.4-.5-.5l-.1-.1c-.7-.8-3.6-3.7-5.4-2-.1-.2-.7-2.1-3.6-1.4.2 0 1.5-.1 1.9.4-.1 0-1.2-.5-1.9-.1-.3.3-.6.6-.7 1.1h0l-.1.2h0c-.1.4-.1.7 0 1.1.1.5.9 1.8 1.5 1.8.2 0 .4-.1.6-.2-.1.3-.2.5-.2.8-.6 2.7 1.2 4.8 2.2 4.2.9-.5 1 .7 1 .7h0c-.1 2-.6 3.3-1 3.6l-.8.1h0c-.8.1-1.6.3-2.4.6h0l-.6.3h0l-.2.2-.1.1c-.4.9-.8 1.9-1 2.8 4.5 3.4 10.7 3.2 15-.5-1-1.3-1.9-2.2-2.4-2.5z" class="S"/><g class="R"><path d="M153.4 66.4h-15.6c-.7 0-1.2-.6-1.2-1.2h0c0-.7.6-1.2 1.2-1.2h15.6c.7 0 1.2.6 1.2 1.2h0c0 .6-.5 1.2-1.2 1.2zm.4 9.1h-16.5c-.5 0-.8-.4-.8-.8h0c0-.5.4-.8.8-.8h16.5c.5 0 .8.4.8.8h0c.1.4-.3.8-.8.8zm-7.5 3.8h-9c-.5 0-.8-.4-.8-.8h0c0-.5.4-.8.8-.8h9c.5 0 .8.4.8.8h0c0 .5-.3.8-.8.8zm19.4 0h-15.1c-.5 0-.8-.4-.8-.8h0c0-.5.4-.8.8-.8h15.1c.5 0 .8.4.8.8h0c0 .5-.4.8-.8.8z"/><path d="M179.9 75.5h-21.6c-.5 0-.8-.4-.8-.8h0c0-.5.4-.8.8-.8h21.6c.5 0 .8.4.8.8h0c0 .4-.4.8-.8.8zm-26.1 7.7h-16.5c-.5 0-.8-.4-.8-.8h0c0-.5.4-.8.8-.8h16.5c.5 0 .8.4.8.8h0c.1.5-.3.8-.8.8zm26.1 0h-21.6c-.5 0-.8-.4-.8-.8h0c0-.5.4-.8.8-.8h21.6c.5 0 .8.4.8.8h0c0 .5-.4.8-.8.8zM169 66.4h-10.8c-.7 0-1.2-.6-1.2-1.2h0c0-.7.6-1.2 1.2-1.2H169c.7 0 1.2.6 1.2 1.2h0c0 .6-.5 1.2-1.2 1.2z"/></g><g class="S"><path d="M154.6 147.3h-11.1c-.5 0-.9-.4-.9-.9h0 0c0-.5.4-.9.9-.9h0 11.1c.5 0 .9.4.9.9h0 0c0 .5-.4.9-.9.9zm.3 4.5h-11.7a.65.65 0 0 1-.6-.6h0 0a.65.65 0 0 1 .6-.6h0 11.7a.65.65 0 0 1 .6.6h0 0c0 .4-.3.6-.6.6h0zm-5.3 2.8h-6.4a.65.65 0 0 1-.6-.6h0 0a.65.65 0 0 1 .6-.6h0 6.4a.65.65 0 0 1 .6.6h0 0c-.1.3-.3.6-.6.6h0zm13.7 0h-10.8a.65.65 0 0 1-.6-.6h0 0a.65.65 0 0 1 .6-.6h0 10.8a.65.65 0 0 1 .6.6h0 0a.65.65 0 0 1-.6.6h0zm10.1-2.8H158a.65.65 0 0 1-.6-.6h0 0a.65.65 0 0 1 .6-.6h0 15.4a.65.65 0 0 1 .6.6h0 0c0 .4-.3.6-.6.6h0z"/><use xlink:href="#D"/><path d="M173.4 157.4H158a.65.65 0 0 1-.6-.6h0 0a.65.65 0 0 1 .6-.6h0 15.4a.65.65 0 0 1 .6.6h0 0a.65.65 0 0 1-.6.6h0zm-7.7-10.1H158c-.5 0-.9-.4-.9-.9h0 0c0-.5.4-.9.9-.9h0 7.7c.5 0 .9.4.9.9h0 0c0 .5-.4.9-.9.9h0zm-3.5-111.5h-11.1c-.5 0-.9-.4-.9-.9h0 0c0-.5.4-.9.9-.9h0 11.1c.5 0 .9.4.9.9h0 0c0 .5-.4.9-.9.9h0z"/><use xlink:href="#D" x="7.6" y="-117"/><path d="M157.2 43.1h-6.4a.65.65 0 0 1-.6-.6h0 0a.65.65 0 0 1 .6-.6h0 6.4a.65.65 0 0 1 .6.6h0 0c-.1.4-.3.6-.6.6zm13.7 0h-10.7a.65.65 0 0 1-.6-.6h0 0a.65.65 0 0 1 .6-.6h0H171a.65.65 0 0 1 .6.6h0 0c-.1.4-.4.6-.7.6zm10.1-2.7h-15.4a.65.65 0 0 1-.6-.6h0 0a.65.65 0 0 1 .6-.6h0H181a.65.65 0 0 1 .6.6h0 0a.65.65 0 0 1-.6.6h0zm-7.7-4.6h-7.7c-.5 0-.9-.4-.9-.9h0 0c0-.5.4-.9.9-.9h0 7.7c.5 0 .9.4.9.9h0 0c0 .5-.4.9-.9.9h0z"/></g><g class="R"><path d="M172.3 113.2h-12.2c-.5 0-1-.4-1-1h0 0c0-.5.4-1 1-1h0 12.2c.5 0 1 .4 1 1h0 0a1.08 1.08 0 0 1-1 1z"/><use xlink:href="#E"/><path d="M166.8 121.2h-7c-.4 0-.6-.3-.6-.6h0 0c0-.4.3-.6.6-.6h0 7c.4 0 .6.3.6.6h0 0c0 .3-.2.6-.6.6h0zm15 0H170c-.4 0-.6-.3-.6-.6h0 0c0-.4.3-.6.6-.6h0 11.8c.4 0 .6.3.6.6h0 0c.1.3-.2.6-.6.6h0zm11.1-3H176c-.4 0-.6-.3-.6-.6h0 0c0-.4.3-.6.6-.6h16.9c.4 0 .6.3.6.6h0 0c0 .3-.2.6-.6.6z"/><use xlink:href="#E" y="6.1"/><use xlink:href="#F"/><use xlink:href="#E" y="9.2"/><use xlink:href="#F" y="3.1"/><path d="M184.4 113.2H176c-.5 0-1-.4-1-1h0 0c0-.5.4-1 1-1h0 8.4c.5 0 1 .4 1 1h0 0c0 .5-.4 1-1 1h0zm-41.6-86.7l-.9.6-.9-.6c.3-.5 1-.6 1.5-.3l.3.3h0zm-.9-2a2.61 2.61 0 0 0-2.1 1.1l.6.4c.6-.9 1.8-1.1 2.7-.5.2.1.3.3.5.5l.6-.4c-.7-.7-1.5-1.1-2.3-1.1zm0-2.9c-1.8 0-3.5.9-4.5 2.3l.6.4c1.5-2.2 4.5-2.7 6.7-1.2.5.3.8.7 1.2 1.2l.6-.4c-1.2-1.4-2.8-2.3-4.6-2.3z"/><path d="M141.9 23.2c-1.3 0-2.5.6-3.2 1.6l.6.4c1-1.5 3-1.8 4.5-.8.3.2.6.5.8.8l.6-.4c-.9-1-2.1-1.6-3.3-1.6zm-4.9 95.6a5.59 5.59 0 0 0 5.6 5.6c1.1 0 2.2-.4 3.2-1l.1-.1c2.5-1.8 3-5.3 1.2-7.8s-5.3-3-7.8-1.2c-1.5 1.1-2.3 2.8-2.3 4.5z"/></g><path d="M144.1 122.4l-.5-.5h-.1l-.3-.2.1-.6c0-.3.1-.7.1-1l.5-.1c.5-.1.5-1.9.4-2.8l.3-.1c.4-.2.4-.8.4-.8l-.3.3s.7-.9-.1-1.5-1.5-.2-2-.2c-1 .1-1.6.1-1.9.7s-.2 2.3.4 3v.2c0 .2.1.4.2.6-.1.6-.4 1.2-.7 1.6-.2.2-.4.3-.5.6h0c-.3.5-.6 1-.7 1.6h0l1 .6h.1l.1.1.3.1.3.1h1.9a8.3 8.3 0 0 0 2.1-.6c-.4-.4-.7-.8-1.1-1.1z" fill="#5dd782"/><path d="M191.7 151.2a5.59 5.59 0 1 0 11.2 0 5.59 5.59 0 0 0-5.6-5.6h0c-3 0-5.5 2.5-5.6 5.6z" class="R"/><path d="M200.2 154.4h0l-.1-.1h0l-.3-.2h0l-1.1-.3-.4-.1c-.2-.2-.5-.7-.5-1.7h0s.2-.5.5-.3c.3.1 1.3-.7 1-2 0-.1-.1-.2-.1-.4l.3.1c.2 0 .6-.6.7-.8s0-.9-.3-1.1-.9 0-.9 0l.9-.2c-1.4-.3-1.6.6-1.7.7-.9-.8-2.2.6-2.5.9l-.1.1c-.1.1-.2.1-.2.2-.2.2-.2.5-.2.7 0 .3.1.6.2.9.1.8.3 1.7.7 1.7h.3v.4.1c0 .4 0 .7-.1.8h-.3l-.7.1c-.2 0-.3.1-.5.2l-.1.1c-.4.4-.8.8-1 1.3a5.57 5.57 0 0 0 7 .2c0-.5-.2-.9-.5-1.3z" class="W"/><path d="M191.7 38.5a5.59 5.59 0 1 0 11.2 0 5.59 5.59 0 0 0-5.6-5.6h0c-3-.1-5.5 2.4-5.6 5.6 0-.1 0-.1 0 0z" class="R"/><path d="M200.2 41.6h0l-.1-.1h0l-.3-.2h0l-1.1-.3h0l-.4-.1-.1-.2h0c-.2-.5-.3-1-.3-1.5h0s.2-.5.5-.3c.3.1 1.3-.7 1-2 0-.1-.1-.2-.1-.4l.3.1c.2 0 .6-.6.7-.8s0-.9-.3-1.1-.9 0-.9.1l.9-.2c-1.4-.3-1.6.6-1.7.7-.9-.8-2.2.6-2.5.9l-.1.1c-.1.1-.2.1-.2.2-.2.2-.2.5-.2.7 0 .3.1.6.2.9.1.8.3 1.7.7 1.7h.3v.4.1c0 .4 0 .7-.1.8h-.4l-.7.1c-.2 0-.3.1-.5.2l-.1.1c-.4.4-.8.8-1 1.3l.2.1h0l.1.1.1.1.1.1.1.1.1.1.1.1.1.1h0l.1.1h.2l.1.1.1.1h.1l.1.1.1.1h.2l.4.1h1.1c1.2 0 2.4-.4 3.3-1.1.2-.9 0-1.2-.2-1.5z" class="W"/><path d="M267.9 261.3l-20.2 10.5h-13.5c-3.2-2.2-20.1-13.7-27.1-22.2-1.5-1.8-6.9-17.5-11-30.2h0c.6 1.7 12.1 26.4 15.4 29.2s20.6 19.2 25.4 19c4.9-.2 29.4-5.9 31-6.3h0z" class="X"/><path d="M308.6 271.8h-72.9c3.7-1.4 17.6-6.8 32.1-10.4h.1c12.5-3.2 25.3-5 32.2-2.2l.1.1 8.4 12.5z" fill="#fcba64"/><path d="M191.2 175.5h0c1.2-.5 2.9-.7 3.8.7 1.3 2.2-3.5 21.4-4.1 23.8l.3-24.5z" class="X"/><path d="M191.5 165.2l-.4 11.6s2.4.4 3.8-.6c1.4-1.1.7-11.2-3.4-11z" class="U"/><path d="M142.6 232.6c-7 1.4-22.1-4.1-22.1-4.1l2.4-23.5-17.1 19.5c-8.7-3.2-22.3-11.7-30.3-16.9 20.7-2.3 36.1-22.7 36.1-22.7 14.3 7.8 30.5 12.3 30.5 12.3l.5 35.4z" fill="#fcba64"/><circle transform="matrix(.008727 -1 1 .008727 -114.6215 306.498)" cx="97.3" cy="211.1" r="2.8" class="Z"/><defs ><path id="B" d="M23.6 143.7h44.3a1.11 1.11 0 0 0 1.1-1.1h0a1.11 1.11 0 0 0-1.1-1.1H23.6a1.11 1.11 0 0 0-1.1 1.1h0c0 .6.4 1.1 1.1 1.1z"/><path id="C" d="M31.5 135.8h44.3a1.11 1.11 0 0 0 1.1-1.1h0a1.11 1.11 0 0 0-1.1-1.1H31.5a1.11 1.11 0 0 0-1.1 1.1h0a1.11 1.11 0 0 0 1.1 1.1z"/><path id="D" d="M154.9 157.4h-11.7a.65.65 0 0 1-.6-.6h0 0a.65.65 0 0 1 .6-.6h0 11.7a.65.65 0 0 1 .6.6h0 0a.65.65 0 0 1-.6.6h0z"/><path id="E" d="M172.6 118.2h-12.9c-.4 0-.6-.3-.6-.6h0 0c0-.4.3-.6.6-.6h0 12.9c.4 0 .6.3.6.6h0 0c.1.3-.2.6-.6.6h0z"/><path id="F" d="M192.9 124.3H176c-.4 0-.6-.3-.6-.6h0 0c0-.4.3-.6.6-.6h0 16.9c.4 0 .6.3.6.6h0 0c0 .3-.2.6-.6.6h0z"/></defs></svg>