<svg xmlns="http://www.w3.org/2000/svg" xmlns:xlink="http://www.w3.org/1999/xlink" viewBox="0 0 366 300" xmlns:v="https://vecta.io/nano"><style><![CDATA[.AF{fill:#fff}.AG{enable-background:new}.AH{opacity:.48}]]></style><path d="M165.8 270.6C99 260.5 44.7 197.3 54.6 127.2 63 67.3 115.5 20.7 178.4 16.4c4.5-.3 9.2-.4 13.8-.3 35.1 1 66.3 15.1 89.3 36.3 22.9 21.1 37.9 49.4 40.6 79.1 7.3 78.9-73.3 151.7-156.3 139.1z" fill="#f4f7fa"/><g fill="#bfc8d5"><path d="M68.8 130.5h0l-2.4-.1c-.2 0-.4-.2-.4-.4s.2-.4.4-.4l2.4.1c.2 0 .4.2.4.4s-.1.4-.4.4zm212.8 12.2h0l-4.9-.3c-.2 0-.4-.2-.4-.4s.2-.4.4-.4l4.9.3c.2 0 .4.2.4.4s-.2.4-.4.4zm-9.7-.6h0l-4.9-.3c-.2 0-.4-.2-.4-.4s.2-.4.4-.4l4.9.3c.2 0 .4.2.4.4.1.3-.1.4-.4.4zm-9.6-.5s-.1 0 0 0l-4.9-.3c-.2 0-.4-.2-.4-.4s.2-.4.4-.4l4.9.3c.2 0 .4.2.4.4-.1.2-.2.4-.4.4zm-9.7-.6l-4.9-.3c-.2 0-.4-.2-.4-.4s.2-.4.4-.4l4.9.3c.2 0 .4.2.4.4s-.2.4-.4.4zm-9.7-.5h0l-4.9-.3c-.2 0-.4-.2-.4-.4s.2-.4.4-.4l4.9.3c.2 0 .4.2.4.4s-.2.4-.4.4zm-9.6-.6h0l-4.9-.3c-.2 0-.4-.2-.4-.4s.2-.4.4-.4l4.9.3c.2 0 .4.2.4.4s-.2.4-.4.4zm-9.7-.6l-4.9-.3c-.2 0-.4-.2-.4-.4s.2-.4.4-.4l4.9.3c.2 0 .4.2.4.4 0 .3-.2.4-.4.4zm-9.7-.5h0l-4.9-.3c-.2 0-.4-.2-.4-.4s.2-.4.4-.4l4.9.3c.2 0 .4.2.4.4s-.2.4-.4.4zm-9.7-.6h0l-4.9-.3c-.2 0-.4-.2-.4-.4s.2-.4.4-.4l4.9.3c.2 0 .4.2.4.4 0 .3-.1.4-.4.4zm-9.6-.5s-.1 0 0 0l-4.9-.3c-.2 0-.4-.2-.4-.4s.2-.4.4-.4l4.9.3c.2 0 .4.2.4.4s-.2.4-.4.4zm-9.7-.5l-4.9-.3c-.2 0-.4-.2-.4-.4s.2-.4.4-.4l4.9.3c.2 0 .4.2.4.4s-.2.4-.4.4zm-9.7-.6h0l-4.9-.3c-.2 0-.4-.2-.4-.4s.2-.4.4-.4l4.9.3c.2 0 .4.2.4.4s-.2.4-.4.4zm-9.6-.6h0l-4.9-.3c-.2 0-.4-.2-.4-.4s.2-.4.4-.4l4.9.3c.2 0 .4.2.4.4s-.2.4-.4.4zm-9.7-.5l-4.9-.3c-.2 0-.4-.2-.4-.4s.2-.4.4-.4l4.9.3c.2 0 .4.2.4.4s-.2.4-.4.4zm-9.7-.6h0l-4.9-.3c-.2 0-.4-.2-.4-.4s.2-.4.4-.4l4.9.3c.2 0 .4.2.4.4 0 .3-.2.4-.4.4zm-9.7-.5h0l-4.9-.3c-.2 0-.4-.2-.4-.4s.2-.4.4-.4l4.9.3c.2 0 .4.2.4.4s-.1.4-.4.4zm-9.6-.6h0l-4.9-.3c-.2 0-.4-.2-.4-.4s.2-.4.4-.4l4.9.3c.2 0 .4.2.4.4 0 .3-.2.4-.4.4zm-9.7-.5l-4.9-.3c-.2 0-.4-.2-.4-.4s.2-.4.4-.4l4.9.3c.2 0 .4.2.4.4s-.2.4-.4.4zm-9.7-.6h0l-4.9-.3c-.2 0-.4-.2-.4-.4s.2-.4.4-.4l4.9.3c.2 0 .4.2.4.4s-.2.4-.4.4zm-9.6-.5h0l-4.9-.3c-.2 0-.4-.2-.4-.4s.2-.4.4-.4l4.9.3c.2 0 .4.2.4.4s-.2.4-.4.4zm-9.7-.6s-.1 0 0 0l-4.9-.3c-.2 0-.4-.2-.4-.4s.2-.4.4-.4l4.9.3c.2 0 .4.2.4.4s-.2.4-.4.4zm-9.7-.6h0l-4.9-.3c-.2 0-.4-.2-.4-.4s.2-.4.4-.4l4.9.3c.2 0 .4.2.4.4 0 .3-.2.4-.4.4zm210.4 12.1l-2.4-.1c-.2 0-.4-.2-.4-.4s.2-.4.4-.4l2.4.1c.2 0 .4.2.4.4s-.2.4-.4.4zM114.3 59h0l-2.4-.4c-.2 0-.4-.2-.3-.5 0-.2.2-.4.5-.3l2.4.4c.2 0 .4.2.3.5a.55.55 0 0 1-.5.3z"/><path d="M261.7 83.6h0l-4.9-.8c-.2 0-.4-.2-.3-.5 0-.2.2-.4.5-.3l4.9.8c.2 0 .4.2.3.5a.55.55 0 0 1-.5.3zm-9.8-1.6h0l-4.9-.8c-.2 0-.4-.2-.3-.5 0-.2.2-.4.5-.3l4.9.8c.2 0 .4.2.3.5a.55.55 0 0 1-.5.3zm-9.8-1.6h0l-4.9-.8c-.2 0-.4-.2-.3-.5s.2-.4.5-.3l4.9.8c.2 0 .4.2.3.5-.2.1-.4.3-.5.3zm-9.9-1.7h0l-4.9-.8c-.2 0-.4-.2-.3-.5 0-.2.2-.4.5-.3l4.9.8c.2 0 .4.2.3.5a.55.55 0 0 1-.5.3zm-9.8-1.6h0l-4.9-.8c-.2 0-.4-.2-.3-.5 0-.2.2-.4.5-.3l4.9.8c.2 0 .4.2.3.5-.1.1-.3.3-.5.3zm-9.8-1.7h0l-4.9-.8c-.2 0-.4-.2-.3-.5 0-.2.2-.4.5-.3l4.9.8c.2 0 .4.2.3.5-.2.2-.3.3-.5.3zm-9.9-1.6h0l-4.9-.8c-.2 0-.4-.2-.3-.5 0-.2.2-.4.5-.3l4.9.8c.2 0 .4.2.3.5a.55.55 0 0 1-.5.3zm-9.8-1.6h0l-4.9-.8c-.2 0-.4-.2-.3-.5s.2-.4.5-.3l4.9.8c.2 0 .4.2.3.5-.1.1-.3.3-.5.3zm-9.8-1.7h0l-4.9-.8c-.2 0-.4-.2-.3-.5 0-.2.2-.4.5-.3l4.9.8c.2 0 .4.2.3.5a.55.55 0 0 1-.5.3zm-9.8-1.6h0l-4.9-.8c-.2 0-.4-.2-.3-.5 0-.2.2-.4.5-.3l4.9.8c.2 0 .4.2.3.5-.2.1-.4.3-.5.3zm-9.9-1.7h0l-4.9-.8c-.2 0-.4-.2-.3-.5s.2-.4.5-.3l4.9.8c.2 0 .4.2.3.5-.1.2-.2.3-.5.3zm-9.8-1.6h0l-4.9-.8c-.2 0-.4-.2-.3-.5 0-.2.2-.4.5-.3l4.9.8c.2 0 .4.2.3.5a.55.55 0 0 1-.5.3zm-9.8-1.7h0l-4.9-.8c-.2 0-.4-.2-.3-.5 0-.2.2-.4.5-.3l4.9.8c.2 0 .4.2.3.5a.55.55 0 0 1-.5.3zm-9.8-1.6h0l-4.9-.8c-.2 0-.4-.2-.3-.5 0-.2.2-.4.5-.3l4.9.8c.2 0 .4.2.3.5-.2.2-.4.3-.5.3zm-9.9-1.6h0l-4.9-.8c-.2 0-.4-.2-.3-.5 0-.2.2-.4.5-.3l4.9.8c.2 0 .4.2.3.5-.1.1-.3.3-.5.3zm144.5 26.6c-.1 0-.1 0 0 0-.3 0-.5-.3-.4-.5l.4-2-2-.3c-.2 0-.4-.2-.3-.5 0-.2.2-.4.5-.3l2.4.4c.1 0 .2.1.3.2 0 .1.1.2 0 .3L269 87c0 .1-.2.3-.4.3zm-22.9 118c-.1 0-.1 0 0 0-.3 0-.5-.3-.4-.5l1-4.9c0-.2.3-.4.5-.3.2 0 .4.3.3.5l-1 4.9c0 .1-.2.3-.4.3zm1.9-9.9c-.1 0-.1 0 0 0-.3 0-.5-.3-.4-.5l1-4.9c0-.2.3-.4.5-.3.2 0 .4.3.3.5l-1 4.9c0 .2-.2.3-.4.3zm1.9-9.8c-.3 0-.5-.3-.4-.5l1-4.9c0-.2.3-.4.5-.3.2 0 .4.3.3.5l-1 4.9c0 .2-.2.3-.4.3zm1.9-9.8c-.3 0-.5-.3-.4-.5l1-4.9c0-.2.3-.4.5-.3.2 0 .4.3.3.5l-1 4.9c0 .2-.2.3-.4.3zm1.9-9.8c-.3 0-.5-.3-.4-.5l1-4.9c0-.2.3-.4.5-.3.2 0 .4.3.3.5l-1 4.9c0 .1-.2.3-.4.3zm1.9-9.9c-.3 0-.5-.3-.4-.5l1-4.9c0-.2.3-.4.5-.3.2 0 .4.3.3.5l-1 4.9c0 .2-.2.3-.4.3zm1.9-9.8c-.3 0-.5-.3-.4-.5l1-4.9c0-.2.3-.4.5-.3.2 0 .4.3.3.5l-1 4.9c0 .1-.2.3-.4.3zm1.9-9.9c-.3 0-.5-.3-.4-.5l1-4.9c0-.2.3-.4.5-.3s.4.3.3.5l-1 4.9c0 .2-.2.3-.4.3zm1.9-9.8c-.3 0-.5-.3-.4-.5l1-4.9c0-.2.3-.4.5-.3.2 0 .4.3.3.5l-1 4.9c0 .2-.1.3-.4.3zm2-9.8c-.1 0-.1 0 0 0-.3 0-.5-.3-.4-.5l1-4.9c0-.2.3-.4.5-.3.2 0 .4.3.3.5l-1 4.9c-.1.2-.2.3-.4.3zm1.9-9.8c-.1 0-.1 0 0 0-.3 0-.5-.3-.4-.5l1-4.9c0-.2.3-.4.5-.3.2 0 .4.3.3.5l-1 4.9c-.1.1-.2.3-.4.3zm1.9-9.9c-.1 0-.1 0 0 0-.3 0-.5-.3-.4-.5l1-4.9c0-.2.3-.4.5-.3.2 0 .4.3.3.5l-1 4.9c-.1.2-.2.3-.4.3zm-22.4 115.5c-.1 0-.1 0 0 0l-2.5-.4c-.2 0-.4-.3-.3-.5 0-.2.2-.4.5-.3l2 .4.4-2c0-.2.3-.4.5-.3.2 0 .4.3.3.5l-.5 2.4c-.1.1-.2.2-.4.2z"/><path d="M237.1 211.3l-4.8-.8c-.2 0-.4-.3-.3-.5 0-.2.2-.4.5-.3l4.7.8c.2 0 .4.3.3.5 0 .2-.2.3-.4.3zm-9.5-1.6l-4.8-.8c-.2 0-.4-.3-.3-.5 0-.2.2-.4.5-.3l4.7.8c.2 0 .4.3.3.5 0 .1-.1.3-.4.3zm-9.4-1.7l-4.8-.8c-.2 0-.4-.3-.3-.5 0-.2.2-.4.5-.3l4.7.8c.2 0 .4.3.3.5 0 .2-.2.3-.4.3zm-9.5-1.6l-4.8-.8c-.2 0-.4-.3-.3-.5 0-.2.2-.4.5-.3l4.7.8c.2 0 .4.3.3.5 0 .1-.2.3-.4.3zm-9.4-1.7c-.1 0-.1 0 0 0l-4.8-.8c-.2 0-.4-.3-.3-.5 0-.2.2-.4.5-.3l4.7.8c.2 0 .4.3.3.5s-.3.3-.4.3zm-9.5-1.7c-.1 0-.1 0 0 0l-4.8-.8c-.2 0-.4-.3-.3-.5 0-.2.2-.4.5-.3l4.7.8c.2 0 .4.3.3.5s-.2.3-.4.3zm-9.5-1.6l-4.8-.8c-.2 0-.4-.3-.3-.5 0-.2.2-.4.5-.3l4.7.8c.2 0 .4.3.3.5 0 .2-.2.3-.4.3zm-9.4-1.7c-.1 0-.1 0 0 0l-4.8-.8c-.2 0-.4-.3-.3-.5 0-.2.3-.4.5-.3l4.7.8c.2 0 .4.3.3.5s-.3.3-.4.3zm-9.5-1.6c-.1 0-.1 0 0 0l-4.8-.8c-.2 0-.4-.3-.3-.5 0-.2.3-.4.5-.3l4.7.8c.2 0 .4.3.3.5-.1.1-.2.3-.4.3zm-9.5-1.7l-4.8-.8c-.2 0-.4-.3-.3-.5 0-.2.3-.4.5-.3l4.7.8c.2 0 .4.3.3.5 0 .2-.2.3-.4.3zm-9.5-1.7l-4.8-.8c-.2 0-.4-.3-.3-.5 0-.2.3-.4.5-.3l4.7.8c.2 0 .4.3.3.5 0 .2-.1.3-.4.3zm-9.4-1.6l-4.8-.8c-.2 0-.4-.3-.3-.5 0-.2.3-.4.5-.3l4.7.8c.2 0 .4.3.3.5 0 .2-.2.3-.4.3zm-9.5-1.7l-4.8-.8c-.2 0-.4-.3-.3-.5 0-.2.3-.4.5-.3l4.7.8c.2 0 .4.3.3.5 0 .2-.2.3-.4.3zm-9.5-1.6l-2.5-.4c-.1 0-.2-.1-.3-.2s0-.3 0-.4l1.3-2.1c.1-.2.4-.3.5-.1.2.1.3.4.1.5l-1 1.6 1.8.3c.2 0 .4.3.3.5.2.2 0 .3-.2.3zm1.5-6.8h-.2c-.2-.1-.3-.4-.1-.5l2.6-4.3c.1-.2.4-.3.5-.1s.3.4.1.5l-2.6 4.3s-.2.1-.3.1zm5.1-8.6h-.2c-.2-.1-.3-.4-.1-.5l2.6-4.3c.1-.2.4-.3.5-.1.2.1.3.4.1.5l-2.6 4.3s-.1.1-.3.1zm5.2-8.6h-.2c-.2-.1-.3-.4-.1-.5l2.6-4.3c.1-.2.4-.3.5-.1.2.1.3.4.1.5l-2.6 4.3c0 .1-.2.1-.3.1zm5.1-8.6h-.2c-.2-.1-.3-.4-.1-.5l2.6-4.3c.1-.2.4-.3.5-.1.2.1.3.4.1.5l-2.6 4.3c0 .1-.2.1-.3.1zm5.2-8.5h-.2c-.2-.1-.3-.4-.1-.5l2.6-4.3c.1-.2.4-.3.5-.1.2.1.3.4.1.5l-2.6 4.3s-.2.1-.3.1zm5.2-8.6h-.2c-.2-.1-.3-.4-.1-.5l2.6-4.3c.1-.2.4-.3.5-.1.2.1.3.4.1.5l-2.6 4.3c-.1 0-.2.1-.3.1zm5.1-8.6h-.2c-.2-.1-.3-.4-.1-.5l2.6-4.3c.1-.2.4-.3.5-.1.2.1.3.4.1.5l-2.5 4.3c-.2 0-.3.1-.4.1zm5.1-8.6h-.2c-.2-.1-.3-.4-.1-.5l2.6-4.3c.1-.2.4-.3.5-.1.2.1.3.4.1.5l-2.6 4.3c0 .1-.1.1-.3.1zm5.2-8.6h-.2c-.2-.1-.3-.4-.1-.5l2.6-4.3c.1-.2.4-.3.5-.1.2.1.3.4.1.5l-2.6 4.3c0 .1-.1.1-.3.1zm5.1-8.5h-.2c-.2-.1-.3-.4-.1-.5l2.6-4.3c.1-.2.4-.3.5-.1.2.1.3.4.1.5l-2.6 4.3s-.1.1-.3.1zm5.2-8.6h-.2c-.2-.1-.3-.4-.1-.5l2.6-4.3c.1-.2.4-.3.5-.1.2.1.3.4.1.5l-2.6 4.3s-.2.1-.3.1zm5.1-8.6h-.2c-.2-.1-.3-.4-.1-.5l2.6-4.3c.1-.2.4-.3.5-.1.2.1.3.4.1.5l-2.6 4.3s-.1.1-.3.1zm5.2-8.6h-.2c-.2-.1-.3-.4-.1-.5l2.6-4.3c.1-.2.4-.3.5-.1.2.1.3.4.1.5l-2.6 4.3s-.2.1-.3.1zm5.2-8.6h-.2c-.2-.1-.3-.4-.1-.5l2.6-4.3c.1-.2.4-.3.5-.1.2.1.3.4.1.5l-2.6 4.3c-.1.1-.2.1-.3.1zm5.1-8.6h-.2c-.2-.1-.3-.4-.1-.5l2.6-4.3c.1-.2.4-.3.5-.1.2.1.3.4.1.5l-2.6 4.3c0 .1-.2.1-.3.1zm5.2-8.5h-.2c-.2-.1-.3-.4-.1-.5l2.6-4.3c.1-.2.4-.3.5-.1s.3.4.1.5l-2.6 4.3c-.1 0-.2.1-.3.1zm5.1-8.6h-.2c-.2-.1-.3-.4-.1-.5l1.3-2.1c.1-.2.4-.3.5-.1.2.1.3.4.1.5l-1.3 2.1s-.2.1-.3.1z"/><path d="M68.3 132.4c-.1 0-.3 0-.3-.2l-1.4-2c-.1-.1-.1-.3 0-.5l1.3-2.1c.1-.2.4-.3.5-.1.2.1.3.4.1.5l-1.1 1.9 1.3 1.8c.1.2.1.5-.1.6-.1 0-.2.1-.3.1zm2.4-8.3h-.2c-.2-.1-.3-.4-.1-.5l2.5-4.1c.1-.2.4-.3.5-.1.2.1.3.4.1.5L71 124c0 .1-.2.1-.3.1zm5-8.2h-.2c-.2-.1-.3-.4-.1-.5l2.5-4.1c.1-.2.4-.3.5-.1.2.1.3.4.1.5l-2.5 4.1s-.2.1-.3.1zm5-8.2h-.2c-.2-.1-.3-.4-.1-.5l2.5-4.1c.1-.2.4-.3.5-.1.2.1.3.4.1.5l-2.5 4.1s-.2.1-.3.1zm5-8.2h-.2c-.2-.1-.3-.4-.1-.5l2.5-4.1c.1-.2.4-.3.5-.1.2.1.3.4.1.5L86 99.4s-.1.1-.3.1zm5.1-8.3h-.2c-.2-.1-.3-.4-.1-.5l2.5-4.1c.1-.2.4-.3.5-.1.2.1.3.4.1.5l-2.5 4c0 .2-.2.2-.3.2zm5-8.2h-.2c-.2-.1-.3-.4-.1-.5l2.5-4.1c.1-.2.4-.3.5-.1.2.1.3.4.1.5l-2.5 4.1c-.1 0-.2.1-.3.1zm5-8.2h-.2c-.2-.1-.3-.4-.1-.5l2.5-4.1c.1-.2.4-.3.5-.1.2.1.3.4.1.5l-2.5 4.1s-.2.1-.3.1zm5-8.2h-.2c-.2-.1-.3-.4-.1-.5L108 62c.1-.2.4-.3.5-.1.2.1.3.4.1.5l-2.5 4.1s-.1.1-.3.1zm5.1-8.3h-.2c-.2-.1-.3-.4-.1-.5l1.3-2.1c0-.1.2-.2.3-.2l2.4-.4c.2 0 .5.1.5.3s-.1.5-.3.5l-2.2.4-1.2 1.9c-.3.1-.4.1-.5.1zm174.4 75.9c-.2 0-.3-.1-.4-.3l-1.5-4.5c-.1-.2 0-.5.3-.5.2-.1.5 0 .5.3l1.5 4.5c0 .2-.1.5-.4.5zm-3-9.1c-.2 0-.3-.1-.4-.3l-1.5-4.5c-.1-.2 0-.5.3-.5.2-.1.5 0 .5.3l1.5 4.5c0 .2-.1.4-.4.5h0zm-3-9.1c-.2 0-.3-.1-.4-.3l-1.5-4.5c-.1-.2 0-.5.3-.5.2-.1.5 0 .5.3l1.5 4.5c.1.3 0 .5-.4.5h0zm-3-9.1c-.2 0-.3-.1-.4-.3l-1.5-4.5c-.1-.2 0-.5.3-.5.2-.1.5 0 .5.3l1.5 4.5c.1.2 0 .5-.4.5h0zm-2.9-9.1c-.2 0-.3-.1-.4-.3l-1.5-4.5c-.1-.2 0-.5.3-.5.2-.1.5 0 .5.3l1.5 4.5c0 .2-.1.4-.4.5h0zm-3-9.1c-.2 0-.3-.1-.4-.3l-1.3-4.1-.2-.1c-.2-.1-.3-.4-.1-.5.1-.2.4-.3.5-.1l.3.2c.1 0 .1.1.2.2l1.4 4.2c.1.2-.1.4-.4.5h0zm-5.7-6.9h-.2l-4.1-2.5c-.2-.1-.3-.4-.1-.5s.4-.3.5-.1l4.1 2.5c.2.1.3.4.1.5-.1 0-.2.1-.3.1zm-8.2-5h-.2l-4.1-2.5c-.2-.1-.3-.4-.1-.5.1-.2.4-.3.5-.1l4.1 2.5c.2.1.3.4.1.5 0 0-.1.1-.3.1zm-8.1-5.1h-.2l-4.1-2.5c-.2-.1-.3-.4-.1-.5.1-.2.4-.3.5-.1l4.1 2.5c.2.1.3.4.1.5-.1.1-.2.1-.3.1zm-8.2-5h-.2l-4.1-2.5c-.2-.1-.3-.4-.1-.5.1-.2.4-.3.5-.1l4.1 2.5c.2.1.3.4.1.5 0 0-.2.1-.3.1zm-8.1-5h-.2l-4.1-2.5c-.2-.1-.3-.4-.1-.5.1-.2.4-.3.5-.1l4.1 2.5c.2.1.3.4.1.5-.1 0-.2.1-.3.1zm-8.2-5h-.2l-4.1-2.5c-.2-.1-.3-.4-.1-.5s.4-.3.5-.1l4.1 2.5c.2.1.3.4.1.5 0 0-.1.1-.3.1zM119.3 55c-.2 0-.4-.1-.4-.3s.1-.5.3-.5l4.7-.8c.2 0 .5.1.5.3s-.1.5-.3.5l-4.8.8h0zm9.4-1.6c-.2 0-.4-.1-.4-.3s.1-.5.3-.5l4.7-.8c.2 0 .5.1.5.3s-.1.5-.3.5l-4.8.8zm9.4-1.6c-.2 0-.4-.1-.4-.3s.1-.5.3-.5l4.7-.8c.2 0 .5.1.5.3s-.1.5-.3.5l-4.8.8h0zm77.7-.2h-.2l-4.1-2.5c-.2-.1-.3-.4-.1-.5.1-.2.4-.3.5-.1L216 51c.2.1.3.4.1.5-.1 0-.2.1-.3.1zm-68.2-1.4c-.2 0-.4-.1-.4-.3s.1-.5.3-.5l4.7-.8c.2 0 .5.1.5.3s-.1.5-.3.5l-4.8.8zm9.4-1.6c-.2 0-.4-.1-.4-.3s.1-.5.3-.5l4.7-.8c.2 0 .5.1.5.3s-.1.5-.3.5l-4.8.8h0zm9.5-1.6c-.2 0-.4-.1-.4-.3s.1-.5.3-.5l4.7-.8c.2 0 .5.1.5.3s-.1.5-.3.5l-4.8.8h0zm41.1-.4h-.2l-4.1-2.5c-.2-.1-.3-.4-.1-.5s.4-.3.5-.1l4.1 2.5c.2.1.3.4.1.5 0 0-.2.1-.3.1zm-31.7-1.2c-.2 0-.4-.1-.4-.3s.1-.5.3-.5l4.7-.8c.2 0 .5.1.5.3s-.1.5-.3.5l-4.8.8h0zm9.4-1.6c-.2 0-.4-.1-.4-.3s.1-.5.3-.5l4.7-.8c.2 0 .5.1.5.3s-.1.5-.3.5l-4.8.8h0zm9.5-1.6c-.2 0-.4-.1-.4-.3s.1-.5.3-.5l4.4-.8h.3l.3.1c.2.1.3.4.1.5-.1.2-.4.3-.5.1l-.1-.1-4.4 1zm91.4 101h-.2c-.2-.1-.3-.4-.1-.5l1.2-1.9-.7-2.1c-.1-.2 0-.5.3-.5.2-.1.5 0 .5.3l.8 2.3v.3l-1.3 2.1c-.2-.1-.3 0-.5 0zm-119.1 93.6c-.2 0-.3-.1-.4-.3 0-.2 0-.5.3-.5l4.5-1.4c.2 0 .5 0 .5.3s0 .5-.3.5l-4.6 1.4zm9.1-2.8c-.2 0-.3-.1-.4-.3 0-.2 0-.5.3-.5l4.5-1.4c.2 0 .5 0 .5.3 0 .2 0 .5-.3.5l-4.6 1.4h0zm9-2.8c-.2 0-.3-.1-.4-.3 0-.2 0-.5.3-.5l4.5-1.4c.2 0 .5 0 .5.3 0 .2 0 .5-.3.5l-4.6 1.4c.1-.1.1 0 0 0zm9.2-2.9c-.2 0-.3-.1-.4-.3 0-.2 0-.5.3-.5l4.5-1.4c.2 0 .5 0 .5.3 0 .2 0 .5-.3.5l-4.6 1.4zm9-2.9c-.2 0-.3-.1-.4-.3 0-.2 0-.5.3-.5l4.5-1.4c.2 0 .5 0 .5.3 0 .2 0 .5-.3.5l-4.6 1.4h0zm9.1-2.8c-.2 0-.3-.1-.4-.3 0-.2 0-.5.3-.5l4.5-1.4c.2 0 .5 0 .5.3 0 .2 0 .5-.3.5l-4.6 1.4h0zm9.2-2.9c-.2 0-.3-.1-.4-.3 0-.2 0-.5.3-.5l4.5-1.4c.2 0 .5 0 .5.3 0 .2 0 .5-.3.5l-4.6 1.4zm9-2.8c-.2 0-.3-.1-.4-.3 0-.2 0-.5.3-.5l4.5-1.4c.2 0 .5 0 .5.3 0 .2 0 .5-.3.5l-4.6 1.4h0zm9.1-2.9c-.2 0-.3-.1-.4-.3 0-.2 0-.5.3-.5l4.2-1.3h0c.1-.2.4-.3.5-.1.2.1.3.4.1.5l-.1.2c0 .1-.1.1-.2.2l-4.4 1.3h0zm6.9-5.6h-.2c-.2-.1-.3-.4-.1-.5l2.4-4.1c.1-.2.4-.3.5-.1.2.1.3.4.1.5l-2.4 4.1c0 .1-.1.1-.3.1zm5-8.2h-.2c-.2-.1-.3-.4-.1-.5l2.4-4.1c.1-.2.4-.3.5-.1.2.1.3.4.1.5l-2.4 4.1c-.1.1-.2.1-.3.1zm4.9-8.1h-.2c-.2-.1-.3-.4-.1-.5l2.4-4.1c.1-.2.4-.3.5-.1.2.1.3.4.1.5l-2.4 4.1s-.1.1-.3.1zm5-8.1h-.2c-.2-.1-.3-.4-.1-.5l2.4-4.1c.1-.2.4-.3.5-.1s.3.4.1.5l-2.4 4.1c-.1 0-.2.1-.3.1zm4.9-8.2h-.2c-.2-.1-.3-.4-.1-.5l2.4-4.1c.1-.2.4-.3.5-.1.2.1.3.4.1.5l-2.4 4.1s-.2.1-.3.1zm4.9-8.2h-.2c-.2-.1-.3-.4-.1-.5l2.4-4.1c.1-.2.4-.3.5-.1.2.1.3.4.1.5l-2.4 4.1c0 .1-.1.1-.3.1zm4.9-8.1h-.2c-.2-.1-.3-.4-.1-.5l2.4-4.1c.1-.2.4-.3.5-.1.2.1.3.4.1.5l-2.4 4.1s-.1.1-.3.1zm5-8.1h-.2c-.2-.1-.3-.4-.1-.5l2.4-4.1c.1-.2.4-.3.5-.1.2.1.3.4.1.5l-2.4 4.1s-.2.1-.3.1zM160.2 239c-.1 0-.2 0-.3-.1l-1.8-1.7c-.2-.1-.2-.4 0-.6.1-.2.4-.2.6 0l1.6 1.5 2.1-.7c.2 0 .5 0 .5.3 0 .2 0 .5-.3.5l-2.3.7c0 .1 0 .1-.1.1zm-5.3-4.9c-.1 0-.2 0-.3-.1l-3.5-3.3c-.2-.1-.2-.4 0-.6.1-.2.4-.2.6 0l3.5 3.3c.2.1.2.4 0 .6-.1 0-.2.1-.3.1zm-6.9-6.6c-.1 0-.2 0-.3-.1l-3.5-3.3c-.2-.1-.2-.4 0-.6.1-.2.4-.2.6 0l3.5 3.3c.2.1.2.4 0 .6-.2 0-.2.1-.3.1zm-7-6.6c-.1 0-.2 0-.3-.1l-3.5-3.3c-.2-.1-.2-.4 0-.6.1-.2.4-.2.6 0l3.5 3.3c.2.1.2.4 0 .6-.1.1-.2.1-.3.1zm-7-6.6c-.1 0-.2 0-.3-.1l-3.5-3.3c-.2-.1-.2-.4 0-.6.1-.2.4-.2.6 0l3.5 3.3c.2.1.2.4 0 .6-.1.1-.2.1-.3.1zm-7-6.5c-.1 0-.2 0-.3-.1l-3.5-3.3c-.2-.1-.2-.4 0-.6.1-.2.4-.2.6 0l3.5 3.3c.2.1.2.4 0 .6-.1 0-.2.1-.3.1zm-7-6.6c-.1 0-.2 0-.3-.1l-3.5-3.3c-.2-.1-.2-.4 0-.6.1-.2.4-.2.6 0l3.5 3.3c.2.1.2.4 0 .6 0 0-.2.1-.3.1zm-7-6.6c-.1 0-.2 0-.3-.1l-1.9-1.8h0l-1.2-1.7c-.1-.2-.1-.5.1-.6s.5-.1.6.1l1.2 1.7 1.9 1.8c.2.1.2.4 0 .6h-.4zm-5.9-7.5c-.1 0-.3 0-.3-.2L104 183c-.1-.2-.1-.5.1-.6s.5-.1.6.1l2.8 3.9c.1.2.1.5-.1.6s-.2.1-.3.1zm-5.5-7.8c-.1 0-.3 0-.3-.2l-2.8-3.9c-.1-.2-.1-.5.1-.6s.5-.1.6.1l2.8 3.9c.1.2.1.5-.1.6s-.3.1-.3.1zm-5.6-7.8c-.1 0-.3 0-.3-.2l-2.8-3.9c-.1-.2-.1-.5.1-.6s.5-.1.6.1l2.8 3.9c.1.2.1.5-.1.6-.1 0-.2.1-.3.1zm-5.5-7.9c-.1 0-.3 0-.3-.2l-2.8-3.9c-.1-.2-.1-.5.1-.6s.5-.1.6.1l2.8 3.9c.1.2.1.5-.1.6s-.2.1-.3.1zm-5.6-7.8c-.1 0-.3 0-.3-.2l-2.8-3.9c-.1-.2-.1-.5.1-.6s.5-.1.6.1l2.8 3.9c.1.2.1.5-.1.6-.1.1-.2.1-.3.1zm-5.5-7.8c-.1 0-.3 0-.3-.2l-2.8-3.9c-.1-.2-.1-.5.1-.6s.5-.1.6.1l2.8 3.9c.1.2.1.5-.1.6s-.2.1-.3.1zm-5.5-7.8c-.1 0-.3 0-.3-.2l-2.8-3.9c-.1-.2-.1-.5.1-.6s.5-.1.6.1l2.8 3.9c.1.2.1.5-.1.6s-.3.1-.3.1z"/><path d="M199.8 46c-.2 0-.4-.1-.4-.3l-.6-2.4c0-.2.1-.5.3-.5s.5.1.5.3l.6 2.4c0 .1-.1.4-.4.5h0zm42.9 157.6c-.2 0-.4-.1-.4-.3l-1.3-4.6c0-.2.1-.5.3-.5s.5.1.5.3l1.3 4.6c0 .2-.1.4-.4.5h0zm-2.5-9.2c-.2 0-.4-.1-.4-.3l-1.3-4.6c0-.2.1-.5.3-.5s.5.1.5.3l1.3 4.6c0 .2-.1.4-.4.5h0zm-2.5-9.3c-.2 0-.4-.1-.4-.3l-1.3-4.6c0-.2.1-.5.3-.5s.5.1.5.3l1.3 4.6c0 .2-.1.4-.4.5h0zm-2.5-9.3c-.2 0-.4-.1-.4-.3l-1.3-4.6c0-.2.1-.5.3-.5s.5.1.5.3l1.3 4.6c0 .2-.2.4-.4.5zm-2.6-9.3c-.2 0-.4-.1-.4-.3l-1.3-4.6c0-.2.1-.5.3-.5s.5.1.5.3l1.3 4.6c0 .2-.1.5-.4.5h0zm-2.5-9.2c-.2 0-.4-.1-.4-.3l-1.3-4.6c0-.2.1-.5.3-.5s.5.1.5.3l1.3 4.6c0 .2-.1.4-.4.5.1-.1 0 0 0 0zm-2.5-9.3c-.2 0-.4-.1-.4-.3l-1.3-4.6c0-.2.1-.5.3-.5s.5.1.5.3l1.3 4.6c0 .2-.1.4-.4.5zm-2.5-9.3c-.2 0-.4-.1-.4-.3l-1.3-4.6c0-.2.1-.5.3-.5s.5.1.5.3l1.3 4.6c0 .2-.2.4-.4.5zm-2.6-9.3c-.2 0-.4-.1-.4-.3l-1.3-4.6c0-.2.1-.5.3-.5s.5.1.5.3l1.3 4.6c0 .2-.1.5-.4.5h0zm-2.5-9.2c-.2 0-.4-.1-.4-.3l-1.3-4.6c0-.2.1-.5.3-.5s.5.1.5.3l1.3 4.6c0 .1-.1.4-.4.5h0zm-2.5-9.3c-.2 0-.4-.1-.4-.3l-1.3-4.6c0-.2.1-.5.3-.5s.5.1.5.3l1.3 4.6c0 .2-.1.4-.4.5h0zm-2.6-9.3c-.2 0-.4-.1-.4-.3l-1.3-4.6c0-.2.1-.5.3-.5s.5.1.5.3l1.3 4.6c.1.2-.1.4-.4.5h0zm-2.5-9.2c-.2 0-.4-.1-.4-.3l-1.3-4.6c0-.2.1-.5.3-.5s.5.1.5.3l1.3 4.6c.1.1-.1.4-.4.5.1-.1 0 0 0 0zm-2.5-9.3c-.2 0-.4-.1-.4-.3l-1.3-4.6c0-.2.1-.5.3-.5s.5.1.5.3l1.3 4.6c0 .1-.1.4-.4.5h0zm-2.5-9.3c-.2 0-.4-.1-.4-.3l-1.3-4.6c0-.2.1-.5.3-.5s.5.1.5.3l1.3 4.6c0 .1-.2.4-.4.5h0zm-2.5-9.3c-.2 0-.4-.1-.4-.3l-1.3-4.6c0-.2.1-.5.3-.5s.5.1.5.3l1.3 4.6c0 .2-.2.4-.4.5zm-2.6-9.3c-.2 0-.4-.1-.4-.3l-1.3-4.6c0-.2.1-.5.3-.5s.5.1.5.3l1.3 4.6c0 .2-.1.4-.4.5h0zm42.3 155.5c-.2 0-.4-.1-.4-.3l-.6-2.4c0-.2.1-.5.3-.5s.5.1.5.3l.6 2.4c.1.1-.1.4-.4.5.1-.1.1 0 0 0zM112.4 60.9c-.2 0-.3-.2-.3-.4V58c0-.2.1-.4.3-.4s.3.2.3.4v2.4c.1.3-.1.5-.3.5zm0 124.5c-.2 0-.3-.2-.3-.4v-2.4c0-.2.1-.4.3-.4s.3.2.3.4v2.4c.1.2-.1.4-.3.4zm0-7.4c-.2 0-.3-.2-.3-.4v-4.9c0-.2.1-.4.3-.4s.3.2.3.4v4.9c.1.2-.1.4-.3.4zm0-9.7c-.2 0-.3-.2-.3-.4V163c0-.2.1-.4.3-.4s.3.2.3.4v4.9c.1.2-.1.4-.3.4zm0-9.8c-.2 0-.3-.2-.3-.4v-4.9c0-.2.1-.4.3-.4s.3.2.3.4v4.9c.1.2-.1.4-.3.4zm0-9.8c-.2 0-.3-.2-.3-.4v-4.9c0-.2.1-.4.3-.4s.3.2.3.4v4.9c.1.2-.1.4-.3.4zm0-9.7c-.2 0-.3-.2-.3-.4v-4.9c0-.2.1-.4.3-.4s.3.2.3.4v4.9c.1.2-.1.4-.3.4zm0-9.8c-.2 0-.3-.2-.3-.4v-4.9c0-.2.1-.4.3-.4s.3.2.3.4v4.9c.1.2-.1.4-.3.4zm0-9.7c-.2 0-.3-.2-.3-.4v-4.9c0-.2.1-.4.3-.4s.3.2.3.4v4.9c.1.2-.1.4-.3.4zm0-9.8c-.2 0-.3-.2-.3-.4v-4.9c0-.2.1-.4.3-.4s.3.2.3.4v4.9c.1.2-.1.4-.3.4zm0-9.8c-.2 0-.3-.2-.3-.4v-4.9c0-.2.1-.4.3-.4s.3.2.3.4v4.9c.1.2-.1.4-.3.4zm0-9.7c-.2 0-.3-.2-.3-.4v-4.9c0-.2.1-.4.3-.4s.3.2.3.4v4.9c.1.2-.1.4-.3.4zm0-9.8c-.2 0-.3-.2-.3-.4v-4.9c0-.2.1-.4.3-.4s.3.2.3.4V80c.1.2-.1.4-.3.4zm0-9.8c-.2 0-.3-.2-.3-.4v-4.9c0-.2.1-.4.3-.4s.3.2.3.4v4.9c.1.3-.1.4-.3.4zm0 119.6c-.2 0-.3-.2-.3-.4v-2.4c0-.2.1-.4.3-.4s.3.2.3.4v2.4c.1.2-.1.4-.3.4z"/></g><linearGradient id="A" gradientUnits="userSpaceOnUse" x1="238.9" y1="69.032" x2="211.458" y2="95.408"><stop offset="0" stop-color="#9681bc"/><stop offset=".996" stop-color="#6166ae"/></linearGradient><path d="M184.2 192.3c-2.4.1-4.8-.5-6.8-1.8-6.2-3.7-15.4-9.9-23.7-18-10.5-10.2-16.6-20.7-17.9-30.9v-.2l-.3-43.6c0-8.6 5.6-15.6 16.2-20.2 8.7-3.8 20.3-5.7 32.5-5.4 12.1.4 23.3 2.9 31.5 7 9.8 4.9 15 11.9 15 20.1l-.2 41.7v.1c-1.2 9.8-6.8 19.9-16.6 30.2-7.9 8.2-16.8 14.7-22.9 18.7a10.95 10.95 0 0 1-6.8 2.3z" fill="url(#A)"/><linearGradient id="B" gradientUnits="userSpaceOnUse" x1="157.334" y1="75.052" x2="250.614" y2="227.616"><stop offset="0" stop-color="#9681bc"/><stop offset=".996" stop-color="#6166ae"/></linearGradient><path d="M186.6 192.3c-2.4.1-4.7-.5-6.8-1.8-6.2-3.7-15.2-9.9-23.4-18-10.4-10.2-16.3-20.7-17.6-30.9v-.2l-.3-43.6c0-8.6 5.5-15.6 16-20.2 8.6-3.8 20-5.7 32.1-5.4 11.9.4 22.9 2.9 31.1 7 9.7 4.9 14.8 11.9 14.8 20.1l-.2 41.7v.1c-1.2 9.8-6.7 19.9-16.4 30.2-7.8 8.2-16.6 14.7-22.6 18.7-2.1 1.6-4.4 2.3-6.7 2.3z" fill="url(#B)"/><linearGradient id="C" gradientUnits="userSpaceOnUse" x1="206.826" y1="161.9" x2="131.069" y2="9.57"><stop offset="0" stop-color="#9681bc"/><stop offset=".996" stop-color="#6166ae"/></linearGradient><path d="M141.4 98l.3 43.4c2.9 22.2 28.9 40.1 40.2 46.9 3.3 1.9 7.4 1.8 10.6-.3 11.1-7.3 35.7-25.7 38.4-47l.2-41.6c0-30.9-89.7-33.7-89.7-1.4z" fill="url(#C)"/><linearGradient id="D" gradientUnits="userSpaceOnUse" x1="149.913" y1="132.34" x2="223.059" y2="132.34"><stop offset=".004" stop-color="#26274f"/><stop offset="1" stop-color="#454c8d"/></linearGradient><path d="M187.2 181.6c-.2 0-.5 0-.9-.2-4.7-2.8-13.7-8.8-21.6-16.5-8.5-8.3-13.4-16.5-14.6-24.1l-.3-42.7c0-4.1 3.3-7.6 9.6-10.4 7.1-3.1 17.2-4.8 27.6-4.5 10.3.2 20.1 2.3 26.9 5.7 6 3 9 6.5 9 10.4l-.2 41.2c-1 7.4-5.7 15.3-13.7 23.7-7.6 7.8-16.5 14.1-21.1 17.1-.2.3-.5.3-.7.3z" fill="url(#D)"/><linearGradient id="E" gradientUnits="userSpaceOnUse" x1="198.325" y1="188.352" x2="177.206" y2="73.251"><stop offset="0" stop-color="#9681bc"/><stop offset=".996" stop-color="#6166ae"/></linearGradient><path d="M186.1 178.7c-4.7-2.9-13.1-8.5-20.4-15.7-8-7.8-12.6-15.4-13.7-22.4l-.2-42.4c0-2.9 2.7-5.6 8-7.9 6.7-3 16.4-4.5 26.4-4.3 9.9.2 19.3 2.2 25.7 5.4 5 2.5 7.5 5.2 7.5 8l-.2 41.1c-1 6.8-5.4 14.2-13 22.1-7.1 7.1-15.4 13-20.1 16.1z" fill="url(#E)"/><path d="M183.2 146.8c-1.5 0-2.9-.7-3.6-1.9l-11.7-18.2c-1-1.6-.5-3.9 1.2-5.2s4.1-1.1 5.2.5l8.6 12.7 12.9-24.2c1.3-2.4 4.3-3.8 6.9-3.3 2.7.6 3.7 3.1 2.4 5.5l-17.9 31.9c-.7 1.3-2.2 2.2-3.8 2.2 0 0-.1 0-.2 0z" class="AF"/><linearGradient id="F" gradientUnits="userSpaceOnUse" x1="94.634" y1="58.095" x2="129.371" y2="58.095"><stop offset="0" stop-color="#454c8d"/><stop offset=".996" stop-color="#26274f"/></linearGradient><path d="M123.5 75.3l-23.6-.5c-2.9 0-5.4-2.5-5.3-5.4l.3-23.2c0-2.9 2.4-5.3 5.4-5.3l23.6.2c3 0 5.4 2.4 5.4 5.4l-.2 23.5c-.1 3-2.5 5.4-5.6 5.3z" fill="url(#F)"/><linearGradient id="G" gradientUnits="userSpaceOnUse" x1="95.359" y1="58.252" x2="130.142" y2="58.252"><stop offset="0" stop-color="#9681bc"/><stop offset=".996" stop-color="#6166ae"/></linearGradient><path d="M124.3 75.5l-23.6-.5c-3 0-5.4-2.5-5.3-5.4l.3-23.3c0-2.9 2.4-5.3 5.4-5.3l23.6.2c3 0 5.4 2.4 5.4 5.4l-.3 23.5c0 3.1-2.5 5.4-5.5 5.4z" fill="url(#G)"/><path d="M114 64.4c-2.9-3.9.1-6.4-2.9-10.8-3.6-5.2-9.5-4.1-11.8-8.8-.5-1-.7-2.1-.7-3.2-1.7.9-2.9 2.6-2.9 4.7l-.3 23.3c0 2.9 2.4 5.4 5.3 5.4l23.6.5c2.4 0 4.5-1.5 5.3-3.6-4.3-4.8-11.7-2-15.6-7.5z" class="AF AG AH"/><linearGradient id="H" gradientUnits="userSpaceOnUse" x1="100.755" y1="58.478" x2="123.522" y2="58.478"><stop offset="0" stop-color="#454c8d"/><stop offset=".996" stop-color="#26274f"/></linearGradient><path d="M119.8 69.8l-15.7-.3a3.44 3.44 0 0 1-3.4-3.4l.2-15.6a3.37 3.37 0 0 1 3.4-3.4l15.7.1a3.44 3.44 0 0 1 3.4 3.4l-.2 15.7c.1 2-1.4 3.5-3.4 3.5z" fill="url(#H)"/><linearGradient id="I" gradientUnits="userSpaceOnUse" x1="182.917" y1="209.766" x2="175.862" y2="244.698" gradientTransform="matrix(0.9999 1.100000e-02 1.100000e-02 -0.9999 -68.629 286.0991)"><stop offset=".004" stop-color="#d191c0"/><stop offset="1" stop-color="#8172b4"/></linearGradient><path d="M120.3 69.4l-15.5-.3c-1.9 0-3.4-1.5-3.3-3.4l.2-15.3c0-1.9 1.5-3.3 3.4-3.3l15.6.1a3.37 3.37 0 0 1 3.4 3.4l-.2 15.4c-.2 1.9-1.7 3.4-3.6 3.4z" fill="url(#I)"/><path d="M114 64.4c-2.9-3.9.1-6.4-2.9-10.8-2.4-3.4-5.8-4.1-8.4-5.5-.6.6-1 1.4-1 2.3l-.2 15.3c0 1.9 1.5 3.4 3.3 3.4l15.5.3c.9 0 1.6-.3 2.2-.8-3.2-.7-6.4-1.2-8.5-4.2z" class="AF AG AH"/><linearGradient id="J" gradientUnits="userSpaceOnUse" x1="220.383" y1="211.392" x2="267.546" y2="211.392"><stop offset="0" stop-color="#454c8d"/><stop offset=".996" stop-color="#26274f"/></linearGradient><path d="M259.7 234.8l-32.1-.6c-4-.1-7.3-3.4-7.2-7.4l.4-31.6c0-4 3.4-7.2 7.4-7.2l32.1.3c4.1 0 7.4 3.4 7.3 7.4l-.4 31.9c-.1 4.1-3.4 7.3-7.5 7.2z" fill="url(#J)"/><linearGradient id="K" gradientUnits="userSpaceOnUse" x1="221.426" y1="211.619" x2="268.68" y2="211.619"><stop offset="0" stop-color="#9681bc"/><stop offset=".996" stop-color="#6166ae"/></linearGradient><path d="M260.7 235l-32.1-.6c-4-.1-7.3-3.4-7.2-7.4l.4-31.6c0-4 3.4-7.3 7.4-7.2l32.1.3c4.1 0 7.4 3.4 7.4 7.4l-.4 32c-.1 4-3.4 7.2-7.6 7.1z" fill="url(#K)"/><path d="M246.6 220c-3.9-5.3.1-8.8-4-14.7-4.9-7.1-13-5.6-16-11.9-.7-1.4-1-2.9-1-4.4-2.3 1.2-3.9 3.6-3.9 6.3l-.4 31.6a7.41 7.41 0 0 0 7.2 7.4l32.1.6c3.3 0 6.1-2 7.1-4.9-5.6-6.3-15.6-2.6-21.1-10z" class="AF AG AH"/><linearGradient id="L" gradientUnits="userSpaceOnUse" x1="228.727" y1="211.868" x2="259.656" y2="211.868"><stop offset="0" stop-color="#454c8d"/><stop offset=".996" stop-color="#26274f"/></linearGradient><path d="M254.7 227.3l-21.4-.4c-2.5 0-4.6-2.1-4.6-4.7l.3-21.2c0-2.5 2.1-4.6 4.7-4.6l21.4.2c2.6 0 4.7 2.1 4.6 4.7l-.2 21.4c-.1 2.6-2.2 4.7-4.8 4.6z" fill="url(#L)"/><linearGradient id="M" gradientUnits="userSpaceOnUse" x1="318.286" y1="50.645" x2="308.702" y2="98.098" gradientTransform="matrix(0.9999 1.100000e-02 1.100000e-02 -0.9999 -68.629 286.0991)"><stop offset=".004" stop-color="#d191c0"/><stop offset="1" stop-color="#8172b4"/></linearGradient><path d="M255.3 226.7l-21.1-.4c-2.5 0-4.5-2.1-4.5-4.6l.2-20.8c0-2.5 2.1-4.5 4.6-4.5l21.1.2c2.5 0 4.6 2.1 4.6 4.6l-.2 21c-.1 2.5-2.2 4.5-4.7 4.5z" fill="url(#M)"/><path d="M246.6 220c-3.9-5.3.1-8.8-4-14.7-3.2-4.7-7.8-5.6-11.4-7.5-.8.8-1.3 1.9-1.3 3.1l-.2 20.8c0 2.5 2 4.6 4.5 4.6l21.1.4c1.1 0 2.2-.4 3-1-4.3-.9-8.7-1.7-11.7-5.7z" class="AF AG AH"/><linearGradient id="N" gradientUnits="userSpaceOnUse" x1="249.179" y1="83.398" x2="287.227" y2="83.398"><stop offset="0" stop-color="#454c8d"/><stop offset=".996" stop-color="#26274f"/></linearGradient><path d="M280.9 102.3l-25.9-.5c-3.3 0-5.8-2.7-5.8-6l.3-25.5c0-3.2 2.7-5.8 5.9-5.8l25.9.2c3.3 0 6 2.7 5.9 6l-.2 25.8c-.1 3.2-2.8 5.9-6.1 5.8z" fill="url(#N)"/><linearGradient id="O" gradientUnits="userSpaceOnUse" x1="249.951" y1="83.579" x2="288.089" y2="83.579"><stop offset="0" stop-color="#9681bc"/><stop offset=".996" stop-color="#6166ae"/></linearGradient><path d="M281.7 102.5l-25.9-.5c-3.3 0-5.8-2.7-5.8-6l.3-25.5c0-3.2 2.7-5.8 6-5.8l25.9.2c3.3 0 6 2.7 5.9 6l-.3 25.8c0 3.2-2.8 5.8-6.1 5.8z" fill="url(#O)"/><path d="M270.4 90.4c-3.1-4.3.1-7.1-3.2-11.9-3.9-5.7-10.5-4.5-12.9-9.6-.5-1.1-.8-2.3-.8-3.5-1.9 1-3.1 2.9-3.1 5.1L250 96a6.05 6.05 0 0 0 5.8 6l25.9.5c2.7 0 4.9-1.6 5.8-3.9-4.6-5.3-12.8-2.3-17.1-8.2z" class="AF AG AH"/><linearGradient id="P" gradientUnits="userSpaceOnUse" x1="255.883" y1="83.76" x2="280.87" y2="83.76"><stop offset="0" stop-color="#454c8d"/><stop offset=".996" stop-color="#26274f"/></linearGradient><path d="M276.8 96.3l-17.2-.3c-2.1 0-3.7-1.7-3.7-3.8l.2-17.1c0-2 1.7-3.7 3.8-3.7l17.3.2a3.8 3.8 0 0 1 3.8 3.8l-.2 17.3c-.1 1.9-1.9 3.6-4 3.6z" fill="url(#P)"/><linearGradient id="Q" gradientUnits="userSpaceOnUse" x1="339.852" y1="184.217" x2="332.115" y2="222.524" gradientTransform="matrix(0.9999 1.100000e-02 1.100000e-02 -0.9999 -68.629 286.0991)"><stop offset=".004" stop-color="#d191c0"/><stop offset="1" stop-color="#8172b4"/></linearGradient><path d="M277.3 95.8l-17.1-.3c-2 0-3.7-1.7-3.6-3.7l.2-16.8c0-2 1.7-3.6 3.7-3.6l17.1.2c2.1 0 3.7 1.7 3.7 3.7l-.2 16.9c0 2-1.7 3.6-3.8 3.6z" fill="url(#Q)"/><use xlink:href="#AB" class="AF AG AH"/><linearGradient id="R" gradientUnits="userSpaceOnUse" x1="187.803" y1="40.997" x2="209.616" y2="40.997"><stop offset="0" stop-color="#454c8d"/><stop offset=".996" stop-color="#26274f"/></linearGradient><use xlink:href="#AC" fill="url(#R)"/><linearGradient id="S" gradientUnits="userSpaceOnUse" x1="188.27" y1="41.088" x2="210.129" y2="41.088"><stop offset="0" stop-color="#9681bc"/><stop offset=".996" stop-color="#6166ae"/></linearGradient><path d="M206.5 51.9l-14.9-.3a3.44 3.44 0 0 1-3.4-3.4l.2-14.6a3.37 3.37 0 0 1 3.4-3.4l14.9.1a3.37 3.37 0 0 1 3.4 3.4l-.2 14.8c.1 2-1.5 3.4-3.4 3.4z" fill="url(#S)"/><use xlink:href="#AD" class="AF AG AH"/><linearGradient id="T" gradientUnits="userSpaceOnUse" x1="191.656" y1="41.201" x2="205.972" y2="41.201"><stop offset="0" stop-color="#454c8d"/><stop offset=".996" stop-color="#26274f"/></linearGradient><path d="M203.7 48.4l-9.9-.2c-1.2 0-2.1-1-2.1-2.2l.1-9.8c0-1.2 1-2.1 2.2-2.1l9.9.1c1.2 0 2.2 1 2.1 2.2l-.1 9.9c0 1.1-1 2.1-2.2 2.1z" fill="url(#T)"/><linearGradient id="U" gradientUnits="userSpaceOnUse" x1="267.672" y1="235.319" x2="263.236" y2="257.284" gradientTransform="matrix(0.9999 1.100000e-02 1.100000e-02 -0.9999 -68.629 286.0991)"><stop offset=".004" stop-color="#d191c0"/><stop offset="1" stop-color="#8172b4"/></linearGradient><path d="M204 48.1l-9.7-.2c-1.2 0-2.1-1-2.1-2.1l.1-9.6c0-1.2 1-2.1 2.1-2.1l9.7.1c1.2 0 2.1 1 2.1 2.1l-.1 9.7c0 1.2-1 2.1-2.1 2.1z" fill="url(#U)"/><path d="M199.9 45c-1.8-2.4 0-4-1.9-6.8-1.5-2.2-3.6-2.6-5.3-3.5-.4.4-.6.9-.6 1.5l-.1 9.6c0 1.2.9 2.1 2.1 2.1l9.7.2c.5 0 1-.2 1.4-.5-1.8-.4-3.9-.7-5.3-2.6z" class="AF AG AH"/><linearGradient id="V" gradientUnits="userSpaceOnUse" x1="55.499" y1="129.425" x2="77.312" y2="129.425"><stop offset="0" stop-color="#454c8d"/><stop offset=".996" stop-color="#26274f"/></linearGradient><path d="M73.7 140.2l-14.8-.2a3.44 3.44 0 0 1-3.4-3.4l.2-14.6c0-1.9 1.5-3.4 3.4-3.3l14.8.1a3.37 3.37 0 0 1 3.4 3.4l-.2 14.8a3.21 3.21 0 0 1-3.4 3.2z" fill="url(#V)"/><linearGradient id="W" gradientUnits="userSpaceOnUse" x1="55.953" y1="129.516" x2="77.811" y2="129.516"><stop offset="0" stop-color="#9681bc"/><stop offset=".996" stop-color="#6166ae"/></linearGradient><path d="M74.2 140.4l-14.9-.3a3.44 3.44 0 0 1-3.4-3.4l.2-14.6a3.37 3.37 0 0 1 3.4-3.4l14.9.1a3.37 3.37 0 0 1 3.4 3.4l-.2 14.8a3.37 3.37 0 0 1-3.4 3.4z" fill="url(#W)"/><path d="M67.7 133.4c-1.8-2.4 0-4-1.9-6.8-2.3-3.3-6-2.6-7.4-5.5-.3-.6-.5-1.3-.5-2-1 .5-1.8 1.7-1.8 2.9l-.2 14.6a3.37 3.37 0 0 0 3.4 3.4l14.9.3c1.5 0 2.8-.9 3.3-2.3-2.7-2.9-7.4-1.2-9.8-4.6z" class="AF AG AH"/><linearGradient id="X" gradientUnits="userSpaceOnUse" x1="59.354" y1="129.63" x2="73.67" y2="129.63"><stop offset="0" stop-color="#454c8d"/><stop offset=".996" stop-color="#26274f"/></linearGradient><path d="M71.4 136.8l-9.9-.2c-1.2 0-2.1-1-2.1-2.2l.1-9.8c0-1.2 1-2.1 2.2-2.1l9.9.1c1.2 0 2.2 1 2.1 2.2l-.1 9.9c-.1 1.1-1.1 2.1-2.2 2.1z" fill="url(#X)"/><linearGradient id="Y" gradientUnits="userSpaceOnUse" x1="136.331" y1="145.438" x2="131.895" y2="167.404" gradientTransform="matrix(0.9999 1.100000e-02 1.100000e-02 -0.9999 -68.629 286.0991)"><stop offset=".004" stop-color="#d191c0"/><stop offset="1" stop-color="#8172b4"/></linearGradient><path d="M71.6 136.5l-9.7-.2c-1.2 0-2.1-1-2.1-2.1l.1-9.6c0-1.2 1-2.1 2.1-2.1l9.7.1c1.2 0 2.1 1 2.1 2.1l-.1 9.7c.1 1.2-.9 2.1-2.1 2.1z" fill="url(#Y)"/><path d="M67.7 133.4c-1.8-2.4 0-4-1.9-6.8-1.5-2.2-3.6-2.6-5.3-3.5-.4.4-.6.9-.6 1.5l-.1 9.6c0 1.2.9 2.1 2.1 2.1l9.7.2c.5 0 1-.2 1.4-.5-1.9-.4-4-.7-5.3-2.6z" class="AF AG AH"/><linearGradient id="Z" gradientUnits="userSpaceOnUse" x1="149.278" y1="236.469" x2="175.98" y2="236.469"><stop offset="0" stop-color="#454c8d"/><stop offset=".996" stop-color="#26274f"/></linearGradient><path d="M171.5 249.7l-18.1-.4c-2.3 0-4.1-1.9-4.1-4.2l.2-17.9c0-2.3 1.9-4.1 4.2-4.1l18.1.1a4.23 4.23 0 0 1 4.2 4.2l-.2 18.1c0 2.4-1.9 4.3-4.3 4.2z" fill="url(#Z)"/><linearGradient id="a" gradientUnits="userSpaceOnUse" x1="149.838" y1="236.605" x2="176.591" y2="236.605"><stop offset="0" stop-color="#9681bc"/><stop offset=".996" stop-color="#6166ae"/></linearGradient><path d="M172.1 249.8l-18.2-.4c-2.3 0-4.1-1.9-4.1-4.2l.2-17.9c0-2.3 1.9-4.1 4.2-4.1l18.2.1a4.23 4.23 0 0 1 4.2 4.2l-.2 18.1c0 2.4-2 4.3-4.3 4.2z" fill="url(#a)"/><path d="M164.2 241.3c-2.2-3 .1-4.9-2.3-8.3-2.8-4-7.3-3.2-9.1-6.8-.4-.8-.5-1.6-.5-2.4-1.3.7-2.2 2-2.2 3.6l-.2 17.9c0 2.3 1.8 4.1 4.1 4.2l18.2.4c1.9 0 3.4-1.1 4-2.8-3.3-3.7-9-1.6-12-5.8z" class="AF AG AH"/><linearGradient id="b" gradientUnits="userSpaceOnUse" x1="153.993" y1="236.696" x2="171.499" y2="236.696"><stop offset="0" stop-color="#454c8d"/><stop offset=".996" stop-color="#26274f"/></linearGradient><path d="M168.7 245.4l-12.1-.2c-1.5 0-2.6-1.2-2.6-2.7l.1-12c0-1.5 1.2-2.6 2.6-2.6l12.1.1c1.5 0 2.6 1.2 2.6 2.7l-.1 12.1a2.47 2.47 0 0 1-2.6 2.6z" fill="url(#b)"/><linearGradient id="c" gradientUnits="userSpaceOnUse" x1="234.414" y1="36.63" x2="228.985" y2="63.507" gradientTransform="matrix(0.9999 1.100000e-02 1.100000e-02 -0.9999 -68.629 286.0991)"><stop offset=".004" stop-color="#d191c0"/><stop offset="1" stop-color="#8172b4"/></linearGradient><path d="M169.1 245.1l-12-.2c-1.5 0-2.6-1.2-2.5-2.6l.1-11.8c0-1.4 1.2-2.5 2.6-2.5l12 .1c1.5 0 2.6 1.2 2.6 2.6l-.1 11.9c-.1 1.4-1.3 2.5-2.7 2.5z" fill="url(#c)"/><path d="M164.2 241.3c-2.2-3 .1-4.9-2.3-8.3-1.8-2.6-4.4-3.2-6.5-4.3-.5.5-.7 1.1-.7 1.8l-.1 11.8c0 1.4 1.1 2.6 2.5 2.6l12 .2c.6 0 1.2-.2 1.7-.6-2.5-.5-5-.9-6.6-3.2z" class="AF AG AH"/><linearGradient id="d" gradientUnits="userSpaceOnUse" x1="187.777" y1="41.009" x2="209.59" y2="41.009"><stop offset="0" stop-color="#454c8d"/><stop offset=".996" stop-color="#26274f"/></linearGradient><use xlink:href="#AC" x="89.7" y="99.3" fill="url(#d)"/><linearGradient id="e" gradientUnits="userSpaceOnUse" x1="277.959" y1="140.355" x2="299.817" y2="140.355"><stop offset="0" stop-color="#9681bc"/><stop offset=".996" stop-color="#6166ae"/></linearGradient><path d="M296.2 151.2l-14.9-.3a3.44 3.44 0 0 1-3.4-3.4l.2-14.6a3.37 3.37 0 0 1 3.4-3.4l14.9.1a3.37 3.37 0 0 1 3.4 3.4l-.2 14.8a3.2 3.2 0 0 1-3.4 3.4z" fill="url(#e)"/><use xlink:href="#AD" x="89.7" y="99.3" class="AF AG AH"/><linearGradient id="f" gradientUnits="userSpaceOnUse" x1="281.331" y1="140.513" x2="295.648" y2="140.513"><stop offset="0" stop-color="#454c8d"/><stop offset=".996" stop-color="#26274f"/></linearGradient><path d="M293.3 147.7l-9.9-.2c-1.2 0-2.1-1-2.1-2.2l.1-9.8c0-1.2 1-2.1 2.2-2.1l9.9.1c1.2 0 2.2 1 2.1 2.2l-.1 9.9c0 1.1-.9 2.1-2.2 2.1z" fill="url(#f)"/><linearGradient id="g" gradientUnits="userSpaceOnUse" x1="358.467" y1="137.008" x2="354.031" y2="158.974" gradientTransform="matrix(0.9999 1.100000e-02 1.100000e-02 -0.9999 -68.629 286.0991)"><stop offset=".004" stop-color="#d191c0"/><stop offset="1" stop-color="#8172b4"/></linearGradient><path d="M293.7 147.4l-9.7-.2c-1.2 0-2.1-1-2.1-2.1l.1-9.6c0-1.2 1-2.1 2.1-2.1l9.7.1c1.2 0 2.1 1 2.1 2.1l-.1 9.7c0 1.2-1 2.1-2.1 2.1z" fill="url(#g)"/><path d="M289.6 144.3c-1.8-2.4 0-4-1.9-6.8-1.5-2.2-3.6-2.6-5.3-3.5-.4.4-.6.9-.6 1.5l-.1 9.6c0 1.2.9 2.1 2.1 2.1l9.7.2c.5 0 1-.2 1.4-.5-1.9-.4-3.9-.8-5.3-2.6z" class="AF AG AH"/><linearGradient id="h" gradientUnits="userSpaceOnUse" x1="92.094" y1="188.967" x2="130.142" y2="188.967"><stop offset="0" stop-color="#454c8d"/><stop offset=".996" stop-color="#26274f"/></linearGradient><path d="M123.8 207.9l-25.9-.5c-3.3 0-5.8-2.7-5.8-6l.3-25.5c0-3.2 2.7-5.8 5.9-5.8l25.9.2c3.3 0 6 2.7 5.9 6l-.3 25.8c0 3.2-2.7 5.8-6 5.8z" fill="url(#h)"/><linearGradient id="i" gradientUnits="userSpaceOnUse" x1="92.866" y1="189.149" x2="131.004" y2="189.149"><stop offset="0" stop-color="#9681bc"/><stop offset=".996" stop-color="#6166ae"/></linearGradient><path d="M124.7 208l-25.9-.5c-3.3 0-5.8-2.7-5.8-6l.3-25.5c0-3.2 2.7-5.8 6-5.8l25.9.2c3.3 0 6 2.7 5.9 6l-.3 25.8c-.1 3.3-2.8 5.9-6.1 5.8z" fill="url(#i)"/><path d="M113.3 195.9c-3.1-4.3.1-7.1-3.2-11.9-3.9-5.7-10.5-4.5-12.9-9.6-.5-1.1-.8-2.3-.8-3.5-1.9 1-3.1 2.9-3.1 5.1l-.3 25.5a6.05 6.05 0 0 0 5.8 6l25.9.5c2.7 0 4.9-1.6 5.8-3.9-4.8-5.2-12.9-2.2-17.2-8.2z" class="AF AG AH"/><linearGradient id="j" gradientUnits="userSpaceOnUse" x1="98.791" y1="189.285" x2="123.779" y2="189.285"><stop offset="0" stop-color="#454c8d"/><stop offset=".996" stop-color="#26274f"/></linearGradient><path d="M119.8 201.8l-17.2-.3c-2.1 0-3.7-1.7-3.7-3.8l.2-17.1c0-2 1.7-3.7 3.8-3.7l17.3.2a3.8 3.8 0 0 1 3.8 3.8l-.2 17.3c-.2 2-2 3.6-4 3.6z" fill="url(#j)"/><linearGradient id="k" gradientUnits="userSpaceOnUse" x1="183.937" y1="76.939" x2="176.2" y2="115.247" gradientTransform="matrix(0.9999 1.100000e-02 1.100000e-02 -0.9999 -68.629 286.0991)"><stop offset=".004" stop-color="#d191c0"/><stop offset="1" stop-color="#8172b4"/></linearGradient><path d="M120.3 201.3l-17.1-.3c-2 0-3.7-1.7-3.6-3.7l.2-16.8c0-2 1.7-3.6 3.7-3.6l17.1.2c2.1 0 3.7 1.7 3.7 3.7l-.2 16.9c-.1 2-1.8 3.6-3.8 3.6z" fill="url(#k)"/><use xlink:href="#AB" x="-157.1" y="105.5" class="AF AG AH"/><linearGradient id="l" gradientUnits="userSpaceOnUse" x1="265.351" y1="255.977" x2="267.052" y2="286.593"><stop offset="0" stop-color="#454c8d"/><stop offset=".996" stop-color="#26274f"/></linearGradient><path d="M269.6 266.9s.2 1.7.1 2.3-5.1 1-6.7.8c-1.7-.2 1-1.9 2-2.2 1-.4 4.6-.9 4.6-.9z" fill="url(#l)"/><linearGradient id="m" gradientUnits="userSpaceOnUse" x1="267.089" y1="265.804" x2="269.635" y2="265.804"><stop offset="0" stop-color="#321944"/><stop offset="1" stop-color="#a13b77"/></linearGradient><path d="M267.1 264l.5 3.4s1.3.6 1.9 0l.1-3.5-2.5.1z" fill="url(#m)"/><linearGradient id="n" gradientUnits="userSpaceOnUse" x1="296.092" y1="254.27" x2="297.792" y2="284.885"><stop offset="0" stop-color="#454c8d"/><stop offset=".996" stop-color="#26274f"/></linearGradient><path d="M294.8 263.9s-1 .8-.8 1.7c.3.9 2.7 4.6 4.4 5.7 1.7 1 1.2-1.1.7-2.5s-1.8-4.4-2.3-4.9c-.4-.5-2 0-2 0z" fill="url(#n)"/><linearGradient id="o" gradientUnits="userSpaceOnUse" x1="292.95" y1="264.209" x2="298.015" y2="264.209"><stop offset="0" stop-color="#321944"/><stop offset="1" stop-color="#a13b77"/></linearGradient><path d="M292.9 260.1l1.4 3.4c.9 1.9 1.3 2.6 1.8 3.2.5.5 1.5 1.7 1.8 1.5s-.5-1.6-2-5.6l-.9-2.4h0l-2.1-.1h0z" fill="url(#o)"/><linearGradient id="p" gradientUnits="userSpaceOnUse" x1="265.752" y1="262.729" x2="264.901" y2="229.846"><stop offset="0" stop-color="#321944"/><stop offset="1" stop-color="#8a3a77"/></linearGradient><path d="M256.8 201.4c-.4 3.5-.7 9-.2 15.7.7 8.7 2.4 14.1 4.6 23.4 1.3 5.7 3.1 14 4.8 24.4.4.2 1.5.8 2.9.6.8-.1 1.4-.5 1.8-.7 4.3-13 3-21 1-26.1-.9-2.1-1.9-3.8-2.5-7.1-.8-4.4.2-6.8 1.5-16.9 1-7.2.8-8.3.1-9.4-2.6-4.2-10.3-4.2-14-3.9z" fill="url(#p)"/><linearGradient id="q" gradientUnits="userSpaceOnUse" x1="284.668" y1="262.24" x2="283.817" y2="229.357"><stop offset="0" stop-color="#321944"/><stop offset="1" stop-color="#8a3a77"/></linearGradient><path d="M271.4 202.9c2.6 13.5 5.2 20.5 7.1 24.5.5 1 2.1 4.2 3.6 8.8 1.3 4 1.9 7 2.2 8.3.9 4.1 3.1 10.2 9.1 18 .1 0 1.1.6 2.1.1.5-.3.7-.7.8-.9-.8-7.6-1.7-13.9-2.4-18.8-.2-1-.9-5.5-2-11.5l-1.9-9.3c-1-4.4-2.4-10.3-4.7-17.4-4.7-.5-9.3-1.2-13.9-1.8z" fill="url(#q)"/><linearGradient id="r" gradientUnits="userSpaceOnUse" x1="296.273" y1="179.904" x2="284.367" y2="163.037"><stop offset="0" stop-color="#454c8d"/><stop offset=".996" stop-color="#26274f"/></linearGradient><path d="M269.2 149.6c-1.5-1.4-4.3-2.9-5.7-6.6-.4-1.1-1.9-5 .3-8 1.3-1.8 3.8-3 5.9-2.5 1.9.4 2.1 1.6 5.3 4.3 1.2 1 3.2 2.6 5.4 3.5 3.8 1.5 6 .1 9.8.3 4.6.2 10 2.8 12.6 6.5 4.6 6.7-2.1 13.4 3 21.3 1.6 2.5 2.4 2 6.4 6.9 3.9 4.9 5.9 7.4 5.5 10.5-.5 4.2-5 8.3-9.3 8.5-4.2.3-6.8-3-9-1.6-1.5 1-.6 3-2.3 5.4-2.1 3.1-6.2 3.7-6.8 3.8-6.1.9-14.4-6.3-17.9-14.7-6.3-15.3 4.8-30.1-3.2-37.6z" fill="url(#r)"/><linearGradient id="s" gradientUnits="userSpaceOnUse" x1="259.827" y1="174.914" x2="323.94" y2="212.141"><stop offset="0" stop-color="#ffc546"/><stop offset=".996" stop-color="#f36f56"/></linearGradient><path d="M244.1 153.9c0-4.3 9.7-7.7 14.1-8.8 6.9-1.7 12.4-.6 13.8-.4 8.6 1.8 14 7 16 9.2-1.6 1.1-6.2 4.4-8.5 10.6-.7 1.9-2.8 8.6.2 14.8 1.7 3.6 4.8 6.3 7 8.3 3.4 3.1 5.3 3.5 6.4 6.3 1.3 3 0 4.4 1.5 6.5 1.7 2.2 3.6 1.2 6.5 3.4 2.9 2.3 1.9 4.1 4.5 6.7 3.9 3.7 9 2.4 9.2 4.1.2 1.4-3.4 3.3-6.5 4.1-6.1 1.5-11.5-1-13.1-1.9-4.4-2.2-3.6-3.6-7-5.3-5.6-2.8-9.4.3-22.2.6-6.9.2-10.4.2-12.3-2.1-1.8-2.1-.8-4.5.2-14.6.5-4.8.7-9.7 1-14.5 1-13.6 1.1-14.8.1-16.7-3-6.7-10.9-6.5-10.9-10.3z" fill="url(#s)"/><g opacity=".3"><linearGradient id="t" gradientUnits="userSpaceOnUse" x1="283.458" y1="144.19" x2="293.285" y2="204.286"><stop offset="0" stop-color="#ffc546"/><stop offset=".996" stop-color="#f36f56"/></linearGradient><path d="M305.8 210.4c-2.7-2.5-1.6-4.4-4.5-6.7-2.9-2.2-4.8-1.2-6.5-3.4-1.6-2-.3-3.5-1.5-6.5-1.2-2.7-2.9-3.2-6.4-6.3-2.3-2-5.4-4.7-7-8.3-3-6.2-.9-12.8-.2-14.8 2.3-6.3 6.8-9.5 8.5-10.6-.2-.2-.4-.4-.5-.6-10.9 1.5-17.3 7.8-18 9.7-1.8 4.3 1 5.9 1.1 18.3 0 5.9-.6 8.3 1.3 10.8 2.2 2.9 4.8 1.9 7.9 5.7 2.4 2.9 2 4.7 4.4 5.8 2.4 1.3 4-.2 6.8.4 4.6 1 5.6 6.3 8.7 9.3 2.3 2.2 6.6 3.8 15.1 2.1.2-.3.3-.5.3-.8-.5-1.6-5.7-.4-9.5-4.1z" fill="url(#t)"/></g><linearGradient id="u" gradientUnits="userSpaceOnUse" x1="281.356" y1="144.534" x2="291.183" y2="204.63"><stop offset="0" stop-color="#ffc546"/><stop offset=".996" stop-color="#f36f56"/></linearGradient><path d="M272.8 166.4c-1.2 2.4 4.2 8.2 10.1 10.9 1.2.5 9.9 4.5 13.7.7 3.2-3.2 1.1-9.7.4-12.1-3.6-11.5-14.7-17.3-19.3-19.4-3.4 8.7-1.4 12.5-.6 13.7.9 1.3 3.2 3.9 5.7 6.3 1.8 1.6 2.9 2.4 2.7 2.7s-2.2-.3-10.2-4.2c-1 .2-2.1.5-2.5 1.4z" fill="url(#u)"/><linearGradient id="v" gradientUnits="userSpaceOnUse" x1="275.664" y1="164.769" x2="239.392" y2="164.769"><stop offset="0" stop-color="#f58f86"/><stop offset="1" stop-color="#ed72ac"/></linearGradient><path d="M239.4 152.2l3.9 19.5c.1.6.6 1.1 1.2 1.3l29.2 6.3c1 .2 2-.6 1.9-1.7l-1.5-19.8c0-.7-.5-1.3-1.2-1.4-4.6-1.1-22.4-5.4-31.8-6-1.1-.1-1.9.8-1.7 1.8z" fill="url(#v)"/><linearGradient id="w" gradientUnits="userSpaceOnUse" x1="-2668.086" y1="-1015.957" x2="-2670.071" y2="-1021.249" gradientTransform="matrix(0.8633 0.5047 0.5047 -0.8633 3089.2546 610.264)"><stop offset="0" stop-color="#321944"/><stop offset="1" stop-color="#a13b77"/></linearGradient><path d="M268.5 138s.5 4.4 2.2 5.4l4.5 2.7c.3.4-10.1 1.5-15.2-1.1h0l2.1-.5c.5-.1 1.3-.4 2.2-.9.6-.3 1.5-1 2.4-2.2V139l1.8-1z" fill="url(#w)"/><linearGradient id="x" gradientUnits="userSpaceOnUse" x1="-2668.744" y1="-1009.268" x2="-2675.452" y2="-1017.583" gradientTransform="matrix(0.8633 0.5047 0.5047 -0.8633 3089.2546 610.264)"><stop offset="0" stop-color="#321944"/><stop offset="1" stop-color="#a13b77"/></linearGradient><path d="M268.7 139.6s-1 1.5-2.7.9c-1.5-.5-.6-4.4.6-4.8.4-.1 1.1-.1 1.6.2.3.2 1.2 1.3.7 2.6.4-.1.7 0 .8.2s-.2.5-.3.6a1.08 1.08 0 0 1-.7.3z" fill="url(#x)"/><linearGradient id="y" gradientUnits="userSpaceOnUse" x1="272.579" y1="164.637" x2="239.404" y2="164.637"><stop offset="0" stop-color="#f58f86"/><stop offset="1" stop-color="#ed72ac"/></linearGradient><path d="M265.7 169c-3.1-.9-5.7 1.3-8.2-.4-2.5-1.8-.9-4.8-3.5-7.8-2.9-3.2-6.4-1.6-9.1-4.5-1-1.1-1.9-2.9-1.9-5.8-.7 0-1.3-.1-1.9-.1-1 0-1.9.9-1.7 1.9l3.9 19.5c.1.6.6 1.1 1.2 1.3l28 6c-1.9-7.1-4.5-9.4-6.8-10.1z" opacity=".3" fill="url(#y)" class="AG"/><linearGradient id="z" gradientUnits="userSpaceOnUse" x1="238.983" y1="168.797" x2="242.668" y2="149.993"><stop offset="0" stop-color="#321944"/><stop offset="1" stop-color="#a13b77"/></linearGradient><path d="M241.3 162.6s-1.9-1.7-2-3.7c-.2-2 1.2-3.6 2.5-4 1.4-.4 2.1.2 1.2 2.2-1 1.9-2.4 3.2-1.7 5.5z" fill="url(#z)"/><defs ><path id="AB" d="M270.4 90.4c-3.1-4.3.1-7.1-3.2-11.9-2.6-3.8-6.3-4.5-9.3-6.1-.6.6-1 1.5-1 2.5l-.2 16.8c0 2 1.6 3.7 3.6 3.7l17.1.3c.9 0 1.8-.3 2.4-.8-3.5-.7-7-1.3-9.4-4.5z"/><path id="AC" d="M206 51.8l-14.8-.3a3.44 3.44 0 0 1-3.4-3.4l.2-14.6c0-1.9 1.5-3.4 3.4-3.3l14.8.1a3.37 3.37 0 0 1 3.4 3.4l-.2 14.8c.1 1.9-1.5 3.4-3.4 3.3z"/><path id="AD" d="M199.9 45c-1.8-2.4 0-4-1.9-6.8-2.3-3.3-6-2.6-7.4-5.5-.3-.6-.5-1.3-.5-2-1 .5-1.8 1.7-1.8 2.9l-.2 14.6a3.37 3.37 0 0 0 3.4 3.4l14.9.3c1.5 0 2.8-.9 3.3-2.3-2.6-2.9-7.2-1.2-9.8-4.6z"/></defs></svg>