<svg xmlns="http://www.w3.org/2000/svg" width="480" height="480" viewBox="0 0 480 480">
  <g id="custom-software-development" transform="translate(-16 -16)">
    <rect id="Rectangle_6" data-name="Rectangle 6" width="32" height="16" transform="translate(64 392)" fill="#004bb9"/>
    <rect id="Rectangle_7" data-name="Rectangle 7" width="24" height="16" transform="translate(112 392)" fill="#004bb9"/>
    <rect id="Rectangle_8" data-name="Rectangle 8" width="56" height="16" transform="translate(64 432)" fill="#004bb9"/>
    <rect id="Rectangle_9" data-name="Rectangle 9" width="80" height="16" transform="translate(136 432)" fill="#004bb9"/>
    <rect id="Rectangle_10" data-name="Rectangle 10" width="32" height="16" transform="translate(416 392)" fill="#004bb9"/>
    <rect id="Rectangle_11" data-name="Rectangle 11" width="24" height="16" transform="translate(376 392)" fill="#004bb9"/>
    <rect id="Rectangle_12" data-name="Rectangle 12" width="56" height="16" transform="translate(392 432)" fill="#004bb9"/>
    <rect id="Rectangle_13" data-name="Rectangle 13" width="80" height="16" transform="translate(296 432)" fill="#004bb9"/>
    <path id="Path_45" data-name="Path 45" d="M472,16H40A24.028,24.028,0,0,0,16,40V472a24.028,24.028,0,0,0,24,24H472a24.028,24.028,0,0,0,24-24V40a24.028,24.028,0,0,0-24-24Zm8,24V64H180.944l-16-32H472A8.009,8.009,0,0,1,480,40ZM40,32H147.056l16,32H32V40a8.009,8.009,0,0,1,8-8ZM472,480H40a8.009,8.009,0,0,1-8-8V80H480V472A8.009,8.009,0,0,1,472,480Z" fill="#004bb9"/>
    <circle id="Ellipse_1" data-name="Ellipse 1" cx="8" cy="8" r="8" transform="translate(48 40)" fill="#004bb9"/>
    <circle id="Ellipse_2" data-name="Ellipse 2" cx="8" cy="8" r="8" transform="translate(72 40)" fill="#004bb9"/>
    <circle id="Ellipse_3" data-name="Ellipse 3" cx="8" cy="8" r="8" transform="translate(96 40)" fill="#004bb9"/>
    <path id="Icon_awesome-code" data-name="Icon awesome-code" d="M99.356,182.194l-21.729-6.3a4.281,4.281,0,0,1-2.921-5.308L123.329,3.088A4.281,4.281,0,0,1,128.637.167l21.729,6.305a4.281,4.281,0,0,1,2.921,5.308L104.663,179.273a4.268,4.268,0,0,1-5.308,2.921ZM58.747,142.226l15.5-16.528a4.275,4.275,0,0,0-.285-6.127L41.684,91.181,73.958,62.79a4.244,4.244,0,0,0,.285-6.127l-15.5-16.528a4.279,4.279,0,0,0-6.056-.178L1.361,88.046a4.246,4.246,0,0,0,0,6.234L52.692,142.4a4.247,4.247,0,0,0,6.056-.178Zm116.554.214,51.331-48.125a4.246,4.246,0,0,0,0-6.234L175.3,39.921a4.314,4.314,0,0,0-6.056.178l-15.5,16.528a4.275,4.275,0,0,0,.285,6.127L186.3,91.18l-32.273,28.39a4.244,4.244,0,0,0-.285,6.127l15.5,16.528a4.28,4.28,0,0,0,6.056.214Z" transform="translate(148.005 148.813)" fill="#004bb9"/>
  </g>
</svg>
