<svg xmlns="http://www.w3.org/2000/svg" xmlns:xlink="http://www.w3.org/1999/xlink" width="100" height="100" viewBox="0 0 100 100">
  <defs>
    <clipPath id="clip-ios">
      <rect width="100" height="100"/>
    </clipPath>
  </defs>
  <g id="ios" clip-path="url(#clip-ios)">
    <rect width="100" height="100" fill="#fff"/>
    <g id="noun_Apple_1426922" transform="translate(6 8.001)">
      <g id="Group_1" data-name="Group 1" transform="translate(12 2.999)">
        <path id="Path_5" data-name="Path 5" d="M56.608,955.451c-3.934,1.329-7.789,2.717-10.691,5.659s-4.41,7.389-3.944,13.524a2.6,2.6,0,0,0,3.036,2.232c4.161-.937,8.3-2.574,11.288-5.737s4.513-7.88,3.555-13.706a2.519,2.519,0,0,0-3.244-1.973Zm-1.427,5.918A8.98,8.98,0,0,1,52.69,967.7,14.832,14.832,0,0,1,46.9,971a9.265,9.265,0,0,1,2.569-6.412A16.931,16.931,0,0,1,55.181,961.369ZM32.76,974.426c-13.191.155-20.584,10.986-20.76,21.6a52.336,52.336,0,0,0,6.955,25.231,36.835,36.835,0,0,0,6.436,8.488c2.267,2.137,4.619,3.66,7.37,3.66a20.488,20.488,0,0,0,7.759-1.843,18.233,18.233,0,0,1,4.7-1.48,13.887,13.887,0,0,1,4.178,1.454,17.888,17.888,0,0,0,7.448,1.869c4.567,0,8.53-3.092,11.7-7.061a32.566,32.566,0,0,0,6.513-14.1,2.55,2.55,0,0,0-.986-2.466c-4.907-3.087-8.881-6.392-8.927-12.1,0-3.6,3.474-8.239,8.226-12.2a2.586,2.586,0,0,0,.415-3.4c-2.97-3.961-8.365-7.658-14.454-7.658-3.148,0-5.978,1.175-8.46,2.207a26.045,26.045,0,0,1-5.709,1.921,17.2,17.2,0,0,1-4.437-1.791,17.587,17.587,0,0,0-7.967-2.336Zm0,4.984a13.58,13.58,0,0,1,5.735,1.817c2.017,1.009,4.022,2.336,6.721,2.336,2.761-.205,5.381-1.428,7.551-2.336a19.127,19.127,0,0,1,6.565-1.817c3.1,0,6.575,1.893,8.9,4.023-4.387,4-8.071,8.7-8.071,14.251.089,8.023,4.524,11.541,9.6,15.134a28.535,28.535,0,0,1-5.112,10.409c-2.639,3.3-5.735,5.192-7.811,5.192a13.1,13.1,0,0,1-5.424-1.428c-1.806-.8-3.711-1.895-6.2-1.895s-4.517,1.034-6.539,1.843a16.343,16.343,0,0,1-5.917,1.48c-.571,0-2.163-.632-3.944-2.31a32.339,32.339,0,0,1-5.527-7.32,47.935,47.935,0,0,1-6.306-22.765c.008-9.044,7.039-16.455,15.778-16.613Z" transform="translate(-12 -955.362)" fill="#2c39f2"/>
      </g>
    </g>
  </g>
</svg>
