<svg xmlns="http://www.w3.org/2000/svg" xmlns:xlink="http://www.w3.org/1999/xlink" width="100" height="100" viewBox="0 0 100 100">
  <defs>
    <clipPath id="clip-iot">
      <rect width="100" height="100"/>
    </clipPath>
  </defs>
  <g id="iot" clip-path="url(#clip-iot)">
    <rect width="100" height="100" fill="#fff"/>
    <g id="noun_Mobile_4178765" transform="translate(11.604 5.023)">
      <path id="Path_6" data-name="Path 6" d="M58.243,81.279l7.068,6.235a2.125,2.125,0,0,0,2.811-3.187l-5.261-4.641,5.261-4.642a2.125,2.125,0,0,0-2.811-3.187l-7.068,6.236a2.125,2.125,0,0,0,0,3.187Z" transform="translate(-35.578 -37.006)" fill="#2c39f2"/>
      <path id="Path_7" data-name="Path 7" d="M108.562,75.045l5.261,4.642-5.261,4.642a2.125,2.125,0,0,0,2.811,3.187l7.068-6.235a2.125,2.125,0,0,0,0-3.187l-7.068-6.235a2.125,2.125,0,0,0-2.811,3.187Z" transform="translate(-64.516 -37.007)" fill="#2c39f2"/>
      <path id="Path_8" data-name="Path 8" d="M83.751,85.3a2.125,2.125,0,0,0,2.607-1.492L93.85,56.2a2.125,2.125,0,1,0-4.1-1.113l-7.492,27.6A2.125,2.125,0,0,0,83.751,85.3Z" transform="translate(-49.759 -26.765)" fill="#2c39f2"/>
      <path id="Path_9" data-name="Path 9" d="M81.037,6.977H51.687A7.232,7.232,0,0,0,44.464,14.2V75.407a7.232,7.232,0,0,0,7.223,7.223H81.037a7.232,7.232,0,0,0,7.223-7.223V14.2a7.232,7.232,0,0,0-7.223-7.223ZM51.687,11.226H81.037A2.978,2.978,0,0,1,84.011,14.2v2.1h-35.3V14.2a2.978,2.978,0,0,1,2.974-2.974Zm32.324,9.323V63.867h-35.3V20.549ZM81.037,78.382H51.687a2.978,2.978,0,0,1-2.974-2.974V68.116h35.3v7.291a2.978,2.978,0,0,1-2.974,2.974Z" transform="translate(-28.067)" fill="#2c39f2"/>
      <path id="Path_10" data-name="Path 10" d="M92.246,156.324H86.725a2.125,2.125,0,1,0,0,4.249h5.52a2.125,2.125,0,1,0,0-4.249Z" transform="translate(-51.149 -85.888)" fill="#2c39f2"/>
    </g>
  </g>
</svg>
