<svg xmlns="http://www.w3.org/2000/svg" xmlns:xlink="http://www.w3.org/1999/xlink" width="100" height="100" viewBox="0 0 100 100">
  <defs>
    <clipPath id="clip-ml">
      <rect width="100" height="100"/>
    </clipPath>
  </defs>
  <g id="ml" clip-path="url(#clip-ml)">
    <rect width="100" height="100" fill="#fff"/>
    <g id="noun_Robot_4146430" transform="translate(8.241 7.214)">
      <path id="Path_11" data-name="Path 11" d="M51.485,67.794A14.844,14.844,0,0,1,57.1,78.872l-2.509.114a12.33,12.33,0,0,0-4.636-9.2ZM42.608,64.76a14.579,14.579,0,0,1,6.269,1.421L47.8,68.461a12.106,12.106,0,0,0-5.19-1.171ZM22.765,47.893,37.276,62.457a18.239,18.239,0,0,0-3.34,1.514,18.038,18.038,0,0,0-1.623,1.072L18.445,51.12A10.034,10.034,0,0,0,22.765,47.893ZM14.9,34.709a7.1,7.1,0,1,1-7.074,7.1A7.063,7.063,0,0,1,14.9,34.709Zm52.365-1.927A3.721,3.721,0,1,1,63.552,36.5,3.7,3.7,0,0,1,67.267,32.783ZM51.143,18.259,62.2,29.351a8.84,8.84,0,0,0-3.226,4.33L47.952,22.618A10.033,10.033,0,0,0,51.143,18.259Zm-18.6,0a10.051,10.051,0,0,0,3.2,4.359L22.725,35.676a9.979,9.979,0,0,0-4.345-3.2Zm9.3-10.6a7.1,7.1,0,1,1-7.075,7.1A7.068,7.068,0,0,1,41.842,7.661Zm0-2.874a9.978,9.978,0,0,0-9.94,9.976v.06L14.957,31.834c-.02,0-.04-.006-.055-.006a9.981,9.981,0,0,0,0,19.961c.045,0,.09-.011.139-.011l15.086,15.14a18.511,18.511,0,0,0-5.349,13.02v1.446H61.409V79.938a18.476,18.476,0,0,0-9.157-15.969A18.247,18.247,0,0,0,43.094,61.5a18.464,18.464,0,0,0-2.523.179L24.214,45.271a9.92,9.92,0,0,0,.633-3.462,9.808,9.808,0,0,0-.658-3.52l14.15-14.2a9.706,9.706,0,0,0,7.011,0l13.19,13.237c0,.07.015.13.02.194l-5.25,9.016,5.7,11.586h5.477l-1.9-8.25.98-2.853h7.4l.979,2.853-1.9,8.25h5.482l5.7-11.586-5.25-9.016a8.5,8.5,0,0,0,.065-1.018,8.8,8.8,0,0,0-8.772-8.79,8.562,8.562,0,0,0-2.325.328L51.781,14.822c0-.02.006-.039.006-.06A9.978,9.978,0,0,0,41.842,4.786Z" transform="translate(-1.199)" fill="#2c39f2" fill-rule="evenodd"/>
      <path id="Path_12" data-name="Path 12" d="M15.189,39.22a4.233,4.233,0,1,1-4.22,4.23A4.206,4.206,0,0,1,15.189,39.22Z" transform="translate(-1.486 -1.64)" fill="#2c39f2" fill-rule="evenodd"/>
      <path id="Path_13" data-name="Path 13" d="M43.481,10.818a4.232,4.232,0,1,1-4.221,4.23A4.211,4.211,0,0,1,43.481,10.818Z" transform="translate(-2.833 -0.287)" fill="#2c39f2" fill-rule="evenodd"/>
    </g>
  </g>
</svg>
