<svg xmlns="http://www.w3.org/2000/svg" xmlns:xlink="http://www.w3.org/1999/xlink" viewBox="0 0 650 444.3" xmlns:v="https://vecta.io/nano"><style><![CDATA[.c{fill:none}.d{stroke-miterlimit:10}.e{fill:#fff}.f{fill:#122832}.g{fill:#009fbf}.h{fill:#df9257}.i{opacity:.33}.j{fill:#fc1381}.k{fill:#ffb701}.l{stroke:#ffb701}.m{stroke:#a0a0a0}.n{stroke-width:.771}.o{stroke-width:2.156}.p{stroke-width:1.497}.q{stroke-dasharray:5.2448,5.2448}.r{stroke-dasharray:4.9991,4.9991}.s{stroke-dasharray:5.2314}]]></style><g opacity=".29"><path d="M269.7 186.6h126V89.2H292.6L269.8 112v74.6z" fill="#c9c8c3"/><path d="M398.5 90.4h22.1M395 86.3V64.2" stroke="#c9c8c3" stroke-width="2.075" class="c d"/><path d="M294.6 91.1v22.8h-22.8" class="e"/></g><path d="M532.5 226.1l-107.8-4.8-32.9 143.8 168.2.9 17.1-82.3c5.9-28.9-15.3-56.3-44.6-57.6z" class="f"/><path d="M528.1 204.7l-5.1 20.1m-40.1-20.1l-5.1 20.1" stroke="#122832" stroke-width="5.918" class="c d"/><path d="M542.2 208h-88.8l19-55.1H553c6.8 0 11.5 6.7 9.3 13.1l-12.7 36.7c-1 3.2-4 5.3-7.4 5.3z" class="f"/><path d="M356.2 297.6l-40.2-26s-45.5-29.5-44.7-32.1 16.2 4.1 16.2 4.1c-1.2-2.3-15.2-10.7-14.7-12.2.6-1.5 18.4 8.2 19.2 7.5s-17.8-10.8-16.7-12.8 19.7 8 20.7 7.5-17.5-11.5-15.2-13.2c2.4-1.7 28 17.7 30.3 17.3s-5.8-11.9-5.3-17c.4-5.1 21.5 26.1 21.5 26.1 4.8 4.2 42.9 20.5 42.9 20.5l-14 30.3z" class="h"/><path d="M308.7 236.7l6.8 12.5s-3.1-12.7-2.3-13.7l-4.5 1.2z" fill="#b6613b"/><path d="M392.5 269.1s47.8-101.6 77.6-62.9c32 41.6-25.5 79.4-54.9 110.5-7.8 8.2-20.7 9-29.4 1.8l-69.2-46.4 11.7-24 64.2 21z" class="h"/><g class="g"><path d="M444 289c-12.8-14.5-30.3-33.6-44.2-46.9 16.1-27.4 49.8-62.5 70.3-35.9 23.1 29.9-.3 57.9-26.1 82.8z"/><path d="M543.2 236.5c1.6-25.6-42.3-46.3-42.3-46.3l-16.3-10.4-1 2.7-27.3 25.5-4.5-11.8.3-4.4-4.5 4.7c-3.3.5-16.7 18.9-20.2 27.4-5.4 13-7 30-7.5 40.2l-13.1 102.6h121.6c-.1 0 4.6 29 14.8-130.2z"/></g><path d="M518.1 199.8c-1.3-.8-80.2 166.8-80.2 166.8h97.9s8.3-73.5 7.1-132.7c-.1.1-1.5-18.6-24.8-34.1z" fill="#006a80"/><path d="M429.3 125.9c-2.3-4.7-1.5-12.2-1.5-12.2S408.4 107.1 413 96s27.4-4.9 27.4-4.9-8.6-13.2 8.3-2.5c6.7 4.3 7.9 5.3 13.1 3s13.5.7 16 5c1.5 2.7.6 5.1 2.6 4.9 7.6-.8 11.1 7.1 5.9 23.9 0 0 2.6 8.6-2.5 21.9-1.8 4.8-8.1 6.4-8.1 6.4" fill="#0e162e"/><path d="M429.2 115.1s-5.8 38.9 6.1 53.9c6.1 5.9 13.3 3.3 17.9 3.1.2-1.7-.7 13.5-1.5 27.1v.1c.2 2.3 3.4 3.1 7.1 2.9 5.7-.3 11-3 14.8-7.2l11.2-12.1-6.3-28.3s-1.3-6.4-1-8.4c4.6-.6 7.7-7.6 5.8-12.1-1.8-4.3-8.9-4.6-10-.5s-4.6 4-5 .6c-.2-2 1.2-18.2-10.5-20.1-7 .5-8.7 5.4-12.2 5.6-3.6.2-6.9-7.4-8.7-5.3-5.5 6.4-7.7.7-7.7.7z" class="h"/><path d="M481.3 138.3c-2.4-8.2-7.9-1.5-7.9-1.5l7.9 1.5zm-29.6 33.9l7.1-.6-5.6 14.4zm-16.3-29.7s-3.3 8.3-2.8 8.3c1.3-.1 3.8 0 3.8 0l-1-8.3z" fill="#b6613b"/><g fill="#0e162e"><ellipse transform="matrix(.9997 -.024695 .024695 .9997 -3.3664 10.696)" cx="431.4" cy="141.6" rx="1.1" ry="2.2"/><ellipse transform="matrix(.9997 -.024695 .024695 .9997 -3.3519 10.8969)" cx="439.5" cy="141.2" rx="1.1" ry="2.2"/><path d="M446.2 133.2c1.4.1 1.5-4.9-5.7-4.2-2 .2-3.8 2.2-2.8 3.7.6 1 3.3 0 8.5.5zm-18.2.9c-1.4.5-3.4-3.3.6-4.7 2.8-1 4.3 1.8 3.3 3.6-.5.9-1.7.4-3.9 1.1z"/></g><path d="M432.1 153.9l9.7-.8s-1 4.7-5.3 5c-3.4.3-4.4-4.2-4.4-4.2z" class="e"/><g class="h"><path d="M493.9 354.3l-48.1-5.6s-61.9 1.3-62.3-1.3 37.6-22.7 37.6-22.7c6.2 1.5 71.6-3.7 71.6-3.7l1.2 33.3z"/><path d="M500 232.2c-.4-8.5-12.1-37.1 4.4-40.5 17.4-3.6 68.7 49 56.9 136.8-2.7 19.9-14.2 36.4-48.8 30.1l-65.3-9.6 2-25.1 63.3-14.5c0-.1-11.3-52.1-12.5-77.2z"/></g><path d="M494.1 288.2l-5.3-55.4c-.4-8.5-.9-37.7 15.6-41.2 12.6-2.6 47 30 58.2 78.8-18.6 6.8-49.6 11.8-68.5 17.8z" class="g"/><g class="e"><use xlink:href="#B" class="i"/><path d="M447.8 145.9l-2.1-3.5c-1.8-3.2-3.4-6.6-5.2-9.7h6.2c2.1 0 3.7 2.2 3.7 4.8v3.9c0 2-1.1 3.8-2.6 4.5z" class="i"/></g><use xlink:href="#B" stroke="#0e162e" class="c d o"/><g class="e"><use xlink:href="#C" class="i"/><path d="M432.3 145.2l-6.3-12c.3-.2.6-.2 1-.2h3.6c1.6 0 2.9 1.7 2.9 3.7v5.6c-.1 1.1-.5 2.2-1.2 2.9z" class="i"/></g><g stroke="#0e162e" class="c d"><use xlink:href="#C" stroke-width="1.657"/><path d="M436.5 140.6h-2.8m37.3-4.7l-20.5.2" class="o"/></g><path d="M438.856 355.529h-88.1v-10.3h88.1z" class="j"/><path d="M376 345.2l13.1 10.3h-38.3v-10.3H376z" fill="#a3135f"/><path d="M240.7 355.5h138.8L346 259.8H207.2z" class="j"/><path d="M377 344.5H237.5" stroke="#fff" stroke-width="1.311" class="c d"/><circle cx="293.9" cy="310.4" r="8.7" class="e"/><path d="M619.3 368.752H52.7v-14.9h566.6z" fill="#000664"/><g class="k"><path d="M556.1 354.4h0c10.8 0 19.6-8.8 19.6-19.6v-27.5h-39.2v27.5c0 10.8 8.8 19.6 19.6 19.6z"/><path d="M560.6 343.3c7.8-5.6 12.7-13.9 15.1-22.9v14.3c0 10.8-8.8 19.6-19.6 19.6h0c-5.1 0-9.8-2-13.3-5.2 6 .2 12.1-1.7 17.8-5.8z"/></g><circle cx="535.2" cy="327.3" r="14.8" stroke-width="2.622" class="c l"/><path d="M557.9 302.1c2.7-3.5 5.1-7.3 7.1-11.3 1.3-2.7 2.5-5.5 2.6-8.4.1-3-1.1-6.1-3.5-7.7-3.7-2.4-9-.5-11.4 3.2s-2.3 8.5-1 12.8c1.2 4.2 3.4 8.1 5.1 12.2m-6.2.1c-.7-1.5-1.5-3-3-3.8-1.4-.8-3.6-.5-4.2 1-.5 1.3.5 2.8 1.8 3.4s2.8.5 4.2.3" opacity=".61" class="e"/><path d="M247.8 208.3L272 167c.2-.2.5-.1.5.2v35.1c0 .1-.1.2-.2.2-.9.5-1.4 1.8-.5 3 0 0 0 .1.1.1 1.5 1.1 3.2.1 3.2-1.4a1.78 1.78 0 0 0-1-1.6c-.1-.1-.2-.1-.2-.3v-35.1c0-.3.4-.4.5-.2l24.3 40.4c.1.1.1.2 0 .3l-12 25.4h-27.1l-11.9-24.6s0-.1.1-.2zm13.3 37.7h24.4a1.58 1.58 0 0 0 1.6-1.6v-10c0-.2-.1-.3-.3-.3h-26.9c-.2 0-.3.1-.3.3v10c-.1.9.6 1.6 1.5 1.6z" class="f"/><path d="M310.5 121.2c0 20.6-16.7 37.3-37.3 37.3m-37.4 37.9c0-20.6 16.7-37.3 37.3-37.3" class="c d l p"/><path d="M313.261 124.423h-5.5v-5.5h5.5zm-74.201 73.706h-5.5v-5.5h5.5z" class="f"/><path d="M322 158.8h-98.6" class="c d l p"/><path d="M276.16 162.069h-5.5v-5.5h5.5zm48.691 0h-5.5v-5.5h5.5zm-97.58 0h-5.5v-5.5h5.5z" class="f"/><path d="M554.3 115.1l-44 .5c-1.6 0-3 .9-3.6 2.3l-4 8.7c-.2.5-.9.3-.9-.2l-.4-10.7-.4-42.9c0-4.2 3.3-7.6 7.5-7.7l45.5-.5c4.2 0 7.6 3.3 7.7 7.5l.4 35.3c-.3 4.2-3.6 7.6-7.8 7.7z" opacity=".22" fill="#a0a0a0"/><path d="M532.3 105.2l8.2-.1c.3 0 .6-.3.5-.6l-.1-14.3c0-.3-.3-.6-.6-.5l-8.2.1c-.3 0-.6.3-.5.6l.1 14.3c0 .2.2.5.6.5z" class="j"/><path d="M542.5 105.1l8.4-.1c.2 0 .4-.2.4-.4l-.1-8.4c0-.2-.2-.4-.4-.4l-8.4.1c-.2 0-.4.2-.4.4l.1 8.4c0 .2.2.4.4.4z" class="k"/><path d="M521.9 105.3l8.2-.1c.3 0 .6-.3.5-.6l-.2-22.6c0-.3-.3-.6-.6-.5l-8.2.1c-.3 0-.6.3-.5.6l.2 22.6c.1.2.3.5.6.5z" class="g"/><path d="M512.9 105.4l6.6-.1c.5 0 .9-.4.9-.9l-.3-28.8c0-.5-.4-.9-.9-.9l-6.6.1c-.5 0-.9.4-.9.9l.3 28.8c0 .5.4.9.9.9z" class="f"/><circle cx="151.1" cy="241.4" r="22" class="j"/><circle cx="182.4" cy="242.3" r="22" class="g"/><circle cx="166.1" cy="269.1" r="22" class="k"/><g class="c d m n"><path d="M99.1 298.2v2.6h2.6"/><path d="M107 300.8h123.2" class="q"/><path d="M232.9 300.8h2.6v-2.6"/><path d="M235.5 293.2v-77.5" class="r"/><path d="M235.5 213.2v-2.6h-2.6"/><path d="M227.6 210.6H104.4" class="q"/><path d="M101.7 210.6h-2.6v2.6"/><path d="M99.1 218.2v77.5" class="r"/></g><path d="M237.175 214.808h-6.4v-6.4h6.4zm-134.569 0h-6.4v-6.4h6.4zm134.569 87.247h-6.4v-6.4h6.4zm-134.569 0h-6.4v-6.4h6.4z" stroke="#222221" stroke-width="1.744" class="e d"/><path d="M133.6 306.8l4.3 12.3c.4 1.2 2.1 1.2 2.5 0l8.4-27.2c.3-1-.7-2-1.7-1.6l-27.2 9.2c-1.2.4-1.2 2.1 0 2.5l12.9 4.1c.3 0 .6.3.8.7z" class="f"/><circle transform="matrix(1 -.001118 .001118 1 -.1543 .1977)" cx="176.7" cy="138.1" r="8.1" class="g"/><path d="M176.731 138.721l-34.3.038-.022-19.8 34.3-.038z" class="c d m n s"/><circle transform="matrix(1 -.001114 .001114 1 -.2515 .6427)" cx="576.7" cy="226" r="6.1" class="k"/><path d="M598.454 225.946l-23.5.026-.052-46.2 23.5-.026z" class="c d m n s"/><defs ><path id="B" d="M440.7 146.1h5.4a4.23 4.23 0 0 0 4.2-4.2v-5a4.23 4.23 0 0 0-4.2-4.2h-5.4a4.23 4.23 0 0 0-4.2 4.2v5a4.23 4.23 0 0 0 4.2 4.2z"/><path id="C" d="M427.4 145.9h2.8a3.33 3.33 0 0 0 3.3-3.3v-6.5a3.33 3.33 0 0 0-3.3-3.3h-2.8a3.33 3.33 0 0 0-3.3 3.3v6.5c0 1.9 1.5 3.3 3.3 3.3z"/></defs></svg>