<svg xmlns="http://www.w3.org/2000/svg" xmlns:xlink="http://www.w3.org/1999/xlink" width="100" height="100" viewBox="0 0 100 100">
  <defs>
    <clipPath id="clip-web">
      <rect width="100" height="100"/>
    </clipPath>
  </defs>
  <g id="web" clip-path="url(#clip-web)">
    <rect width="100" height="100" fill="#fff"/>
    <g id="noun_web_4178896" transform="translate(7.523 -3)">
      <path id="Path_32" data-name="Path 32" d="M72.2,66.622A19.579,19.579,0,1,0,91.779,86.2,19.579,19.579,0,0,0,72.2,66.622ZM84.509,77.531H81.124a22.67,22.67,0,0,0-1.917-4.66A15.17,15.17,0,0,1,84.509,77.531Zm2.756,8.67a15.022,15.022,0,0,1-.586,4.154l-4.636,0a33.465,33.465,0,0,0,0-8.312h4.634a15.026,15.026,0,0,1,.588,4.156ZM72.2,101.024a13.436,13.436,0,0,1-4.172-6.154h8.344A13.436,13.436,0,0,1,72.2,101.024ZM66.913,90.357a28.881,28.881,0,0,1,0-8.312H77.489a28.88,28.88,0,0,1,0,8.312ZM57.136,86.2a15.022,15.022,0,0,1,.586-4.154l4.636,0a33.466,33.466,0,0,0,0,8.312H57.723a15.025,15.025,0,0,1-.588-4.156ZM72.2,71.377a13.436,13.436,0,0,1,4.172,6.154H68.029A13.455,13.455,0,0,1,72.2,71.377Zm-7.009,1.494a22.645,22.645,0,0,0-1.917,4.66H59.89A15.165,15.165,0,0,1,65.192,72.871Zm-5.3,22h3.385a22.669,22.669,0,0,0,1.917,4.66A15.17,15.17,0,0,1,59.892,94.87ZM79.21,99.53a22.669,22.669,0,0,0,1.917-4.66h3.385a15.17,15.17,0,0,1-5.3,4.66Z" transform="translate(-29.801 -27.225)" fill="#2c39f2"/>
      <path id="Path_33" data-name="Path 33" d="M79.505,17h-66.5a7.682,7.682,0,0,0-7.673,7.673V80.64a7.682,7.682,0,0,0,7.673,7.673h66.5a7.682,7.682,0,0,0,7.673-7.673V24.673A7.682,7.682,0,0,0,79.505,17Zm-66.5,4.514h66.5a3.163,3.163,0,0,1,3.159,3.159v4.965H9.847V24.673A3.163,3.163,0,0,1,13.006,21.514ZM79.505,83.8h-66.5A3.163,3.163,0,0,1,9.847,80.64V34.151H82.665V80.64A3.163,3.163,0,0,1,79.505,83.8Z" transform="translate(-3.856)" fill="#2c39f2"/>
      <path id="Path_34" data-name="Path 34" d="M22.59,35.514h1.956a2.257,2.257,0,1,0,0-4.514H22.59a2.257,2.257,0,0,0,0,4.514Z" transform="translate(-12.086 -7.681)" fill="#2c39f2"/>
      <path id="Path_35" data-name="Path 35" d="M38.59,35.514h1.956a2.257,2.257,0,1,0,0-4.514H38.59a2.257,2.257,0,1,0,0,4.514Z" transform="translate(-20.864 -7.681)" fill="#2c39f2"/>
      <path id="Path_36" data-name="Path 36" d="M55.59,35.514h1.956a2.257,2.257,0,1,0,0-4.514H55.59a2.257,2.257,0,1,0,0,4.514Z" transform="translate(-30.191 -7.681)" fill="#2c39f2"/>
    </g>
  </g>
</svg>
